<svg width="211" height="80" viewBox="0 0 211 80" fill="none" xmlns="http://www.w3.org/2000/svg">
<path id="Shape" d="M210 1.5C210.276 1.5 210.5 1.27614 210.5 1C210.5 0.723858 210.276 0.5 210 0.5V1.5ZM3.64645 79.3536C3.84171 79.5488 4.15829 79.5488 4.35355 79.3536L7.53553 76.1716C7.7308 75.9763 7.7308 75.6597 7.53553 75.4645C7.34027 75.2692 7.02369 75.2692 6.82843 75.4645L4 78.2929L1.17157 75.4645C0.976311 75.2692 0.659728 75.2692 0.464466 75.4645C0.269204 75.6597 0.269204 75.9763 0.464466 76.1716L3.64645 79.3536ZM4.5 78.0357C4.5 77.7596 4.27614 77.5357 4 77.5357C3.72386 77.5357 3.5 77.7596 3.5 78.0357H4.5ZM3.5 76.1071C3.5 76.3833 3.72386 76.6071 4 76.6071C4.27614 76.6071 4.5 76.3833 4.5 76.1071H3.5ZM4.5 74.1786C4.5 73.9024 4.27614 73.6786 4 73.6786C3.72386 73.6786 3.5 73.9024 3.5 74.1786H4.5ZM3.5 72.25C3.5 72.5261 3.72386 72.75 4 72.75C4.27614 72.75 4.5 72.5261 4.5 72.25H3.5ZM4.5 70.3214C4.5 70.0453 4.27614 69.8214 4 69.8214C3.72386 69.8214 3.5 70.0453 3.5 70.3214H4.5ZM3.5 68.3929C3.5 68.669 3.72386 68.8929 4 68.8929C4.27614 68.8929 4.5 68.669 4.5 68.3929H3.5ZM4.5 66.4643C4.5 66.1881 4.27614 65.9643 4 65.9643C3.72386 65.9643 3.5 66.1881 3.5 66.4643H4.5ZM3.5 64.5357C3.5 64.8119 3.72386 65.0357 4 65.0357C4.27614 65.0357 4.5 64.8119 4.5 64.5357H3.5ZM4.5 62.6071C4.5 62.331 4.27614 62.1071 4 62.1071C3.72386 62.1071 3.5 62.331 3.5 62.6071H4.5ZM3.5 60.6786C3.5 60.9547 3.72386 61.1786 4 61.1786C4.27614 61.1786 4.5 60.9547 4.5 60.6786H3.5ZM4.5 58.75C4.5 58.4739 4.27614 58.25 4 58.25C3.72386 58.25 3.5 58.4739 3.5 58.75H4.5ZM3.5 56.8214C3.5 57.0976 3.72386 57.3214 4 57.3214C4.27614 57.3214 4.5 57.0976 4.5 56.8214H3.5ZM4.5 54.8929C4.5 54.6167 4.27614 54.3929 4 54.3929C3.72386 54.3929 3.5 54.6167 3.5 54.8929H4.5ZM3.5 52.9643C3.5 53.2404 3.72386 53.4643 4 53.4643C4.27614 53.4643 4.5 53.2404 4.5 52.9643H3.5ZM4.5 51.0357C4.5 50.7596 4.27614 50.5357 4 50.5357C3.72386 50.5357 3.5 50.7596 3.5 51.0357H4.5ZM3.5 49.1071C3.5 49.3833 3.72386 49.6071 4 49.6071C4.27614 49.6071 4.5 49.3833 4.5 49.1071H3.5ZM4.5 47.1786C4.5 46.9024 4.27614 46.6786 4 46.6786C3.72386 46.6786 3.5 46.9024 3.5 47.1786H4.5ZM3.5 45.25C3.5 45.5261 3.72386 45.75 4 45.75C4.27614 45.75 4.5 45.5261 4.5 45.25H3.5ZM4.5 43.3214C4.5 43.0453 4.27614 42.8214 4 42.8214C3.72386 42.8214 3.5 43.0453 3.5 43.3214H4.5ZM3.5 41.3929C3.5 41.669 3.72386 41.8929 4 41.8929C4.27614 41.8929 4.5 41.669 4.5 41.3929H3.5ZM4.5 39.4643C4.5 39.1881 4.27614 38.9643 4 38.9643C3.72386 38.9643 3.5 39.1881 3.5 39.4643H4.5ZM3.5 37.5357C3.5 37.8119 3.72386 38.0357 4 38.0357C4.27614 38.0357 4.5 37.8119 4.5 37.5357H3.5ZM4.5 35.6071C4.5 35.331 4.27614 35.1071 4 35.1071C3.72386 35.1071 3.5 35.331 3.5 35.6071H4.5ZM3.5 33.6786C3.5 33.9547 3.72386 34.1786 4 34.1786C4.27614 34.1786 4.5 33.9547 4.5 33.6786H3.5ZM4.5 31.75C4.5 31.4739 4.27614 31.25 4 31.25C3.72386 31.25 3.5 31.4739 3.5 31.75H4.5ZM3.5 29.8214C3.5 30.0976 3.72386 30.3214 4 30.3214C4.27614 30.3214 4.5 30.0976 4.5 29.8214H3.5ZM4.5 27.8929C4.5 27.6167 4.27614 27.3929 4 27.3929C3.72386 27.3929 3.5 27.6167 3.5 27.8929H4.5ZM3.5 25.9643C3.5 26.2404 3.72386 26.4643 4 26.4643C4.27614 26.4643 4.5 26.2404 4.5 25.9643H3.5ZM4.52201 23.9735C4.53386 23.6977 4.31982 23.4644 4.04393 23.4525C3.76804 23.4407 3.53478 23.6547 3.52293 23.9306L4.52201 23.9735ZM3.70706 21.8007C3.67134 22.0745 3.86436 22.3255 4.13818 22.3612C4.412 22.3969 4.66294 22.2039 4.69865 21.9301L3.70706 21.8007ZM5.0524 19.911C5.11192 19.6413 4.94158 19.3745 4.67193 19.315C4.40228 19.2554 4.13543 19.4258 4.07591 19.6954L5.0524 19.911ZM4.62785 17.6306C4.54488 17.894 4.69113 18.1748 4.95452 18.2578C5.2179 18.3407 5.49868 18.1945 5.58164 17.9311L4.62785 17.6306ZM6.283 16.0046C6.38877 15.7495 6.26774 15.457 6.01266 15.3512C5.75758 15.2455 5.46505 15.3665 5.35927 15.6216L6.283 16.0046ZM6.26405 13.6845C6.13634 13.9293 6.23128 14.2314 6.47612 14.3591C6.72095 14.4868 7.02296 14.3918 7.15068 14.147L6.26405 13.6845ZM8.17742 12.3724C8.32601 12.1396 8.25778 11.8305 8.02502 11.6819C7.79226 11.5333 7.48312 11.6015 7.33453 11.8343L8.17742 12.3724ZM8.56196 10.0845C8.39369 10.3035 8.43479 10.6174 8.65375 10.7856C8.87271 10.9539 9.18661 10.9128 9.35487 10.6938L8.56196 10.0845ZM10.6737 9.12372C10.8603 8.92018 10.8466 8.60389 10.643 8.41728C10.4395 8.23067 10.1232 8.24439 9.93661 8.44794L10.6737 9.12372ZM11.4479 6.9366C11.2444 7.12322 11.2307 7.4395 11.4173 7.64305C11.6039 7.84659 11.9202 7.86032 12.1237 7.6737L11.4479 6.9366ZM13.6938 6.35487C13.9128 6.18661 13.9539 5.87271 13.7856 5.65375C13.6174 5.43479 13.3035 5.39369 13.0845 5.56195L13.6938 6.35487ZM14.8343 4.33453C14.6015 4.48312 14.5333 4.79226 14.6819 5.02502C14.8305 5.25777 15.1396 5.32601 15.3724 5.17742L14.8343 4.33453ZM17.147 4.15068C17.3918 4.02296 17.4868 3.72095 17.3591 3.47612C17.2314 3.23128 16.9293 3.13634 16.6845 3.26405L17.147 4.15068ZM18.6216 2.35927C18.3665 2.46505 18.2455 2.75758 18.3512 3.01266C18.457 3.26774 18.7495 3.38877 19.0046 3.28299L18.6216 2.35927ZM20.9311 2.58164C21.1945 2.49868 21.3407 2.2179 21.2578 1.95452C21.1748 1.69113 20.894 1.54488 20.6306 1.62785L20.9311 2.58164ZM22.6954 1.0759C22.4258 1.13543 22.2554 1.40228 22.315 1.67193C22.3745 1.94158 22.6413 2.11192 22.911 2.0524L22.6954 1.0759ZM24.9301 1.69865C25.2039 1.66294 25.3969 1.412 25.3612 1.13818C25.3255 0.864359 25.0745 0.671337 24.8007 0.707055L24.9301 1.69865ZM26.9306 0.522927C26.6547 0.53478 26.4407 0.76804 26.4525 1.04393C26.4644 1.31982 26.6977 1.53386 26.9735 1.52201L26.9306 0.522927ZM28.9891 1.5C29.2653 1.5 29.4891 1.27614 29.4891 1C29.4891 0.723858 29.2653 0.5 28.9891 0.5V1.5ZM30.9674 0.5C30.6912 0.5 30.4674 0.723858 30.4674 1C30.4674 1.27614 30.6912 1.5 30.9674 1.5V0.5ZM32.9457 1.5C33.2218 1.5 33.4457 1.27614 33.4457 1C33.4457 0.723858 33.2218 0.5 32.9457 0.5V1.5ZM34.9239 0.5C34.6478 0.5 34.4239 0.723858 34.4239 1C34.4239 1.27614 34.6478 1.5 34.9239 1.5V0.5ZM36.9022 1.5C37.1783 1.5 37.4022 1.27614 37.4022 1C37.4022 0.723858 37.1783 0.5 36.9022 0.5V1.5ZM38.8804 0.5C38.6043 0.5 38.3804 0.723858 38.3804 1C38.3804 1.27614 38.6043 1.5 38.8804 1.5V0.5ZM40.8587 1.5C41.1348 1.5 41.3587 1.27614 41.3587 1C41.3587 0.723858 41.1348 0.5 40.8587 0.5V1.5ZM42.837 0.5C42.5608 0.5 42.337 0.723858 42.337 1C42.337 1.27614 42.5608 1.5 42.837 1.5V0.5ZM44.8152 1.5C45.0914 1.5 45.3152 1.27614 45.3152 1C45.3152 0.723858 45.0914 0.5 44.8152 0.5V1.5ZM46.7935 0.5C46.5173 0.5 46.2935 0.723858 46.2935 1C46.2935 1.27614 46.5173 1.5 46.7935 1.5V0.5ZM48.7717 1.5C49.0479 1.5 49.2717 1.27614 49.2717 1C49.2717 0.723858 49.0479 0.5 48.7717 0.5V1.5ZM50.75 0.5C50.4739 0.5 50.25 0.723858 50.25 1C50.25 1.27614 50.4739 1.5 50.75 1.5V0.5ZM52.7283 1.5C53.0044 1.5 53.2283 1.27614 53.2283 1C53.2283 0.723858 53.0044 0.5 52.7283 0.5V1.5ZM54.7065 0.5C54.4304 0.5 54.2065 0.723858 54.2065 1C54.2065 1.27614 54.4304 1.5 54.7065 1.5V0.5ZM56.6848 1.5C56.9609 1.5 57.1848 1.27614 57.1848 1C57.1848 0.723858 56.9609 0.5 56.6848 0.5V1.5ZM58.663 0.5C58.3869 0.5 58.163 0.723858 58.163 1C58.163 1.27614 58.3869 1.5 58.663 1.5V0.5ZM60.6413 1.5C60.9174 1.5 61.1413 1.27614 61.1413 1C61.1413 0.723858 60.9174 0.5 60.6413 0.5V1.5ZM62.6196 0.5C62.3434 0.5 62.1196 0.723858 62.1196 1C62.1196 1.27614 62.3434 1.5 62.6196 1.5V0.5ZM64.5978 1.5C64.874 1.5 65.0978 1.27614 65.0978 1C65.0978 0.723858 64.874 0.5 64.5978 0.5V1.5ZM66.5761 0.5C66.2999 0.5 66.0761 0.723858 66.0761 1C66.0761 1.27614 66.2999 1.5 66.5761 1.5V0.5ZM68.5543 1.5C68.8305 1.5 69.0543 1.27614 69.0543 1C69.0543 0.723858 68.8305 0.5 68.5543 0.5V1.5ZM70.5326 0.5C70.2565 0.5 70.0326 0.723858 70.0326 1C70.0326 1.27614 70.2565 1.5 70.5326 1.5V0.5ZM72.5109 1.5C72.787 1.5 73.0109 1.27614 73.0109 1C73.0109 0.723858 72.787 0.5 72.5109 0.5V1.5ZM74.4891 0.5C74.213 0.5 73.9891 0.723858 73.9891 1C73.9891 1.27614 74.213 1.5 74.4891 1.5V0.5ZM76.4674 1.5C76.7435 1.5 76.9674 1.27614 76.9674 1C76.9674 0.723858 76.7435 0.5 76.4674 0.5V1.5ZM78.4456 0.5C78.1695 0.5 77.9456 0.723858 77.9456 1C77.9456 1.27614 78.1695 1.5 78.4456 1.5V0.5ZM80.4239 1.5C80.7 1.5 80.9239 1.27614 80.9239 1C80.9239 0.723858 80.7 0.5 80.4239 0.5V1.5ZM82.4022 0.5C82.126 0.5 81.9022 0.723858 81.9022 1C81.9022 1.27614 82.126 1.5 82.4022 1.5V0.5ZM84.3804 1.5C84.6566 1.5 84.8804 1.27614 84.8804 1C84.8804 0.723858 84.6566 0.5 84.3804 0.5V1.5ZM86.3587 0.5C86.0825 0.5 85.8587 0.723858 85.8587 1C85.8587 1.27614 86.0825 1.5 86.3587 1.5V0.5ZM88.3369 1.5C88.6131 1.5 88.8369 1.27614 88.8369 1C88.8369 0.723858 88.6131 0.5 88.3369 0.5V1.5ZM90.3152 0.5C90.0391 0.5 89.8152 0.723858 89.8152 1C89.8152 1.27614 90.0391 1.5 90.3152 1.5V0.5ZM92.2935 1.5C92.5696 1.5 92.7935 1.27614 92.7935 1C92.7935 0.723858 92.5696 0.5 92.2935 0.5V1.5ZM94.2717 0.5C93.9956 0.5 93.7717 0.723858 93.7717 1C93.7717 1.27614 93.9956 1.5 94.2717 1.5V0.5ZM96.25 1.5C96.5261 1.5 96.75 1.27614 96.75 1C96.75 0.723858 96.5261 0.5 96.25 0.5V1.5ZM98.2283 0.5C97.9521 0.5 97.7283 0.723858 97.7283 1C97.7283 1.27614 97.9521 1.5 98.2283 1.5V0.5ZM100.207 1.5C100.483 1.5 100.707 1.27614 100.707 1C100.707 0.723858 100.483 0.5 100.207 0.5V1.5ZM102.185 0.5C101.909 0.5 101.685 0.723858 101.685 1C101.685 1.27614 101.909 1.5 102.185 1.5V0.5ZM104.163 1.5C104.439 1.5 104.663 1.27614 104.663 1C104.663 0.723858 104.439 0.5 104.163 0.5V1.5ZM106.141 0.5C105.865 0.5 105.641 0.723858 105.641 1C105.641 1.27614 105.865 1.5 106.141 1.5V0.5ZM108.12 1.5C108.396 1.5 108.62 1.27614 108.62 1C108.62 0.723858 108.396 0.5 108.12 0.5V1.5ZM110.098 0.5C109.822 0.5 109.598 0.723858 109.598 1C109.598 1.27614 109.822 1.5 110.098 1.5V0.5ZM112.076 1.5C112.352 1.5 112.576 1.27614 112.576 1C112.576 0.723858 112.352 0.5 112.076 0.5V1.5ZM114.054 0.5C113.778 0.5 113.554 0.723858 113.554 1C113.554 1.27614 113.778 1.5 114.054 1.5V0.5ZM116.033 1.5C116.309 1.5 116.533 1.27614 116.533 1C116.533 0.723858 116.309 0.5 116.033 0.5V1.5ZM118.011 0.5C117.735 0.5 117.511 0.723858 117.511 1C117.511 1.27614 117.735 1.5 118.011 1.5V0.5ZM119.989 1.5C120.265 1.5 120.489 1.27614 120.489 1C120.489 0.723858 120.265 0.5 119.989 0.5V1.5ZM121.967 0.5C121.691 0.5 121.467 0.723858 121.467 1C121.467 1.27614 121.691 1.5 121.967 1.5V0.5ZM123.946 1.5C124.222 1.5 124.446 1.27614 124.446 1C124.446 0.723858 124.222 0.5 123.946 0.5V1.5ZM125.924 0.5C125.648 0.5 125.424 0.723858 125.424 1C125.424 1.27614 125.648 1.5 125.924 1.5V0.5ZM127.902 1.5C128.178 1.5 128.402 1.27614 128.402 1C128.402 0.723858 128.178 0.5 127.902 0.5V1.5ZM129.88 0.5C129.604 0.5 129.38 0.723858 129.38 1C129.38 1.27614 129.604 1.5 129.88 1.5V0.5ZM131.859 1.5C132.135 1.5 132.359 1.27614 132.359 1C132.359 0.723858 132.135 0.5 131.859 0.5V1.5ZM133.837 0.5C133.561 0.5 133.337 0.723858 133.337 1C133.337 1.27614 133.561 1.5 133.837 1.5V0.5ZM135.815 1.5C136.091 1.5 136.315 1.27614 136.315 1C136.315 0.723858 136.091 0.5 135.815 0.5V1.5ZM137.794 0.5C137.517 0.5 137.294 0.723858 137.294 1C137.294 1.27614 137.517 1.5 137.794 1.5V0.5ZM139.772 1.5C140.048 1.5 140.272 1.27614 140.272 1C140.272 0.723858 140.048 0.5 139.772 0.5V1.5ZM141.75 0.5C141.474 0.5 141.25 0.723858 141.25 1C141.25 1.27614 141.474 1.5 141.75 1.5V0.5ZM143.728 1.5C144.004 1.5 144.228 1.27614 144.228 1C144.228 0.723858 144.004 0.5 143.728 0.5V1.5ZM145.707 0.5C145.43 0.5 145.207 0.723858 145.207 1C145.207 1.27614 145.43 1.5 145.707 1.5V0.5ZM147.685 1.5C147.961 1.5 148.185 1.27614 148.185 1C148.185 0.723858 147.961 0.5 147.685 0.5V1.5ZM149.663 0.5C149.387 0.5 149.163 0.723858 149.163 1C149.163 1.27614 149.387 1.5 149.663 1.5V0.5ZM151.641 1.5C151.918 1.5 152.141 1.27614 152.141 1C152.141 0.723858 151.918 0.5 151.641 0.5V1.5ZM153.62 0.5C153.344 0.5 153.12 0.723858 153.12 1C153.12 1.27614 153.344 1.5 153.62 1.5V0.5ZM155.598 1.5C155.874 1.5 156.098 1.27614 156.098 1C156.098 0.723858 155.874 0.5 155.598 0.5V1.5ZM157.576 0.5C157.3 0.5 157.076 0.723858 157.076 1C157.076 1.27614 157.3 1.5 157.576 1.5V0.5ZM159.554 1.5C159.831 1.5 160.054 1.27614 160.054 1C160.054 0.723858 159.831 0.5 159.554 0.5V1.5ZM161.533 0.5C161.257 0.5 161.033 0.723858 161.033 1C161.033 1.27614 161.257 1.5 161.533 1.5V0.5ZM163.511 1.5C163.787 1.5 164.011 1.27614 164.011 1C164.011 0.723858 163.787 0.5 163.511 0.5V1.5ZM165.489 0.5C165.213 0.5 164.989 0.723858 164.989 1C164.989 1.27614 165.213 1.5 165.489 1.5V0.5ZM167.467 1.5C167.744 1.5 167.967 1.27614 167.967 1C167.967 0.723858 167.744 0.5 167.467 0.5V1.5ZM169.446 0.5C169.17 0.5 168.946 0.723858 168.946 1C168.946 1.27614 169.17 1.5 169.446 1.5V0.5ZM171.424 1.5C171.7 1.5 171.924 1.27614 171.924 1C171.924 0.723858 171.7 0.5 171.424 0.5V1.5ZM173.402 0.5C173.126 0.5 172.902 0.723858 172.902 1C172.902 1.27614 173.126 1.5 173.402 1.5V0.5ZM175.38 1.5C175.657 1.5 175.88 1.27614 175.88 1C175.88 0.723858 175.657 0.5 175.38 0.5V1.5ZM177.359 0.5C177.083 0.5 176.859 0.723858 176.859 1C176.859 1.27614 177.083 1.5 177.359 1.5V0.5ZM179.337 1.5C179.613 1.5 179.837 1.27614 179.837 1C179.837 0.723858 179.613 0.5 179.337 0.5V1.5ZM181.315 0.5C181.039 0.5 180.815 0.723858 180.815 1C180.815 1.27614 181.039 1.5 181.315 1.5V0.5ZM183.294 1.5C183.57 1.5 183.794 1.27614 183.794 1C183.794 0.723858 183.57 0.5 183.294 0.5V1.5ZM185.272 0.5C184.996 0.5 184.772 0.723858 184.772 1C184.772 1.27614 184.996 1.5 185.272 1.5V0.5ZM187.25 1.5C187.526 1.5 187.75 1.27614 187.75 1C187.75 0.723858 187.526 0.5 187.25 0.5V1.5ZM189.228 0.5C188.952 0.5 188.728 0.723858 188.728 1C188.728 1.27614 188.952 1.5 189.228 1.5V0.5ZM191.207 1.5C191.483 1.5 191.707 1.27614 191.707 1C191.707 0.723858 191.483 0.5 191.207 0.5V1.5ZM193.185 0.5C192.909 0.5 192.685 0.723858 192.685 1C192.685 1.27614 192.909 1.5 193.185 1.5V0.5ZM195.163 1.5C195.439 1.5 195.663 1.27614 195.663 1C195.663 0.723858 195.439 0.5 195.163 0.5V1.5ZM197.141 0.5C196.865 0.5 196.641 0.723858 196.641 1C196.641 1.27614 196.865 1.5 197.141 1.5V0.5ZM199.12 1.5C199.396 1.5 199.62 1.27614 199.62 1C199.62 0.723858 199.396 0.5 199.12 0.5V1.5ZM201.098 0.5C200.822 0.5 200.598 0.723858 200.598 1C200.598 1.27614 200.822 1.5 201.098 1.5V0.5ZM203.076 1.5C203.352 1.5 203.576 1.27614 203.576 1C203.576 0.723858 203.352 0.5 203.076 0.5V1.5ZM205.054 0.5C204.778 0.5 204.554 0.723858 204.554 1C204.554 1.27614 204.778 1.5 205.054 1.5V0.5ZM207.033 1.5C207.309 1.5 207.533 1.27614 207.533 1C207.533 0.723858 207.309 0.5 207.033 0.5V1.5ZM209.011 0.5C208.735 0.5 208.511 0.723858 208.511 1C208.511 1.27614 208.735 1.5 209.011 1.5V0.5ZM4.5 79V78.0357H3.5V79H4.5ZM4.5 76.1071V74.1786H3.5V76.1071H4.5ZM4.5 72.25V70.3214H3.5V72.25H4.5ZM4.5 68.3929V66.4643H3.5V68.3929H4.5ZM4.5 64.5357V62.6071H3.5V64.5357H4.5ZM4.5 60.6786V58.75H3.5V60.6786H4.5ZM4.5 56.8214V54.8929H3.5V56.8214H4.5ZM4.5 52.9643V51.0357H3.5V52.9643H4.5ZM4.5 49.1071V47.1786H3.5V49.1071H4.5ZM4.5 45.25V43.3214H3.5V45.25H4.5ZM4.5 41.3929V39.4643H3.5V41.3929H4.5ZM4.5 37.5357V35.6071H3.5V37.5357H4.5ZM4.5 33.6786V31.75H3.5V33.6786H4.5ZM4.5 29.8214V27.8929H3.5V29.8214H4.5ZM4.5 25.9643V25H3.5V25.9643H4.5ZM4.5 25C4.5 24.656 4.50739 24.3138 4.52201 23.9735L3.52293 23.9306C3.50769 24.2852 3.5 24.6417 3.5 25H4.5ZM4.69865 21.9301C4.78771 21.2473 4.90606 20.5739 5.0524 19.911L4.07591 19.6954C3.9233 20.3867 3.7999 21.0889 3.70706 21.8007L4.69865 21.9301ZM5.58164 17.9311C5.78797 17.2761 6.02222 16.6335 6.283 16.0046L5.35927 15.6216C5.08732 16.2774 4.84303 16.9475 4.62785 17.6306L5.58164 17.9311ZM7.15068 14.147C7.46761 13.5394 7.81034 12.9474 8.17742 12.3724L7.33453 11.8343C6.95185 12.4338 6.59452 13.051 6.26405 13.6845L7.15068 14.147ZM9.35487 10.6938C9.77182 10.1513 10.2119 9.62741 10.6737 9.12372L9.93661 8.44794C9.45529 8.97292 8.99656 9.51896 8.56196 10.0845L9.35487 10.6938ZM12.1237 7.6737C12.6274 7.21192 13.1513 6.77182 13.6938 6.35487L13.0845 5.56195C12.519 5.99656 11.9729 6.45529 11.4479 6.9366L12.1237 7.6737ZM15.3724 5.17742C15.9474 4.81034 16.5394 4.46761 17.147 4.15068L16.6845 3.26405C16.051 3.59451 15.4338 3.95185 14.8343 4.33453L15.3724 5.17742ZM19.0046 3.28299C19.6335 3.02222 20.2761 2.78797 20.9311 2.58164L20.6306 1.62785C19.9475 1.84303 19.2774 2.08732 18.6216 2.35927L19.0046 3.28299ZM22.911 2.0524C23.5739 1.90606 24.2473 1.78771 24.9301 1.69865L24.8007 0.707055C24.0889 0.799899 23.3867 0.9233 22.6954 1.0759L22.911 2.0524ZM26.9735 1.52201C27.3138 1.50739 27.656 1.5 28 1.5V0.5C27.6417 0.5 27.2852 0.507694 26.9306 0.522927L26.9735 1.52201ZM28 1.5H28.9891V0.5H28V1.5ZM30.9674 1.5H32.9457V0.5H30.9674V1.5ZM34.9239 1.5H36.9022V0.5H34.9239V1.5ZM38.8804 1.5H40.8587V0.5H38.8804V1.5ZM42.837 1.5H44.8152V0.5H42.837V1.5ZM46.7935 1.5H48.7717V0.5H46.7935V1.5ZM50.75 1.5H52.7283V0.5H50.75V1.5ZM54.7065 1.5H56.6848V0.5H54.7065V1.5ZM58.663 1.5H60.6413V0.5H58.663V1.5ZM62.6196 1.5H64.5978V0.5H62.6196V1.5ZM66.5761 1.5H68.5543V0.5H66.5761V1.5ZM70.5326 1.5H72.5109V0.5H70.5326V1.5ZM74.4891 1.5H76.4674V0.5H74.4891V1.5ZM78.4456 1.5H80.4239V0.5H78.4456V1.5ZM82.4022 1.5H84.3804V0.5H82.4022V1.5ZM86.3587 1.5H88.3369V0.5H86.3587V1.5ZM90.3152 1.5H92.2935V0.5H90.3152V1.5ZM94.2717 1.5H96.25V0.5H94.2717V1.5ZM98.2283 1.5H100.207V0.5H98.2283V1.5ZM102.185 1.5H104.163V0.5H102.185V1.5ZM106.141 1.5H108.12V0.5H106.141V1.5ZM110.098 1.5H112.076V0.5H110.098V1.5ZM114.054 1.5H116.033V0.5H114.054V1.5ZM118.011 1.5H119.989V0.5H118.011V1.5ZM121.967 1.5H123.946V0.5H121.967V1.5ZM125.924 1.5H127.902V0.5H125.924V1.5ZM129.88 1.5H131.859V0.5H129.88V1.5ZM133.837 1.5H135.815V0.5H133.837V1.5ZM137.794 1.5H139.772V0.5H137.794V1.5ZM141.75 1.5H143.728V0.5H141.75V1.5ZM145.707 1.5H147.685V0.5H145.707V1.5ZM149.663 1.5H151.641V0.5H149.663V1.5ZM153.62 1.5H155.598V0.5H153.62V1.5ZM157.576 1.5H159.554V0.5H157.576V1.5ZM161.533 1.5H163.511V0.5H161.533V1.5ZM165.489 1.5H167.467V0.5H165.489V1.5ZM169.446 1.5H171.424V0.5H169.446V1.5ZM173.402 1.5H175.38V0.5H173.402V1.5ZM177.359 1.5H179.337V0.5H177.359V1.5ZM181.315 1.5H183.294V0.5H181.315V1.5ZM185.272 1.5H187.25V0.5H185.272V1.5ZM189.228 1.5H191.207V0.5H189.228V1.5ZM193.185 1.5H195.163V0.5H193.185V1.5ZM197.141 1.5H199.12V0.5H197.141V1.5ZM201.098 1.5H203.076V0.5H201.098V1.5ZM205.054 1.5H207.033V0.5H205.054V1.5ZM209.011 1.5H210V0.5H209.011V1.5Z" fill="#BDBDBD"/>
</svg>
