<svg width="211" height="80" viewBox="0 0 211 80" fill="none" xmlns="http://www.w3.org/2000/svg">
<path id="Shape" d="M1 0.5C0.723858 0.5 0.5 0.723858 0.5 1C0.5 1.27614 0.723858 1.5 1 1.5V0.5ZM206.646 79.3536C206.842 79.5488 207.158 79.5488 207.354 79.3536L210.536 76.1716C210.731 75.9763 210.731 75.6597 210.536 75.4645C210.34 75.2692 210.024 75.2692 209.828 75.4645L207 78.2929L204.172 75.4645C203.976 75.2692 203.66 75.2692 203.464 75.4645C203.269 75.6597 203.269 75.9763 203.464 76.1716L206.646 79.3536ZM1.98913 1.5C2.26527 1.5 2.48913 1.27614 2.48913 1C2.48913 0.723858 2.26527 0.5 1.98913 0.5V1.5ZM3.96739 0.5C3.69125 0.5 3.46739 0.723858 3.46739 1C3.46739 1.27614 3.69125 1.5 3.96739 1.5V0.5ZM5.94565 1.5C6.22179 1.5 6.44565 1.27614 6.44565 1C6.44565 0.723858 6.22179 0.5 5.94565 0.5V1.5ZM7.92391 0.5C7.64777 0.5 7.42391 0.723858 7.42391 1C7.42391 1.27614 7.64777 1.5 7.92391 1.5V0.5ZM9.90217 1.5C10.1783 1.5 10.4022 1.27614 10.4022 1C10.4022 0.723858 10.1783 0.5 9.90217 0.5V1.5ZM11.8804 0.5C11.6043 0.5 11.3804 0.723858 11.3804 1C11.3804 1.27614 11.6043 1.5 11.8804 1.5V0.5ZM13.8587 1.5C14.1348 1.5 14.3587 1.27614 14.3587 1C14.3587 0.723858 14.1348 0.5 13.8587 0.5V1.5ZM15.837 0.5C15.5608 0.5 15.337 0.723858 15.337 1C15.337 1.27614 15.5608 1.5 15.837 1.5V0.5ZM17.8152 1.5C18.0914 1.5 18.3152 1.27614 18.3152 1C18.3152 0.723858 18.0914 0.5 17.8152 0.5V1.5ZM19.7935 0.5C19.5173 0.5 19.2935 0.723858 19.2935 1C19.2935 1.27614 19.5173 1.5 19.7935 1.5V0.5ZM21.7717 1.5C22.0479 1.5 22.2717 1.27614 22.2717 1C22.2717 0.723858 22.0479 0.5 21.7717 0.5V1.5ZM23.75 0.5C23.4739 0.5 23.25 0.723858 23.25 1C23.25 1.27614 23.4739 1.5 23.75 1.5V0.5ZM25.7283 1.5C26.0044 1.5 26.2283 1.27614 26.2283 1C26.2283 0.723858 26.0044 0.5 25.7283 0.5V1.5ZM27.7065 0.5C27.4304 0.5 27.2065 0.723858 27.2065 1C27.2065 1.27614 27.4304 1.5 27.7065 1.5V0.5ZM29.6848 1.5C29.9609 1.5 30.1848 1.27614 30.1848 1C30.1848 0.723858 29.9609 0.5 29.6848 0.5V1.5ZM31.663 0.5C31.3869 0.5 31.163 0.723858 31.163 1C31.163 1.27614 31.3869 1.5 31.663 1.5V0.5ZM33.6413 1.5C33.9174 1.5 34.1413 1.27614 34.1413 1C34.1413 0.723858 33.9174 0.5 33.6413 0.5V1.5ZM35.6196 0.5C35.3434 0.5 35.1196 0.723858 35.1196 1C35.1196 1.27614 35.3434 1.5 35.6196 1.5V0.5ZM37.5978 1.5C37.874 1.5 38.0978 1.27614 38.0978 1C38.0978 0.723858 37.874 0.5 37.5978 0.5V1.5ZM39.5761 0.5C39.2999 0.5 39.0761 0.723858 39.0761 1C39.0761 1.27614 39.2999 1.5 39.5761 1.5V0.5ZM41.5543 1.5C41.8305 1.5 42.0543 1.27614 42.0543 1C42.0543 0.723858 41.8305 0.5 41.5543 0.5V1.5ZM43.5326 0.5C43.2565 0.5 43.0326 0.723858 43.0326 1C43.0326 1.27614 43.2565 1.5 43.5326 1.5V0.5ZM45.5109 1.5C45.787 1.5 46.0109 1.27614 46.0109 1C46.0109 0.723858 45.787 0.5 45.5109 0.5V1.5ZM47.4891 0.5C47.213 0.5 46.9891 0.723858 46.9891 1C46.9891 1.27614 47.213 1.5 47.4891 1.5V0.5ZM49.4674 1.5C49.7435 1.5 49.9674 1.27614 49.9674 1C49.9674 0.723858 49.7435 0.5 49.4674 0.5V1.5ZM51.4456 0.5C51.1695 0.5 50.9456 0.723858 50.9456 1C50.9456 1.27614 51.1695 1.5 51.4456 1.5V0.5ZM53.4239 1.5C53.7 1.5 53.9239 1.27614 53.9239 1C53.9239 0.723858 53.7 0.5 53.4239 0.5V1.5ZM55.4022 0.5C55.126 0.5 54.9022 0.723858 54.9022 1C54.9022 1.27614 55.126 1.5 55.4022 1.5V0.5ZM57.3804 1.5C57.6566 1.5 57.8804 1.27614 57.8804 1C57.8804 0.723858 57.6566 0.5 57.3804 0.5V1.5ZM59.3587 0.5C59.0825 0.5 58.8587 0.723858 58.8587 1C58.8587 1.27614 59.0825 1.5 59.3587 1.5V0.5ZM61.3369 1.5C61.6131 1.5 61.8369 1.27614 61.8369 1C61.8369 0.723858 61.6131 0.5 61.3369 0.5V1.5ZM63.3152 0.5C63.0391 0.5 62.8152 0.723858 62.8152 1C62.8152 1.27614 63.0391 1.5 63.3152 1.5V0.5ZM65.2935 1.5C65.5696 1.5 65.7935 1.27614 65.7935 1C65.7935 0.723858 65.5696 0.5 65.2935 0.5V1.5ZM67.2717 0.5C66.9956 0.5 66.7717 0.723858 66.7717 1C66.7717 1.27614 66.9956 1.5 67.2717 1.5V0.5ZM69.25 1.5C69.5261 1.5 69.75 1.27614 69.75 1C69.75 0.723858 69.5261 0.5 69.25 0.5V1.5ZM71.2283 0.5C70.9521 0.5 70.7283 0.723858 70.7283 1C70.7283 1.27614 70.9521 1.5 71.2283 1.5V0.5ZM73.2065 1.5C73.4827 1.5 73.7065 1.27614 73.7065 1C73.7065 0.723858 73.4827 0.5 73.2065 0.5V1.5ZM75.1848 0.5C74.9086 0.5 74.6848 0.723858 74.6848 1C74.6848 1.27614 74.9086 1.5 75.1848 1.5V0.5ZM77.163 1.5C77.4392 1.5 77.663 1.27614 77.663 1C77.663 0.723858 77.4392 0.5 77.163 0.5V1.5ZM79.1413 0.5C78.8652 0.5 78.6413 0.723858 78.6413 1C78.6413 1.27614 78.8652 1.5 79.1413 1.5V0.5ZM81.1196 1.5C81.3957 1.5 81.6196 1.27614 81.6196 1C81.6196 0.723858 81.3957 0.5 81.1196 0.5V1.5ZM83.0978 0.5C82.8217 0.5 82.5978 0.723858 82.5978 1C82.5978 1.27614 82.8217 1.5 83.0978 1.5V0.5ZM85.0761 1.5C85.3522 1.5 85.5761 1.27614 85.5761 1C85.5761 0.723858 85.3522 0.5 85.0761 0.5V1.5ZM87.0544 0.5C86.7782 0.5 86.5544 0.723858 86.5544 1C86.5544 1.27614 86.7782 1.5 87.0544 1.5V0.5ZM89.0326 1.5C89.3088 1.5 89.5326 1.27614 89.5326 1C89.5326 0.723858 89.3088 0.5 89.0326 0.5V1.5ZM91.0109 0.5C90.7348 0.5 90.5109 0.723858 90.5109 1C90.5109 1.27614 90.7348 1.5 91.0109 1.5V0.5ZM92.9892 1.5C93.2653 1.5 93.4892 1.27614 93.4892 1C93.4892 0.723858 93.2653 0.5 92.9892 0.5V1.5ZM94.9674 0.5C94.6913 0.5 94.4674 0.723858 94.4674 1C94.4674 1.27614 94.6913 1.5 94.9674 1.5V0.5ZM96.9457 1.5C97.2218 1.5 97.4457 1.27614 97.4457 1C97.4457 0.723858 97.2218 0.5 96.9457 0.5V1.5ZM98.924 0.5C98.6478 0.5 98.424 0.723858 98.424 1C98.424 1.27614 98.6478 1.5 98.924 1.5V0.5ZM100.902 1.5C101.178 1.5 101.402 1.27614 101.402 1C101.402 0.723858 101.178 0.5 100.902 0.5V1.5ZM102.88 0.5C102.604 0.5 102.38 0.723858 102.38 1C102.38 1.27614 102.604 1.5 102.88 1.5V0.5ZM104.859 1.5C105.135 1.5 105.359 1.27614 105.359 1C105.359 0.723858 105.135 0.5 104.859 0.5V1.5ZM106.837 0.5C106.561 0.5 106.337 0.723858 106.337 1C106.337 1.27614 106.561 1.5 106.837 1.5V0.5ZM108.815 1.5C109.091 1.5 109.315 1.27614 109.315 1C109.315 0.723858 109.091 0.5 108.815 0.5V1.5ZM110.794 0.5C110.517 0.5 110.294 0.723858 110.294 1C110.294 1.27614 110.517 1.5 110.794 1.5V0.5ZM112.772 1.5C113.048 1.5 113.272 1.27614 113.272 1C113.272 0.723858 113.048 0.5 112.772 0.5V1.5ZM114.75 0.5C114.474 0.5 114.25 0.723858 114.25 1C114.25 1.27614 114.474 1.5 114.75 1.5V0.5ZM116.728 1.5C117.004 1.5 117.228 1.27614 117.228 1C117.228 0.723858 117.004 0.5 116.728 0.5V1.5ZM118.707 0.5C118.43 0.5 118.207 0.723858 118.207 1C118.207 1.27614 118.43 1.5 118.707 1.5V0.5ZM120.685 1.5C120.961 1.5 121.185 1.27614 121.185 1C121.185 0.723858 120.961 0.5 120.685 0.5V1.5ZM122.663 0.5C122.387 0.5 122.163 0.723858 122.163 1C122.163 1.27614 122.387 1.5 122.663 1.5V0.5ZM124.641 1.5C124.918 1.5 125.141 1.27614 125.141 1C125.141 0.723858 124.918 0.5 124.641 0.5V1.5ZM126.62 0.5C126.344 0.5 126.12 0.723858 126.12 1C126.12 1.27614 126.344 1.5 126.62 1.5V0.5ZM128.598 1.5C128.874 1.5 129.098 1.27614 129.098 1C129.098 0.723858 128.874 0.5 128.598 0.5V1.5ZM130.576 0.5C130.3 0.5 130.076 0.723858 130.076 1C130.076 1.27614 130.3 1.5 130.576 1.5V0.5ZM132.554 1.5C132.831 1.5 133.054 1.27614 133.054 1C133.054 0.723858 132.831 0.5 132.554 0.5V1.5ZM134.533 0.5C134.257 0.5 134.033 0.723858 134.033 1C134.033 1.27614 134.257 1.5 134.533 1.5V0.5ZM136.511 1.5C136.787 1.5 137.011 1.27614 137.011 1C137.011 0.723858 136.787 0.5 136.511 0.5V1.5ZM138.489 0.5C138.213 0.5 137.989 0.723858 137.989 1C137.989 1.27614 138.213 1.5 138.489 1.5V0.5ZM140.467 1.5C140.744 1.5 140.967 1.27614 140.967 1C140.967 0.723858 140.744 0.5 140.467 0.5V1.5ZM142.446 0.5C142.17 0.5 141.946 0.723858 141.946 1C141.946 1.27614 142.17 1.5 142.446 1.5V0.5ZM144.424 1.5C144.7 1.5 144.924 1.27614 144.924 1C144.924 0.723858 144.7 0.5 144.424 0.5V1.5ZM146.402 0.5C146.126 0.5 145.902 0.723858 145.902 1C145.902 1.27614 146.126 1.5 146.402 1.5V0.5ZM148.38 1.5C148.657 1.5 148.88 1.27614 148.88 1C148.88 0.723858 148.657 0.5 148.38 0.5V1.5ZM150.359 0.5C150.083 0.5 149.859 0.723858 149.859 1C149.859 1.27614 150.083 1.5 150.359 1.5V0.5ZM152.337 1.5C152.613 1.5 152.837 1.27614 152.837 1C152.837 0.723858 152.613 0.5 152.337 0.5V1.5ZM154.315 0.5C154.039 0.5 153.815 0.723858 153.815 1C153.815 1.27614 154.039 1.5 154.315 1.5V0.5ZM156.294 1.5C156.57 1.5 156.794 1.27614 156.794 1C156.794 0.723858 156.57 0.5 156.294 0.5V1.5ZM158.272 0.5C157.996 0.5 157.772 0.723858 157.772 1C157.772 1.27614 157.996 1.5 158.272 1.5V0.5ZM160.25 1.5C160.526 1.5 160.75 1.27614 160.75 1C160.75 0.723858 160.526 0.5 160.25 0.5V1.5ZM162.228 0.5C161.952 0.5 161.728 0.723858 161.728 1C161.728 1.27614 161.952 1.5 162.228 1.5V0.5ZM164.207 1.5C164.483 1.5 164.707 1.27614 164.707 1C164.707 0.723858 164.483 0.5 164.207 0.5V1.5ZM166.185 0.5C165.909 0.5 165.685 0.723858 165.685 1C165.685 1.27614 165.909 1.5 166.185 1.5V0.5ZM168.163 1.5C168.439 1.5 168.663 1.27614 168.663 1C168.663 0.723858 168.439 0.5 168.163 0.5V1.5ZM170.141 0.5C169.865 0.5 169.641 0.723858 169.641 1C169.641 1.27614 169.865 1.5 170.141 1.5V0.5ZM172.12 1.5C172.396 1.5 172.62 1.27614 172.62 1C172.62 0.723858 172.396 0.5 172.12 0.5V1.5ZM174.098 0.5C173.822 0.5 173.598 0.723858 173.598 1C173.598 1.27614 173.822 1.5 174.098 1.5V0.5ZM176.076 1.5C176.352 1.5 176.576 1.27614 176.576 1C176.576 0.723858 176.352 0.5 176.076 0.5V1.5ZM178.054 0.5C177.778 0.5 177.554 0.723858 177.554 1C177.554 1.27614 177.778 1.5 178.054 1.5V0.5ZM180.033 1.5C180.309 1.5 180.533 1.27614 180.533 1C180.533 0.723858 180.309 0.5 180.033 0.5V1.5ZM182.011 0.5C181.735 0.5 181.511 0.723858 181.511 1C181.511 1.27614 181.735 1.5 182.011 1.5V0.5ZM184.026 1.52201C184.302 1.53386 184.536 1.31982 184.547 1.04393C184.559 0.76804 184.345 0.53478 184.069 0.522928L184.026 1.52201ZM186.199 0.707055C185.925 0.671337 185.675 0.864359 185.639 1.13818C185.603 1.412 185.796 1.66294 186.07 1.69865L186.199 0.707055ZM188.089 2.0524C188.359 2.11192 188.626 1.94158 188.685 1.67193C188.745 1.40228 188.574 1.13543 188.305 1.07591L188.089 2.0524ZM190.369 1.62785C190.106 1.54488 189.825 1.69113 189.742 1.95452C189.659 2.2179 189.806 2.49868 190.069 2.58164L190.369 1.62785ZM191.995 3.283C192.25 3.38877 192.543 3.26774 192.649 3.01266C192.755 2.75758 192.634 2.46505 192.378 2.35927L191.995 3.283ZM194.315 3.26405C194.071 3.13634 193.769 3.23129 193.641 3.47612C193.513 3.72095 193.608 4.02296 193.853 4.15068L194.315 3.26405ZM195.628 5.17742C195.86 5.32601 196.17 5.25778 196.318 5.02502C196.467 4.79226 196.398 4.48312 196.166 4.33453L195.628 5.17742ZM197.915 5.56196C197.697 5.3937 197.383 5.43479 197.214 5.65375C197.046 5.87271 197.087 6.18661 197.306 6.35488L197.915 5.56196ZM198.876 7.67371C199.08 7.86032 199.396 7.84659 199.583 7.64305C199.769 7.4395 199.756 7.12322 199.552 6.93661L198.876 7.67371ZM201.063 8.44794C200.877 8.2444 200.56 8.23067 200.357 8.41728C200.153 8.6039 200.14 8.92018 200.326 9.12373L201.063 8.44794ZM201.645 10.6938C201.813 10.9128 202.127 10.9539 202.346 10.7856C202.565 10.6174 202.606 10.3035 202.438 10.0845L201.645 10.6938ZM203.665 11.8343C203.517 11.6015 203.208 11.5333 202.975 11.6819C202.742 11.8305 202.674 12.1396 202.823 12.3724L203.665 11.8343ZM203.849 14.147C203.977 14.3918 204.279 14.4868 204.524 14.3591C204.769 14.2314 204.864 13.9293 204.736 13.6845L203.849 14.147ZM205.641 15.6216C205.535 15.3665 205.242 15.2455 204.987 15.3512C204.732 15.457 204.611 15.7495 204.717 16.0046L205.641 15.6216ZM205.418 17.9311C205.501 18.1945 205.782 18.3407 206.045 18.2578C206.309 18.1748 206.455 17.894 206.372 17.6306L205.418 17.9311ZM206.924 19.6954C206.865 19.4258 206.598 19.2554 206.328 19.315C206.058 19.3745 205.888 19.6413 205.948 19.911L206.924 19.6954ZM206.301 21.9301C206.337 22.2039 206.588 22.3969 206.862 22.3612C207.136 22.3255 207.329 22.0745 207.293 21.8007L206.301 21.9301ZM207.477 23.9306C207.465 23.6547 207.232 23.4407 206.956 23.4525C206.68 23.4644 206.466 23.6977 206.478 23.9735L207.477 23.9306ZM206.5 25.9643C206.5 26.2404 206.724 26.4643 207 26.4643C207.276 26.4643 207.5 26.2404 207.5 25.9643H206.5ZM207.5 27.8929C207.5 27.6167 207.276 27.3929 207 27.3929C206.724 27.3929 206.5 27.6167 206.5 27.8929H207.5ZM206.5 29.8214C206.5 30.0976 206.724 30.3214 207 30.3214C207.276 30.3214 207.5 30.0976 207.5 29.8214H206.5ZM207.5 31.75C207.5 31.4739 207.276 31.25 207 31.25C206.724 31.25 206.5 31.4739 206.5 31.75H207.5ZM206.5 33.6786C206.5 33.9547 206.724 34.1786 207 34.1786C207.276 34.1786 207.5 33.9547 207.5 33.6786H206.5ZM207.5 35.6071C207.5 35.331 207.276 35.1071 207 35.1071C206.724 35.1071 206.5 35.331 206.5 35.6071H207.5ZM206.5 37.5357C206.5 37.8119 206.724 38.0357 207 38.0357C207.276 38.0357 207.5 37.8119 207.5 37.5357H206.5ZM207.5 39.4643C207.5 39.1881 207.276 38.9643 207 38.9643C206.724 38.9643 206.5 39.1881 206.5 39.4643H207.5ZM206.5 41.3929C206.5 41.669 206.724 41.8929 207 41.8929C207.276 41.8929 207.5 41.669 207.5 41.3929H206.5ZM207.5 43.3214C207.5 43.0453 207.276 42.8214 207 42.8214C206.724 42.8214 206.5 43.0453 206.5 43.3214H207.5ZM206.5 45.25C206.5 45.5261 206.724 45.75 207 45.75C207.276 45.75 207.5 45.5261 207.5 45.25H206.5ZM207.5 47.1786C207.5 46.9024 207.276 46.6786 207 46.6786C206.724 46.6786 206.5 46.9024 206.5 47.1786H207.5ZM206.5 49.1071C206.5 49.3833 206.724 49.6071 207 49.6071C207.276 49.6071 207.5 49.3833 207.5 49.1071H206.5ZM207.5 51.0357C207.5 50.7596 207.276 50.5357 207 50.5357C206.724 50.5357 206.5 50.7596 206.5 51.0357H207.5ZM206.5 52.9643C206.5 53.2404 206.724 53.4643 207 53.4643C207.276 53.4643 207.5 53.2404 207.5 52.9643H206.5ZM207.5 54.8929C207.5 54.6167 207.276 54.3929 207 54.3929C206.724 54.3929 206.5 54.6167 206.5 54.8929H207.5ZM206.5 56.8214C206.5 57.0976 206.724 57.3214 207 57.3214C207.276 57.3214 207.5 57.0976 207.5 56.8214H206.5ZM207.5 58.75C207.5 58.4739 207.276 58.25 207 58.25C206.724 58.25 206.5 58.4739 206.5 58.75H207.5ZM206.5 60.6786C206.5 60.9547 206.724 61.1786 207 61.1786C207.276 61.1786 207.5 60.9547 207.5 60.6786H206.5ZM207.5 62.6071C207.5 62.331 207.276 62.1071 207 62.1071C206.724 62.1071 206.5 62.331 206.5 62.6071H207.5ZM206.5 64.5357C206.5 64.8119 206.724 65.0357 207 65.0357C207.276 65.0357 207.5 64.8119 207.5 64.5357H206.5ZM207.5 66.4643C207.5 66.1881 207.276 65.9643 207 65.9643C206.724 65.9643 206.5 66.1881 206.5 66.4643H207.5ZM206.5 68.3929C206.5 68.669 206.724 68.8929 207 68.8929C207.276 68.8929 207.5 68.669 207.5 68.3929H206.5ZM207.5 70.3214C207.5 70.0453 207.276 69.8214 207 69.8214C206.724 69.8214 206.5 70.0453 206.5 70.3214H207.5ZM206.5 72.25C206.5 72.5261 206.724 72.75 207 72.75C207.276 72.75 207.5 72.5261 207.5 72.25H206.5ZM207.5 74.1786C207.5 73.9024 207.276 73.6786 207 73.6786C206.724 73.6786 206.5 73.9024 206.5 74.1786H207.5ZM206.5 76.1071C206.5 76.3833 206.724 76.6071 207 76.6071C207.276 76.6071 207.5 76.3833 207.5 76.1071H206.5ZM207.5 78.0357C207.5 77.7596 207.276 77.5357 207 77.5357C206.724 77.5357 206.5 77.7596 206.5 78.0357H207.5ZM1 1.5H1.98913V0.5H1V1.5ZM3.96739 1.5H5.94565V0.5H3.96739V1.5ZM7.92391 1.5H9.90217V0.5H7.92391V1.5ZM11.8804 1.5H13.8587V0.5H11.8804V1.5ZM15.837 1.5H17.8152V0.5H15.837V1.5ZM19.7935 1.5H21.7717V0.5H19.7935V1.5ZM23.75 1.5H25.7283V0.5H23.75V1.5ZM27.7065 1.5H29.6848V0.5H27.7065V1.5ZM31.663 1.5H33.6413V0.5H31.663V1.5ZM35.6196 1.5H37.5978V0.5H35.6196V1.5ZM39.5761 1.5H41.5543V0.5H39.5761V1.5ZM43.5326 1.5H45.5109V0.5H43.5326V1.5ZM47.4891 1.5H49.4674V0.5H47.4891V1.5ZM51.4456 1.5H53.4239V0.5H51.4456V1.5ZM55.4022 1.5H57.3804V0.5H55.4022V1.5ZM59.3587 1.5H61.3369V0.5H59.3587V1.5ZM63.3152 1.5H65.2935V0.5H63.3152V1.5ZM67.2717 1.5H69.25V0.5H67.2717V1.5ZM71.2283 1.5H73.2065V0.5H71.2283V1.5ZM75.1848 1.5H77.163V0.5H75.1848V1.5ZM79.1413 1.5H81.1196V0.5H79.1413V1.5ZM83.0978 1.5H85.0761V0.5H83.0978V1.5ZM87.0544 1.5H89.0326V0.5H87.0544V1.5ZM91.0109 1.5H92.9892V0.5H91.0109V1.5ZM94.9674 1.5H96.9457V0.5H94.9674V1.5ZM98.924 1.5H100.902V0.5H98.924V1.5ZM102.88 1.5H104.859V0.5H102.88V1.5ZM106.837 1.5H108.815V0.5H106.837V1.5ZM110.794 1.5H112.772V0.5H110.794V1.5ZM114.75 1.5H116.728V0.5H114.75V1.5ZM118.707 1.5H120.685V0.5H118.707V1.5ZM122.663 1.5H124.641V0.5H122.663V1.5ZM126.62 1.5H128.598V0.5H126.62V1.5ZM130.576 1.5H132.554V0.5H130.576V1.5ZM134.533 1.5H136.511V0.5H134.533V1.5ZM138.489 1.5H140.467V0.5H138.489V1.5ZM142.446 1.5H144.424V0.5H142.446V1.5ZM146.402 1.5H148.38V0.5H146.402V1.5ZM150.359 1.5H152.337V0.5H150.359V1.5ZM154.315 1.5H156.294V0.5H154.315V1.5ZM158.272 1.5H160.25V0.5H158.272V1.5ZM162.228 1.5H164.207V0.5H162.228V1.5ZM166.185 1.5H168.163V0.5H166.185V1.5ZM170.141 1.5H172.12V0.5H170.141V1.5ZM174.098 1.5H176.076V0.5H174.098V1.5ZM178.054 1.5H180.033V0.5H178.054V1.5ZM182.011 1.5H183V0.5H182.011V1.5ZM183 1.5C183.344 1.5 183.686 1.50739 184.026 1.52201L184.069 0.522928C183.715 0.507694 183.358 0.5 183 0.5V1.5ZM186.07 1.69865C186.753 1.78771 187.426 1.90606 188.089 2.0524L188.305 1.07591C187.613 0.923301 186.911 0.799899 186.199 0.707055L186.07 1.69865ZM190.069 2.58164C190.724 2.78797 191.367 3.02222 191.995 3.283L192.378 2.35927C191.723 2.08732 191.052 1.84303 190.369 1.62785L190.069 2.58164ZM193.853 4.15068C194.461 4.46761 195.053 4.81034 195.628 5.17742L196.166 4.33453C195.566 3.95185 194.949 3.59452 194.315 3.26405L193.853 4.15068ZM197.306 6.35488C197.849 6.77182 198.373 7.21192 198.876 7.67371L199.552 6.93661C199.027 6.4553 198.481 5.99657 197.915 5.56196L197.306 6.35488ZM200.326 9.12373C200.788 9.62741 201.228 10.1513 201.645 10.6938L202.438 10.0845C202.003 9.51896 201.545 8.97292 201.063 8.44794L200.326 9.12373ZM202.823 12.3724C203.19 12.9474 203.532 13.5394 203.849 14.147L204.736 13.6845C204.405 13.051 204.048 12.4338 203.665 11.8343L202.823 12.3724ZM204.717 16.0046C204.978 16.6335 205.212 17.2761 205.418 17.9311L206.372 17.6306C206.157 16.9475 205.913 16.2774 205.641 15.6216L204.717 16.0046ZM205.948 19.911C206.094 20.5739 206.212 21.2473 206.301 21.9301L207.293 21.8007C207.2 21.0889 207.077 20.3867 206.924 19.6954L205.948 19.911ZM206.478 23.9735C206.493 24.3138 206.5 24.656 206.5 25H207.5C207.5 24.6417 207.492 24.2852 207.477 23.9306L206.478 23.9735ZM206.5 25V25.9643H207.5V25H206.5ZM206.5 27.8929V29.8214H207.5V27.8929H206.5ZM206.5 31.75V33.6786H207.5V31.75H206.5ZM206.5 35.6071V37.5357H207.5V35.6071H206.5ZM206.5 39.4643V41.3929H207.5V39.4643H206.5ZM206.5 43.3214V45.25H207.5V43.3214H206.5ZM206.5 47.1786V49.1071H207.5V47.1786H206.5ZM206.5 51.0357V52.9643H207.5V51.0357H206.5ZM206.5 54.8929V56.8214H207.5V54.8929H206.5ZM206.5 58.75V60.6786H207.5V58.75H206.5ZM206.5 62.6071V64.5357H207.5V62.6071H206.5ZM206.5 66.4643V68.3929H207.5V66.4643H206.5ZM206.5 70.3214V72.25H207.5V70.3214H206.5ZM206.5 74.1786V76.1071H207.5V74.1786H206.5ZM206.5 78.0357V79H207.5V78.0357H206.5Z" fill="#BDBDBD"/>
</svg>
