<svg width="160" height="160" viewBox="0 0 160 160" fill="none" xmlns="http://www.w3.org/2000/svg">
<g id="dollar icn">
<g id="dollar-coin-1--accounting-billing-payment-cash-coin-currency-money-finance">
<path id="Vector 3" d="M112.069 48.4477C111.558 47.0008 110.769 45.6851 109.766 44.5646C107.633 42.1814 104.533 40.6816 101.083 40.6816H92.0664C86.3235 40.6816 81.668 45.3372 81.668 51.0799C81.668 55.9666 85.0706 60.1939 89.8442 61.2381L103.572 64.2412C108.92 65.411 112.732 70.1502 112.732 75.6245C112.732 82.0581 107.517 87.2779 101.083 87.2779H93.3171C88.245 87.2779 83.93 84.0363 82.3308 79.5118" stroke="#070D14" stroke-width="2" stroke-linecap="round" stroke-linejoin="round"/>
<path id="Vector 2489" d="M97.1992 40.6804V29.0312" stroke="#070D14" stroke-width="2" stroke-linecap="round" stroke-linejoin="round"/>
<path id="Vector 2490" d="M97.1992 98.9264V87.2773" stroke="#070D14" stroke-width="2" stroke-linecap="round" stroke-linejoin="round"/>
<path id="Ellipse 19" d="M97.2009 119.874C128.072 119.874 153.098 94.8484 153.098 63.9772C153.098 33.1061 128.072 8.08008 97.2009 8.08008C66.3297 8.08008 41.3037 33.1061 41.3037 63.9772C41.3037 94.8484 66.3297 119.874 97.2009 119.874Z" stroke="#070D14" stroke-width="2" stroke-linecap="round" stroke-linejoin="round"/>
<path id="Ellipse 20" d="M13.7484 70.0996C9.45742 78.0114 7.02051 87.0752 7.02051 96.7082C7.02051 127.577 32.0446 152.601 62.9133 152.601C71.6616 152.601 79.9404 150.591 87.3132 147.008" stroke="#070D14" stroke-width="2" stroke-linecap="round" stroke-linejoin="round"/>
</g>
</g>
</svg>
