<svg width="66" height="77" viewBox="0 0 66 77" fill="none" xmlns="http://www.w3.org/2000/svg">
<g id="brain-cognitive--health-medical-brain-cognitive-specialities">
<path id="Vector" d="M18.7134 75.6434V61.3577H7.28488C5.76945 61.3577 4.31573 60.7554 3.2443 59.684C2.17288 58.612 1.57059 57.1588 1.57059 55.6432V32.786C1.57173 27.2004 3.06145 21.7161 5.88602 16.8975C8.71059 12.0788 12.7689 8.1001 17.642 5.37079C22.5154 2.6415 28.028 1.26026 33.6125 1.36927C39.197 1.47828 44.6516 3.0736 49.4147 5.99102C54.1778 8.90839 58.0773 13.0425 60.712 17.9676C63.3465 22.8928 64.6209 28.4312 64.404 34.0125C64.187 39.5939 62.4866 45.0166 59.4777 49.7224C56.4688 54.4282 52.2601 58.2468 47.2849 60.7863V75.6434" stroke="#01CA9A" stroke-width="2" stroke-linecap="round" stroke-linejoin="round"/>
<path id="Ellipse 53" d="M41.5697 17.4224C49.4526 21.9736 52.7322 31.4358 49.7753 39.7131C49.0926 41.6242 47.0297 42.5853 45.068 42.0656C35.1421 39.4361 25.036 32.3232 18.8962 26.7774C17.2695 25.3081 16.9328 22.8527 18.3818 21.208C24.1024 14.715 33.7871 12.9292 41.5697 17.4224Z" stroke="#01CA9A" stroke-width="2" stroke-linecap="round" stroke-linejoin="round"/>
</g>
</svg>
