<svg width="64" height="77" viewBox="0 0 64 77" fill="none" xmlns="http://www.w3.org/2000/svg">
<g id="chess-knight">
<path id="Rectangle 56" d="M58.1715 62.8197C57.418 60.5597 55.3027 59.0352 52.92 59.0352H11.0797C8.69742 59.0352 6.582 60.5597 5.82828 62.8197L1.55457 75.6414H62.4453L58.1715 62.8197Z" stroke="#01CA9A" stroke-width="2" stroke-linecap="round" stroke-linejoin="round"/>
<path id="Vector 1178" d="M51.5906 59.0343C50.6829 54.2944 44.1279 48.8488 39.4888 45.2183C28.3749 36.5207 29.4047 29.0826 31.22 27.0657L42.3274 33.4127C44.9672 34.9212 48.2768 34.5662 50.5366 32.5323C53.0274 30.2904 53.5946 26.6044 51.8929 23.7174L43.5232 9.5185L46.7503 2.25758C41.4391 0.375122 26.7419 1.37054 20.9332 5.88844C13.6721 11.5358 4.39439 20.108 12.059 59.0343" stroke="#01CA9A" stroke-width="2" stroke-linecap="round" stroke-linejoin="round"/>
<path id="Vector 1179" d="M27.5829 21.1914C28.2264 23.9795 29.7963 25.9124 31.1914 27.0729" stroke="#01CA9A" stroke-width="2" stroke-linecap="round" stroke-linejoin="round"/>
</g>
</svg>
