<svg width="72" height="77" viewBox="0 0 72 77" fill="none" xmlns="http://www.w3.org/2000/svg">
<g id="cog--work-loading-cog-gear-settings-machine">
<path id="Vector" d="M25.8866 11.3555L28.3438 5.01261C28.7582 3.93869 29.4873 3.01496 30.4355 2.36239C31.3838 1.70983 32.507 1.35887 33.6581 1.35547H38.3438C39.4949 1.35887 40.6181 1.70983 41.5664 2.36239C42.5146 3.01496 43.2437 3.93869 43.6581 5.01261L46.1152 11.3555L54.4578 16.1555L61.2007 15.1269C62.3236 14.9745 63.4664 15.1593 64.4841 15.6579C65.5013 16.1564 66.3476 16.9462 66.915 17.9269L69.2007 21.9269C69.7864 22.9232 70.0567 24.0736 69.975 25.2264C69.8933 26.3792 69.4641 27.4802 68.7436 28.384L64.5721 33.6983V43.2983L68.8578 48.6126C69.5784 49.5164 70.0076 50.6174 70.0893 51.7702C70.171 52.923 69.9007 54.0735 69.315 55.0698L67.0293 59.0698C66.4618 60.0503 65.6156 60.84 64.5984 61.3389C63.5807 61.8372 62.4378 62.0223 61.315 61.8698L54.5721 60.8412L46.2295 65.6412L43.7724 71.984C43.358 73.0578 42.6289 73.9818 41.6806 74.6343C40.7324 75.2869 39.6092 75.6378 38.4581 75.6412H33.6581C32.507 75.6378 31.3838 75.2869 30.4355 74.6343C29.4873 73.9818 28.7582 73.0578 28.3438 71.984L25.8866 65.6412L17.5438 60.8412L10.8009 61.8698C9.67819 62.0223 8.53545 61.8372 7.51796 61.3389C6.50053 60.84 5.65425 60.0503 5.08665 59.0698L2.80093 55.0698C2.21522 54.0735 1.94539 52.923 2.02699 51.7702C2.10859 50.6174 2.53785 49.5164 3.25808 48.6126L7.4295 43.2983V33.6983L3.14379 28.384C2.42356 27.4802 1.9943 26.3792 1.9127 25.2264C1.8311 24.0736 2.10093 22.9232 2.68665 21.9269L4.97236 17.9269C5.53996 16.9462 6.38625 16.1564 7.40368 15.6579C8.42116 15.1593 9.5639 14.9745 10.6866 15.1269L17.4295 16.1555L25.8866 11.3555ZM24.5724 38.4983C24.5724 40.7587 25.2426 42.9683 26.4984 44.8477C27.7542 46.7271 29.5391 48.1919 31.6274 49.057C33.7157 49.9219 36.0136 50.1483 38.2305 49.7073C40.4474 49.2663 42.4838 48.1779 44.0822 46.5795C45.6805 44.9812 46.7689 42.9448 47.2099 40.7279C47.6509 38.511 47.4246 36.2131 46.5596 34.1248C45.6946 32.0365 44.2297 30.2516 42.3503 28.9958C40.4709 27.74 38.2613 27.0698 36.0009 27.0698C32.9699 27.0698 30.063 28.2738 27.9197 30.4171C25.7765 32.5604 24.5724 35.4673 24.5724 38.4983Z" stroke="#01CA9A" stroke-width="2" stroke-linecap="round" stroke-linejoin="round"/>
</g>
</svg>
