<svg width="78" height="77" viewBox="0 0 78 77" fill="none" xmlns="http://www.w3.org/2000/svg">
<g id="justice-scale-2--office-work-scale-justice-unequal-company-arbitration-unbalance-court">
<path id="Vector" d="M30.4289 61.3574L16.1431 26.043L1.85742 61.3574M30.4289 61.3574C30.4289 65.146 28.9238 68.7797 26.2447 71.4586C23.5656 74.138 19.9319 75.6431 16.1431 75.6431C12.3543 75.6431 8.72068 74.138 6.04159 71.4586C3.36252 68.7797 1.85742 65.146 1.85742 61.3574M30.4289 61.3574H1.85742" stroke="#01CA9A" stroke-width="2" stroke-linecap="round" stroke-linejoin="round"/>
<path id="Vector_2" d="M76.1417 38.4993L61.856 5.24219L47.5703 38.4993M76.1417 38.4993C76.1417 42.2881 74.6366 45.9218 71.9577 48.6009C69.2783 51.28 65.6446 52.785 61.856 52.785C58.0675 52.785 54.4336 51.28 51.7545 48.6009C49.0754 45.9218 47.5703 42.2881 47.5703 38.4993M76.1417 38.4993H47.5703" stroke="#01CA9A" stroke-width="2" stroke-linecap="round" stroke-linejoin="round"/>
<path id="Vector_3" d="M7.57031 29.9269L70.4275 1.35547" stroke="#01CA9A" stroke-width="2" stroke-linecap="round" stroke-linejoin="round"/>
<path id="Vector_4" d="M39 15.6412V1.35547" stroke="#01CA9A" stroke-width="2" stroke-linecap="round" stroke-linejoin="round"/>
</g>
</svg>
