<svg width="80" height="81" viewBox="0 0 80 81" fill="none" xmlns="http://www.w3.org/2000/svg">
<g id="worker-capacity-control">
<g id="desktop-emoji--device-display-desktop-padlock-smiley">
<path id="Vector" d="M77.1431 60.6183V14.904C77.1431 13.3261 75.8637 12.0469 74.286 12.0469H5.71456C4.19904 12.0469 2.85742 13.3885 2.85742 14.904V60.6183C2.85742 62.1337 4.19904 63.4754 5.71456 63.4754H74.286C75.8014 63.4754 77.1431 62.1337 77.1431 60.6183Z" stroke="#01CA9A" stroke-width="2" stroke-linecap="round" stroke-linejoin="round"/>
<path id="Vector_2" d="M34.2866 63.4766L28.5723 77.7623" stroke="#01CA9A" stroke-width="2" stroke-linecap="round" stroke-linejoin="round"/>
<path id="Vector_3" d="M45.7148 63.4766L51.4291 77.7623" stroke="#01CA9A" stroke-width="2" stroke-linecap="round" stroke-linejoin="round"/>
<path id="Vector_4" d="M22.8574 77.7617H57.1431" stroke="#01CA9A" stroke-width="2" stroke-linecap="round" stroke-linejoin="round"/>
</g>
<g id="eye-optic--health-medical-eye-optic">
<path id="Vector 2095" d="M39.999 23.3281C24.2767 23.3281 17.6758 37.4671 17.6758 37.7605C17.6758 38.0539 24.2767 52.1929 39.999 52.1929C55.7213 52.1929 62.3222 38.0539 62.3222 37.7605C62.3222 37.4671 55.7213 23.3281 39.999 23.3281Z" stroke="#01CA9A" stroke-width="2" stroke-linecap="round" stroke-linejoin="round"/>
<path id="Ellipse 902" d="M38.5396 44.1242C42.0528 44.9287 45.5529 42.7329 46.3574 39.2198C47.1619 35.7066 44.9661 32.2065 41.4529 31.402C37.9398 30.5975 34.4396 32.7933 33.6351 36.3064C32.8306 39.8196 35.0265 43.3197 38.5396 44.1242Z" stroke="#01CA9A" stroke-width="2" stroke-linecap="round" stroke-linejoin="round"/>
</g>
</g>
</svg>
