<svg width="80" height="81" viewBox="0 0 80 81" fill="none" xmlns="http://www.w3.org/2000/svg">
<g id="file-lock">
<g id="file-lock_2">
<path id="Vector" d="M13.8555 29.5424V9.54241C13.8555 8.02687 14.4575 6.57344 15.5291 5.5018C16.6008 4.43016 18.0542 3.82812 19.5698 3.82812H56.7126L76.7126 23.8281V72.3996C76.7126 73.915 76.1103 75.3687 75.0389 76.4401C73.9675 77.5116 72.5138 78.1138 70.9983 78.1138H47.4001" stroke="#01CA9A" stroke-width="2" stroke-linecap="round" stroke-linejoin="round"/>
<g id="Group 4618">
<path id="Vector_5" d="M5.14621 55.2578H33.7176C35.4319 55.2578 36.5748 56.4007 36.5748 58.115V75.2578C36.5748 76.9721 35.4319 78.115 33.7176 78.115H5.14621C3.43192 78.115 2.28906 76.9721 2.28906 75.2578V58.115C2.28906 56.4007 3.43192 55.2578 5.14621 55.2578Z" stroke="#01CA9A" stroke-width="2" stroke-linecap="round" stroke-linejoin="round"/>
<path id="Vector_6" d="M8.00391 55.26V49.5458C8.00391 43.26 13.1468 38.1172 19.4325 38.1172C25.7182 38.1172 30.861 43.26 30.861 49.5458V55.26" stroke="#01CA9A" stroke-width="2" stroke-linecap="round" stroke-linejoin="round"/>
</g>
</g>
</g>
</svg>
