<svg width="65" height="77" viewBox="0 0 65 77" fill="none" xmlns="http://www.w3.org/2000/svg">
<g id="task-list--task-list-work">
<path id="Vector" d="M63.9648 69.9269C63.9648 71.4423 63.3626 72.896 62.2911 73.9675C61.2191 75.0389 59.766 75.6412 58.2506 75.6412H6.82171C5.30616 75.6412 3.85274 75.0389 2.78108 73.9675C1.70946 72.896 1.10742 71.4423 1.10742 69.9269V7.06975C1.10742 5.55421 1.70946 4.10078 2.78108 3.02914C3.85274 1.95751 5.30616 1.35547 6.82171 1.35547H38.7405C40.256 1.35547 41.7095 1.95751 42.7811 3.02914L62.2911 22.539C63.3626 23.6106 63.9648 25.064 63.9648 26.5795V69.9269Z" stroke="#01CA9A" stroke-width="2" stroke-linecap="round" stroke-linejoin="round"/>
<path id="Vector_2" d="M35.7266 34.9258H50.0123" stroke="#01CA9A" stroke-width="2" stroke-linecap="round" stroke-linejoin="round"/>
<path id="Vector_3" d="M35.7266 54.75H50.0123" stroke="#01CA9A" stroke-width="2" stroke-linecap="round" stroke-linejoin="round"/>
<path id="Vector_4" d="M13.6289 54.423L18.4168 59.2109L26.3967 48.0391" stroke="#01CA9A" stroke-width="2" stroke-linecap="round" stroke-linejoin="round"/>
<path id="Vector_5" d="M13.6289 34.2472L18.4168 39.0352L26.3967 27.8633" stroke="#01CA9A" stroke-width="2" stroke-linecap="round" stroke-linejoin="round"/>
</g>
</svg>
