<svg width="80" height="81" viewBox="0 0 80 81" fill="none" xmlns="http://www.w3.org/2000/svg">
<g id="confidential-information">
<g id="confidential-information_2">
<path id="Vector 1032" d="M3.69336 31.4531V49.4486" stroke="#01CA9A" stroke-width="2" stroke-linecap="round" stroke-linejoin="round"/>
<path id="Vector 1034" d="M3.69336 3.41797V21.4134" stroke="#01CA9A" stroke-width="2" stroke-linecap="round" stroke-linejoin="round"/>
<path id="Vector 1036" d="M3.69336 59.4922V77.4876" stroke="#01CA9A" stroke-width="2" stroke-linecap="round" stroke-linejoin="round"/>
<path id="Vector 1035" d="M38.7246 3.41797V21.4134" stroke="#01CA9A" stroke-width="2" stroke-linecap="round" stroke-linejoin="round"/>
<path id="Vector 1039" d="M49.4531 3.41797V21.4134" stroke="#01CA9A" stroke-width="2" stroke-linecap="round" stroke-linejoin="round"/>
<path id="Vector 1038" d="M14.9707 31.4531V49.4486" stroke="#01CA9A" stroke-width="2" stroke-linecap="round" stroke-linejoin="round"/>
<path id="Rectangle 591" d="M15.0664 10.1289C15.0664 6.42254 18.071 3.41797 21.7773 3.41797C25.4837 3.41797 28.4882 6.42254 28.4882 10.1289V14.6003C28.4882 18.3065 25.4837 21.3112 21.7773 21.3112C18.071 21.3112 15.0664 18.3065 15.0664 14.6003V10.1289Z" stroke="#01CA9A" stroke-width="2" stroke-linecap="round" stroke-linejoin="round"/>
<path id="Rectangle 592" d="M25.2285 38.164C25.2285 34.4578 28.2331 31.4531 31.9394 31.4531C35.6458 31.4531 38.6503 34.4577 38.6503 38.164V42.6354C38.6503 46.3418 35.6458 49.3463 31.9394 49.3463C28.2331 49.3463 25.2285 46.3418 25.2285 42.6354V38.164Z" stroke="#01CA9A" stroke-width="2" stroke-linecap="round" stroke-linejoin="round"/>
<path id="Rectangle 593" d="M15.0664 66.3046C15.0664 62.5983 18.071 59.5938 21.7773 59.5938C25.4837 59.5938 28.4882 62.5983 28.4882 66.3046V70.776C28.4882 74.4823 25.4837 77.4869 21.7773 77.4869C18.071 77.4869 15.0664 74.4823 15.0664 70.776V66.3046Z" stroke="#01CA9A" stroke-width="2" stroke-linecap="round" stroke-linejoin="round"/>
<g id="eye-optic--health-medical-eye-optic">
<path id="Vector 2095" d="M57.6181 52.9609C44.2591 52.9609 38.6504 64.9747 38.6504 65.2239C38.6504 65.4732 44.2591 77.4869 57.6181 77.4869C70.9772 77.4869 76.5859 65.4732 76.5859 65.2239C76.5859 64.9747 70.9772 52.9609 57.6181 52.9609Z" stroke="#01CA9A" stroke-width="2" stroke-linecap="round" stroke-linejoin="round"/>
<path id="Ellipse 902" d="M56.3788 70.6297C59.3639 71.3132 62.3379 69.4475 63.0214 66.4624C63.705 63.4773 61.8393 60.5033 58.8542 59.8197C55.8691 59.1362 52.8951 61.0019 52.2115 63.987C51.528 66.9721 53.3937 69.9461 56.3788 70.6297Z" stroke="#01CA9A" stroke-width="2" stroke-linecap="round" stroke-linejoin="round"/>
</g>
</g>
</g>
</svg>
