<svg width="80" height="81" viewBox="0 0 80 81" fill="none" xmlns="http://www.w3.org/2000/svg">
<g id="Employees-Working-Remotely">
<g id="beach--island-waves-outdoor-recreation-tree-beach-palm-wave-water-travel-places">
<g id="Group 4621">
<path id="Vector" d="M77.1412 77.5497H74.284C71.2532 77.5497 68.3463 76.3457 66.2029 74.2022C64.0595 72.0588 62.8555 69.152 62.8555 66.1211C62.8555 69.152 61.6515 72.0588 59.508 74.2022C57.3646 76.3457 54.4579 77.5497 51.4269 77.5497C48.3959 77.5497 45.489 76.3457 43.3457 74.2022C41.2024 72.0588 39.9983 69.152 39.9983 66.1211C39.9983 69.152 38.7943 72.0588 36.651 74.2022C34.5077 76.3457 31.6008 77.5497 28.5698 77.5497C25.5387 77.5497 22.6318 76.3457 20.4886 74.2022C18.3452 72.0588 17.1412 69.152 17.1412 66.1211C17.1412 69.152 15.9371 72.0588 13.7938 74.2022C11.6506 76.3457 8.74364 77.5497 5.71261 77.5497H2.85547" stroke="#01CA9A" stroke-width="2" stroke-linecap="round" stroke-linejoin="round"/>
<g id="Group 4622">
<path id="Vector_2" d="M66.2266 54.6969C63.2836 51.1188 59.5847 48.2371 55.3955 46.2585C51.2064 44.28 46.631 43.2539 41.9981 43.2539C37.3652 43.2539 32.7898 44.28 28.6007 46.2585C24.4115 48.2371 20.7126 51.1188 17.7695 54.6969" stroke="#01CA9A" stroke-width="2" stroke-linecap="round" stroke-linejoin="round"/>
<path id="Vector_3" d="M46.2266 43.551C46.5694 30.6367 50.5123 18.8653 59.0837 14.6367" stroke="#01CA9A" stroke-width="2" stroke-linecap="round" stroke-linejoin="round"/>
<path id="Vector_4" d="M41.9961 3.78172C45.7003 3.05233 49.5431 3.77177 52.7326 5.79176C55.922 7.81178 58.215 10.9784 59.1389 14.6389" stroke="#01CA9A" stroke-width="2" stroke-linecap="round" stroke-linejoin="round"/>
<path id="Vector_5" d="M79.9963 16.7518C77.366 13.9119 73.79 12.1301 69.9392 11.7407C66.0879 11.3514 62.2272 12.3815 59.082 14.6375" stroke="#01CA9A" stroke-width="2" stroke-linecap="round" stroke-linejoin="round"/>
<path id="Vector_6" d="M38.1133 20.7535C40.3524 17.4547 43.6713 15.0395 47.499 13.9235C51.3266 12.8075 55.4235 13.0606 59.0847 14.6392C62.7571 15.5374 65.9366 17.8276 67.9518 21.0264C69.9672 24.2251 70.6604 28.0819 69.8849 31.7821" stroke="#01CA9A" stroke-width="2" stroke-linecap="round" stroke-linejoin="round"/>
</g>
</g>
<g id="laptop-charging--device-laptop-electronics-computer-notebook-charging">
<path id="Vector_2_2" d="M4.40227 22.5664L0.335031 28.4115C-0.116885 29.0859 -0.116885 29.9851 0.335031 30.6596C0.786947 31.334 1.46482 31.7836 2.14269 31.7836H26.5462C27.9019 31.7836 28.8058 30.8844 28.8058 29.5355C28.8058 29.0859 28.8058 28.8611 28.5798 28.4115L24.5126 22.5664H4.40227Z" stroke="#01CA9A" stroke-width="2" stroke-linecap="round" stroke-linejoin="round"/>
<path id="Vector_4_2" d="M14.5705 9.07422H6.66193C5.30618 9.07422 4.40234 9.97346 4.40234 11.3223V22.5628" stroke="#01CA9A" stroke-width="2" stroke-linecap="round" stroke-linejoin="round"/>
<path id="Vector_4_3" d="M14.4022 9.07422H22.3107C23.6665 9.07422 24.5703 9.97346 24.5703 11.3223V22.5628" stroke="#01CA9A" stroke-width="2" stroke-linecap="round" stroke-linejoin="round"/>
</g>
</g>
</g>
</svg>
