<svg width="80" height="80" viewBox="0 0 80 80" fill="none" xmlns="http://www.w3.org/2000/svg">
    <path d="M31.6373 23.9083C19.8199 15.8454 8.80264 22.0003 -0.429688 31.4788L20.0045 43.7886" stroke="#01CA9A" stroke-width="2" stroke-linecap="round" stroke-linejoin="round"/>
    <path d="M56.1342 48.406C64.197 60.2231 58.0421 71.2404 48.5637 80.4727L36.2539 60.0385" stroke="#01CA9A" stroke-width="2" stroke-linecap="round" stroke-linejoin="round"/>
    <path d="M20.0039 43.7286L36.3144 60.0391C49.3627 52.2223 64.1959 44.6518 70.9663 37.6352C85.6149 22.9866 77.1212 2.92167 77.1212 2.92167C77.1212 2.92167 57.0563 -5.57207 42.4077 9.07653C35.3911 15.8469 27.7591 30.7418 20.0039 43.7286Z" stroke="#01CA9A" stroke-width="2" stroke-linecap="round" stroke-linejoin="round"/>
    <path d="M28.9902 28.2795L51.7633 51.0526" stroke="#01CA9A" stroke-width="2" stroke-linecap="round" stroke-linejoin="round"/>
    <path d="M61.1204 22.0016C62.8198 22.0016 64.1979 20.6237 64.1979 18.9241C64.1979 17.2245 62.8198 15.8467 61.1204 15.8467C59.421 15.8467 58.043 17.2245 58.043 18.9241C58.043 20.6237 59.421 22.0016 61.1204 22.0016Z" stroke="#01CA9A" stroke-width="2" stroke-linecap="round" stroke-linejoin="round"/>
    <path d="M19.1429 73.9475C15.573 77.3942 -0.429688 80.4717 -0.429688 80.4717C-0.429688 80.4717 2.64776 64.4689 6.09449 60.8991C6.93968 59.9925 7.95893 59.265 9.09143 58.7602C10.2239 58.2556 11.4465 57.9843 12.6861 57.9624C13.9257 57.9405 15.1571 58.1686 16.3067 58.6329C17.4562 59.097 18.5005 59.7882 19.3772 60.6652C20.2539 61.5417 20.945 62.5862 21.4094 63.7359C21.8737 64.885 22.1017 66.1166 22.0798 67.3562C22.058 68.5958 21.7867 69.8182 21.282 70.9507C20.7775 72.0832 20.0499 73.1024 19.1429 73.9475Z" stroke="#01CA9A" stroke-width="2" stroke-linecap="round" stroke-linejoin="round"/>
</svg>
