<svg width="65" height="77" viewBox="0 0 65 77" fill="none" xmlns="http://www.w3.org/2000/svg">
    <path d="M18.1431 75.2801V60.9944H6.71456C5.19913 60.9944 3.74542 60.3921 2.67399 59.3207C1.60256 58.2487 1.00028 56.7956 1.00028 55.2799V32.4228C1.00142 26.8372 2.49114 21.3528 5.31571 16.5342C8.14028 11.7156 12.1986 7.73682 17.0717 5.00751C21.9451 2.27822 27.4577 0.896981 33.0422 1.00599C38.6267 1.115 44.0813 2.71032 48.8444 5.62774C53.6075 8.54511 57.507 12.6792 60.1417 17.6044C62.7762 22.5296 64.0506 28.0679 63.8337 33.6492C63.6167 39.2306 61.9163 44.6533 58.9074 49.3591C55.8985 54.0649 51.6898 57.8836 46.7146 60.423V75.2801" stroke="#01CA9A" stroke-width="2" stroke-linecap="round" stroke-linejoin="round"/>
    <path d="M40.9993 17.0591C48.8823 21.6103 52.1619 31.0726 49.205 39.3498C48.5223 41.261 46.4594 42.222 44.4977 41.7023C34.5718 39.0728 24.4657 31.9599 18.3259 26.4142C16.6992 24.9448 16.3625 22.4894 17.8115 20.8447C23.5321 14.3517 33.2168 12.5659 40.9993 17.0591Z" stroke="#01CA9A" stroke-width="2" stroke-linecap="round" stroke-linejoin="round"/>
</svg>
