<svg width="77" height="77" viewBox="0 0 77 77" fill="none" xmlns="http://www.w3.org/2000/svg">
    <path d="M75.2857 38.1429V6.71429C75.2857 3.55837 72.7274 1 69.5714 1H6.71429C3.55837 1 1 3.55837 1 6.71429V69.5714C1 72.7274 3.55837 75.2857 6.71429 75.2857H38.1429" stroke="#01CA9A" stroke-width="2" stroke-linecap="round" stroke-linejoin="round"/>
    <path d="M38.1445 38.3086V50.3255C39.661 48.9683 41.6635 48.143 43.8588 48.143C48.5927 48.143 52.4302 51.9805 52.4302 56.7144C52.4302 61.4481 48.5927 65.2858 43.8588 65.2858C41.6635 65.2858 39.661 64.4607 38.1445 63.1035V75.2858" stroke="#01CA9A" stroke-width="2" stroke-linecap="round" stroke-linejoin="round" stroke-dasharray="4 4"/>
    <path d="M38.1445 1.33105V13.348C36.6281 11.9907 34.6256 11.1654 32.4302 11.1654C27.6964 11.1654 23.8588 15.003 23.8588 19.7369C23.8588 24.4706 27.6964 28.3083 32.4302 28.3083C34.6256 28.3083 36.6281 27.4831 38.1445 26.126V38.3083" stroke="#01CA9A" stroke-width="2" stroke-linecap="round" stroke-linejoin="round"/>
    <path d="M38.1445 38.3086L50.1615 38.3086C48.8042 36.7921 47.9789 34.7896 47.9789 32.5943C47.9789 27.8604 51.8164 24.0229 56.5503 24.0229C61.284 24.0229 65.1218 27.8604 65.1218 32.5943C65.1218 34.7896 64.2966 36.7921 62.9395 38.3086L75.1218 38.3086" stroke="#01CA9A" stroke-width="2" stroke-linecap="round" stroke-linejoin="round" stroke-dasharray="4 4"/>
    <path d="M1.16602 38.3086L13.183 38.3086C11.8257 39.8251 11.0004 41.8276 11.0004 44.0229C11.0004 48.7568 14.8379 52.5943 19.5718 52.5943C24.3055 52.5943 28.1432 48.7568 28.1432 44.0229C28.1432 41.8276 27.3181 39.825 25.961 38.3086L38.1432 38.3086" stroke="#01CA9A" stroke-width="2" stroke-linecap="round" stroke-linejoin="round"/>
    <path d="M75.2854 38.1431V69.5716C75.2854 72.7276 72.7271 75.2859 69.5711 75.2859H38.1426" stroke="#01CA9A" stroke-width="2" stroke-linecap="round" stroke-linejoin="round" stroke-dasharray="4 4"/>
</svg>
