<svg width="80" height="80" viewBox="0 0 80 80" fill="none" xmlns="http://www.w3.org/2000/svg">
    <g clip-path="url(#clip0_6399_5893)">
        <path d="M19.2565 19.2258C25.3657 15.2559 32.4446 12.3064 40.0001 12.3064C57.1693 12.3064 71.8772 27.5374 78.3388 35.3606C79.3591 36.6327 79.924 38.2854 79.924 39.9991C79.924 41.7127 79.3591 43.3655 78.3388 44.6376C74.7769 48.9499 68.7092 55.513 61.1055 60.5353M49.2309 66.2738C46.2624 67.1716 43.1733 67.6916 40.0001 67.6916C22.8309 67.6916 8.12319 52.4608 1.66164 44.6376C0.641089 43.3655 0.0761719 41.7127 0.0761719 39.9991C0.0761719 38.2854 0.641089 36.6327 1.66164 35.3606C3.70885 32.8819 6.58381 29.6597 10.1026 26.4139" stroke="#01CA9A" stroke-width="2" stroke-linecap="round" stroke-linejoin="round"/>
        <path d="M48.7025 48.7036C53.509 43.8972 53.509 36.1044 48.7025 31.2979C43.8961 26.4915 36.1033 26.4915 31.2969 31.2979" stroke="#01CA9A" stroke-width="2" stroke-linecap="round" stroke-linejoin="round"/>
        <path d="M80 79.9998L0 -0.000244141" stroke="#01CA9A" stroke-width="2" stroke-linecap="round" stroke-linejoin="round"/>
    </g>
    <defs>
        <clipPath id="clip0_6399_5893">
            <rect width="80" height="80" fill="white"/>
        </clipPath>
    </defs>
</svg>
