<svg width="90" height="91" viewBox="0 0 90 91" fill="none" xmlns="http://www.w3.org/2000/svg">
<path d="M0 15.8047C0 7.52042 6.71573 0.804688 15 0.804688H75C83.2843 0.804688 90 7.52042 90 15.8047V75.8047C90 84.089 83.2843 90.8047 75 90.8047H15C6.71573 90.8047 0 84.089 0 75.8047V15.8047Z" fill="#00FFC5"/>
<path d="M32.0742 53.721L40.5099 46.2676V68.6279" stroke="#22282E" stroke-width="2" stroke-linecap="round" stroke-linejoin="round"/>
<path d="M57.9296 61.1742L49.4941 68.6279V46.2676" stroke="#22282E" stroke-width="2" stroke-linecap="round" stroke-linejoin="round"/>
<path d="M31.7994 62.2719C28.1787 62.5149 24.6098 61.3097 21.8776 58.9217C19.1455 56.5333 17.4741 53.1575 17.231 49.5368C16.9879 45.9161 18.193 42.3472 20.5814 39.615C21.7639 38.2622 23.2013 37.1556 24.8116 36.3583C26.4218 35.561 28.1734 35.0888 29.9661 34.9684C30.1522 34.9724 30.3355 34.9232 30.4945 34.8264C30.6535 34.7297 30.7814 34.5894 30.8633 34.4223C32.1 30.8379 34.5282 27.7858 37.7428 25.775C40.9576 23.7641 44.7644 22.9162 48.5287 23.3724C52.2929 23.8287 55.7869 25.5617 58.428 28.2823C61.0693 31.0029 62.6978 34.5467 63.0424 38.3228C63.0711 38.5217 63.1564 38.7081 63.2876 38.8601C63.4191 39.0122 63.591 39.1235 63.7834 39.1809C66.5708 39.8376 69.0205 41.4935 70.6688 43.835C72.3171 46.1765 73.0495 49.0412 72.7277 51.8866C72.4054 54.7319 71.0511 57.3604 68.9215 59.2745C68.0245 60.0802 67.0161 60.7359 65.9357 61.2266" stroke="#22282E" stroke-width="2" stroke-linecap="round" stroke-linejoin="round"/>
</svg>
