<svg width="90" height="91" viewBox="0 0 90 91" fill="none" xmlns="http://www.w3.org/2000/svg">
<path d="M0 15.8047C0 7.52042 6.71573 0.804688 15 0.804688H75C83.2843 0.804688 90 7.52042 90 15.8047V75.8047C90 84.089 83.2843 90.8047 75 90.8047H15C6.71573 90.8047 0 84.089 0 75.8047V15.8047Z" fill="#00FFC5"/>
<path d="M60.0017 17.9492H30.0017C22.9009 17.9492 17.1445 23.7056 17.1445 30.8064V60.8064C17.1445 67.9074 22.9009 73.6635 30.0017 73.6635H60.0017C67.1027 73.6635 72.8588 67.9074 72.8588 60.8064V30.8064C72.8588 23.7056 67.1027 17.9492 60.0017 17.9492Z" stroke="#22282E" stroke-width="2" stroke-linecap="round" stroke-linejoin="round"/>
<path d="M17.1445 45.8922H34.2874L40.716 35.135L47.1445 58.7064L55.716 45.8922H72.8588" stroke="#22282E" stroke-width="2" stroke-linecap="round" stroke-linejoin="round"/>
</svg>
