<svg width="90" height="91" viewBox="0 0 90 91" fill="none" xmlns="http://www.w3.org/2000/svg">
<path d="M0 15.8047C0 7.52042 6.71573 0.804688 15 0.804688H75C83.2843 0.804688 90 7.52042 90 15.8047V75.8047C90 84.089 83.2843 90.8047 75 90.8047H15C6.71573 90.8047 0 84.089 0 75.8047V15.8047Z" fill="#00FFC5"/>
<path d="M47.229 21.9629H21.5562C19.5307 21.9629 17.8887 23.6049 17.8887 25.6304V65.9733C17.8887 67.9987 19.5307 69.641 21.5562 69.641H47.229C49.2546 69.641 50.8965 67.9987 50.8965 65.9733V25.6304C50.8965 23.6049 49.2546 21.9629 47.229 21.9629Z" stroke="#22282E" stroke-width="2" stroke-linecap="round" stroke-linejoin="round"/>
<path d="M32.5576 60.4707H36.2252" stroke="#22282E" stroke-width="2" stroke-linecap="round" stroke-linejoin="round"/>
<path d="M67.1104 32.0527C73.7772 39.6466 73.7772 51.9588 67.1104 59.5527" stroke="#22282E" stroke-width="2" stroke-linecap="round" stroke-linejoin="round"/>
<path d="M59.9678 37.0508C63.3008 41.8833 63.3008 49.7183 59.9678 54.5508" stroke="#22282E" stroke-width="2" stroke-linecap="round" stroke-linejoin="round"/>
</svg>
