<svg width="90" height="90" viewBox="0 0 90 90" fill="none" xmlns="http://www.w3.org/2000/svg">
<path d="M0 15C0 6.71573 6.71573 0 15 0H75C83.2843 0 90 6.71573 90 15V75C90 83.2843 83.2843 90 75 90H15C6.71573 90 0 83.2843 0 75V15Z" fill="#00FFC5"/>
<path d="M30.1339 44.8826L27.3633 55.4807" stroke="#22282E" stroke-width="2" stroke-linecap="round" stroke-linejoin="round"/>
<path d="M62.6091 34.0544L60 48.5183" stroke="#22282E" stroke-width="2" stroke-linecap="round" stroke-linejoin="round"/>
<path d="M40.3389 40.2068L47.2521 47.019" stroke="#22282E" stroke-width="2" stroke-linecap="round" stroke-linejoin="round"/>
<path d="M64.9634 33.6902L64.1853 33.9936C63.9047 34.0988 63.5955 34.0988 63.3149 33.9936L62.5367 33.6902C60.5658 32.9175 58.8729 31.5698 57.678 29.8223C56.4832 28.0747 55.8417 26.0081 55.8369 23.8911V20.2246C57.3305 20.4375 58.8539 20.2436 60.2465 19.6633C61.6392 19.0831 62.8495 18.1379 63.7501 16.9275C65.3987 19.3278 68.1287 20.462 71.6633 20.2246V23.8911C71.6585 26.0081 71.017 28.0747 69.8221 29.8223C68.6272 31.5698 66.9344 32.9175 64.9634 33.6902Z" stroke="#22282E" stroke-width="2" stroke-linecap="round" stroke-linejoin="round"/>
<path d="M34.9634 44.1902L34.1853 44.4936C33.9047 44.5988 33.5955 44.5988 33.3149 44.4936L32.5367 44.1902C30.5658 43.4175 28.8729 42.0698 27.678 40.3223C26.4832 38.5747 25.8417 36.5081 25.8369 34.3911V30.7246C27.3305 30.9375 28.8539 30.7436 30.2465 30.1633C31.6392 29.5831 32.8495 28.6379 33.7501 27.4275C35.3987 29.8278 38.1287 30.962 41.6633 30.7246V34.3911C41.6585 36.5081 41.017 38.5747 39.8221 40.3223C38.6272 42.0698 36.9344 43.4175 34.9634 44.1902Z" stroke="#22282E" stroke-width="2" stroke-linecap="round" stroke-linejoin="round"/>
<path d="M27.4634 72.6902L26.6853 72.9936C26.4047 73.0988 26.0955 73.0988 25.8149 72.9936L25.0367 72.6902C23.0658 71.9175 21.3729 70.5698 20.178 68.8223C18.9832 67.0747 18.3417 65.0081 18.3369 62.8911V59.2246C19.8305 59.4375 21.3539 59.2436 22.7465 58.6633C24.1392 58.0831 25.3495 57.1379 26.2501 55.9275C27.8987 58.3278 30.6287 59.462 34.1633 59.2246V62.8911C34.1585 65.0081 33.517 67.0747 32.3221 68.8223C31.1272 70.5698 29.4344 71.9175 27.4634 72.6902Z" stroke="#22282E" stroke-width="2" stroke-linecap="round" stroke-linejoin="round"/>
<path d="M64.4582 57.718C64.6142 58.0046 64.6956 58.3252 64.6956 58.6509C64.6956 58.977 64.6142 59.2973 64.4582 59.5838C64.312 59.8697 64.0888 60.1094 63.8139 60.2767C63.5393 60.4443 63.223 60.5329 62.9007 60.5325H44.2431C43.9208 60.5329 43.6048 60.4443 43.3299 60.2767C43.0551 60.1094 42.8321 59.8697 42.6856 59.5838C42.5298 59.2973 42.4482 58.977 42.4482 58.6509C42.4482 58.3252 42.5298 58.0046 42.6856 57.718L52.0622 40.8945C52.191 40.5803 52.411 40.3114 52.694 40.1222C52.9771 39.9329 53.3104 39.8318 53.6513 39.8318C53.9924 39.8318 54.3258 39.9329 54.609 40.1222C54.8919 40.3114 55.1118 40.5803 55.2405 40.8945L64.4582 57.718Z" stroke="#22282E" stroke-width="2" stroke-linecap="round" stroke-linejoin="round"/>
<path d="M53.5869 51.0449V47.8826" stroke="#22282E" stroke-width="2" stroke-linecap="round" stroke-linejoin="round"/>
<path d="M53.5743 56.1855C53.3548 56.1855 53.1768 56.0084 53.1768 55.7899C53.1768 55.5714 53.3548 55.3943 53.5743 55.3943" stroke="#22282E" stroke-width="2" stroke-linecap="round" stroke-linejoin="round"/>
<path d="M53.5723 56.1855C53.792 56.1855 53.97 56.0084 53.97 55.7899C53.97 55.5714 53.792 55.3943 53.5723 55.3943" stroke="#22282E" stroke-width="2" stroke-linecap="round" stroke-linejoin="round"/>
</svg>
