<svg width="90" height="91" viewBox="0 0 90 91" fill="none" xmlns="http://www.w3.org/2000/svg">
<path d="M0 15.8047C0 7.52042 6.71573 0.804688 15 0.804688H75C83.2843 0.804688 90 7.52042 90 15.8047V75.8047C90 84.089 83.2843 90.8047 75 90.8047H15C6.71573 90.8047 0 84.089 0 75.8047V15.8047Z" fill="#00FFC5"/>
<path d="M36.6442 56.8546C37.6369 51.9641 41.9606 48.2832 47.1441 48.2832C53.0614 48.2832 57.8584 53.0802 57.8584 58.9975C57.8584 64.9148 53.0614 69.7118 47.1441 69.7118C44.5004 69.7118 42.0803 68.7543 40.2117 67.1669" stroke="#22282E" stroke-width="2" stroke-linecap="round" stroke-linejoin="round"/>
<path d="M25.7151 64.3187C24.3267 63.7522 23.028 62.9563 21.8776 61.9509C19.1455 59.5624 17.4741 56.1868 17.231 52.5661C16.9879 48.9454 18.193 45.3765 20.5814 42.6444C21.7639 41.2915 23.2013 40.1849 24.8116 39.3877C26.4218 38.5904 28.1734 38.1181 29.9661 37.9977C30.1522 38.0017 30.3355 37.9525 30.4945 37.8557C30.6535 37.759 30.7814 37.6188 30.8633 37.4516C32.1 33.8672 34.5282 30.8151 37.7428 28.8043C40.9576 26.7934 44.7644 25.9455 48.5287 26.4017C52.2929 26.858 55.7869 28.591 58.428 31.3116C61.0693 34.0322 62.6978 37.576 63.0424 41.3521C63.0711 41.551 63.1564 41.7374 63.2876 41.8894C63.4191 42.0415 63.591 42.1528 63.7834 42.2102C66.5708 42.8669 69.0205 44.5228 70.6688 46.8643C72.3171 49.2059 73.0495 52.0705 72.7277 54.9159C72.4054 57.7612 71.0511 60.3896 68.9215 62.3036C68.1625 62.9854 67.3238 63.5597 66.4294 64.0174" stroke="#22282E" stroke-width="2" stroke-linecap="round" stroke-linejoin="round"/>
<path d="M34.287 50.4219L36.6442 56.8504L42.8584 55.779" stroke="#22282E" stroke-width="2" stroke-linecap="round" stroke-linejoin="round"/>
</svg>
