<svg width="90" height="91" viewBox="0 0 90 91" fill="none" xmlns="http://www.w3.org/2000/svg">
<path d="M0 15.8047C0 7.52042 6.71573 0.804688 15 0.804688H75C83.2843 0.804688 90 7.52042 90 15.8047V75.8047C90 84.089 83.2843 90.8047 75 90.8047H15C6.71573 90.8047 0 84.089 0 75.8047V15.8047Z" fill="#00FFC5"/>
<path d="M40.716 36.1206C53.7341 36.1206 64.2874 32.0528 64.2874 27.0349C64.2874 22.017 53.7341 17.9492 40.716 17.9492C27.6978 17.9492 17.1445 22.017 17.1445 27.0349C17.1445 32.0528 27.6978 36.1206 40.716 36.1206Z" stroke="#22282E" stroke-width="2" stroke-linecap="round" stroke-linejoin="round"/>
<path d="M64.2861 35.0943V27.0371" stroke="#22282E" stroke-width="2" stroke-linecap="round" stroke-linejoin="round"/>
<path d="M17.1445 27.0371V56.0085C17.1445 60.8085 26.7445 64.5799 38.916 65.0513" stroke="#22282E" stroke-width="2" stroke-linecap="round" stroke-linejoin="round"/>
<path d="M40.716 50.4358C27.8588 50.6072 17.1445 46.5358 17.1445 41.5215" stroke="#22282E" stroke-width="2" stroke-linecap="round" stroke-linejoin="round"/>
<path d="M49.2874 56.5215H70.716C72.0017 56.5215 72.8588 57.3786 72.8588 58.6643V71.5215C72.8588 72.8072 72.0017 73.6643 70.716 73.6643H49.2874C48.0017 73.6643 47.1445 72.8072 47.1445 71.5215V58.6643C47.1445 57.3786 48.0017 56.5215 49.2874 56.5215Z" stroke="#22282E" stroke-width="2" stroke-linecap="round" stroke-linejoin="round"/>
<path d="M51.4307 56.5232V52.2374C51.4307 47.5232 55.2878 43.666 60.0021 43.666C64.7164 43.666 68.5735 47.5232 68.5735 52.2374V56.5232" stroke="#22282E" stroke-width="2" stroke-linecap="round" stroke-linejoin="round"/>
</svg>
