<svg width="90" height="91" viewBox="0 0 90 91" fill="none" xmlns="http://www.w3.org/2000/svg">
<path d="M0 15.8047C0 7.52042 6.71573 0.804688 15 0.804688H75C83.2843 0.804688 90 7.52042 90 15.8047V75.8047C90 84.089 83.2843 90.8047 75 90.8047H15C6.71573 90.8047 0 84.089 0 75.8047V15.8047Z" fill="#00FFC5"/>
<path d="M15 39.3047H19V61.3047H23V35.3047H15V39.3047Z" fill="#22282E"/>
<path d="M18.999 33.3047H24.999V61.3047H28.999V29.3047H18.999V33.3047ZM36.999 45.3047C36.999 38.6867 42.381 33.3047 48.999 33.3047C55.617 33.3047 60.999 38.6867 60.999 45.3047H64.999C64.999 36.4827 57.821 29.3047 48.999 29.3047C40.177 29.3047 32.999 36.4827 32.999 45.3047C32.999 54.1267 40.177 61.3047 48.999 61.3047H74.999V57.3047H48.999C42.381 57.3047 36.999 51.9227 36.999 45.3047Z" fill="#22282E"/>
<path d="M49.001 49.3027C46.795 49.3027 45.001 47.5087 45.001 45.3027C45.001 43.0967 46.795 41.3027 49.001 41.3027C51.207 41.3027 53.001 43.0967 53.001 45.3027H57.001C57.001 40.8907 53.413 37.3027 49.001 37.3027C44.589 37.3027 41.001 40.8907 41.001 45.3027C41.001 49.7147 44.589 53.3027 49.001 53.3027H75.001V49.3027H49.001Z" fill="#22282E"/>
</svg>
