<svg width="90" height="91" viewBox="0 0 90 91" fill="none" xmlns="http://www.w3.org/2000/svg">
<path d="M0 15.8047C0 7.52042 6.71573 0.804688 15 0.804688H75C83.2843 0.804688 90 7.52042 90 15.8047V75.8047C90 84.089 83.2843 90.8047 75 90.8047H15C6.71573 90.8047 0 84.089 0 75.8047V15.8047Z" fill="#00FFC5"/>
<path d="M27.8555 45.8032V34.5318C27.8889 32.3162 28.3593 30.129 29.2395 28.0955C30.1197 26.062 31.3926 24.2222 32.985 22.6814C34.5775 21.1407 36.4584 19.9293 38.5199 19.1168C40.5813 18.3042 42.7829 17.9063 44.9983 17.9461C47.2138 17.9063 49.4154 18.3042 51.4768 19.1168C53.5383 19.9293 55.4191 21.1407 57.0116 22.6814C58.6042 24.2222 59.877 26.062 60.7573 28.0955C61.6372 30.129 62.1078 32.3162 62.1412 34.5318V45.8032" stroke="#22282E" stroke-width="2" stroke-linecap="round" stroke-linejoin="round"/>
<path d="M21.4273 39.377H25.713C26.2814 39.377 26.8264 39.6027 27.2282 40.0046C27.6301 40.4064 27.8559 40.9515 27.8559 41.5198V54.377C27.8559 54.9453 27.6301 55.4903 27.2282 55.8922C26.8264 56.294 26.2814 56.5198 25.713 56.5198H21.4273C20.2907 56.5198 19.2006 56.0683 18.3969 55.2646C17.5931 54.4608 17.1416 53.3708 17.1416 52.2341V43.6627C17.1416 42.526 17.5931 41.4359 18.3969 40.6322C19.2006 39.8285 20.2907 39.377 21.4273 39.377Z" stroke="#22282E" stroke-width="2" stroke-linecap="round" stroke-linejoin="round"/>
<path d="M68.5702 56.5198H64.2845C63.7162 56.5198 63.171 56.294 62.769 55.8922C62.3675 55.4903 62.1416 54.9453 62.1416 54.377V41.5198C62.1416 40.9515 62.3675 40.4064 62.769 40.0046C63.171 39.6027 63.7162 39.377 64.2845 39.377H68.5702C69.7067 39.377 70.797 39.8285 71.6006 40.6322C72.4042 41.4359 72.8559 42.526 72.8559 43.6627V52.2341C72.8559 53.3708 72.4042 54.4608 71.6006 55.2646C70.797 56.0683 69.7067 56.5198 68.5702 56.5198Z" stroke="#22282E" stroke-width="2" stroke-linecap="round" stroke-linejoin="round"/>
<path d="M53.5693 68.3022C55.8426 68.3022 58.0226 67.3992 59.6302 65.7916C61.2378 64.184 62.1408 62.0039 62.1408 59.7307V50.0879" stroke="#22282E" stroke-width="2" stroke-linecap="round" stroke-linejoin="round"/>
<path d="M53.5706 68.3005C53.5706 69.7212 53.0062 71.0841 52.0015 72.0886C50.9968 73.0932 49.6342 73.6576 48.2134 73.6576H41.7849C40.3641 73.6576 39.0015 73.0932 37.9968 72.0886C36.9922 71.0841 36.4277 69.7212 36.4277 68.3005C36.4277 66.8798 36.9922 65.5169 37.9968 64.5124C39.0015 63.5078 40.3641 62.9434 41.7849 62.9434H48.2134C49.6342 62.9434 50.9968 63.5078 52.0015 64.5124C53.0062 65.5169 53.5706 66.8798 53.5706 68.3005Z" stroke="#22282E" stroke-width="2" stroke-linecap="round" stroke-linejoin="round"/>
</svg>
