<svg width="90" height="91" viewBox="0 0 90 91" fill="none" xmlns="http://www.w3.org/2000/svg">
<path d="M0 15.8047C0 7.52042 6.71573 0.804688 15 0.804688H75C83.2843 0.804688 90 7.52042 90 15.8047V75.8047C90 84.089 83.2843 90.8047 75 90.8047H15C6.71573 90.8047 0 84.089 0 75.8047V15.8047Z" fill="#00FFC5"/>
<path d="M50.4668 20.3281H39.5345C38.7798 20.3281 38.168 20.9399 38.168 21.6947V27.1881C38.168 27.9429 38.7798 28.5547 39.5345 28.5547H50.4668C51.2214 28.5547 51.8334 27.9429 51.8334 27.1881V21.6947C51.8334 20.9399 51.2214 20.3281 50.4668 20.3281Z" stroke="#22282E" stroke-width="2" stroke-linecap="round" stroke-linejoin="round"/>
<path d="M70.1309 20.3284H59.1986C58.4439 20.3284 57.832 20.9402 57.832 21.6949V27.1884C57.832 27.9431 58.4439 28.5549 59.1986 28.5549H70.1309C70.8855 28.5549 71.4974 27.9431 71.4974 27.1884V21.6949C71.4974 20.9402 70.8855 20.3284 70.1309 20.3284Z" stroke="#22282E" stroke-width="2" stroke-linecap="round" stroke-linejoin="round"/>
<path d="M30.7998 20.3281H19.8675C19.1128 20.3281 18.501 20.9398 18.501 21.6947V27.1881C18.501 27.9428 19.1128 28.5547 19.8675 28.5547H30.7998C31.5545 28.5547 32.1664 27.9428 32.1664 27.1881V21.6947C32.1664 20.9398 31.5545 20.3281 30.7998 20.3281Z" stroke="#22282E" stroke-width="2" stroke-linecap="round" stroke-linejoin="round"/>
<path d="M50.4668 34.5723H39.5345C38.7798 34.5723 38.168 35.1841 38.168 35.9388V41.4323C38.168 42.187 38.7798 42.7988 39.5345 42.7988H50.4668C51.2214 42.7988 51.8334 42.187 51.8334 41.4323V35.9388C51.8334 35.1841 51.2214 34.5723 50.4668 34.5723Z" stroke="#22282E" stroke-width="2" stroke-linecap="round" stroke-linejoin="round"/>
<path d="M57.832 38.6858V35.939C57.832 35.1843 58.4439 34.5725 59.1986 34.5725H70.1309C70.8855 34.5725 71.4974 35.1843 71.4974 35.939V41.4325C71.4974 42.1872 70.8855 42.7991 70.1309 42.7991H67.3978" stroke="#22282E" stroke-width="2" stroke-linecap="round" stroke-linejoin="round"/>
<path d="M30.7998 34.5723H19.8675C19.1128 34.5723 18.501 35.1839 18.501 35.9388V41.4323C18.501 42.1869 19.1128 42.7988 19.8675 42.7988H30.7998C31.5545 42.7988 32.1664 42.1869 32.1664 41.4323V35.9388C32.1664 35.1839 31.5545 34.5723 30.7998 34.5723Z" stroke="#22282E" stroke-width="2" stroke-linecap="round" stroke-linejoin="round"/>
<path d="M51.8334 50.1829C51.8334 49.4282 51.2214 48.8164 50.4668 48.8164H39.5345C38.7798 48.8164 38.168 49.4282 38.168 50.1829V55.6764C38.168 56.4311 38.7798 57.043 39.5345 57.043H45.0007H46.3672" stroke="#22282E" stroke-width="2" stroke-linecap="round" stroke-linejoin="round"/>
<path d="M30.7998 48.8164H19.8675C19.1128 48.8164 18.501 49.4281 18.501 50.1829V55.6764C18.501 56.431 19.1128 57.043 19.8675 57.043H30.7998C31.5545 57.043 32.1664 56.431 32.1664 55.6764V50.1829C32.1664 49.4281 31.5545 48.8164 30.7998 48.8164Z" stroke="#22282E" stroke-width="2" stroke-linecap="round" stroke-linejoin="round"/>
<path d="M45.0007 63.0605H39.5345C38.7798 63.0605 38.168 63.6724 38.168 64.4271V69.9206C38.168 70.6753 38.7798 71.2871 39.5345 71.2871H45.0007H47.7337" stroke="#22282E" stroke-width="2" stroke-linecap="round" stroke-linejoin="round"/>
<path d="M30.7998 63.0605H19.8675C19.1128 63.0605 18.501 63.6722 18.501 64.4271V69.9206C18.501 70.6752 19.1128 71.2871 19.8675 71.2871H30.7998C31.5545 71.2871 32.1664 70.6752 32.1664 69.9206V64.4271C32.1664 63.6722 31.5545 63.0605 30.7998 63.0605Z" stroke="#22282E" stroke-width="2" stroke-linecap="round" stroke-linejoin="round"/>
<path d="M59.777 44.5738C59.1539 44.3068 58.5901 44.9299 58.8572 45.375C59.7932 47.0059 60.4171 48.7971 60.6969 50.6566C61.0824 53.2807 60.6991 56.1566 59.0055 58.2824C58.9411 58.3629 58.86 58.4285 58.7678 58.4746C58.6756 58.5207 58.5745 58.5462 58.4714 58.5495C58.3657 58.5543 58.2603 58.5354 58.1627 58.4944C58.0652 58.4533 57.9781 58.391 57.9077 58.312C57.1422 57.5193 56.3488 56.716 55.8306 55.7306C55.6822 55.4338 55.1481 54.9591 54.3767 55.7306C52.5138 57.2646 51.3799 59.6204 51.6172 62.021C51.7138 67.3383 56.4149 71.2218 61.5656 71.2853C66.8211 71.3498 71.4555 67.4578 71.4976 62.021C71.4976 58.5911 70.4633 55.2408 68.5302 52.4073C66.4104 49.0222 63.3756 46.3064 59.777 44.5738Z" stroke="#22282E" stroke-width="2" stroke-linecap="round" stroke-linejoin="round"/>
</svg>
