<svg width="90" height="91" viewBox="0 0 90 91" fill="none" xmlns="http://www.w3.org/2000/svg">
<path d="M0 15.8047C0 7.52042 6.71573 0.804688 15 0.804688H75C83.2843 0.804688 90 7.52042 90 15.8047V75.8047C90 84.089 83.2843 90.8047 75 90.8047H15C6.71573 90.8047 0 84.089 0 75.8047V15.8047Z" fill="#00FFC5"/>
<path d="M36.4282 41.5165C42.3455 41.5165 47.1424 36.7195 47.1424 30.8022C47.1424 24.8848 42.3455 20.0879 36.4282 20.0879C30.5108 20.0879 25.7139 24.8848 25.7139 30.8022C25.7139 36.7195 30.5108 41.5165 36.4282 41.5165Z" stroke="#22282E" stroke-width="2" stroke-linecap="round" stroke-linejoin="round"/>
<path d="M17.1416 71.5145H36.4273H55.713V69.1912C55.6789 65.9246 54.8174 62.7197 53.209 59.8766C51.6006 57.033 49.2977 54.6437 46.5156 52.9316C43.7334 51.2195 40.5626 50.2405 37.2995 50.086C37.0086 50.0723 36.7178 50.0651 36.4273 50.0645C36.1368 50.0651 35.846 50.0723 35.5551 50.086C32.292 50.2405 29.1212 51.2195 26.339 52.9316C23.5569 54.6437 21.254 57.033 19.6456 59.8766C18.0372 62.7197 17.1757 65.9246 17.1416 69.1912V71.5145Z" stroke="#22282E" stroke-width="2" stroke-linecap="round" stroke-linejoin="round"/>
<path d="M53.5693 41.5165C59.4866 41.5165 64.2836 36.7195 64.2836 30.8022C64.2836 24.8848 59.4866 20.0879 53.5693 20.0879" stroke="#22282E" stroke-width="2" stroke-linecap="round" stroke-linejoin="round"/>
<path d="M64.284 71.5164H72.8555V69.1926C72.8212 65.9261 71.9598 62.7212 70.3513 59.8781C68.7429 57.0345 66.4402 54.6453 63.6579 52.9332C61.8596 51.8264 59.8985 51.026 57.8555 50.5566" stroke="#22282E" stroke-width="2" stroke-linecap="round" stroke-linejoin="round"/>
</svg>
