<svg width="90" height="90" viewBox="0 0 90 90" fill="none" xmlns="http://www.w3.org/2000/svg">
<rect width="90" height="90" rx="15" fill="#00FFC5"/>
<path d="M28.9905 45.123L26.0068 56.5363" stroke="#22282E" stroke-width="2" stroke-linecap="round" stroke-linejoin="round"/>
<path d="M63.964 33.459L61.1543 49.0352" stroke="#22282E" stroke-width="2" stroke-linecap="round" stroke-linejoin="round"/>
<path d="M41.5391 41.5723L47.4231 47.4224" stroke="#22282E" stroke-width="2" stroke-linecap="round" stroke-linejoin="round"/>
<path d="M70.384 33.4613H61.1534C58.6045 33.4613 56.5381 31.3949 56.5381 28.8459V19.6153C56.5381 17.0663 58.6045 15 61.1534 15H70.384C72.9331 15 74.9993 17.0663 74.9993 19.6153V28.8459C74.9993 31.3949 72.9331 33.4613 70.384 33.4613Z" stroke="#22282E" stroke-width="2" stroke-linecap="round" stroke-linejoin="round"/>
<path d="M36.9241 45.1253H27.6934C25.1445 45.1253 23.0781 43.059 23.0781 40.51V31.2794C23.0781 28.7304 25.1445 26.6641 27.6934 26.6641H36.9241C39.473 26.6641 41.5394 28.7304 41.5394 31.2794V40.51C41.5394 43.059 39.473 45.1253 36.9241 45.1253Z" stroke="#22282E" stroke-width="2" stroke-linecap="round" stroke-linejoin="round"/>
<path d="M28.8469 75.0003H19.6163C17.0673 75.0003 15.001 72.934 15.001 70.385V61.1544C15.001 58.6054 17.0673 56.5391 19.6163 56.5391H28.8469C31.3959 56.5391 33.4622 58.6054 33.4622 61.1544V70.385C33.4622 72.934 31.3959 75.0003 28.8469 75.0003Z" stroke="#22282E" stroke-width="2" stroke-linecap="round" stroke-linejoin="round"/>
<path d="M65.7413 58.0793C65.9113 58.3923 65.9999 58.7427 65.9999 59.0985C65.9999 59.4547 65.9113 59.8047 65.7413 60.1177C65.5821 60.43 65.3391 60.6919 65.0396 60.8746C64.7405 61.0577 64.3961 61.1545 64.045 61.1541H43.7243C43.3734 61.1545 43.0292 61.0577 42.7298 60.8746C42.4305 60.6919 42.1876 60.43 42.0281 60.1177C41.8584 59.8047 41.7695 59.4547 41.7695 59.0985C41.7695 58.7427 41.8584 58.3923 42.0281 58.0793L52.2404 39.7C52.3807 39.3568 52.6203 39.063 52.9286 38.8563C53.2369 38.6495 53.5999 38.5391 53.9712 38.5391C54.3426 38.5391 54.7058 38.6495 55.0142 38.8563C55.3223 39.063 55.5619 39.3568 55.7021 39.7L65.7413 58.0793Z" stroke="#22282E" stroke-width="2" stroke-linecap="round" stroke-linejoin="round"/>
<path d="M53.9023 50.7907V47.3359" stroke="#22282E" stroke-width="2" stroke-linecap="round" stroke-linejoin="round"/>
<path d="M53.8852 56.4054C53.646 56.4054 53.4521 56.2119 53.4521 55.9732C53.4521 55.7345 53.646 55.541 53.8852 55.541" stroke="#22282E" stroke-width="2" stroke-linecap="round" stroke-linejoin="round"/>
<path d="M53.8848 56.4054C54.1241 56.4054 54.3179 56.2119 54.3179 55.9732C54.3179 55.7345 54.1241 55.541 53.8848 55.541" stroke="#22282E" stroke-width="2" stroke-linecap="round" stroke-linejoin="round"/>
</svg>
