<svg width="90" height="91" viewBox="0 0 90 91" fill="none" xmlns="http://www.w3.org/2000/svg">
<path d="M0 15.8047C0 7.52042 6.71573 0.804688 15 0.804688H75C83.2843 0.804688 90 7.52042 90 15.8047V75.8047C90 84.089 83.2843 90.8047 75 90.8047H15C6.71573 90.8047 0 84.089 0 75.8047V15.8047Z" fill="#00FFC5"/>
<path d="M18 38.334V51.8306" stroke="#22282E" stroke-width="2" stroke-linecap="round" stroke-linejoin="round"/>
<path d="M18 17.3047V30.8013" stroke="#22282E" stroke-width="2" stroke-linecap="round" stroke-linejoin="round"/>
<path d="M18 59.3633V72.8599" stroke="#22282E" stroke-width="2" stroke-linecap="round" stroke-linejoin="round"/>
<path d="M44.2732 17.3047V30.8013" stroke="#22282E" stroke-width="2" stroke-linecap="round" stroke-linejoin="round"/>
<path d="M52.3184 17.3047V30.8013" stroke="#22282E" stroke-width="2" stroke-linecap="round" stroke-linejoin="round"/>
<path d="M26.458 38.334V51.8306" stroke="#22282E" stroke-width="2" stroke-linecap="round" stroke-linejoin="round"/>
<path d="M26.5312 22.3379C26.5312 19.5581 28.7847 17.3047 31.5644 17.3047C34.3442 17.3047 36.5976 19.5581 36.5976 22.3379V25.6914C36.5976 28.4711 34.3442 30.7246 31.5644 30.7246C28.7847 30.7246 26.5312 28.4711 26.5312 25.6914V22.3379Z" stroke="#22282E" stroke-width="2" stroke-linecap="round" stroke-linejoin="round"/>
<path d="M34.1514 43.3672C34.1514 40.5875 36.4048 38.334 39.1846 38.334C41.9643 38.334 44.2177 40.5874 44.2177 43.3672V46.7207C44.2177 49.5005 41.9643 51.7539 39.1846 51.7539C36.4048 51.7539 34.1514 49.5005 34.1514 46.7207V43.3672Z" stroke="#22282E" stroke-width="2" stroke-linecap="round" stroke-linejoin="round"/>
<path d="M26.5312 64.4726C26.5312 61.6929 28.7847 59.4395 31.5644 59.4395C34.3442 59.4395 36.5976 61.6929 36.5976 64.4726V67.8262C36.5976 70.6059 34.3442 72.8593 31.5644 72.8593C28.7847 72.8593 26.5312 70.6059 26.5312 67.8262V64.4726Z" stroke="#22282E" stroke-width="2" stroke-linecap="round" stroke-linejoin="round"/>
<path d="M49.5159 55.877H70.9445C72.2302 55.877 73.0873 56.7341 73.0873 58.0198V70.877C73.0873 72.1627 72.2302 73.0198 70.9445 73.0198H49.5159C48.2302 73.0198 47.373 72.1627 47.373 70.877V58.0198C47.373 56.7341 48.2302 55.877 49.5159 55.877Z" stroke="#22282E" stroke-width="2" stroke-linecap="round" stroke-linejoin="round"/>
<path d="M51.6592 55.8786V51.5929C51.6592 46.8786 55.5163 43.0215 60.2306 43.0215C64.9449 43.0215 68.802 46.8786 68.802 51.5929V55.8786" stroke="#22282E" stroke-width="2" stroke-linecap="round" stroke-linejoin="round"/>
</svg>
