<svg width="90" height="91" viewBox="0 0 90 91" fill="none" xmlns="http://www.w3.org/2000/svg">
<path d="M0 15.8047C0 7.52042 6.71573 0.804688 15 0.804688H75C83.2843 0.804688 90 7.52042 90 15.8047V75.8047C90 84.089 83.2843 90.8047 75 90.8047H15C6.71573 90.8047 0 84.089 0 75.8047V15.8047Z" fill="#00FFC5"/>
<path d="M53.814 29.3939L52.5248 25.9901C52.4495 25.7643 52.2607 25.5631 51.9905 25.4207C51.7204 25.2783 51.3855 25.2036 51.0429 25.2093H40.0772C39.7422 25.2105 39.4178 25.2884 39.1567 25.4302C38.8957 25.572 38.7135 25.7694 38.6398 25.9901L37.3506 29.3939" stroke="#22282E" stroke-width="2" stroke-linecap="round" stroke-linejoin="round"/>
<path d="M61.1016 34.1962L64.6798 34.1962C65.6288 34.1962 66.5391 34.5732 67.21 35.2442C67.8809 35.9153 68.258 36.8254 68.258 37.7744L68.258 62.8219C68.258 63.7709 67.8809 64.6811 67.21 65.3521C66.5391 66.0232 65.6288 66.4001 64.6798 66.4001L25.3194 66.4001C24.3704 66.4001 23.4603 66.0232 22.7892 65.3521C22.1182 64.6811 21.7412 63.7709 21.7412 62.8219L21.7412 37.7744C21.7412 36.8254 22.1182 35.9153 22.7892 35.2442C23.4603 34.5732 24.3704 34.1962 25.3194 34.1962L28.8976 34.1962" stroke="#22282E" stroke-width="2" stroke-linecap="round" stroke-linejoin="round"/>
<path d="M60.6489 34.1947L59.328 30.9033C59.1738 30.4666 58.7869 30.0774 58.2334 29.8021C57.6798 29.5267 56.9935 29.3822 56.2915 29.3932H54.0523M29.5547 34.1947L30.8756 30.9033C31.0266 30.4764 31.4 30.0947 31.9349 29.8204C32.4698 29.5462 33.1347 29.3956 33.8211 29.3932H36.6299" stroke="#22282E" stroke-width="2" stroke-linecap="round" stroke-linejoin="round"/>
<path d="M29.7422 51.0723L29.7422 58.7847" stroke="#22282E" stroke-width="2" stroke-linecap="round" stroke-linejoin="round"/>
<path d="M35.6748 51.0723L35.6748 58.7847" stroke="#22282E" stroke-width="2" stroke-linecap="round" stroke-linejoin="round"/>
<path d="M41.6045 51.0723L41.6045 58.7847" stroke="#22282E" stroke-width="2" stroke-linecap="round" stroke-linejoin="round"/>
<path d="M47.5371 51.0723L47.5371 58.7847" stroke="#22282E" stroke-width="2" stroke-linecap="round" stroke-linejoin="round"/>
<path d="M53.4668 51.0723L53.4668 58.7847" stroke="#22282E" stroke-width="2" stroke-linecap="round" stroke-linejoin="round"/>
<path d="M59.3965 51.0723L59.3965 58.7847" stroke="#22282E" stroke-width="2" stroke-linecap="round" stroke-linejoin="round"/>
</svg>
