<svg width="90" height="90" viewBox="0 0 90 90" fill="none" xmlns="http://www.w3.org/2000/svg">
<path d="M0 15C0 6.71573 6.71573 0 15 0H75C83.2843 0 90 6.71573 90 15V75C90 83.2843 83.2843 90 75 90H15C6.71573 90 0 83.2843 0 75V15Z" fill="#00FFC5"/>
<path d="M30.6855 38.6607V19.8401C30.6855 19.3647 30.9113 18.9088 31.3131 18.5726C31.715 18.2365 32.26 18.0476 32.8282 18.0476H40.7348C41.2242 18.0357 41.7038 18.1644 42.0937 18.4122C42.4835 18.6601 42.7602 19.0122 42.8775 19.4099L43.5417 21.6325H56.3979C56.9661 21.6325 57.5112 21.8214 57.913 22.1575C58.3147 22.4937 58.5405 22.9496 58.5405 23.425V38.6607C58.5405 39.1362 58.3147 39.592 57.913 39.9281C57.5112 40.2644 56.9661 40.4531 56.3979 40.4531H32.8282C32.26 40.4531 31.715 40.2644 31.3131 39.9281C30.9113 39.592 30.6855 39.1362 30.6855 38.6607Z" stroke="#22282E" stroke-width="2" stroke-linecap="round" stroke-linejoin="round"/>
<path d="M45.0439 40.5762V54.8831" stroke="#22282E" stroke-width="2" stroke-linecap="round" stroke-linejoin="round"/>
<path d="M24.5215 54.8876V51.104C24.5215 49.0143 26.3592 47.3203 28.6261 47.3203H61.463C63.73 47.3203 65.5677 49.0143 65.5677 51.104V54.8876" stroke="#22282E" stroke-width="2" stroke-linecap="round" stroke-linejoin="round"/>
<path d="M17.2793 57.6921V64.562C17.2793 65.5105 18.0798 66.2794 19.0673 66.2794H29.7956C30.7831 66.2794 31.5836 65.5105 31.5836 64.562V57.6921C31.5836 56.7436 30.7831 55.9746 29.7956 55.9746H19.0673C18.0798 55.9746 17.2793 56.7436 17.2793 57.6921Z" stroke="#22282E" stroke-width="2" stroke-linecap="round" stroke-linejoin="round"/>
<path d="M20.6807 71.9414H28.1807" stroke="#22282E" stroke-width="2" stroke-linecap="round" stroke-linejoin="round"/>
<path d="M24.4307 71.941V68.2148" stroke="#22282E" stroke-width="2" stroke-linecap="round" stroke-linejoin="round"/>
<path d="M37.8486 57.6921V64.562C37.8486 65.5105 38.6492 66.2794 39.6367 66.2794H50.3649C51.3524 66.2794 52.153 65.5105 52.153 64.562V57.6921C52.153 56.7436 51.3524 55.9746 50.3649 55.9746H39.6367C38.6492 55.9746 37.8486 56.7436 37.8486 57.6921Z" stroke="#22282E" stroke-width="2" stroke-linecap="round" stroke-linejoin="round"/>
<path d="M41.25 71.9414H48.75" stroke="#22282E" stroke-width="2" stroke-linecap="round" stroke-linejoin="round"/>
<path d="M45 71.941V68.2148" stroke="#22282E" stroke-width="2" stroke-linecap="round" stroke-linejoin="round"/>
<path d="M58.415 57.6921V64.562C58.415 65.5105 59.2156 66.2794 60.2031 66.2794H70.9313C71.9188 66.2794 72.7194 65.5105 72.7194 64.562V57.6921C72.7194 56.7436 71.9188 55.9746 70.9313 55.9746H60.2031C59.2156 55.9746 58.415 56.7436 58.415 57.6921Z" stroke="#22282E" stroke-width="2" stroke-linecap="round" stroke-linejoin="round"/>
<path d="M61.8164 71.9414H69.3164" stroke="#22282E" stroke-width="2" stroke-linecap="round" stroke-linejoin="round"/>
<path d="M65.5664 71.941V68.2148" stroke="#22282E" stroke-width="2" stroke-linecap="round" stroke-linejoin="round"/>
</svg>
