<svg width="90" height="91" viewBox="0 0 90 91" fill="none" xmlns="http://www.w3.org/2000/svg">
<path d="M0 15.8047C0 7.52042 6.71573 0.804688 15 0.804688H75C83.2843 0.804688 90 7.52042 90 15.8047V75.8047C90 84.089 83.2843 90.8047 75 90.8047H15C6.71573 90.8047 0 84.089 0 75.8047V15.8047Z" fill="#00FFC5"/>
<path d="M17.1416 39.3736V56.5165C17.1416 58.8835 19.0604 60.8022 21.4273 60.8022H47.1416C49.5085 60.8022 51.4273 58.8835 51.4273 56.5165V39.3736C51.4273 37.0067 49.5085 35.0879 47.1416 35.0879H21.4273C19.0604 35.0879 17.1416 37.0067 17.1416 39.3736Z" stroke="#22282E" stroke-width="2" stroke-linecap="round" stroke-linejoin="round"/>
<path d="M27.8555 69.377H40.7126" stroke="#22282E" stroke-width="2" stroke-linecap="round" stroke-linejoin="round"/>
<path d="M34.2832 69.3761V60.8047" stroke="#22282E" stroke-width="2" stroke-linecap="round" stroke-linejoin="round"/>
<path d="M47.1416 26.5181V24.3753C47.1416 23.1918 48.101 22.2324 49.2845 22.2324H70.713C71.8963 22.2324 72.8559 23.1918 72.8559 24.3753V67.2324C72.8559 68.4157 71.8963 69.3753 70.713 69.3753H53.5702" stroke="#22282E" stroke-width="2" stroke-linecap="round" stroke-linejoin="round"/>
<path d="M63.75 32.4103C63.4539 32.4103 63.2139 32.1702 63.2139 31.8741C63.2139 31.5779 63.4539 31.3379 63.75 31.3379" stroke="#22282E" stroke-width="2" stroke-linecap="round" stroke-linejoin="round"/>
<path d="M63.75 32.4103C64.0461 32.4103 64.2861 32.1702 64.2861 31.8741C64.2861 31.5779 64.0461 31.3379 63.75 31.3379" stroke="#22282E" stroke-width="2" stroke-linecap="round" stroke-linejoin="round"/>
<path d="M60 41.5156H72.8571" stroke="#22282E" stroke-width="2" stroke-linecap="round" stroke-linejoin="round"/>
</svg>
