<svg width="90" height="91" viewBox="0 0 90 91" fill="none" xmlns="http://www.w3.org/2000/svg">
<path d="M0 15.8047C0 7.52042 6.71573 0.804688 15 0.804688H75C83.2843 0.804688 90 7.52042 90 15.8047V75.8047C90 84.089 83.2843 90.8047 75 90.8047H15C6.71573 90.8047 0 84.089 0 75.8047V15.8047Z" fill="#00FFC5"/>
<path d="M41.381 35.7925C54.3992 35.7925 64.9524 31.7247 64.9524 26.7068C64.9524 21.6889 54.3992 17.6211 41.381 17.6211C28.3628 17.6211 17.8096 21.6889 17.8096 26.7068C17.8096 31.7247 28.3628 35.7925 41.381 35.7925Z" stroke="#22282E" stroke-width="2" stroke-linecap="round" stroke-linejoin="round"/>
<path d="M64.9512 41.1947V26.709" stroke="#22282E" stroke-width="2" stroke-linecap="round" stroke-linejoin="round"/>
<path d="M17.8096 26.709V55.6804C17.8096 60.1486 26.1278 63.7255 37.0953 64.5788" stroke="#22282E" stroke-width="2" stroke-linecap="round" stroke-linejoin="round"/>
<path d="M41.381 50.1076C28.5239 50.2791 17.8096 46.2076 17.8096 41.1934" stroke="#22282E" stroke-width="2" stroke-linecap="round" stroke-linejoin="round"/>
<path d="M45.7236 60.9233C45.7236 67.5838 51.1231 72.9833 57.7836 72.9833C64.4442 72.9833 69.8436 67.5838 69.8436 60.9233C69.8436 54.2627 64.4442 48.8633 57.7836 48.8633C54.5226 48.8633 51.5638 50.1576 49.3931 52.2605" stroke="#22282E" stroke-width="2" stroke-linecap="round"/>
<path d="M58.1843 61.7262C57.9622 61.7262 57.7822 61.5461 57.7822 61.324C57.7822 61.1019 57.9622 60.9219 58.1843 60.9219" stroke="#22282E" stroke-width="2" stroke-linecap="round" stroke-linejoin="round"/>
<path d="M58.1836 61.7262C58.4057 61.7262 58.5857 61.5461 58.5857 61.324C58.5857 61.1019 58.4057 60.9219 58.1836 60.9219" stroke="#22282E" stroke-width="2" stroke-linecap="round" stroke-linejoin="round"/>
<path d="M50.8107 45.3535L49.2676 52.8951L55.7997 55.4682" stroke="#22282E" stroke-width="2" stroke-linecap="round" stroke-linejoin="round"/>
</svg>
