<svg width="90" height="91" viewBox="0 0 90 91" fill="none" xmlns="http://www.w3.org/2000/svg">
<path d="M0 15.8047C0 7.52042 6.71573 0.804688 15 0.804688H75C83.2843 0.804688 90 7.52042 90 15.8047V75.8047C90 84.089 83.2843 90.8047 75 90.8047H15C6.71573 90.8047 0 84.089 0 75.8047V15.8047Z" fill="#00FFC5"/>
<path d="M46.4684 24.002H19.2845C18.101 24.002 17.1416 24.9614 17.1416 26.1448V60.4305C17.1416 61.6138 18.101 62.5734 19.2845 62.5734H70.713C71.8963 62.5734 72.8559 61.6138 72.8559 60.4305V45.4305" stroke="#22282E" stroke-width="2" stroke-linecap="round" stroke-linejoin="round"/>
<path d="M40.7134 62.5742L36.4277 73.2885" stroke="#22282E" stroke-width="2" stroke-linecap="round" stroke-linejoin="round"/>
<path d="M49.2832 62.5742L53.5689 73.2885" stroke="#22282E" stroke-width="2" stroke-linecap="round" stroke-linejoin="round"/>
<path d="M32.1416 73.291H57.8559" stroke="#22282E" stroke-width="2" stroke-linecap="round" stroke-linejoin="round"/>
<path d="M72.367 18.3242L65.9385 24.7528L72.367 31.1814" stroke="#22282E" stroke-width="2" stroke-linecap="round" stroke-linejoin="round"/>
<path d="M55.2246 22.6074L61.6532 29.036L55.2246 35.4646" stroke="#22282E" stroke-width="2" stroke-linecap="round" stroke-linejoin="round"/>
</svg>
