<svg width="90" height="91" viewBox="0 0 90 91" fill="none" xmlns="http://www.w3.org/2000/svg">
<path d="M0 15.8047C0 7.52042 6.71573 0.804688 15 0.804688H75C83.2843 0.804688 90 7.52042 90 15.8047V75.8047C90 84.089 83.2843 90.8047 75 90.8047H15C6.71573 90.8047 0 84.089 0 75.8047V15.8047Z" fill="#00FFC5"/>
<path d="M72.8588 73.5714H70.716C68.4428 73.5714 66.2627 72.6684 64.6551 71.0609C63.0475 69.4533 62.1445 67.2731 62.1445 65C62.1445 67.2731 61.2415 69.4533 59.634 71.0609C58.0264 72.6684 55.8464 73.5714 53.5731 73.5714C51.2998 73.5714 49.1196 72.6684 47.5122 71.0609C45.9047 69.4533 45.0017 67.2731 45.0017 65C45.0017 67.2731 44.0986 69.4533 42.4911 71.0609C40.8837 72.6684 38.7035 73.5714 36.4302 73.5714C34.157 73.5714 31.9768 72.6684 30.3693 71.0609C28.7619 69.4533 27.8588 67.2731 27.8588 65C27.8588 67.2731 26.9558 69.4533 25.3483 71.0609C23.7408 72.6684 21.5607 73.5714 19.2874 73.5714H17.1445" stroke="#22282E" stroke-width="2" stroke-linecap="round" stroke-linejoin="round"/>
<path d="M64.6726 56.4318C62.4654 53.7483 59.6912 51.587 56.5493 50.1031C53.4075 48.6192 49.9759 47.8496 46.5013 47.8496C43.0266 47.8496 39.595 48.6192 36.4532 50.1031C33.3113 51.587 30.5371 53.7483 28.3298 56.4318" stroke="#22282E" stroke-width="2" stroke-linecap="round" stroke-linejoin="round"/>
<path d="M49.6726 48.0724C49.9298 38.3867 52.8869 29.5581 59.3155 26.3867" stroke="#22282E" stroke-width="2" stroke-linecap="round" stroke-linejoin="round"/>
<path d="M46.4998 18.2455C49.2779 17.6984 52.16 18.238 54.5521 19.753C56.9442 21.268 58.6639 23.6429 59.3569 26.3883" stroke="#22282E" stroke-width="2" stroke-linecap="round" stroke-linejoin="round"/>
<path d="M74.9999 27.9731C73.0272 25.8431 70.3452 24.5067 67.4571 24.2147C64.5686 23.9228 61.6731 24.6953 59.3142 26.3873" stroke="#22282E" stroke-width="2" stroke-linecap="round" stroke-linejoin="round"/>
<path d="M43.5876 30.9743C45.267 28.5002 47.7562 26.6888 50.6269 25.8518C53.4976 25.0148 56.5703 25.2046 59.3162 26.3886C62.0705 27.0622 64.4551 28.7799 65.9665 31.179C67.4781 33.578 67.998 36.4706 67.4164 39.2458" stroke="#22282E" stroke-width="2" stroke-linecap="round" stroke-linejoin="round"/>
<path d="M18.3046 32.334L15.2542 36.7178C14.9153 37.2236 14.9153 37.898 15.2542 38.4039C15.5931 38.9097 16.1015 39.2469 16.6099 39.2469H34.9126C35.9294 39.2469 36.6073 38.5725 36.6073 37.5608C36.6073 37.2236 36.6072 37.055 36.4378 36.7178L33.3873 32.334H18.3046Z" stroke="#22282E" stroke-width="2" stroke-linecap="round" stroke-linejoin="round"/>
<path d="M25.9308 22.2148H19.9994C18.9826 22.2148 18.3047 22.8893 18.3047 23.9009V32.3313" stroke="#22282E" stroke-width="2" stroke-linecap="round" stroke-linejoin="round"/>
<path d="M25.8043 22.2148H31.7357C32.7525 22.2148 33.4304 22.8893 33.4304 23.9009V32.3313" stroke="#22282E" stroke-width="2" stroke-linecap="round" stroke-linejoin="round"/>
</svg>
