<svg width="90" height="91" viewBox="0 0 90 91" fill="none" xmlns="http://www.w3.org/2000/svg">
<path d="M0 15.8047C0 7.52042 6.71573 0.804688 15 0.804688H75C83.2843 0.804688 90 7.52042 90 15.8047V75.8047C90 84.089 83.2843 90.8047 75 90.8047H15C6.71573 90.8047 0 84.089 0 75.8047V15.8047Z" fill="#00FFC5"/>
<path d="M44.9987 39.3778C60.384 39.3778 72.8559 34.5808 72.8559 28.6635C72.8559 22.7462 60.384 17.9492 44.9987 17.9492C29.6137 17.9492 17.1416 22.7462 17.1416 28.6635C17.1416 34.5808 29.6137 39.3778 44.9987 39.3778Z" stroke="#22282E" stroke-width="2" stroke-linecap="round" stroke-linejoin="round"/>
<path d="M17.1416 28.666V62.9517C17.1416 68.866 29.613 73.666 44.9987 73.666C60.3845 73.666 72.8559 68.866 72.8559 62.9517V28.666" stroke="#22282E" stroke-width="2" stroke-linecap="round" stroke-linejoin="round"/>
<path d="M72.8559 45.8047C72.8559 51.719 60.3845 56.519 44.9987 56.519C29.613 56.519 17.1416 51.719 17.1416 45.8047" stroke="#22282E" stroke-width="2" stroke-linecap="round" stroke-linejoin="round"/>
</svg>
