<svg width="90" height="90" viewBox="0 0 90 90" fill="none" xmlns="http://www.w3.org/2000/svg">
<rect width="90" height="90" rx="15" fill="#00FFC5"/>
<path d="M47.624 45.104C46.9883 45.3801 46.3027 45.5225 45.6097 45.5225C44.9167 45.5225 44.2311 45.3801 43.5954 45.104L19.1668 33.7897C18.7702 33.5897 18.4368 33.2834 18.2039 32.9051C17.971 32.5267 17.8477 32.0912 17.8477 31.6469C17.8477 31.2026 17.971 30.767 18.2039 30.3887C18.4368 30.0104 18.7702 29.7041 19.1668 29.504L43.5954 18.104C44.2311 17.828 44.9167 17.6855 45.6097 17.6855C46.3027 17.6855 46.9883 17.828 47.624 18.104L72.0524 29.4183C72.4493 29.6184 72.7827 29.9246 73.0154 30.3029C73.2486 30.6813 73.3716 31.1169 73.3716 31.5612C73.3716 32.0055 73.2486 32.441 73.0154 32.8194C72.7827 33.1977 72.4493 33.504 72.0524 33.704L47.624 45.104Z" stroke="#22282E" stroke-width="2" stroke-linecap="round" stroke-linejoin="round"/>
<path d="M73.4662 47.0332L47.3234 59.0761C46.765 59.3307 46.1585 59.4627 45.5448 59.4627C44.9311 59.4627 44.3246 59.3307 43.7662 59.0761L17.752 47.0332" stroke="#22282E" stroke-width="2" stroke-linecap="round" stroke-linejoin="round"/>
<path d="M73.4662 60.9609L47.3234 73.0038C46.765 73.2584 46.1585 73.3904 45.5448 73.3904C44.9311 73.3904 44.3246 73.2584 43.7662 73.0038L17.752 60.9609" stroke="#22282E" stroke-width="2" stroke-linecap="round" stroke-linejoin="round"/>
</svg>
