<svg width="90" height="91" viewBox="0 0 90 91" fill="none" xmlns="http://www.w3.org/2000/svg">
<path d="M0 15.8047C0 7.52042 6.71573 0.804688 15 0.804688H75C83.2843 0.804688 90 7.52042 90 15.8047V75.8047C90 84.089 83.2843 90.8047 75 90.8047H15C6.71573 90.8047 0 84.089 0 75.8047V15.8047Z" fill="#00FFC5"/>
<path d="M61.8662 47.8262L67.3472 64.0873" stroke="#22282E" stroke-width="2" stroke-linecap="round" stroke-linejoin="round"/>
<path d="M63.2003 46.776C64.8369 45.3757 65.0285 42.9138 63.6282 41.2772C62.2279 39.6405 59.766 39.449 58.1294 40.8493C56.4927 42.2496 56.3012 44.7115 57.7015 46.3481C59.1018 47.9847 61.5637 48.1763 63.2003 46.776Z" stroke="#22282E" stroke-width="2" stroke-linecap="round" stroke-linejoin="round"/>
<path d="M71.3976 71.0924C73.0342 69.6921 73.2257 67.2302 71.8254 65.5936C70.4251 63.9569 67.9632 63.7654 66.3266 65.1657C64.69 66.566 64.4984 69.0279 65.8988 70.6645C67.2991 72.3011 69.761 72.4927 71.3976 71.0924Z" stroke="#22282E" stroke-width="2" stroke-linecap="round" stroke-linejoin="round"/>
<path d="M28.1221 47.8262L22.6411 64.0873" stroke="#22282E" stroke-width="2" stroke-linecap="round" stroke-linejoin="round"/>
<path d="M26.7968 46.776C25.1602 45.3757 24.9686 42.9138 26.3689 41.2772C27.7692 39.6405 30.2311 39.449 31.8677 40.8493C33.5043 42.2496 33.6959 44.7115 32.2956 46.3481C30.8953 47.9847 28.4334 48.1763 26.7968 46.776Z" stroke="#22282E" stroke-width="2" stroke-linecap="round" stroke-linejoin="round"/>
<path d="M18.6024 71.0924C16.9658 69.6921 16.7743 67.2302 18.1746 65.5936C19.5749 63.9569 22.0368 63.7654 23.6734 65.1657C25.31 66.566 25.5016 69.0279 24.1012 70.6645C22.7009 72.3011 20.239 72.4927 18.6024 71.0924Z" stroke="#22282E" stroke-width="2" stroke-linecap="round" stroke-linejoin="round"/>
<path d="M59.0742 47.8262L53.5932 64.0873" stroke="#22282E" stroke-width="2" stroke-linecap="round" stroke-linejoin="round"/>
<path d="M49.5517 71.0924C47.915 69.6921 47.7235 67.2302 49.1238 65.5936C50.5241 63.9569 52.986 63.7654 54.6226 65.1657C56.2592 66.566 56.4508 69.0279 55.0505 70.6645C53.6502 72.3011 51.1883 72.4927 49.5517 71.0924Z" stroke="#22282E" stroke-width="2" stroke-linecap="round" stroke-linejoin="round"/>
<path d="M30.917 47.8262L36.398 64.0873" stroke="#22282E" stroke-width="2" stroke-linecap="round" stroke-linejoin="round"/>
<path d="M40.4454 71.0924C42.082 69.6921 42.2736 67.2302 40.8733 65.5936C39.473 63.9569 37.0111 63.7654 35.3745 65.1657C33.7379 66.566 33.5463 69.0279 34.9466 70.6645C36.3469 72.3011 38.8088 72.4927 40.4454 71.0924Z" stroke="#22282E" stroke-width="2" stroke-linecap="round" stroke-linejoin="round"/>
<path d="M47.5723 26.7441L57.9613 40.4019" stroke="#22282E" stroke-width="2" stroke-linecap="round" stroke-linejoin="round"/>
<path d="M48.4994 25.3223C49.6028 23.4725 48.9978 21.0785 47.148 19.975C45.2982 18.8716 42.9041 19.4766 41.8007 21.3264C40.6972 23.1762 41.3023 25.5703 43.1521 26.6737C45.0019 27.7772 47.396 27.1722 48.4994 25.3223Z" stroke="#22282E" stroke-width="2" stroke-linecap="round" stroke-linejoin="round"/>
<path d="M42.4189 26.7441L32.0299 40.4019" stroke="#22282E" stroke-width="2" stroke-linecap="round" stroke-linejoin="round"/>
</svg>
