<svg width="90" height="91" viewBox="0 0 90 91" fill="none" xmlns="http://www.w3.org/2000/svg">
<path d="M0 15.8047C0 7.52042 6.71573 0.804688 15 0.804688H75C83.2843 0.804688 90 7.52042 90 15.8047V75.8047C90 84.089 83.2843 90.8047 75 90.8047H15C6.71573 90.8047 0 84.089 0 75.8047V15.8047Z" fill="#00FFC5"/>
<path d="M39.9455 25.1152H19.2845C18.101 25.1152 17.1416 26.0746 17.1416 27.2581V61.5438C17.1416 62.7271 18.101 63.6867 19.2845 63.6867H70.713C71.8963 63.6867 72.8559 62.7271 72.8559 61.5438V40.4868" stroke="#22282E" stroke-width="2" stroke-linecap="round" stroke-linejoin="round"/>
<path d="M40.7134 63.6875L36.4277 74.4018" stroke="#22282E" stroke-width="2" stroke-linecap="round" stroke-linejoin="round"/>
<path d="M49.2832 63.6875L53.5689 74.4018" stroke="#22282E" stroke-width="2" stroke-linecap="round" stroke-linejoin="round"/>
<path d="M32.1416 74.3984H57.8559" stroke="#22282E" stroke-width="2" stroke-linecap="round" stroke-linejoin="round"/>
<path d="M51.9142 24.5176H66.7689C67.6602 24.5176 68.2544 25.0051 68.2544 25.7365V33.05C68.2544 33.7813 67.6602 34.2689 66.7689 34.2689H51.9142C51.0229 34.2689 50.4287 33.7813 50.4287 33.05V25.7365C50.4287 25.0051 51.0229 24.5176 51.9142 24.5176Z" stroke="#22282E" stroke-width="2" stroke-linecap="round" stroke-linejoin="round"/>
<path d="M53.3994 24.5186V22.0807C53.3994 19.3991 56.0733 17.2051 59.3413 17.2051C62.6094 17.2051 65.2832 19.3991 65.2832 22.0807V24.5186" stroke="#22282E" stroke-width="2" stroke-linecap="round" stroke-linejoin="round"/>
</svg>
