<svg width="90" height="91" viewBox="0 0 90 91" fill="none" xmlns="http://www.w3.org/2000/svg">
<path d="M0 15.8047C0 7.52042 6.71573 0.804688 15 0.804688H75C83.2843 0.804688 90 7.52042 90 15.8047V75.8047C90 84.089 83.2843 90.8047 75 90.8047H15C6.71573 90.8047 0 84.089 0 75.8047V15.8047Z" fill="#00FFC5"/>
<path d="M72 57.8047V31.4047C72 28.0444 72 26.3642 71.346 25.0807C70.7708 23.9518 69.8529 23.0339 68.7239 22.4586C67.4405 21.8047 65.7603 21.8047 62.4 21.8047H27.6C24.2397 21.8047 22.5595 21.8047 21.2761 22.4586C20.1471 23.0339 19.2292 23.9518 18.654 25.0807C18 26.3642 18 28.0444 18 31.4047V57.8047M23 69.8047H67C68.8599 69.8047 69.7899 69.8047 70.5529 69.6002C72.6235 69.0454 74.2408 67.4281 74.7956 65.3576C75 64.5946 75 63.6646 75 61.8047C75 60.8747 75 60.4097 74.8978 60.0282C74.6204 58.9929 73.8117 58.1843 72.7765 57.9069C72.395 57.8047 71.93 57.8047 71 57.8047H19C18.07 57.8047 17.605 57.8047 17.2235 57.9069C16.1883 58.1843 15.3796 58.9929 15.1022 60.0282C15 60.4097 15 60.8747 15 61.8047C15 63.6646 15 64.5946 15.2044 65.3576C15.7592 67.4281 17.3765 69.0454 19.4471 69.6002C20.2101 69.8047 21.1401 69.8047 23 69.8047Z" stroke="#22282E" stroke-width="2" stroke-linecap="round" stroke-linejoin="round"/>
</svg>
