<svg width="90" height="91" viewBox="0 0 90 91" fill="none" xmlns="http://www.w3.org/2000/svg">
<path d="M0 15.8047C0 7.52042 6.71573 0.804688 15 0.804688H75C83.2843 0.804688 90 7.52042 90 15.8047V75.8047C90 84.089 83.2843 90.8047 75 90.8047H15C6.71573 90.8047 0 84.089 0 75.8047V15.8047Z" fill="#00FFC5"/>
<path d="M44.3565 68.2775C47.4572 68.2775 49.9708 65.7639 49.9708 62.6632C49.9708 59.5625 47.4572 57.0488 44.3565 57.0488C41.2558 57.0488 38.7422 59.5625 38.7422 62.6632C38.7422 65.7639 41.2558 68.2775 44.3565 68.2775Z" stroke="#22282E" stroke-width="2" stroke-linecap="round" stroke-linejoin="round"/>
<path d="M33.7705 50.0617C35.1641 48.631 36.8302 47.4938 38.6703 46.7174C40.5105 45.941 42.4875 45.541 44.4848 45.541C46.4821 45.541 48.4591 45.941 50.2993 46.7174C52.1394 47.4938 53.8054 48.631 55.1991 50.0617" stroke="#22282E" stroke-width="2" stroke-linecap="round" stroke-linejoin="round"/>
<path d="M24.4717 42.8169C27.0804 40.1929 30.1822 38.1105 33.5986 36.6896C37.015 35.2686 40.6787 34.5371 44.3788 34.5371C48.0789 34.5371 51.7426 35.2686 55.159 36.6896C58.5753 38.1105 61.6773 40.1929 64.286 42.8169" stroke="#22282E" stroke-width="2" stroke-linecap="round" stroke-linejoin="round"/>
<path d="M16.5 34.8477C20.1576 31.1883 24.5003 28.2853 29.2802 26.3047C34.06 24.3241 39.1832 23.3047 44.3571 23.3047C49.5311 23.3047 54.6543 24.3241 59.4343 26.3047C64.2141 28.2853 68.5569 31.1883 72.2143 34.8477" stroke="#22282E" stroke-width="2" stroke-linecap="round" stroke-linejoin="round"/>
</svg>
