<svg width="90" height="91" viewBox="0 0 90 91" fill="none" xmlns="http://www.w3.org/2000/svg">
<path d="M0 15.8047C0 7.52042 6.71573 0.804688 15 0.804688H75C83.2843 0.804688 90 7.52042 90 15.8047V75.8047C90 84.089 83.2843 90.8047 75 90.8047H15C6.71573 90.8047 0 84.089 0 75.8047V15.8047Z" fill="#00FFC5"/>
<path d="M17.1416 64.9314V56.3599C17.1416 53.993 19.0604 52.0742 21.4273 52.0742H68.5702C70.9372 52.0742 72.8559 53.993 72.8559 56.3599V64.9314C72.8559 67.2984 70.9372 69.2171 68.5702 69.2171H21.4273C19.0604 69.2171 17.1416 67.2984 17.1416 64.9314Z" stroke="#22282E" stroke-width="2" stroke-linecap="round" stroke-linejoin="round"/>
<path d="M27.8555 69.2129V73.4986" stroke="#22282E" stroke-width="2" stroke-linecap="round" stroke-linejoin="round"/>
<path d="M27.8555 60.6406H29.9983" stroke="#22282E" stroke-width="2" stroke-linecap="round" stroke-linejoin="round"/>
<path d="M38.5693 60.6406H40.7122" stroke="#22282E" stroke-width="2" stroke-linecap="round" stroke-linejoin="round"/>
<path d="M19.2832 28.502L25.7118 52.0734" stroke="#22282E" stroke-width="2" stroke-linecap="round" stroke-linejoin="round"/>
<path d="M70.7118 28.502L64.2832 52.0734" stroke="#22282E" stroke-width="2" stroke-linecap="round" stroke-linejoin="round"/>
<path d="M30.2109 24.2146C38.3538 16.0717 51.6395 16.0717 59.7824 24.2146" stroke="#22282E" stroke-width="2" stroke-linecap="round" stroke-linejoin="round"/>
<path d="M37.9482 30.7814C41.6281 27.1015 47.9364 27.1015 51.6162 30.7814" stroke="#22282E" stroke-width="2" stroke-linecap="round" stroke-linejoin="round"/>
<path d="M62.1416 69.2129V73.4986" stroke="#22282E" stroke-width="2" stroke-linecap="round" stroke-linejoin="round"/>
<path d="M44.7853 40.8108C44.1936 40.8108 43.7139 40.3312 43.7139 39.7394C43.7139 39.1477 44.1936 38.668 44.7853 38.668" stroke="#22282E" stroke-width="2" stroke-linecap="round" stroke-linejoin="round"/>
<path d="M44.7861 40.8108C45.3779 40.8108 45.8576 40.3312 45.8576 39.7394C45.8576 39.1477 45.3779 38.668 44.7861 38.668" stroke="#22282E" stroke-width="2" stroke-linecap="round" stroke-linejoin="round"/>
</svg>
