<svg width="90" height="91" viewBox="0 0 90 91" fill="none" xmlns="http://www.w3.org/2000/svg">
<path d="M0 15.8047C0 7.52042 6.71573 0.804688 15 0.804688H75C83.2843 0.804688 90 7.52042 90 15.8047V75.8047C90 84.089 83.2843 90.8047 75 90.8047H15C6.71573 90.8047 0 84.089 0 75.8047V15.8047Z" fill="#00FFC5"/>
<path d="M68.5702 20.0879H21.4273C19.0604 20.0879 17.1416 22.0067 17.1416 24.3736V41.5165C17.1416 43.8834 19.0604 45.8022 21.4273 45.8022H68.5702C70.9372 45.8022 72.8559 43.8834 72.8559 41.5165V24.3736C72.8559 22.0067 70.9372 20.0879 68.5702 20.0879Z" stroke="#22282E" stroke-width="2" stroke-linecap="round" stroke-linejoin="round"/>
<path d="M29.9983 35.0904C31.1818 35.0904 32.1412 34.131 32.1412 32.9475C32.1412 31.7641 31.1818 30.8047 29.9983 30.8047C28.8149 30.8047 27.8555 31.7641 27.8555 32.9475C27.8555 34.131 28.8149 35.0904 29.9983 35.0904Z" stroke="#22282E" stroke-width="2" stroke-linecap="round" stroke-linejoin="round"/>
<path d="M47.1416 32.9434H62.1416" stroke="#22282E" stroke-width="2" stroke-linecap="round" stroke-linejoin="round"/>
<path d="M21.4273 45.8047C20.2907 45.8047 19.2006 46.2562 18.3969 47.0599C17.5931 47.8637 17.1416 48.9537 17.1416 50.0904V67.2333C17.1416 68.3698 17.5931 69.4601 18.3969 70.2637C19.2006 71.0673 20.2907 71.519 21.4273 71.519H68.5702C69.7067 71.519 70.797 71.0673 71.6006 70.2637C72.4042 69.4601 72.8559 68.3698 72.8559 67.2333V50.0904C72.8559 48.9537 72.4042 47.8637 71.6006 47.0599C70.797 46.2562 69.7067 45.8047 68.5702 45.8047" stroke="#22282E" stroke-width="2" stroke-linecap="round" stroke-linejoin="round"/>
<path d="M29.9983 60.8013C31.1818 60.8013 32.1412 59.8418 32.1412 58.6585C32.1412 57.475 31.1818 56.5156 29.9983 56.5156C28.8149 56.5156 27.8555 57.475 27.8555 58.6585C27.8555 59.8418 28.8149 60.8013 29.9983 60.8013Z" stroke="#22282E" stroke-width="2" stroke-linecap="round" stroke-linejoin="round"/>
<path d="M47.1416 58.6602H62.1416" stroke="#22282E" stroke-width="2" stroke-linecap="round" stroke-linejoin="round"/>
</svg>
