<svg width="90" height="91" viewBox="0 0 90 91" fill="none" xmlns="http://www.w3.org/2000/svg">
<path d="M0 15.8047C0 7.52042 6.71573 0.804688 15 0.804688H75C83.2843 0.804688 90 7.52042 90 15.8047V75.8047C90 84.089 83.2843 90.8047 75 90.8047H15C6.71573 90.8047 0 84.089 0 75.8047V15.8047Z" fill="#00FFC5"/>
<path d="M46.3535 49.2383L46.4048 29.3042" stroke="#22282E" stroke-width="2" stroke-linecap="round" stroke-linejoin="round"/>
<path d="M67.834 29.307L67.834 34.3039C67.834 37.0636 65.9152 39.3008 63.5483 39.3008L29.2626 39.3008C26.8956 39.3008 24.9768 37.0636 24.9768 34.3039L24.9768 29.307" stroke="#22282E" stroke-width="2" stroke-linecap="round" stroke-linejoin="round"/>
<path d="M70.5518 21.477L70.0745 19.6228C70.0466 19.4998 69.9767 19.3902 69.8767 19.3126C69.7766 19.235 69.6526 19.1943 69.5258 19.1974L65.4656 19.1974C65.3416 19.1981 65.2215 19.2405 65.1248 19.3178C65.0282 19.395 64.9607 19.5026 64.9334 19.6228L64.4561 21.477" stroke="#22282E" stroke-width="2" stroke-linecap="round" stroke-linejoin="round"/>
<path d="M71.187 21.4746L72.0058 21.4746C72.223 21.4746 72.4313 21.5494 72.5848 21.6825C72.7383 21.8156 72.8246 21.9962 72.8246 22.1844L72.8246 27.1534C72.8246 27.3417 72.7383 27.5222 72.5848 27.6554C72.4313 27.7885 72.223 27.8633 72.0058 27.8633L62.9985 27.8633C62.7814 27.8633 62.5731 27.7885 62.4195 27.6554C62.266 27.5222 62.1797 27.3417 62.1797 27.1534L62.1797 22.1844C62.1797 21.9962 62.266 21.8156 62.4195 21.6825C62.5731 21.5494 62.7814 21.4746 62.9985 21.4746L63.8174 21.4746" stroke="#22282E" stroke-width="2" stroke-linecap="round" stroke-linejoin="round"/>
<path d="M49.5518 21.477L49.0745 19.6228C49.0466 19.4998 48.9767 19.3902 48.8767 19.3126C48.7766 19.235 48.6526 19.1943 48.5258 19.1974L44.4656 19.1974C44.3416 19.1981 44.2215 19.2405 44.1248 19.3178C44.0282 19.395 43.9607 19.5026 43.9334 19.6228L43.4561 21.477" stroke="#22282E" stroke-width="2" stroke-linecap="round" stroke-linejoin="round"/>
<path d="M50.187 21.4746L51.0058 21.4746C51.223 21.4746 51.4313 21.5494 51.5848 21.6825C51.7383 21.8156 51.8246 21.9962 51.8246 22.1844L51.8246 27.1534C51.8246 27.3417 51.7383 27.5222 51.5848 27.6554C51.4313 27.7885 51.223 27.8633 51.0058 27.8633L41.9985 27.8633C41.7814 27.8633 41.5731 27.7885 41.4195 27.6554C41.266 27.5222 41.1797 27.3417 41.1797 27.1534L41.1797 22.1844C41.1797 21.9962 41.266 21.8156 41.4195 21.6825C41.5731 21.5494 41.7814 21.4746 41.9985 21.4746L42.8174 21.4746" stroke="#22282E" stroke-width="2" stroke-linecap="round" stroke-linejoin="round"/>
<path d="M28.5518 21.477L28.0745 19.6228C28.0466 19.4998 27.9767 19.3902 27.8767 19.3126C27.7766 19.235 27.6526 19.1943 27.5258 19.1974L23.4656 19.1974C23.3416 19.1981 23.2215 19.2405 23.1248 19.3178C23.0282 19.395 22.9607 19.5026 22.9334 19.6228L22.4561 21.477" stroke="#22282E" stroke-width="2" stroke-linecap="round" stroke-linejoin="round"/>
<path d="M29.187 21.4746L30.0058 21.4746C30.223 21.4746 30.4313 21.5494 30.5848 21.6825C30.7383 21.8156 30.8246 21.9962 30.8246 22.1844L30.8246 27.1534C30.8246 27.3417 30.7383 27.5222 30.5848 27.6554C30.4313 27.7885 30.223 27.8633 30.0058 27.8633L20.9985 27.8633C20.7814 27.8633 20.5731 27.7885 20.4195 27.6554C20.266 27.5222 20.1797 27.3417 20.1797 27.1534L20.1797 22.1844C20.1797 21.9962 20.266 21.8156 20.4195 21.6825C20.5731 21.5494 20.7814 21.4746 20.9985 21.4746L21.8174 21.4746" stroke="#22282E" stroke-width="2" stroke-linecap="round" stroke-linejoin="round"/>
<rect x="17.1445" y="50.7383" width="55.7139" height="21.6757" rx="3" stroke="#22282E" stroke-width="2"/>
<path d="M33.3372 59.3867L32.87 57.5567C32.8428 57.4353 32.7744 57.3271 32.6765 57.2506C32.5786 57.174 32.4573 57.1338 32.3331 57.1369H28.36C28.2386 57.1375 28.1211 57.1794 28.0265 57.2557C27.9319 57.3319 27.8659 57.438 27.8392 57.5567L27.3721 59.3867" stroke="#22282E" stroke-width="2" stroke-linecap="round" stroke-linejoin="round"/>
<path d="M33.9597 59.3862L34.761 59.3862C34.9735 59.3862 35.1773 59.46 35.3276 59.5914C35.4778 59.7228 35.5623 59.901 35.5623 60.0868L35.5623 64.9908C35.5623 65.1766 35.4778 65.3548 35.3276 65.4862C35.1773 65.6176 34.9735 65.6914 34.761 65.6914L25.9468 65.6914C25.7343 65.6914 25.5305 65.6176 25.3802 65.4862C25.2299 65.3548 25.1455 65.1766 25.1455 64.9908L25.1455 60.0868C25.1455 59.901 25.2299 59.7228 25.3802 59.5914C25.5305 59.46 25.7343 59.3862 25.9468 59.3862L26.7481 59.3862" stroke="#22282E" stroke-width="2" stroke-linecap="round" stroke-linejoin="round"/>
<path d="M49.4827 59.3867L49.0156 57.5567C48.9883 57.4353 48.9199 57.3271 48.822 57.2506C48.7241 57.174 48.6028 57.1338 48.4786 57.1369H44.5055C44.3841 57.1375 44.2666 57.1794 44.172 57.2557C44.0774 57.3319 44.0114 57.438 43.9847 57.5567L43.5176 59.3867" stroke="#22282E" stroke-width="2" stroke-linecap="round" stroke-linejoin="round"/>
<path d="M50.1052 59.3862L50.9065 59.3862C51.119 59.3862 51.3229 59.46 51.4731 59.5914C51.6233 59.7228 51.7078 59.901 51.7078 60.0868L51.7078 64.9908C51.7078 65.1766 51.6233 65.3548 51.4731 65.4862C51.3229 65.6176 51.119 65.6914 50.9065 65.6914L42.0923 65.6914C41.8798 65.6914 41.676 65.6176 41.5257 65.4862C41.3754 65.3548 41.291 65.1766 41.291 64.9908L41.291 60.0868C41.291 59.901 41.3754 59.7228 41.5257 59.5914C41.676 59.46 41.8798 59.3862 42.0923 59.3862L42.8936 59.3862" stroke="#22282E" stroke-width="2" stroke-linecap="round" stroke-linejoin="round"/>
<path d="M65.6311 59.3867L65.164 57.5567C65.1367 57.4353 65.0683 57.3271 64.9704 57.2506C64.8726 57.174 64.7512 57.1338 64.6271 57.1369H60.6539C60.5326 57.1375 60.415 57.1794 60.3204 57.2557C60.2259 57.3319 60.1598 57.438 60.1331 57.5567L59.666 59.3867" stroke="#22282E" stroke-width="2" stroke-linecap="round" stroke-linejoin="round"/>
<path d="M66.2537 59.3862L67.0549 59.3862C67.2674 59.3862 67.4713 59.46 67.6215 59.5914C67.7718 59.7228 67.8562 59.901 67.8562 60.0868L67.8562 64.9908C67.8562 65.1766 67.7718 65.3548 67.6215 65.4862C67.4713 65.6176 67.2674 65.6914 67.0549 65.6914L58.2407 65.6914C58.0282 65.6914 57.8244 65.6176 57.6741 65.4862C57.5239 65.3548 57.4395 65.1766 57.4395 64.9908L57.4395 60.0868C57.4395 59.901 57.5239 59.7228 57.6741 59.5914C57.8244 59.46 58.0282 59.3862 58.2407 59.3862L59.042 59.3862" stroke="#22282E" stroke-width="2" stroke-linecap="round" stroke-linejoin="round"/>
</svg>
