<svg width="90" height="90" viewBox="0 0 90 90" fill="none" xmlns="http://www.w3.org/2000/svg">
<path d="M0 15C0 6.71573 6.71573 0 15 0H75C83.2843 0 90 6.71573 90 15V75C90 83.2843 83.2843 90 75 90H15C6.71573 90 0 83.2843 0 75V15Z" fill="#00FFC5"/>
<path d="M68.5702 47.1445H21.4273C19.0604 47.1445 17.1416 49.0633 17.1416 51.4302V68.5731C17.1416 70.9401 19.0604 72.8588 21.4273 72.8588H68.5702C70.9372 72.8588 72.8559 70.9401 72.8559 68.5731V51.4302C72.8559 49.0633 70.9372 47.1445 68.5702 47.1445Z" stroke="#22282E" stroke-width="2" stroke-linecap="round" stroke-linejoin="round"/>
<path d="M17.5283 49.6315L24.9855 20.4886C25.1986 19.5436 25.7256 18.6987 26.4805 18.0916C27.2355 17.4845 28.1739 17.1511 29.1426 17.1458H60.8568C61.8476 17.1216 62.8162 17.4415 63.5975 18.051C64.3788 18.6604 64.9248 19.5219 65.1425 20.4886L72.5996 49.6315" stroke="#22282E" stroke-width="2" stroke-linecap="round" stroke-linejoin="round"/>
<path d="M47.9827 57.0278L47.5156 55.2133C47.4883 55.0929 47.4199 54.9856 47.322 54.9097C47.2242 54.8339 47.1028 54.794 46.9787 54.797H43.0055C42.8841 54.7977 42.7666 54.8392 42.672 54.9148C42.5774 54.9904 42.5114 55.0956 42.4847 55.2133L42.0176 57.0278" stroke="#22282E" stroke-width="2" stroke-linecap="round" stroke-linejoin="round"/>
<path d="M48.6053 57.0293L49.4066 57.0293C49.6191 57.0293 49.8229 57.1025 49.9732 57.2328C50.1234 57.3631 50.2079 57.5397 50.2079 57.724L50.2079 62.5866C50.2079 62.7708 50.1234 62.9475 49.9732 63.0778C49.8229 63.2081 49.6191 63.2812 49.4066 63.2812L40.5923 63.2812C40.3798 63.2812 40.176 63.2081 40.0257 63.0778C39.8754 62.9475 39.791 62.7708 39.791 62.5866L39.791 57.724C39.791 57.5397 39.8754 57.3631 40.0257 57.2328C40.176 57.1025 40.3798 57.0293 40.5923 57.0293L41.3936 57.0293" stroke="#22282E" stroke-width="2" stroke-linecap="round" stroke-linejoin="round"/>
<path d="M47.9827 57.0278L47.5156 55.2133C47.4883 55.0929 47.4199 54.9856 47.322 54.9097C47.2242 54.8339 47.1028 54.794 46.9787 54.797H43.0055C42.8841 54.7977 42.7666 54.8392 42.672 54.9148C42.5774 54.9904 42.5114 55.0956 42.4847 55.2133L42.0176 57.0278" stroke="#22282E" stroke-width="2" stroke-linecap="round" stroke-linejoin="round"/>
<path d="M48.6053 57.0293L49.4066 57.0293C49.6191 57.0293 49.8229 57.1025 49.9732 57.2328C50.1234 57.3631 50.2079 57.5397 50.2079 57.724L50.2079 62.5866C50.2079 62.7708 50.1234 62.9475 49.9732 63.0778C49.8229 63.2081 49.6191 63.2812 49.4066 63.2812L40.5923 63.2812C40.3798 63.2812 40.176 63.2081 40.0257 63.0778C39.8754 62.9475 39.791 62.7708 39.791 62.5866L39.791 57.724C39.791 57.5397 39.8754 57.3631 40.0257 57.2328C40.176 57.1025 40.3798 57.0293 40.5923 57.0293L41.3936 57.0293" stroke="#22282E" stroke-width="2" stroke-linecap="round" stroke-linejoin="round"/>
<path d="M47.9827 57.0278L47.5156 55.2133C47.4883 55.0929 47.4199 54.9856 47.322 54.9097C47.2242 54.8339 47.1028 54.794 46.9787 54.797H43.0055C42.8841 54.7977 42.7666 54.8392 42.672 54.9148C42.5774 54.9904 42.5114 55.0956 42.4847 55.2133L42.0176 57.0278" stroke="#22282E" stroke-width="2" stroke-linecap="round" stroke-linejoin="round"/>
<path d="M48.6053 57.0293L49.4066 57.0293C49.6191 57.0293 49.8229 57.1025 49.9732 57.2328C50.1234 57.3631 50.2079 57.5397 50.2079 57.724L50.2079 62.5866C50.2079 62.7708 50.1234 62.9475 49.9732 63.0778C49.8229 63.2081 49.6191 63.2812 49.4066 63.2812L40.5923 63.2812C40.3798 63.2812 40.176 63.2081 40.0257 63.0778C39.8754 62.9475 39.791 62.7708 39.791 62.5866L39.791 57.724C39.791 57.5397 39.8754 57.3631 40.0257 57.2328C40.176 57.1025 40.3798 57.0293 40.5923 57.0293L41.3936 57.0293" stroke="#22282E" stroke-width="2" stroke-linecap="round" stroke-linejoin="round"/>
<path d="M50.4991 39.0986H62.7856" stroke="#22282E" stroke-width="2" stroke-linecap="round" stroke-linejoin="round"/>
<path d="M57.8701 36.2109L62.7847 39.0977L57.8701 41.9844" stroke="#22282E" stroke-width="2" stroke-linecap="round" stroke-linejoin="round"/>
<path d="M39.5004 34.3233H27.2139" stroke="#22282E" stroke-width="2" stroke-linecap="round" stroke-linejoin="round"/>
<path d="M32.1296 37.209L27.2151 34.3223L32.1296 31.4355" stroke="#22282E" stroke-width="2" stroke-linecap="round" stroke-linejoin="round"/>
<path d="M48.3341 28.71H60.6205" stroke="#22282E" stroke-width="2" stroke-linecap="round" stroke-linejoin="round"/>
<path d="M55.7051 25.8223L60.6197 28.709L55.7051 31.5957" stroke="#22282E" stroke-width="2" stroke-linecap="round" stroke-linejoin="round"/>
<path d="M41.6654 24.6494H29.379" stroke="#22282E" stroke-width="2" stroke-linecap="round" stroke-linejoin="round"/>
<path d="M34.2947 27.5352L29.3801 24.6484L34.2947 21.7617" stroke="#22282E" stroke-width="2" stroke-linecap="round" stroke-linejoin="round"/>
</svg>
