<svg width="40" height="41" viewBox="0 0 40 41" fill="none" xmlns="http://www.w3.org/2000/svg">
<path d="M0 5.80469C0 3.04326 2.23858 0.804688 5 0.804688H35C37.7614 0.804688 40 3.04326 40 5.80469V35.8047C40 38.5661 37.7614 40.8047 35 40.8047H5C2.23858 40.8047 0 38.5661 0 35.8047V5.80469Z" fill="#00FFC5"/>
<path d="M17.4727 10.46H7.14223C6.5505 10.46 6.0708 10.9397 6.0708 11.5314V28.6742C6.0708 29.2659 6.5505 29.7457 7.14223 29.7457H32.8565C33.4482 29.7457 33.9279 29.2659 33.9279 28.6742V18.1457" stroke="#22282E" stroke-width="2" stroke-linecap="round" stroke-linejoin="round"/>
<path d="M17.8567 29.7461L15.7139 35.1032" stroke="#22282E" stroke-width="2" stroke-linecap="round" stroke-linejoin="round"/>
<path d="M22.1416 29.7461L24.2845 35.1032" stroke="#22282E" stroke-width="2" stroke-linecap="round" stroke-linejoin="round"/>
<path d="M13.5708 35.1016H26.4279" stroke="#22282E" stroke-width="2" stroke-linecap="round" stroke-linejoin="round"/>
<path d="M23.4571 10.1611H30.8845C31.3301 10.1611 31.6272 10.4049 31.6272 10.7706V14.4273C31.6272 14.793 31.3301 15.0368 30.8845 15.0368H23.4571C23.0115 15.0368 22.7144 14.793 22.7144 14.4273V10.7706C22.7144 10.4049 23.0115 10.1611 23.4571 10.1611Z" stroke="#22282E" stroke-width="2" stroke-linecap="round" stroke-linejoin="round"/>
<path d="M24.1997 10.1616V8.94271C24.1997 7.60191 25.5366 6.50488 27.1707 6.50488C28.8047 6.50488 30.1416 7.60191 30.1416 8.94271V10.1616" stroke="#22282E" stroke-width="2" stroke-linecap="round" stroke-linejoin="round"/>
</svg>
