<svg width="40" height="41" viewBox="0 0 40 41" fill="none" xmlns="http://www.w3.org/2000/svg">
<path d="M0 5.80469C0 3.04326 2.23858 0.804688 5 0.804688H35C37.7614 0.804688 40 3.04326 40 5.80469V35.8047C40 38.5661 37.7614 40.8047 35 40.8047H5C2.23858 40.8047 0 38.5661 0 35.8047V5.80469Z" fill="#00FFC5"/>
<path d="M31.7851 21.877H8.21366C7.03019 21.877 6.0708 22.8364 6.0708 24.0198V32.5912C6.0708 33.7747 7.03019 34.7341 8.21366 34.7341H31.7851C32.9686 34.7341 33.9279 33.7747 33.9279 32.5912V24.0198C33.9279 22.8364 32.9686 21.877 31.7851 21.877Z" stroke="#22282E" stroke-width="2" stroke-linecap="round" stroke-linejoin="round"/>
<path d="M6.26416 23.1204L9.99274 8.54901C10.0993 8.07651 10.3628 7.65403 10.7403 7.35049C11.1177 7.04695 11.5869 6.88026 12.0713 6.87759H27.9284C28.4238 6.86549 28.9081 7.02542 29.2987 7.33016C29.6894 7.63491 29.9624 8.06563 30.0712 8.54901L33.7998 23.1204" stroke="#22282E" stroke-width="2" stroke-linecap="round" stroke-linejoin="round"/>
<path d="M21.4914 26.8186L21.2578 25.9113C21.2442 25.8511 21.21 25.7975 21.161 25.7596C21.1121 25.7216 21.0514 25.7017 20.9893 25.7032H19.0028C18.9421 25.7035 18.8833 25.7243 18.836 25.7621C18.7887 25.7999 18.7557 25.8525 18.7423 25.9113L18.5088 26.8186" stroke="#22282E" stroke-width="2" stroke-linecap="round" stroke-linejoin="round"/>
<path d="M21.8026 26.8193L22.2033 26.8193C22.3095 26.8193 22.4115 26.8559 22.4866 26.9211C22.5617 26.9862 22.6039 27.0746 22.6039 27.1667L22.6039 29.598C22.6039 29.6901 22.5617 29.7784 22.4866 29.8436C22.4115 29.9087 22.3095 29.9453 22.2033 29.9453L17.7962 29.9453C17.6899 29.9453 17.588 29.9087 17.5129 29.8436C17.4377 29.7784 17.3955 29.6901 17.3955 29.598L17.3955 27.1667C17.3955 27.0746 17.4377 26.9862 17.5129 26.9211C17.588 26.8559 17.6899 26.8193 17.7962 26.8193L18.1968 26.8193" stroke="#22282E" stroke-width="2" stroke-linecap="round" stroke-linejoin="round"/>
<path d="M21.4914 26.8186L21.2578 25.9113C21.2442 25.8511 21.21 25.7975 21.161 25.7596C21.1121 25.7216 21.0514 25.7017 20.9893 25.7032H19.0028C18.9421 25.7035 18.8833 25.7243 18.836 25.7621C18.7887 25.7999 18.7557 25.8525 18.7423 25.9113L18.5088 26.8186" stroke="#22282E" stroke-width="2" stroke-linecap="round" stroke-linejoin="round"/>
<path d="M21.8026 26.8193L22.2033 26.8193C22.3095 26.8193 22.4115 26.8559 22.4866 26.9211C22.5617 26.9862 22.6039 27.0746 22.6039 27.1667L22.6039 29.598C22.6039 29.6901 22.5617 29.7784 22.4866 29.8436C22.4115 29.9087 22.3095 29.9453 22.2033 29.9453L17.7962 29.9453C17.6899 29.9453 17.588 29.9087 17.5129 29.8436C17.4377 29.7784 17.3955 29.6901 17.3955 29.598L17.3955 27.1667C17.3955 27.0746 17.4377 26.9862 17.5129 26.9211C17.588 26.8559 17.6899 26.8193 17.7962 26.8193L18.1968 26.8193" stroke="#22282E" stroke-width="2" stroke-linecap="round" stroke-linejoin="round"/>
<path d="M21.4914 26.8186L21.2578 25.9113C21.2442 25.8511 21.21 25.7975 21.161 25.7596C21.1121 25.7216 21.0514 25.7017 20.9893 25.7032H19.0028C18.9421 25.7035 18.8833 25.7243 18.836 25.7621C18.7887 25.7999 18.7557 25.8525 18.7423 25.9113L18.5088 26.8186" stroke="#22282E" stroke-width="2" stroke-linecap="round" stroke-linejoin="round"/>
<path d="M21.8026 26.8193L22.2033 26.8193C22.3095 26.8193 22.4115 26.8559 22.4866 26.9211C22.5617 26.9862 22.6039 27.0746 22.6039 27.1667L22.6039 29.598C22.6039 29.6901 22.5617 29.7784 22.4866 29.8436C22.4115 29.9087 22.3095 29.9453 22.2033 29.9453L17.7962 29.9453C17.6899 29.9453 17.588 29.9087 17.5129 29.8436C17.4377 29.7784 17.3955 29.6901 17.3955 29.598L17.3955 27.1667C17.3955 27.0746 17.4377 26.9862 17.5129 26.9211C17.588 26.8559 17.6899 26.8193 17.7962 26.8193L18.1968 26.8193" stroke="#22282E" stroke-width="2" stroke-linecap="round" stroke-linejoin="round"/>
<path d="M22.7494 17.854H28.8927" stroke="#22282E" stroke-width="2" stroke-linecap="round" stroke-linejoin="round"/>
<path d="M26.4351 16.4102L28.8923 17.8535L26.4351 19.2969" stroke="#22282E" stroke-width="2" stroke-linecap="round" stroke-linejoin="round"/>
<path d="M17.2501 15.4663H11.1069" stroke="#22282E" stroke-width="2" stroke-linecap="round" stroke-linejoin="round"/>
<path d="M13.5647 16.9092L11.1074 15.4658L13.5647 14.0225" stroke="#22282E" stroke-width="2" stroke-linecap="round" stroke-linejoin="round"/>
<path d="M21.6669 12.6597H27.8101" stroke="#22282E" stroke-width="2" stroke-linecap="round" stroke-linejoin="round"/>
<path d="M25.3525 11.2158L27.8098 12.6592L25.3525 14.1025" stroke="#22282E" stroke-width="2" stroke-linecap="round" stroke-linejoin="round"/>
<path d="M18.3326 10.6294H12.1894" stroke="#22282E" stroke-width="2" stroke-linecap="round" stroke-linejoin="round"/>
<path d="M14.6472 12.0723L12.1899 10.6289L14.6472 9.18555" stroke="#22282E" stroke-width="2" stroke-linecap="round" stroke-linejoin="round"/>
</svg>
