<svg width="40" height="41" viewBox="0 0 40 41" fill="none" xmlns="http://www.w3.org/2000/svg">
<path d="M0 5.80469C0 3.04326 2.23858 0.804688 5 0.804688H35C37.7614 0.804688 40 3.04326 40 5.80469V35.8047C40 38.5661 37.7614 40.8047 35 40.8047H5C2.23858 40.8047 0 38.5661 0 35.8047V5.80469Z" fill="#00FFC5"/>
<path d="M18.1905 15.7986C24.6996 15.7986 29.9762 13.7647 29.9762 11.2557C29.9762 8.7468 24.6996 6.71289 18.1905 6.71289C11.6814 6.71289 6.40479 8.7468 6.40479 11.2557C6.40479 13.7647 11.6814 15.7986 18.1905 15.7986Z" stroke="#22282E" stroke-width="2" stroke-linecap="round" stroke-linejoin="round"/>
<path d="M29.9756 18.4997V11.2568" stroke="#22282E" stroke-width="2" stroke-linecap="round" stroke-linejoin="round"/>
<path d="M6.40479 11.2568V25.7426C6.40479 27.9767 10.5639 29.7651 16.0476 30.1917" stroke="#22282E" stroke-width="2" stroke-linecap="round" stroke-linejoin="round"/>
<path d="M18.1905 22.9562C11.7619 23.0419 6.40479 21.0062 6.40479 18.499" stroke="#22282E" stroke-width="2" stroke-linecap="round" stroke-linejoin="round"/>
<path d="M20.3618 28.364C20.3618 31.6943 23.0615 34.394 26.3918 34.394C29.7221 34.394 32.4218 31.6943 32.4218 28.364C32.4218 25.0337 29.7221 22.334 26.3918 22.334C24.7613 22.334 23.2819 22.9811 22.1966 24.0326" stroke="#22282E" stroke-width="2" stroke-linecap="round"/>
<path d="M26.5922 28.7654C26.4811 28.7654 26.3911 28.6754 26.3911 28.5644C26.3911 28.4533 26.4811 28.3633 26.5922 28.3633" stroke="#22282E" stroke-width="2" stroke-linecap="round" stroke-linejoin="round"/>
<path d="M26.5918 28.7654C26.7029 28.7654 26.7929 28.6754 26.7929 28.5644C26.7929 28.4533 26.7029 28.3633 26.5918 28.3633" stroke="#22282E" stroke-width="2" stroke-linecap="round" stroke-linejoin="round"/>
<path d="M22.9053 20.5791L22.1338 24.3499L25.3999 25.6365" stroke="#22282E" stroke-width="2" stroke-linecap="round" stroke-linejoin="round"/>
</svg>
