<svg width="40" height="41" viewBox="0 0 40 41" fill="none" xmlns="http://www.w3.org/2000/svg">
<path d="M0 5.80469C0 3.04326 2.23858 0.804688 5 0.804688H35C37.7614 0.804688 40 3.04326 40 5.80469V35.8047C40 38.5661 37.7614 40.8047 35 40.8047H5C2.23858 40.8047 0 38.5661 0 35.8047V5.80469Z" fill="#00FFC5"/>
<path d="M28.4331 21.8154L31.1736 29.946" stroke="#22282E" stroke-width="2" stroke-linecap="round" stroke-linejoin="round"/>
<path d="M29.1002 21.2903C29.9185 20.5902 30.0142 19.3592 29.3141 18.5409C28.6139 17.7226 27.383 17.6268 26.5647 18.327C25.7464 19.0271 25.6506 20.2581 26.3507 21.0764C27.0509 21.8947 28.2818 21.9905 29.1002 21.2903Z" stroke="#22282E" stroke-width="2" stroke-linecap="round" stroke-linejoin="round"/>
<path d="M33.1988 33.4485C34.0171 32.7484 34.1129 31.5174 33.4127 30.6991C32.7126 29.8808 31.4816 29.785 30.6633 30.4852C29.845 31.1853 29.7492 32.4163 30.4494 33.2346C31.1495 34.0529 32.3805 34.1487 33.1988 33.4485Z" stroke="#22282E" stroke-width="2" stroke-linecap="round" stroke-linejoin="round"/>
<path d="M11.561 21.8154L8.82053 29.946" stroke="#22282E" stroke-width="2" stroke-linecap="round" stroke-linejoin="round"/>
<path d="M10.8984 21.2903C10.0801 20.5902 9.9843 19.3592 10.6845 18.5409C11.3846 17.7226 12.6156 17.6268 13.4339 18.327C14.2522 19.0271 14.3479 20.2581 13.6478 21.0764C12.9476 21.8947 11.7167 21.9905 10.8984 21.2903Z" stroke="#22282E" stroke-width="2" stroke-linecap="round" stroke-linejoin="round"/>
<path d="M6.80122 33.4485C5.98291 32.7484 5.88713 31.5174 6.58728 30.6991C7.28744 29.8808 8.51838 29.785 9.33669 30.4852C10.155 31.1853 10.2508 32.4163 9.55062 33.2346C8.85047 34.0529 7.61952 34.1487 6.80122 33.4485Z" stroke="#22282E" stroke-width="2" stroke-linecap="round" stroke-linejoin="round"/>
<path d="M27.0371 21.8154L24.2966 29.946" stroke="#22282E" stroke-width="2" stroke-linecap="round" stroke-linejoin="round"/>
<path d="M22.2758 33.4485C21.4575 32.7484 21.3617 31.5174 22.0619 30.6991C22.762 29.8808 23.993 29.785 24.8113 30.4852C25.6296 31.1853 25.7254 32.4163 25.0252 33.2346C24.3251 34.0529 23.0941 34.1487 22.2758 33.4485Z" stroke="#22282E" stroke-width="2" stroke-linecap="round" stroke-linejoin="round"/>
<path d="M12.9585 21.8154L15.699 29.946" stroke="#22282E" stroke-width="2" stroke-linecap="round" stroke-linejoin="round"/>
<path d="M17.7227 33.4485C18.541 32.7484 18.6368 31.5174 17.9366 30.6991C17.2365 29.8808 16.0055 29.785 15.1872 30.4852C14.3689 31.1853 14.2731 32.4163 14.9733 33.2346C15.6735 34.0529 16.9044 34.1487 17.7227 33.4485Z" stroke="#22282E" stroke-width="2" stroke-linecap="round" stroke-linejoin="round"/>
<path d="M21.2861 11.2744L26.4807 18.1033" stroke="#22282E" stroke-width="2" stroke-linecap="round" stroke-linejoin="round"/>
<path d="M21.7497 10.5635C22.3014 9.63861 21.9989 8.44158 21.074 7.88986C20.1491 7.33814 18.9521 7.64065 18.4003 8.56556C17.8486 9.49046 18.1511 10.6875 19.076 11.2392C20.0009 11.7909 21.198 11.4884 21.7497 10.5635Z" stroke="#22282E" stroke-width="2" stroke-linecap="round" stroke-linejoin="round"/>
<path d="M18.7095 11.2744L13.5149 18.1033" stroke="#22282E" stroke-width="2" stroke-linecap="round" stroke-linejoin="round"/>
</svg>
