<svg width="40" height="41" viewBox="0 0 40 41" fill="none" xmlns="http://www.w3.org/2000/svg">
<path d="M0 5.80469C0 3.04326 2.23858 0.804688 5 0.804688H35C37.7614 0.804688 40 3.04326 40 5.80469V35.8047C40 38.5661 37.7614 40.8047 35 40.8047H5C2.23858 40.8047 0 38.5661 0 35.8047V5.80469Z" fill="#00FFC5"/>
<path d="M13.5371 24.7628L17.755 21.0361V32.2163" stroke="#22282E" stroke-width="2" stroke-linecap="round" stroke-linejoin="round"/>
<path d="M26.4648 28.4894L22.2471 32.2163V21.0361" stroke="#22282E" stroke-width="2" stroke-linecap="round" stroke-linejoin="round"/>
<path d="M13.3997 29.0383C11.5893 29.1598 9.80488 28.5572 8.4388 27.3632C7.07276 26.169 6.23703 24.4811 6.11548 22.6707C5.99393 20.8604 6.59651 19.0759 7.79068 17.7099C8.38195 17.0335 9.10067 16.4802 9.9058 16.0815C10.7109 15.6829 11.5867 15.4467 12.4831 15.3865C12.5761 15.3886 12.6678 15.3639 12.7473 15.3156C12.8267 15.2672 12.8907 15.1971 12.9316 15.1135C13.55 13.3213 14.7641 11.7952 16.3714 10.7898C17.9788 9.78442 19.8822 9.36043 21.7643 9.58856C23.6464 9.81669 25.3935 10.6832 26.714 12.0435C28.0346 13.4038 28.8489 15.1757 29.0212 17.0637C29.0356 17.1632 29.0782 17.2564 29.1438 17.3324C29.2096 17.4084 29.2955 17.4641 29.3917 17.4928C30.7854 17.8211 32.0103 18.6491 32.8344 19.8198C33.6586 20.9906 34.0248 22.423 33.8638 23.8456C33.7027 25.2683 33.0256 26.5826 31.9608 27.5396C31.5123 27.9424 31.0081 28.2703 30.4678 28.5156" stroke="#22282E" stroke-width="2" stroke-linecap="round" stroke-linejoin="round"/>
</svg>
