<svg width="40" height="41" viewBox="0 0 40 41" fill="none" xmlns="http://www.w3.org/2000/svg">
<path d="M0 5.80469C0 3.04326 2.23858 0.804688 5 0.804688H35C37.7614 0.804688 40 3.04326 40 5.80469V35.8047C40 38.5661 37.7614 40.8047 35 40.8047H5C2.23858 40.8047 0 38.5661 0 35.8047V5.80469Z" fill="#00FFC5"/>
<path d="M6.0708 17.5891V26.1606C6.0708 27.3441 7.03019 28.3034 8.21366 28.3034H21.0708C22.2543 28.3034 23.2137 27.3441 23.2137 26.1606V17.5891C23.2137 16.4057 22.2543 15.4463 21.0708 15.4463H8.21366C7.03019 15.4463 6.0708 16.4057 6.0708 17.5891Z" stroke="#22282E" stroke-width="2" stroke-linecap="round" stroke-linejoin="round"/>
<path d="M11.4277 32.5908H17.8563" stroke="#22282E" stroke-width="2" stroke-linecap="round" stroke-linejoin="round"/>
<path d="M14.6416 32.5904V28.3047" stroke="#22282E" stroke-width="2" stroke-linecap="round" stroke-linejoin="round"/>
<path d="M21.0708 11.1614V10.09C21.0708 9.49825 21.5505 9.01855 22.1422 9.01855H32.8565C33.4482 9.01855 33.9279 9.49825 33.9279 10.09V31.5186C33.9279 32.1102 33.4482 32.59 32.8565 32.59H24.2851" stroke="#22282E" stroke-width="2" stroke-linecap="round" stroke-linejoin="round"/>
<path d="M29.375 14.1075C29.2269 14.1075 29.1069 13.9875 29.1069 13.8394C29.1069 13.6913 29.2269 13.5713 29.375 13.5713" stroke="#22282E" stroke-width="2" stroke-linecap="round" stroke-linejoin="round"/>
<path d="M29.375 14.1075C29.5231 14.1075 29.6431 13.9875 29.6431 13.8394C29.6431 13.6913 29.5231 13.5713 29.375 13.5713" stroke="#22282E" stroke-width="2" stroke-linecap="round" stroke-linejoin="round"/>
<path d="M27.5 18.6602H33.9286" stroke="#22282E" stroke-width="2" stroke-linecap="round" stroke-linejoin="round"/>
</svg>
