<svg width="40" height="41" viewBox="0 0 40 41" fill="none" xmlns="http://www.w3.org/2000/svg">
<path d="M0 5.80469C0 3.04326 2.23858 0.804688 5 0.804688H35C37.7614 0.804688 40 3.04326 40 5.80469V35.8047C40 38.5661 37.7614 40.8047 35 40.8047H5C2.23858 40.8047 0 38.5661 0 35.8047V5.80469Z" fill="#00FFC5"/>
<path d="M12.567 20.746L11.1816 26.045" stroke="#22282E" stroke-width="2" stroke-linecap="round" stroke-linejoin="round"/>
<path d="M28.8045 15.3319L27.5 22.5638" stroke="#22282E" stroke-width="2" stroke-linecap="round" stroke-linejoin="round"/>
<path d="M17.6694 18.4081L21.126 21.8142" stroke="#22282E" stroke-width="2" stroke-linecap="round" stroke-linejoin="round"/>
<path d="M29.9817 15.1498L29.5927 15.3015C29.4523 15.3541 29.2977 15.3541 29.1574 15.3015L28.7684 15.1498C27.7829 14.7634 26.9364 14.0896 26.339 13.2158C25.7416 12.342 25.4209 11.3087 25.4185 10.2502V8.41701C26.1653 8.52344 26.9269 8.42649 27.6233 8.13635C28.3196 7.84622 28.9248 7.37365 29.375 6.76843C30.1993 7.9686 31.5644 8.53571 33.3316 8.41701V10.2502C33.3293 11.3087 33.0085 12.342 32.4111 13.2158C31.8136 14.0896 30.9672 14.7634 29.9817 15.1498Z" stroke="#22282E" stroke-width="2" stroke-linecap="round" stroke-linejoin="round"/>
<path d="M14.9817 20.3998L14.5927 20.5515C14.4523 20.6041 14.2977 20.6041 14.1574 20.5515L13.7684 20.3998C12.7829 20.0134 11.9364 19.3396 11.339 18.4658C10.7416 17.592 10.4209 16.5587 10.4185 15.5002V13.667C11.1653 13.7734 11.9269 13.6765 12.6233 13.3863C13.3196 13.0962 13.9248 12.6237 14.375 12.0184C15.1993 13.2186 16.5644 13.7857 18.3316 13.667V15.5002C18.3293 16.5587 18.0085 17.592 17.4111 18.4658C16.8136 19.3396 15.9672 20.0134 14.9817 20.3998Z" stroke="#22282E" stroke-width="2" stroke-linecap="round" stroke-linejoin="round"/>
<path d="M11.2317 34.6498L10.8427 34.8015C10.7023 34.8541 10.5477 34.8541 10.4074 34.8015L10.0184 34.6498C9.0329 34.2634 8.18644 33.5896 7.58902 32.7158C6.9916 31.842 6.67085 30.8087 6.66846 29.7502V27.917C7.41526 28.0234 8.17694 27.9265 8.87326 27.6363C9.56958 27.3462 10.1748 26.8737 10.625 26.2684C11.4493 27.4686 12.8144 28.0357 14.5816 27.917V29.7502C14.5793 30.8087 14.2585 31.842 13.6611 32.7158C13.0636 33.5896 12.2172 34.2634 11.2317 34.6498Z" stroke="#22282E" stroke-width="2" stroke-linecap="round" stroke-linejoin="round"/>
<path d="M29.7291 27.1637C29.8071 27.307 29.8478 27.4673 29.8478 27.6302C29.8478 27.7932 29.8071 27.9533 29.7291 28.0966C29.656 28.2395 29.5444 28.3594 29.407 28.443C29.2696 28.5268 29.1115 28.5711 28.9504 28.571H19.6215C19.4604 28.5711 19.3024 28.5268 19.165 28.443C19.0275 28.3594 18.9161 28.2395 18.8428 28.0966C18.7649 27.9533 18.7241 27.7932 18.7241 27.6302C18.7241 27.4673 18.7649 27.307 18.8428 27.1637L23.5311 18.7519C23.5955 18.5948 23.7055 18.4604 23.847 18.3658C23.9885 18.2711 24.1552 18.2206 24.3256 18.2206C24.4962 18.2206 24.6629 18.2711 24.8045 18.3658C24.9459 18.4604 25.0559 18.5948 25.1203 18.7519L29.7291 27.1637Z" stroke="#22282E" stroke-width="2" stroke-linecap="round" stroke-linejoin="round"/>
<path d="M24.2935 23.8271V22.246" stroke="#22282E" stroke-width="2" stroke-linecap="round" stroke-linejoin="round"/>
<path d="M24.2872 26.3976C24.1774 26.3976 24.0884 26.309 24.0884 26.1998C24.0884 26.0905 24.1774 26.002 24.2872 26.002" stroke="#22282E" stroke-width="2" stroke-linecap="round" stroke-linejoin="round"/>
<path d="M24.2861 26.3974C24.396 26.3974 24.485 26.3089 24.485 26.1996C24.485 26.0904 24.396 26.0018 24.2861 26.0018" stroke="#22282E" stroke-width="2" stroke-linecap="round" stroke-linejoin="round"/>
</svg>
