<svg width="40" height="41" viewBox="0 0 40 41" fill="none" xmlns="http://www.w3.org/2000/svg">
<path d="M0 5.80469C0 3.04326 2.23858 0.804688 5 0.804688H35C37.7614 0.804688 40 3.04326 40 5.80469V35.8047C40 38.5661 37.7614 40.8047 35 40.8047H5C2.23858 40.8047 0 38.5661 0 35.8047V5.80469Z" fill="#00FFC5"/>
<path d="M19.9994 17.5912C27.692 17.5912 33.9279 15.1928 33.9279 12.2341C33.9279 9.27543 27.692 6.87695 19.9994 6.87695C12.3068 6.87695 6.0708 9.27543 6.0708 12.2341C6.0708 15.1928 12.3068 17.5912 19.9994 17.5912Z" stroke="#22282E" stroke-width="2" stroke-linecap="round" stroke-linejoin="round"/>
<path d="M6.0708 12.2354V29.3782C6.0708 32.3354 12.3065 34.7354 19.9994 34.7354C27.6922 34.7354 33.9279 32.3354 33.9279 29.3782V12.2354" stroke="#22282E" stroke-width="2" stroke-linecap="round" stroke-linejoin="round"/>
<path d="M33.9279 20.8047C33.9279 23.7618 27.6922 26.1618 19.9994 26.1618C12.3065 26.1618 6.0708 23.7618 6.0708 20.8047" stroke="#22282E" stroke-width="2" stroke-linecap="round" stroke-linejoin="round"/>
</svg>
