<svg width="40" height="41" viewBox="0 0 40 41" fill="none" xmlns="http://www.w3.org/2000/svg">
<path d="M0 5.80469C0 3.04326 2.23858 0.804688 5 0.804688H35C37.7614 0.804688 40 3.04326 40 5.80469V35.8047C40 38.5661 37.7614 40.8047 35 40.8047H5C2.23858 40.8047 0 38.5661 0 35.8047V5.80469Z" fill="#00FFC5"/>
<path d="M21.1145 8.88379H8.2781C7.26534 8.88379 6.44434 9.7048 6.44434 10.7176V30.889C6.44434 31.9017 7.26534 32.7229 8.2781 32.7229H21.1145C22.1273 32.7229 22.9483 31.9017 22.9483 30.889V10.7176C22.9483 9.7048 22.1273 8.88379 21.1145 8.88379Z" stroke="#22282E" stroke-width="2" stroke-linecap="round" stroke-linejoin="round"/>
<path d="M13.7788 28.1377H15.6126" stroke="#22282E" stroke-width="2" stroke-linecap="round" stroke-linejoin="round"/>
<path d="M31.0552 13.9287C34.3886 17.7257 34.3886 23.8817 31.0552 27.6787" stroke="#22282E" stroke-width="2" stroke-linecap="round" stroke-linejoin="round"/>
<path d="M27.4839 16.4277C29.1504 18.844 29.1504 22.7615 27.4839 25.1777" stroke="#22282E" stroke-width="2" stroke-linecap="round" stroke-linejoin="round"/>
</svg>
