<svg width="40" height="40" viewBox="0 0 40 40" fill="none" xmlns="http://www.w3.org/2000/svg">
<path d="M0 5C0 2.23858 2.23858 0 5 0H35C37.7614 0 40 2.23858 40 5V35C40 37.7614 37.7614 40 35 40H5C2.23858 40 0 37.7614 0 35V5Z" fill="#00FFC5"/>
<path d="M15.8221 25.525C16.3184 23.0797 18.4803 21.2393 21.0721 21.2393C24.0307 21.2393 26.4292 23.6377 26.4292 26.5964C26.4292 29.555 24.0307 31.9535 21.0721 31.9535C19.7502 31.9535 18.5401 31.4748 17.6059 30.6811" stroke="#22282E" stroke-width="2" stroke-linecap="round" stroke-linejoin="round"/>
<path d="M10.3576 29.257C9.66334 28.9737 9.01399 28.5758 8.4388 28.0731C7.07276 26.8789 6.23703 25.1911 6.11548 23.3807C5.99393 21.5704 6.59651 19.7859 7.79068 18.4198C8.38195 17.7434 9.10067 17.1901 9.9058 16.7915C10.7109 16.3928 11.5867 16.1567 12.4831 16.0965C12.5761 16.0985 12.6678 16.0739 12.7473 16.0255C12.8267 15.9772 12.8907 15.907 12.9316 15.8235C13.55 14.0312 14.7641 12.5052 16.3714 11.4998C17.9788 10.4944 19.8822 10.0704 21.7643 10.2985C23.6464 10.5267 25.3935 11.3931 26.714 12.7534C28.0346 14.1137 28.8489 15.8857 29.0212 17.7737C29.0356 17.8731 29.0782 17.9663 29.1438 18.0424C29.2096 18.1184 29.2955 18.1741 29.3917 18.2028C30.7854 18.5311 32.0103 19.3591 32.8344 20.5298C33.6586 21.7006 34.0248 23.1329 33.8638 24.5556C33.7027 25.9783 33.0256 27.2924 31.9608 28.2494C31.5813 28.5904 31.1619 28.8775 30.7147 29.1064" stroke="#22282E" stroke-width="2" stroke-linecap="round" stroke-linejoin="round"/>
<path d="M14.6435 22.3086L15.8221 25.5229L18.9292 24.9872" stroke="#22282E" stroke-width="2" stroke-linecap="round" stroke-linejoin="round"/>
</svg>
