<svg width="40" height="41" viewBox="0 0 40 41" fill="none" xmlns="http://www.w3.org/2000/svg">
<path d="M0 5.80469C0 3.04326 2.23858 0.804688 5 0.804688H35C37.7614 0.804688 40 3.04326 40 5.80469V35.8047C40 38.5661 37.7614 40.8047 35 40.8047H5C2.23858 40.8047 0 38.5661 0 35.8047V5.80469Z" fill="#00FFC5"/>
<path d="M17.858 15.9627C24.3671 15.9627 29.6437 13.9288 29.6437 11.4198C29.6437 8.91087 24.3671 6.87695 17.858 6.87695C11.3489 6.87695 6.07227 8.91087 6.07227 11.4198C6.07227 13.9288 11.3489 15.9627 17.858 15.9627Z" stroke="#22282E" stroke-width="2" stroke-linecap="round" stroke-linejoin="round"/>
<path d="M29.6431 15.4495V11.4209" stroke="#22282E" stroke-width="2" stroke-linecap="round" stroke-linejoin="round"/>
<path d="M6.07227 11.4209V25.9066C6.07227 28.3066 10.8723 30.1923 16.958 30.428" stroke="#22282E" stroke-width="2" stroke-linecap="round" stroke-linejoin="round"/>
<path d="M17.858 23.1202C11.4294 23.2059 6.07227 21.1702 6.07227 18.6631" stroke="#22282E" stroke-width="2" stroke-linecap="round" stroke-linejoin="round"/>
<path d="M22.1437 26.1631H32.858C33.5008 26.1631 33.9294 26.5917 33.9294 27.2345V33.6631C33.9294 34.3059 33.5008 34.7345 32.858 34.7345H22.1437C21.5008 34.7345 21.0723 34.3059 21.0723 33.6631V27.2345C21.0723 26.5917 21.5008 26.1631 22.1437 26.1631Z" stroke="#22282E" stroke-width="2" stroke-linecap="round" stroke-linejoin="round"/>
<path d="M23.2153 26.1639V24.0211C23.2153 21.6639 25.1439 19.7354 27.501 19.7354C29.8582 19.7354 31.7868 21.6639 31.7868 24.0211V26.1639" stroke="#22282E" stroke-width="2" stroke-linecap="round" stroke-linejoin="round"/>
</svg>
