<svg width="40" height="41" viewBox="0 0 40 41" fill="none" xmlns="http://www.w3.org/2000/svg">
<path d="M0 5.80469C0 3.04326 2.23858 0.804688 5 0.804688H35C37.7614 0.804688 40 3.04326 40 5.80469V35.8047C40 38.5661 37.7614 40.8047 35 40.8047H5C2.23858 40.8047 0 38.5661 0 35.8047V5.80469Z" fill="#00FFC5"/>
<path d="M15.7141 18.6606C18.6727 18.6606 21.0712 16.2621 21.0712 13.3034C21.0712 10.3448 18.6727 7.94629 15.7141 7.94629C12.7554 7.94629 10.3569 10.3448 10.3569 13.3034C10.3569 16.2621 12.7554 18.6606 15.7141 18.6606Z" stroke="#22282E" stroke-width="2" stroke-linecap="round" stroke-linejoin="round"/>
<path d="M6.0708 33.6596H15.7137H25.3565V32.4979C25.3395 30.8646 24.9087 29.2622 24.1045 27.8406C23.3003 26.4189 22.1489 25.2242 20.7578 24.3682C19.3667 23.5121 17.7813 23.0226 16.1498 22.9453C16.0043 22.9385 15.8589 22.9349 15.7137 22.9346C15.5684 22.9349 15.423 22.9385 15.2775 22.9453C13.646 23.0226 12.0606 23.5121 10.6695 24.3682C9.27844 25.2242 8.12702 26.4189 7.32281 27.8406C6.51861 29.2622 6.08786 30.8646 6.0708 32.4979V33.6596Z" stroke="#22282E" stroke-width="2" stroke-linecap="round" stroke-linejoin="round"/>
<path d="M24.2847 18.6606C27.2433 18.6606 29.6418 16.2621 29.6418 13.3034C29.6418 10.3448 27.2433 7.94629 24.2847 7.94629" stroke="#22282E" stroke-width="2" stroke-linecap="round" stroke-linejoin="round"/>
<path d="M29.642 33.6605H33.9277V32.4987C33.9106 30.8654 33.4799 29.263 32.6757 27.8414C31.8714 26.4196 30.7201 25.225 29.3289 24.3689C28.4298 23.8156 27.4492 23.4153 26.4277 23.1807" stroke="#22282E" stroke-width="2" stroke-linecap="round" stroke-linejoin="round"/>
</svg>
