<svg width="40" height="41" viewBox="0 0 40 41" fill="none" xmlns="http://www.w3.org/2000/svg">
<path d="M0 5.80469C0 3.04326 2.23858 0.804688 5 0.804688H35C37.7614 0.804688 40 3.04326 40 5.80469V35.8047C40 38.5661 37.7614 40.8047 35 40.8047H5C2.23858 40.8047 0 38.5661 0 35.8047V5.80469Z" fill="#00FFC5"/>
<path d="M5 17.5547H7V28.5547H9V15.5547H5V17.5547Z" fill="#22282E"/>
<path d="M6.99951 14.5547H9.99951V28.5547H11.9995V12.5547H6.99951V14.5547ZM15.9995 20.5547C15.9995 17.2457 18.6905 14.5547 21.9995 14.5547C25.3085 14.5547 27.9995 17.2457 27.9995 20.5547H29.9995C29.9995 16.1437 26.4105 12.5547 21.9995 12.5547C17.5885 12.5547 13.9995 16.1437 13.9995 20.5547C13.9995 24.9657 17.5885 28.5547 21.9995 28.5547H34.9995V26.5547H21.9995C18.6905 26.5547 15.9995 23.8637 15.9995 20.5547Z" fill="#22282E"/>
<path d="M22.0005 22.5537C20.8975 22.5537 20.0005 21.6567 20.0005 20.5537C20.0005 19.4507 20.8975 18.5537 22.0005 18.5537C23.1035 18.5537 24.0005 19.4507 24.0005 20.5537H26.0005C26.0005 18.3477 24.2065 16.5537 22.0005 16.5537C19.7945 16.5537 18.0005 18.3477 18.0005 20.5537C18.0005 22.7597 19.7945 24.5537 22.0005 24.5537H35.0005V22.5537H22.0005Z" fill="#22282E"/>
</svg>
