<svg width="40" height="41" viewBox="0 0 40 41" fill="none" xmlns="http://www.w3.org/2000/svg">
<path d="M0 5.80469C0 3.04326 2.23858 0.804688 5 0.804688H35C37.7614 0.804688 40 3.04326 40 5.80469V35.8047C40 38.5661 37.7614 40.8047 35 40.8047H5C2.23858 40.8047 0 38.5661 0 35.8047V5.80469Z" fill="#00FFC5"/>
<path d="M22.7334 8.06641H17.2673C16.8899 8.06641 16.584 8.37232 16.584 8.74968V11.4964C16.584 11.8738 16.8899 12.1797 17.2673 12.1797H22.7334C23.1107 12.1797 23.4167 11.8738 23.4167 11.4964V8.74968C23.4167 8.37232 23.1107 8.06641 22.7334 8.06641Z" stroke="#22282E" stroke-width="2" stroke-linecap="round" stroke-linejoin="round"/>
<path d="M32.5654 8.06653H27.0993C26.7219 8.06653 26.416 8.37244 26.416 8.7498V11.4965C26.416 11.8739 26.7219 12.1798 27.0993 12.1798H32.5654C32.9427 12.1798 33.2487 11.8739 33.2487 11.4965V8.7498C33.2487 8.37244 32.9427 8.06653 32.5654 8.06653Z" stroke="#22282E" stroke-width="2" stroke-linecap="round" stroke-linejoin="round"/>
<path d="M12.8999 8.06641H7.43376C7.0564 8.06641 6.75049 8.37224 6.75049 8.74968V11.4964C6.75049 11.8737 7.0564 12.1797 7.43376 12.1797H12.8999C13.2773 12.1797 13.5832 11.8737 13.5832 11.4964V8.74968C13.5832 8.37224 13.2773 8.06641 12.8999 8.06641Z" stroke="#22282E" stroke-width="2" stroke-linecap="round" stroke-linejoin="round"/>
<path d="M22.7334 15.1885H17.2673C16.8899 15.1885 16.584 15.4944 16.584 15.8717V18.6185C16.584 18.9958 16.8899 19.3018 17.2673 19.3018H22.7334C23.1107 19.3018 23.4167 18.9958 23.4167 18.6185V15.8717C23.4167 15.4944 23.1107 15.1885 22.7334 15.1885Z" stroke="#22282E" stroke-width="2" stroke-linecap="round" stroke-linejoin="round"/>
<path d="M26.416 17.2452V15.8719C26.416 15.4945 26.7219 15.1886 27.0993 15.1886H32.5654C32.9427 15.1886 33.2487 15.4945 33.2487 15.8719V18.6186C33.2487 18.996 32.9427 19.3019 32.5654 19.3019H31.1989" stroke="#22282E" stroke-width="2" stroke-linecap="round" stroke-linejoin="round"/>
<path d="M12.8999 15.1885H7.43376C7.0564 15.1885 6.75049 15.4943 6.75049 15.8717V18.6185C6.75049 18.9958 7.0564 19.3018 7.43376 19.3018H12.8999C13.2773 19.3018 13.5832 18.9958 13.5832 18.6185V15.8717C13.5832 15.4943 13.2773 15.1885 12.8999 15.1885Z" stroke="#22282E" stroke-width="2" stroke-linecap="round" stroke-linejoin="round"/>
<path d="M23.4167 22.9938C23.4167 22.6165 23.1107 22.3105 22.7334 22.3105H17.2673C16.8899 22.3105 16.584 22.6165 16.584 22.9938V25.7406C16.584 26.1179 16.8899 26.4238 17.2673 26.4238H20.0003H20.6836" stroke="#22282E" stroke-width="2" stroke-linecap="round" stroke-linejoin="round"/>
<path d="M12.8999 22.3105H7.43376C7.0564 22.3105 6.75049 22.6164 6.75049 22.9938V25.7406C6.75049 26.1179 7.0564 26.4238 7.43376 26.4238H12.8999C13.2773 26.4238 13.5832 26.1179 13.5832 25.7406V22.9938C13.5832 22.6164 13.2773 22.3105 12.8999 22.3105Z" stroke="#22282E" stroke-width="2" stroke-linecap="round" stroke-linejoin="round"/>
<path d="M20.0003 29.4326H17.2673C16.8899 29.4326 16.584 29.7385 16.584 30.1159V32.8626C16.584 33.24 16.8899 33.5459 17.2673 33.5459H20.0003H21.3669" stroke="#22282E" stroke-width="2" stroke-linecap="round" stroke-linejoin="round"/>
<path d="M12.8999 29.4326H7.43376C7.0564 29.4326 6.75049 29.7384 6.75049 30.1159V32.8626C6.75049 33.2399 7.0564 33.5459 7.43376 33.5459H12.8999C13.2773 33.5459 13.5832 33.2399 13.5832 32.8626V30.1159C13.5832 29.7384 13.2773 29.4326 12.8999 29.4326Z" stroke="#22282E" stroke-width="2" stroke-linecap="round" stroke-linejoin="round"/>
<path d="M27.3885 20.1892C27.0769 20.0557 26.7951 20.3673 26.9286 20.5898C27.3966 21.4053 27.7086 22.3009 27.8484 23.2306C28.0412 24.5427 27.8495 25.9807 27.0028 27.0435C26.9706 27.0838 26.93 27.1166 26.8839 27.1396C26.8378 27.1627 26.7872 27.1755 26.7357 27.1771C26.6829 27.1795 26.6301 27.1701 26.5814 27.1495C26.5326 27.129 26.4891 27.0979 26.4538 27.0584C26.0711 26.662 25.6744 26.2603 25.4153 25.7676C25.3411 25.6193 25.0741 25.3819 24.6883 25.7676C23.7569 26.5347 23.19 27.7125 23.3086 28.9128C23.3569 31.5715 25.7074 33.5133 28.2828 33.545C30.9105 33.5773 33.2278 31.6312 33.2488 28.9128C33.2488 27.1979 32.7317 25.5227 31.7651 24.106C30.7052 22.4135 29.1878 21.0555 27.3885 20.1892Z" stroke="#22282E" stroke-width="2" stroke-linecap="round" stroke-linejoin="round"/>
</svg>
