<svg width="40" height="41" viewBox="0 0 40 41" fill="none" xmlns="http://www.w3.org/2000/svg">
<path d="M0 5.80469C0 3.04326 2.23858 0.804688 5 0.804688H35C37.7614 0.804688 40 3.04326 40 5.80469V35.8047C40 38.5661 37.7614 40.8047 35 40.8047H5C2.23858 40.8047 0 38.5661 0 35.8047V5.80469Z" fill="#00FFC5"/>
<path d="M27.5008 6.87695H12.5008C8.95044 6.87695 6.07227 9.75513 6.07227 13.3055V28.3055C6.07227 31.856 8.95044 34.7341 12.5008 34.7341H27.5008C31.0513 34.7341 33.9294 31.856 33.9294 28.3055V13.3055C33.9294 9.75513 31.0513 6.87695 27.5008 6.87695Z" stroke="#22282E" stroke-width="2" stroke-linecap="round" stroke-linejoin="round"/>
<path d="M6.07227 20.8484H14.6437L17.858 15.4698L21.0723 27.2555L25.358 20.8484H33.9294" stroke="#22282E" stroke-width="2" stroke-linecap="round" stroke-linejoin="round"/>
</svg>
