<svg width="40" height="41" viewBox="0 0 40 41" fill="none" xmlns="http://www.w3.org/2000/svg">
<path d="M0 5.80469C0 3.04326 2.23858 0.804688 5 0.804688H35C37.7614 0.804688 40 3.04326 40 5.80469V35.8047C40 38.5661 37.7614 40.8047 35 40.8047H5C2.23858 40.8047 0 38.5661 0 35.8047V5.80469Z" fill="#00FFC5"/>
<path d="M19.6782 32.0411C21.2286 32.0411 22.4854 30.7843 22.4854 29.2339C22.4854 27.6836 21.2286 26.4268 19.6782 26.4268C18.1279 26.4268 16.8711 27.6836 16.8711 29.2339C16.8711 30.7843 18.1279 32.0411 19.6782 32.0411Z" stroke="#22282E" stroke-width="2" stroke-linecap="round" stroke-linejoin="round"/>
<path d="M14.3853 22.9332C15.082 22.2178 15.9151 21.6493 16.8352 21.2611C17.7552 20.8728 18.7438 20.6729 19.7424 20.6729C20.741 20.6729 21.7296 20.8728 22.6496 21.2611C23.5697 21.6493 24.4027 22.2178 25.0995 22.9332" stroke="#22282E" stroke-width="2" stroke-linecap="round" stroke-linejoin="round"/>
<path d="M9.73584 19.3108C11.0402 17.9988 12.5911 16.9576 14.2993 16.2471C16.0075 15.5367 17.8393 15.1709 19.6894 15.1709C21.5395 15.1709 23.3713 15.5367 25.0795 16.2471C26.7876 16.9576 28.3386 17.9988 29.643 19.3108" stroke="#22282E" stroke-width="2" stroke-linecap="round" stroke-linejoin="round"/>
<path d="M5.75 15.3262C7.57878 13.4965 9.75016 12.045 12.1401 11.0547C14.53 10.0644 17.0916 9.55469 19.6786 9.55469C22.2655 9.55469 24.8271 10.0644 27.2171 11.0547C29.6071 12.045 31.7784 13.4965 33.6071 15.3262" stroke="#22282E" stroke-width="2" stroke-linecap="round" stroke-linejoin="round"/>
</svg>
