<svg width="40" height="41" viewBox="0 0 40 41" fill="none" xmlns="http://www.w3.org/2000/svg">
<path d="M0 5.80469C0 3.04326 2.23858 0.804688 5 0.804688H35C37.7614 0.804688 40 3.04326 40 5.80469V35.8047C40 38.5661 37.7614 40.8047 35 40.8047H5C2.23858 40.8047 0 38.5661 0 35.8047V5.80469Z" fill="#00FFC5"/>
<path d="M31.7851 7.94629H8.21366C7.03019 7.94629 6.0708 8.90569 6.0708 10.0891V18.6606C6.0708 19.844 7.03019 20.8034 8.21366 20.8034H31.7851C32.9686 20.8034 33.9279 19.844 33.9279 18.6606V10.0891C33.9279 8.90569 32.9686 7.94629 31.7851 7.94629Z" stroke="#22282E" stroke-width="2" stroke-linecap="round" stroke-linejoin="round"/>
<path d="M12.4992 15.4475C13.0909 15.4475 13.5706 14.9678 13.5706 14.3761C13.5706 13.7844 13.0909 13.3047 12.4992 13.3047C11.9074 13.3047 11.4277 13.7844 11.4277 14.3761C11.4277 14.9678 11.9074 15.4475 12.4992 15.4475Z" stroke="#22282E" stroke-width="2" stroke-linecap="round" stroke-linejoin="round"/>
<path d="M21.0708 14.374H28.5708" stroke="#22282E" stroke-width="2" stroke-linecap="round" stroke-linejoin="round"/>
<path d="M8.21366 20.8047C7.64533 20.8047 7.10029 21.0305 6.69843 21.4323C6.29657 21.8342 6.0708 22.3792 6.0708 22.9475V31.519C6.0708 32.0873 6.29657 32.6324 6.69843 33.0342C7.10029 33.436 7.64533 33.6618 8.21366 33.6618H31.7851C32.3534 33.6618 32.8985 33.436 33.3003 33.0342C33.7021 32.6324 33.9279 32.0873 33.9279 31.519V22.9475C33.9279 22.3792 33.7021 21.8342 33.3003 21.4323C32.8985 21.0305 32.3534 20.8047 31.7851 20.8047" stroke="#22282E" stroke-width="2" stroke-linecap="round" stroke-linejoin="round"/>
<path d="M12.4992 28.303C13.0909 28.303 13.5706 27.8232 13.5706 27.2316C13.5706 26.6399 13.0909 26.1602 12.4992 26.1602C11.9074 26.1602 11.4277 26.6399 11.4277 27.2316C11.4277 27.8232 11.9074 28.303 12.4992 28.303Z" stroke="#22282E" stroke-width="2" stroke-linecap="round" stroke-linejoin="round"/>
<path d="M21.0708 27.2324H28.5708" stroke="#22282E" stroke-width="2" stroke-linecap="round" stroke-linejoin="round"/>
</svg>
