<svg width="40" height="41" viewBox="0 0 40 41" fill="none" xmlns="http://www.w3.org/2000/svg">
<path d="M0 5.80469C0 3.04326 2.23858 0.804688 5 0.804688H35C37.7614 0.804688 40 3.04326 40 5.80469V35.8047C40 38.5661 37.7614 40.8047 35 40.8047H5C2.23858 40.8047 0 38.5661 0 35.8047V5.80469Z" fill="#00FFC5"/>
<path d="M20.6768 22.5215L20.7024 12.5544" stroke="#22282E" stroke-width="2" stroke-linecap="round" stroke-linejoin="round"/>
<path d="M31.417 12.5558L31.417 15.0543C31.417 16.4341 30.4576 17.5527 29.2741 17.5527L12.1313 17.5527C10.9478 17.5527 9.98842 16.4341 9.98842 15.0543L9.98842 12.5558" stroke="#22282E" stroke-width="2" stroke-linecap="round" stroke-linejoin="round"/>
<path d="M32.7759 8.64086L32.5372 7.71375C32.5233 7.65224 32.4883 7.59743 32.4383 7.55865C32.3883 7.51987 32.3263 7.49952 32.2629 7.50106L30.2328 7.50106C30.1708 7.5014 30.1107 7.52261 30.0624 7.56123C30.0141 7.59986 29.9803 7.65362 29.9667 7.71375L29.728 8.64086" stroke="#22282E" stroke-width="2" stroke-linecap="round" stroke-linejoin="round"/>
<path d="M33.0935 8.63962L33.5029 8.63962C33.6115 8.63962 33.7156 8.67702 33.7924 8.74358C33.8692 8.81014 33.9123 8.90042 33.9123 8.99455L33.9123 11.4791C33.9123 11.5732 33.8692 11.6635 33.7924 11.73C33.7156 11.7966 33.6115 11.834 33.5029 11.834L28.9993 11.834C28.8907 11.834 28.7865 11.7966 28.7098 11.73C28.633 11.6635 28.5898 11.5732 28.5898 11.4791L28.5898 8.99455C28.5898 8.90042 28.633 8.81014 28.7098 8.74358C28.7865 8.67702 28.8907 8.63962 28.9993 8.63962L29.4087 8.63962" stroke="#22282E" stroke-width="2" stroke-linecap="round" stroke-linejoin="round"/>
<path d="M22.2759 8.64086L22.0372 7.71375C22.0233 7.65224 21.9883 7.59743 21.9383 7.55865C21.8883 7.51987 21.8263 7.49952 21.7629 7.50106L19.7328 7.50106C19.6708 7.5014 19.6107 7.52261 19.5624 7.56123C19.5141 7.59986 19.4803 7.65362 19.4667 7.71375L19.228 8.64086" stroke="#22282E" stroke-width="2" stroke-linecap="round" stroke-linejoin="round"/>
<path d="M22.5935 8.63962L23.0029 8.63962C23.1115 8.63962 23.2156 8.67702 23.2924 8.74358C23.3692 8.81014 23.4123 8.90042 23.4123 8.99455L23.4123 11.4791C23.4123 11.5732 23.3692 11.6635 23.2924 11.73C23.2156 11.7966 23.1115 11.834 23.0029 11.834L18.4993 11.834C18.3907 11.834 18.2865 11.7966 18.2098 11.73C18.133 11.6635 18.0898 11.5732 18.0898 11.4791L18.0898 8.99455C18.0898 8.90042 18.133 8.81014 18.2098 8.74358C18.2865 8.67702 18.3907 8.63962 18.4993 8.63962L18.9087 8.63962" stroke="#22282E" stroke-width="2" stroke-linecap="round" stroke-linejoin="round"/>
<path d="M11.7759 8.64086L11.5372 7.71375C11.5233 7.65224 11.4883 7.59743 11.4383 7.55865C11.3883 7.51987 11.3263 7.49952 11.2629 7.50106L9.23281 7.50106C9.1708 7.5014 9.11073 7.52261 9.0624 7.56123C9.01408 7.59986 8.98034 7.65362 8.9667 7.71375L8.72803 8.64086" stroke="#22282E" stroke-width="2" stroke-linecap="round" stroke-linejoin="round"/>
<path d="M12.0935 8.63962L12.5029 8.63962C12.6115 8.63962 12.7156 8.67702 12.7924 8.74358C12.8692 8.81014 12.9123 8.90042 12.9123 8.99455L12.9123 11.4791C12.9123 11.5732 12.8692 11.6635 12.7924 11.73C12.7156 11.7966 12.6115 11.834 12.5029 11.834L7.99927 11.834C7.89068 11.834 7.78654 11.7966 7.70976 11.73C7.63298 11.6635 7.58984 11.5732 7.58984 11.4791L7.58984 8.99455C7.58984 8.90042 7.63298 8.81014 7.70976 8.74358C7.78654 8.67702 7.89068 8.63962 7.99926 8.63962L8.40869 8.63962" stroke="#22282E" stroke-width="2" stroke-linecap="round" stroke-linejoin="round"/>
<rect x="6.07227" y="23.2715" width="27.8569" height="10.8378" rx="3" stroke="#22282E" stroke-width="2"/>
<path d="M14.1686 27.5957L13.935 26.6807C13.9214 26.62 13.8872 26.5659 13.8382 26.5276C13.7893 26.4893 13.7286 26.4693 13.6666 26.4708H11.68C11.6193 26.4711 11.5605 26.4921 11.5132 26.5302C11.466 26.5683 11.4329 26.6214 11.4196 26.6807L11.186 27.5957" stroke="#22282E" stroke-width="2" stroke-linecap="round" stroke-linejoin="round"/>
<path d="M14.4799 27.5954L14.8805 27.5954C14.9867 27.5954 15.0887 27.6323 15.1638 27.698C15.2389 27.7637 15.2811 27.8528 15.2811 27.9457L15.2811 30.3978C15.2811 30.4907 15.2389 30.5798 15.1638 30.6454C15.0887 30.7111 14.9867 30.748 14.8805 30.748L10.4734 30.748C10.3671 30.748 10.2652 30.7111 10.1901 30.6454C10.115 30.5798 10.0728 30.4907 10.0728 30.3978L10.0728 27.9457C10.0728 27.8528 10.115 27.7637 10.1901 27.698C10.2652 27.6323 10.3671 27.5954 10.4734 27.5954L10.874 27.5954" stroke="#22282E" stroke-width="2" stroke-linecap="round" stroke-linejoin="round"/>
<path d="M22.2413 27.5957L22.0078 26.6807C21.9941 26.62 21.9599 26.5659 21.911 26.5276C21.8621 26.4893 21.8014 26.4693 21.7393 26.4708H19.7527C19.6921 26.4711 19.6333 26.4921 19.586 26.5302C19.5387 26.5683 19.5057 26.6214 19.4923 26.6807L19.2588 27.5957" stroke="#22282E" stroke-width="2" stroke-linecap="round" stroke-linejoin="round"/>
<path d="M22.5526 27.5954L22.9533 27.5954C23.0595 27.5954 23.1614 27.6323 23.2365 27.698C23.3117 27.7637 23.3539 27.8528 23.3539 27.9457L23.3539 30.3978C23.3539 30.4907 23.3117 30.5798 23.2365 30.6454C23.1614 30.7111 23.0595 30.748 22.9533 30.748L18.5462 30.748C18.4399 30.748 18.338 30.7111 18.2629 30.6454C18.1877 30.5798 18.1455 30.4907 18.1455 30.3978L18.1455 27.9457C18.1455 27.8528 18.1877 27.7637 18.2629 27.698C18.338 27.6323 18.4399 27.5954 18.5462 27.5954L18.9468 27.5954" stroke="#22282E" stroke-width="2" stroke-linecap="round" stroke-linejoin="round"/>
<path d="M30.3156 27.5957L30.082 26.6807C30.0684 26.62 30.0342 26.5659 29.9852 26.5276C29.9363 26.4893 29.8756 26.4693 29.8135 26.4708H27.827C27.7663 26.4711 27.7075 26.4921 27.6602 26.5302C27.6129 26.5683 27.5799 26.6214 27.5666 26.6807L27.333 27.5957" stroke="#22282E" stroke-width="2" stroke-linecap="round" stroke-linejoin="round"/>
<path d="M30.6268 27.5954L31.0275 27.5954C31.1337 27.5954 31.2356 27.6323 31.3108 27.698C31.3859 27.7637 31.4281 27.8528 31.4281 27.9457L31.4281 30.3978C31.4281 30.4907 31.3859 30.5798 31.3108 30.6454C31.2356 30.7111 31.1337 30.748 31.0275 30.748L26.6204 30.748C26.5141 30.748 26.4122 30.7111 26.3371 30.6454C26.2619 30.5798 26.2197 30.4907 26.2197 30.3978L26.2197 27.9457C26.2197 27.8528 26.2619 27.7637 26.3371 27.698C26.4122 27.6323 26.5141 27.5954 26.6204 27.5954L27.021 27.5954" stroke="#22282E" stroke-width="2" stroke-linecap="round" stroke-linejoin="round"/>
</svg>
