<svg width="40" height="41" viewBox="0 0 40 41" fill="none" xmlns="http://www.w3.org/2000/svg">
<path d="M0 5.80469C0 3.04326 2.23858 0.804688 5 0.804688H35C37.7614 0.804688 40 3.04326 40 5.80469V35.8047C40 38.5661 37.7614 40.8047 35 40.8047H5C2.23858 40.8047 0 38.5661 0 35.8047V5.80469Z" fill="#00FFC5"/>
<path d="M6.0708 30.368V26.0823C6.0708 24.8989 7.03019 23.9395 8.21366 23.9395H31.7851C32.9686 23.9395 33.9279 24.8989 33.9279 26.0823V30.368C33.9279 31.5515 32.9686 32.5109 31.7851 32.5109H8.21366C7.03019 32.5109 6.0708 31.5515 6.0708 30.368Z" stroke="#22282E" stroke-width="2" stroke-linecap="round" stroke-linejoin="round"/>
<path d="M11.4277 32.5088V34.6516" stroke="#22282E" stroke-width="2" stroke-linecap="round" stroke-linejoin="round"/>
<path d="M11.4277 28.2227H12.4992" stroke="#22282E" stroke-width="2" stroke-linecap="round" stroke-linejoin="round"/>
<path d="M16.7847 28.2227H17.8561" stroke="#22282E" stroke-width="2" stroke-linecap="round" stroke-linejoin="round"/>
<path d="M7.1416 12.1533L10.3559 23.939" stroke="#22282E" stroke-width="2" stroke-linecap="round" stroke-linejoin="round"/>
<path d="M32.8559 12.1533L29.6416 23.939" stroke="#22282E" stroke-width="2" stroke-linecap="round" stroke-linejoin="round"/>
<path d="M12.6055 10.0096C16.6769 5.9382 23.3198 5.9382 27.3912 10.0096" stroke="#22282E" stroke-width="2" stroke-linecap="round" stroke-linejoin="round"/>
<path d="M16.4741 13.293C18.314 11.4531 21.4682 11.4531 23.3081 13.293" stroke="#22282E" stroke-width="2" stroke-linecap="round" stroke-linejoin="round"/>
<path d="M28.5708 32.5088V34.6516" stroke="#22282E" stroke-width="2" stroke-linecap="round" stroke-linejoin="round"/>
<path d="M19.8926 18.3078C19.5968 18.3078 19.3569 18.0679 19.3569 17.772C19.3569 17.4762 19.5968 17.2363 19.8926 17.2363" stroke="#22282E" stroke-width="2" stroke-linecap="round" stroke-linejoin="round"/>
<path d="M19.8931 18.3078C20.1889 18.3078 20.4288 18.0679 20.4288 17.772C20.4288 17.4762 20.1889 17.2363 19.8931 17.2363" stroke="#22282E" stroke-width="2" stroke-linecap="round" stroke-linejoin="round"/>
</svg>
