<svg width="40" height="41" viewBox="0 0 40 41" fill="none" xmlns="http://www.w3.org/2000/svg">
<path d="M0 5.80469C0 3.04326 2.23858 0.804688 5 0.804688H35C37.7614 0.804688 40 3.04326 40 5.80469V35.8047C40 38.5661 37.7614 40.8047 35 40.8047H5C2.23858 40.8047 0 38.5661 0 35.8047V5.80469Z" fill="#00FFC5"/>
<path d="M12.8428 17.635V8.22473C12.8428 7.98704 12.9556 7.75908 13.1566 7.591C13.3575 7.42293 13.63 7.32851 13.9141 7.32851H17.8674C18.1121 7.32254 18.3519 7.38688 18.5468 7.51081C18.7418 7.63474 18.8801 7.81078 18.9387 8.00964L19.2709 9.12095H25.6989C25.983 9.12095 26.2556 9.21537 26.4565 9.38345C26.6574 9.55153 26.7703 9.77948 26.7703 10.0172V17.635C26.7703 17.8728 26.6574 18.1007 26.4565 18.2687C26.2556 18.4369 25.983 18.5313 25.6989 18.5313H13.9141C13.63 18.5313 13.3575 18.4369 13.1566 18.2687C12.9556 18.1007 12.8428 17.8728 12.8428 17.635Z" stroke="#22282E" stroke-width="2" stroke-linecap="round" stroke-linejoin="round"/>
<path d="M20.022 18.5928V25.7463" stroke="#22282E" stroke-width="2" stroke-linecap="round" stroke-linejoin="round"/>
<path d="M9.76074 25.7485V23.8567C9.76074 22.8118 10.6796 21.9648 11.8131 21.9648H28.2315C29.365 21.9648 30.2838 22.8118 30.2838 23.8567V25.7485" stroke="#22282E" stroke-width="2" stroke-linecap="round" stroke-linejoin="round"/>
<path d="M6.13965 27.1507V30.5857C6.13965 31.0599 6.53991 31.4444 7.03367 31.4444H12.3978C12.8915 31.4444 13.2918 31.0599 13.2918 30.5857V27.1507C13.2918 26.6765 12.8915 26.292 12.3978 26.292H7.03367C6.53991 26.292 6.13965 26.6765 6.13965 27.1507Z" stroke="#22282E" stroke-width="2" stroke-linecap="round" stroke-linejoin="round"/>
<path d="M7.84033 34.2754H11.5903" stroke="#22282E" stroke-width="2" stroke-linecap="round" stroke-linejoin="round"/>
<path d="M9.71533 34.2752V32.4121" stroke="#22282E" stroke-width="2" stroke-linecap="round" stroke-linejoin="round"/>
<path d="M16.4243 27.1507V30.5857C16.4243 31.0599 16.8246 31.4444 17.3183 31.4444H22.6825C23.1762 31.4444 23.5765 31.0599 23.5765 30.5857V27.1507C23.5765 26.6765 23.1762 26.292 22.6825 26.292H17.3183C16.8246 26.292 16.4243 26.6765 16.4243 27.1507Z" stroke="#22282E" stroke-width="2" stroke-linecap="round" stroke-linejoin="round"/>
<path d="M18.125 34.2754H21.875" stroke="#22282E" stroke-width="2" stroke-linecap="round" stroke-linejoin="round"/>
<path d="M20 34.2752V32.4121" stroke="#22282E" stroke-width="2" stroke-linecap="round" stroke-linejoin="round"/>
<path d="M26.7075 27.1507V30.5857C26.7075 31.0599 27.1078 31.4444 27.6015 31.4444H32.9657C33.4594 31.4444 33.8597 31.0599 33.8597 30.5857V27.1507C33.8597 26.6765 33.4594 26.292 32.9657 26.292H27.6015C27.1078 26.292 26.7075 26.6765 26.7075 27.1507Z" stroke="#22282E" stroke-width="2" stroke-linecap="round" stroke-linejoin="round"/>
<path d="M28.4082 34.2754H32.1582" stroke="#22282E" stroke-width="2" stroke-linecap="round" stroke-linejoin="round"/>
<path d="M30.2832 34.2752V32.4121" stroke="#22282E" stroke-width="2" stroke-linecap="round" stroke-linejoin="round"/>
</svg>
