<svg width="40" height="41" viewBox="0 0 40 41" fill="none" xmlns="http://www.w3.org/2000/svg">
<path d="M0 5.80469C0 3.04326 2.23858 0.804688 5 0.804688H35C37.7614 0.804688 40 3.04326 40 5.80469V35.8047C40 38.5661 37.7614 40.8047 35 40.8047H5C2.23858 40.8047 0 38.5661 0 35.8047V5.80469Z" fill="#00FFC5"/>
<path d="M20.7342 9.90332H7.14223C6.5505 9.90332 6.0708 10.383 6.0708 10.9747V28.1176C6.0708 28.7092 6.5505 29.189 7.14223 29.189H32.8565C33.4482 29.189 33.9279 28.7092 33.9279 28.1176V20.6176" stroke="#22282E" stroke-width="2" stroke-linecap="round" stroke-linejoin="round"/>
<path d="M17.8567 29.1895L15.7139 34.5466" stroke="#22282E" stroke-width="2" stroke-linecap="round" stroke-linejoin="round"/>
<path d="M22.1416 29.1895L24.2845 34.5466" stroke="#22282E" stroke-width="2" stroke-linecap="round" stroke-linejoin="round"/>
<path d="M13.5708 34.5479H26.4279" stroke="#22282E" stroke-width="2" stroke-linecap="round" stroke-linejoin="round"/>
<path d="M33.6835 7.06445L30.4692 10.2787L33.6835 13.493" stroke="#22282E" stroke-width="2" stroke-linecap="round" stroke-linejoin="round"/>
<path d="M25.1123 9.20605L28.3266 12.4203L25.1123 15.6346" stroke="#22282E" stroke-width="2" stroke-linecap="round" stroke-linejoin="round"/>
</svg>
