<svg width="40" height="41" viewBox="0 0 40 41" fill="none" xmlns="http://www.w3.org/2000/svg">
<path d="M0 5.80469C0 3.04326 2.23858 0.804688 5 0.804688H35C37.7614 0.804688 40 3.04326 40 5.80469V35.8047C40 38.5661 37.7614 40.8047 35 40.8047H5C2.23858 40.8047 0 38.5661 0 35.8047V5.80469Z" fill="#00FFC5"/>
<path d="M6.5 17.0693V23.8176" stroke="#22282E" stroke-width="2" stroke-linecap="round" stroke-linejoin="round"/>
<path d="M6.5 6.55469V13.303" stroke="#22282E" stroke-width="2" stroke-linecap="round" stroke-linejoin="round"/>
<path d="M6.5 27.584V34.3323" stroke="#22282E" stroke-width="2" stroke-linecap="round" stroke-linejoin="round"/>
<path d="M19.6365 6.55469V13.303" stroke="#22282E" stroke-width="2" stroke-linecap="round" stroke-linejoin="round"/>
<path d="M23.6592 6.55469V13.303" stroke="#22282E" stroke-width="2" stroke-linecap="round" stroke-linejoin="round"/>
<path d="M10.729 17.0693V23.8176" stroke="#22282E" stroke-width="2" stroke-linecap="round" stroke-linejoin="round"/>
<path d="M10.7656 9.07128C10.7656 7.6814 11.8923 6.55469 13.2822 6.55469C14.6721 6.55469 15.7988 7.6814 15.7988 9.07128V10.748C15.7988 12.1379 14.6721 13.2646 13.2822 13.2646C11.8923 13.2646 10.7656 12.1379 10.7656 10.748V9.07128Z" stroke="#22282E" stroke-width="2" stroke-linecap="round" stroke-linejoin="round"/>
<path d="M14.5757 19.5859C14.5757 18.1961 15.7024 17.0693 17.0923 17.0693C18.4822 17.0693 19.6089 18.1961 19.6089 19.5859V21.2627C19.6089 22.6526 18.4822 23.7793 17.0923 23.7793C15.7024 23.7793 14.5757 22.6526 14.5757 21.2627V19.5859Z" stroke="#22282E" stroke-width="2" stroke-linecap="round" stroke-linejoin="round"/>
<path d="M10.7656 30.1386C10.7656 28.7488 11.8923 27.6221 13.2822 27.6221C14.6721 27.6221 15.7988 28.7488 15.7988 30.1386V31.8154C15.7988 33.2053 14.6721 34.332 13.2822 34.332C11.8923 34.332 10.7656 33.2053 10.7656 31.8154V30.1386Z" stroke="#22282E" stroke-width="2" stroke-linecap="round" stroke-linejoin="round"/>
<path d="M22.258 25.8408H32.9722C33.6151 25.8408 34.0437 26.2694 34.0437 26.9122V33.3408C34.0437 33.9837 33.6151 34.4122 32.9722 34.4122H22.258C21.6151 34.4122 21.1865 33.9837 21.1865 33.3408V26.9122C21.1865 26.2694 21.6151 25.8408 22.258 25.8408Z" stroke="#22282E" stroke-width="2" stroke-linecap="round" stroke-linejoin="round"/>
<path d="M23.3296 25.8417V23.6988C23.3296 21.3417 25.2582 19.4131 27.6153 19.4131C29.9724 19.4131 31.901 21.3417 31.901 23.6988V25.8417" stroke="#22282E" stroke-width="2" stroke-linecap="round" stroke-linejoin="round"/>
</svg>
