<svg width="40" height="41" viewBox="0 0 40 41" fill="none" xmlns="http://www.w3.org/2000/svg">
<path d="M0 5.80469C0 3.04326 2.23858 0.804688 5 0.804688H35C37.7614 0.804688 40 3.04326 40 5.80469V35.8047C40 38.5661 37.7614 40.8047 35 40.8047H5C2.23858 40.8047 0 38.5661 0 35.8047V5.80469Z" fill="#00FFC5"/>
<path d="M33.9294 34.6881H32.858C31.7214 34.6881 30.6313 34.2366 29.8276 33.4328C29.0238 32.629 28.5723 31.5389 28.5723 30.4023C28.5723 31.5389 28.1208 32.629 27.317 33.4328C26.5132 34.2366 25.4232 34.6881 24.2866 34.6881C23.1499 34.6881 22.0598 34.2366 21.2561 33.4328C20.4524 32.629 20.0008 31.5389 20.0008 30.4023C20.0008 31.5389 19.5493 32.629 18.7456 33.4328C17.9419 34.2366 16.8518 34.6881 15.7151 34.6881C14.5785 34.6881 13.4884 34.2366 12.6847 33.4328C11.8809 32.629 11.4294 31.5389 11.4294 30.4023C11.4294 31.5389 10.9779 32.629 10.1741 33.4328C9.37042 34.2366 8.28033 34.6881 7.14369 34.6881H6.07227" stroke="#22282E" stroke-width="2" stroke-linecap="round" stroke-linejoin="round"/>
<path d="M29.8364 26.1183C28.7328 24.7765 27.3457 23.6958 25.7748 22.9539C24.2039 22.2119 22.4881 21.8271 20.7508 21.8271C19.0134 21.8271 17.2976 22.2119 15.7267 22.9539C14.1558 23.6958 12.7687 24.7765 11.665 26.1183" stroke="#22282E" stroke-width="2" stroke-linecap="round" stroke-linejoin="round"/>
<path d="M22.3364 21.9386C22.465 17.0957 23.9436 12.6814 27.1579 11.0957" stroke="#22282E" stroke-width="2" stroke-linecap="round" stroke-linejoin="round"/>
<path d="M20.75 7.02508C22.1391 6.75156 23.5801 7.02135 24.7762 7.77884C25.9722 8.53635 26.8321 9.72382 27.1786 11.0965" stroke="#22282E" stroke-width="2" stroke-linecap="round" stroke-linejoin="round"/>
<path d="M35.0001 11.8889C34.0137 10.8239 32.6727 10.1557 31.2287 10.0097C29.7844 9.86372 28.3367 10.25 27.1572 11.096" stroke="#22282E" stroke-width="2" stroke-linecap="round" stroke-linejoin="round"/>
<path d="M19.2939 13.3895C20.1336 12.1524 21.3782 11.2467 22.8136 10.8283C24.2489 10.4098 25.7853 10.5047 27.1582 11.0967C28.5354 11.4334 29.7277 12.2923 30.4834 13.4918C31.2392 14.6914 31.4991 16.1376 31.2083 17.5252" stroke="#22282E" stroke-width="2" stroke-linecap="round" stroke-linejoin="round"/>
<path d="M6.65232 14.0693L5.1271 16.2612C4.95763 16.5141 4.95763 16.8514 5.1271 17.1043C5.29657 17.3572 5.55077 17.5258 5.80497 17.5258H14.9563C15.4647 17.5258 15.8036 17.1886 15.8036 16.6828C15.8036 16.5141 15.8036 16.4298 15.7189 16.2612L14.1937 14.0693H6.65232Z" stroke="#22282E" stroke-width="2" stroke-linecap="round" stroke-linejoin="round"/>
<path d="M10.4654 9.00977H7.49969C6.99128 9.00977 6.65234 9.34698 6.65234 9.8528V14.068" stroke="#22282E" stroke-width="2" stroke-linecap="round" stroke-linejoin="round"/>
<path d="M10.402 9.00977H13.3677C13.8762 9.00977 14.2151 9.34698 14.2151 9.8528V14.068" stroke="#22282E" stroke-width="2" stroke-linecap="round" stroke-linejoin="round"/>
</svg>
