<svg width="40" height="41" viewBox="0 0 40 41" fill="none" xmlns="http://www.w3.org/2000/svg">
<path d="M0 5.80469C0 3.04326 2.23858 0.804688 5 0.804688H35C37.7614 0.804688 40 3.04326 40 5.80469V35.8047C40 38.5661 37.7614 40.8047 35 40.8047H5C2.23858 40.8047 0 38.5661 0 35.8047V5.80469Z" fill="#00FFC5"/>
<path d="M33.5 26.8047V13.6047C33.5 11.9245 33.5 11.0845 33.173 10.4427C32.8854 9.87823 32.4265 9.41929 31.862 9.13167C31.2202 8.80469 30.3802 8.80469 28.7 8.80469H11.3C9.61984 8.80469 8.77976 8.80469 8.13803 9.13167C7.57354 9.41929 7.1146 9.87823 6.82698 10.4427C6.5 11.0845 6.5 11.9245 6.5 13.6047V26.8047M9 32.8047H31C31.93 32.8047 32.395 32.8047 32.7765 32.7025C33.8117 32.4251 34.6204 31.6164 34.8978 30.5811C35 30.1996 35 29.7347 35 28.8047C35 28.3397 35 28.1072 34.9489 27.9165C34.8102 27.3988 34.4059 26.9945 33.8882 26.8558C33.6975 26.8047 33.465 26.8047 33 26.8047H7C6.53501 26.8047 6.30252 26.8047 6.11177 26.8558C5.59413 26.9945 5.18981 27.3988 5.05111 27.9165C5 28.1072 5 28.3397 5 28.8047C5 29.7347 5 30.1996 5.10222 30.5811C5.37962 31.6164 6.18827 32.4251 7.22354 32.7025C7.60504 32.8047 8.07003 32.8047 9 32.8047Z" stroke="#22282E" stroke-width="2" stroke-linecap="round" stroke-linejoin="round"/>
</svg>
