<svg width="40" height="41" viewBox="0 0 40 41" fill="none" xmlns="http://www.w3.org/2000/svg">
<path d="M0 5.80469C0 3.04326 2.23858 0.804688 5 0.804688H35C37.7614 0.804688 40 3.04326 40 5.80469V35.8047C40 38.5661 37.7614 40.8047 35 40.8047H5C2.23858 40.8047 0 38.5661 0 35.8047V5.80469Z" fill="#00FFC5"/>
<path d="M24.407 12.5993L23.7624 10.8974C23.7247 10.7845 23.6303 10.6839 23.4953 10.6127C23.3602 10.5415 23.1927 10.5042 23.0214 10.507H17.5386C17.3711 10.5076 17.2089 10.5465 17.0784 10.6175C16.9479 10.6884 16.8567 10.787 16.8199 10.8974L16.1753 12.5993" stroke="#22282E" stroke-width="2" stroke-linecap="round" stroke-linejoin="round"/>
<path d="M28.0508 15.0004L29.8399 15.0004C30.3144 15.0004 30.7695 15.1889 31.105 15.5244C31.4404 15.86 31.629 16.315 31.629 16.7895L31.629 29.3133C31.629 29.7878 31.4405 30.2429 31.105 30.5784C30.7695 30.9139 30.3144 31.1024 29.8399 31.1024L10.1597 31.1024C9.68521 31.1024 9.23015 30.9139 8.89462 30.5784C8.5591 30.2429 8.37061 29.7878 8.37061 29.3133L8.3706 16.7895C8.3706 16.315 8.5591 15.86 8.89462 15.5244C9.23015 15.1889 9.68521 15.0004 10.1597 15.0004L11.9488 15.0004" stroke="#22282E" stroke-width="2" stroke-linecap="round" stroke-linejoin="round"/>
<path d="M27.8245 14.9997L27.164 13.354C27.0869 13.1356 26.8935 12.941 26.6167 12.8034C26.3399 12.6657 25.9968 12.5935 25.6457 12.5989H24.5262M12.2773 14.9997L12.9378 13.354C13.0133 13.1405 13.2 12.9497 13.4674 12.8126C13.7349 12.6754 14.0673 12.6001 14.4105 12.5989H15.8149" stroke="#22282E" stroke-width="2" stroke-linecap="round" stroke-linejoin="round"/>
<path d="M12.3711 23.4385L12.3711 27.2947" stroke="#22282E" stroke-width="2" stroke-linecap="round" stroke-linejoin="round"/>
<path d="M15.3374 23.4385L15.3374 27.2947" stroke="#22282E" stroke-width="2" stroke-linecap="round" stroke-linejoin="round"/>
<path d="M18.3022 23.4385L18.3022 27.2947" stroke="#22282E" stroke-width="2" stroke-linecap="round" stroke-linejoin="round"/>
<path d="M21.2686 23.4385L21.2686 27.2947" stroke="#22282E" stroke-width="2" stroke-linecap="round" stroke-linejoin="round"/>
<path d="M24.2334 23.4385L24.2334 27.2947" stroke="#22282E" stroke-width="2" stroke-linecap="round" stroke-linejoin="round"/>
<path d="M27.1982 23.4385L27.1982 27.2947" stroke="#22282E" stroke-width="2" stroke-linecap="round" stroke-linejoin="round"/>
</svg>
