<svg width="40" height="41" viewBox="0 0 40 41" fill="none" xmlns="http://www.w3.org/2000/svg">
<path d="M0 5.80469C0 3.04326 2.23858 0.804688 5 0.804688H35C37.7614 0.804688 40 3.04326 40 5.80469V35.8047C40 38.5661 37.7614 40.8047 35 40.8047H5C2.23858 40.8047 0 38.5661 0 35.8047V5.80469Z" fill="#00FFC5"/>
<path d="M11.4277 20.8039V15.1682C11.4445 14.0604 11.6796 12.9669 12.1197 11.9501C12.5598 10.9333 13.1963 10.0134 13.9925 9.24306C14.7888 8.4727 15.7292 7.86701 16.7599 7.46072C17.7906 7.05443 18.8914 6.85552 19.9992 6.87538C21.1069 6.85552 22.2077 7.05443 23.2384 7.46072C24.2691 7.86701 25.2096 8.4727 26.0058 9.24306C26.8021 10.0134 27.4385 10.9333 27.8787 11.9501C28.3186 12.9669 28.5539 14.0604 28.5706 15.1682V20.8039" stroke="#22282E" stroke-width="2" stroke-linecap="round" stroke-linejoin="round"/>
<path d="M8.21366 17.5908H10.3565C10.6407 17.5908 10.9132 17.7037 11.1141 17.9046C11.3151 18.1056 11.4279 18.3781 11.4279 18.6622V25.0908C11.4279 25.375 11.3151 25.6475 11.1141 25.8484C10.9132 26.0494 10.6407 26.1622 10.3565 26.1622H8.21366C7.64533 26.1622 7.10029 25.9365 6.69843 25.5346C6.29657 25.1328 6.0708 24.5877 6.0708 24.0194V19.7337C6.0708 19.1653 6.29657 18.6203 6.69843 18.2184C7.10029 17.8166 7.64533 17.5908 8.21366 17.5908Z" stroke="#22282E" stroke-width="2" stroke-linecap="round" stroke-linejoin="round"/>
<path d="M31.7851 26.1622H29.6422C29.3581 26.1622 29.0855 26.0494 28.8845 25.8484C28.6837 25.6475 28.5708 25.375 28.5708 25.0908V18.6622C28.5708 18.3781 28.6837 18.1056 28.8845 17.9046C29.0855 17.7037 29.3581 17.5908 29.6422 17.5908H31.7851C32.3534 17.5908 32.8985 17.8166 33.3003 18.2184C33.7021 18.6203 33.9279 19.1653 33.9279 19.7337V24.0194C33.9279 24.5877 33.7021 25.1328 33.3003 25.5346C32.8985 25.9365 32.3534 26.1622 31.7851 26.1622Z" stroke="#22282E" stroke-width="2" stroke-linecap="round" stroke-linejoin="round"/>
<path d="M24.2847 32.0534C25.4213 32.0534 26.5113 31.6019 27.3151 30.7981C28.1189 29.9944 28.5704 28.9043 28.5704 27.7677V22.9463" stroke="#22282E" stroke-width="2" stroke-linecap="round" stroke-linejoin="round"/>
<path d="M24.2853 32.0526C24.2853 32.763 24.0031 33.4444 23.5008 33.9467C22.9984 34.449 22.3171 34.7312 21.6067 34.7312H18.3924C17.682 34.7312 17.0007 34.449 16.4984 33.9467C15.9961 33.4444 15.7139 32.763 15.7139 32.0526C15.7139 31.3422 15.9961 30.6608 16.4984 30.1585C17.0007 29.6562 17.682 29.374 18.3924 29.374H21.6067C22.3171 29.374 22.9984 29.6562 23.5008 30.1585C24.0031 30.6608 24.2853 31.3422 24.2853 32.0526Z" stroke="#22282E" stroke-width="2" stroke-linecap="round" stroke-linejoin="round"/>
</svg>
