<svg width="41" height="41" viewBox="0 0 41 41" fill="none" xmlns="http://www.w3.org/2000/svg">
<path d="M0.568359 5.5C0.568359 2.73858 2.80694 0.5 5.56836 0.5H35.5684C38.3298 0.5 40.5684 2.73858 40.5684 5.5V35.5C40.5684 38.2614 38.3298 40.5 35.5684 40.5H5.56836C2.80694 40.5 0.568359 38.2614 0.568359 35.5V5.5Z" fill="#00FFC5"/>
<g clip-path="url(#clip0_4826_4103)">
<path d="M21.8804 20.551C21.5625 20.689 21.2197 20.7603 20.8732 20.7603C20.5267 20.7603 20.1839 20.689 19.8661 20.551L7.65178 14.8939C7.45344 14.7939 7.28676 14.6407 7.1703 14.4516C7.05385 14.2624 6.99219 14.0446 6.99219 13.8225C6.99219 13.6003 7.05385 13.3825 7.1703 13.1934C7.28676 13.0042 7.45344 12.8511 7.65178 12.751L19.8661 7.05103C20.1839 6.91301 20.5267 6.8418 20.8732 6.8418C21.2197 6.8418 21.5625 6.91301 21.8804 7.05103L34.0946 12.7082C34.293 12.8082 34.4597 12.9613 34.5761 13.1505C34.6927 13.3397 34.7542 13.5574 34.7542 13.7796C34.7542 14.0017 34.6927 14.2195 34.5761 14.4087C34.4597 14.5979 34.293 14.751 34.0946 14.851L21.8804 20.551Z" stroke="#22282E" stroke-width="2" stroke-linecap="round" stroke-linejoin="round"/>
<path d="M34.8015 21.5156L21.73 27.5371C21.4509 27.6644 21.1476 27.7304 20.8408 27.7304C20.5339 27.7304 20.2307 27.6644 19.9515 27.5371L6.94434 21.5156" stroke="#22282E" stroke-width="2" stroke-linecap="round" stroke-linejoin="round"/>
<path d="M34.8015 28.4805L21.73 34.5019C21.4509 34.6292 21.1476 34.6952 20.8408 34.6952C20.5339 34.6952 20.2307 34.6292 19.9515 34.5019L6.94434 28.4805" stroke="#22282E" stroke-width="2" stroke-linecap="round" stroke-linejoin="round"/>
</g>
<defs>
<clipPath id="clip0_4826_4103">
<rect width="30" height="30" fill="white" transform="translate(5.87305 5.76562)"/>
</clipPath>
</defs>
</svg>
