<svg width="90" height="90" viewBox="0 0 90 90" fill="none" xmlns="http://www.w3.org/2000/svg">
<rect width="90" height="90" rx="15" fill="#00FFC5"/>
<path d="M27.8555 44.9985V33.7271C27.8889 31.5115 28.3593 29.3243 29.2395 27.2908C30.1197 25.2573 31.3926 23.4175 32.985 21.8767C34.5775 20.336 36.4584 19.1247 38.5199 18.3121C40.5813 17.4995 42.7829 17.1017 44.9983 17.1414C47.2138 17.1017 49.4154 17.4995 51.4768 18.3121C53.5383 19.1247 55.4191 20.336 57.0116 21.8767C58.6042 23.4175 59.877 25.2573 60.7573 27.2908C61.6372 29.3243 62.1078 31.5115 62.1412 33.7271V44.9985" stroke="#22282E" stroke-width="2" stroke-linecap="round" stroke-linejoin="round"/>
<path d="M21.4273 38.5723H25.713C26.2814 38.5723 26.8264 38.798 27.2282 39.1999C27.6301 39.6017 27.8559 40.1468 27.8559 40.7151V53.5723C27.8559 54.1406 27.6301 54.6857 27.2282 55.0875C26.8264 55.4894 26.2814 55.7151 25.713 55.7151H21.4273C20.2907 55.7151 19.2006 55.2636 18.3969 54.4599C17.5931 53.6561 17.1416 52.5661 17.1416 51.4294V42.858C17.1416 41.7213 17.5931 40.6313 18.3969 39.8275C19.2006 39.0238 20.2907 38.5723 21.4273 38.5723Z" stroke="#22282E" stroke-width="2" stroke-linecap="round" stroke-linejoin="round"/>
<path d="M68.5702 55.7151H64.2845C63.7162 55.7151 63.171 55.4894 62.769 55.0875C62.3675 54.6857 62.1416 54.1406 62.1416 53.5723V40.7151C62.1416 40.1468 62.3675 39.6017 62.769 39.1999C63.171 38.798 63.7162 38.5723 64.2845 38.5723H68.5702C69.7067 38.5723 70.797 39.0238 71.6006 39.8275C72.4042 40.6313 72.8559 41.7213 72.8559 42.858V51.4294C72.8559 52.5661 72.4042 53.6561 71.6006 54.4599C70.797 55.2636 69.7067 55.7151 68.5702 55.7151Z" stroke="#22282E" stroke-width="2" stroke-linecap="round" stroke-linejoin="round"/>
<path d="M53.5693 67.4975C55.8426 67.4975 58.0226 66.5945 59.6302 64.9869C61.2378 63.3793 62.1408 61.1992 62.1408 58.9261V49.2832" stroke="#22282E" stroke-width="2" stroke-linecap="round" stroke-linejoin="round"/>
<path d="M53.5706 67.4958C53.5706 68.9165 53.0062 70.2794 52.0015 71.284C50.9968 72.2885 49.6342 72.853 48.2134 72.853H41.7849C40.3641 72.853 39.0015 72.2885 37.9968 71.284C36.9922 70.2794 36.4277 68.9165 36.4277 67.4958C36.4277 66.0751 36.9922 64.7122 37.9968 63.7077C39.0015 62.7031 40.3641 62.1387 41.7849 62.1387H48.2134C49.6342 62.1387 50.9968 62.7031 52.0015 63.7077C53.0062 64.7122 53.5706 66.0751 53.5706 67.4958Z" stroke="#22282E" stroke-width="2" stroke-linecap="round" stroke-linejoin="round"/>
</svg>
