<svg width="80" height="80" viewBox="0 0 80 80" fill="none" xmlns="http://www.w3.org/2000/svg">
<g id="task-list--task-list-work">
<g id="task-list--task-list-work_2">
<path id="Vector" d="M66.9648 71.4289C66.9648 72.9443 66.3626 74.398 65.2911 75.4694C64.2191 76.5409 62.766 77.1431 61.2506 77.1431H9.82171C8.30616 77.1431 6.85274 76.5409 5.78108 75.4694C4.70946 74.398 4.10742 72.9443 4.10742 71.4289V8.57171C4.10742 7.05616 4.70946 5.60274 5.78108 4.5311C6.85274 3.45946 8.30616 2.85742 9.82171 2.85742H41.7405C43.256 2.85742 44.7095 3.45946 45.7811 4.5311L65.2911 24.0409C66.3626 25.1125 66.9648 26.566 66.9648 28.0815V71.4289Z" stroke="#01CA9A" stroke-width="2" stroke-linecap="round" stroke-linejoin="round"/>
<path id="Vector_2" d="M38.7266 36.4297H53.0123" stroke="#01CA9A" stroke-width="2" stroke-linecap="round" stroke-linejoin="round"/>
<path id="Vector_3" d="M38.7266 56.25H53.0123" stroke="#01CA9A" stroke-width="2" stroke-linecap="round" stroke-linejoin="round"/>
<path id="Vector_4" d="M16.6289 55.9269L21.4168 60.7149L29.3967 49.543" stroke="#01CA9A" stroke-width="2" stroke-linecap="round" stroke-linejoin="round"/>
<path id="Vector_5" d="M16.6289 35.7472L21.4168 40.5352L29.3967 29.3633" stroke="#01CA9A" stroke-width="2" stroke-linecap="round" stroke-linejoin="round"/>
</g>
</g>
</svg>
