<svg width="80" height="80" viewBox="0 0 80 80" fill="none" xmlns="http://www.w3.org/2000/svg">
<g id="cog--work-loading-cog-gear-settings-machine">
<g id="cog--work-loading-cog-gear-settings-machine_2">
<path id="Vector" d="M29.8866 12.8574L32.3438 6.51456C32.7582 5.44064 33.4873 4.51691 34.4355 3.86435C35.3838 3.21179 36.507 2.86082 37.6581 2.85742H42.3438C43.4949 2.86082 44.6181 3.21179 45.5664 3.86435C46.5146 4.51691 47.2437 5.44064 47.6581 6.51456L50.1152 12.8574L58.4578 17.6574L65.2007 16.6289C66.3236 16.4765 67.4664 16.6613 68.4841 17.1598C69.5013 17.6584 70.3476 18.4482 70.915 19.4289L73.2007 23.4289C73.7864 24.4251 74.0567 25.5756 73.975 26.7284C73.8933 27.8812 73.4641 28.9822 72.7436 29.886L68.5721 35.2003V44.8003L72.8578 50.1146C73.5784 51.0184 74.0076 52.1194 74.0893 53.2722C74.171 54.425 73.9007 55.5754 73.315 56.5717L71.0293 60.5717C70.4618 61.5523 69.6156 62.342 68.5984 62.8409C67.5807 63.3391 66.4378 63.5243 65.315 63.3717L58.5721 62.3431L50.2295 67.1431L47.7724 73.486C47.358 74.5597 46.6289 75.4837 45.6806 76.1363C44.7324 76.7889 43.6092 77.1397 42.4581 77.1431H37.6581C36.507 77.1397 35.3838 76.7889 34.4355 76.1363C33.4873 75.4837 32.7582 74.5597 32.3438 73.486L29.8866 67.1431L21.5438 62.3431L14.8009 63.3717C13.6782 63.5243 12.5354 63.3391 11.518 62.8409C10.5005 62.342 9.65425 61.5523 9.08665 60.5717L6.80093 56.5717C6.21522 55.5754 5.94539 54.425 6.02699 53.2722C6.10859 52.1194 6.53785 51.0184 7.25808 50.1146L11.4295 44.8003V35.2003L7.14379 29.886C6.42356 28.9822 5.9943 27.8812 5.9127 26.7284C5.8311 25.5756 6.10093 24.4251 6.68665 23.4289L8.97236 19.4289C9.53996 18.4482 10.3862 17.6584 11.4037 17.1598C12.4212 16.6613 13.5639 16.4765 14.6866 16.6289L21.4295 17.6574L29.8866 12.8574ZM28.5724 40.0003C28.5724 42.2606 29.2426 44.4702 30.4984 46.3497C31.7542 48.2291 33.5391 49.6939 35.6274 50.5589C37.7157 51.4239 40.0136 51.6502 42.2305 51.2093C44.4474 50.7683 46.4838 49.6798 48.0822 48.0815C49.6805 46.4832 50.7689 44.4468 51.2099 42.2299C51.6509 40.013 51.4246 37.7151 50.5596 35.6267C49.6946 33.5385 48.2297 31.7535 46.3503 30.4978C44.4709 29.242 42.2613 28.5717 40.0009 28.5717C36.9699 28.5717 34.063 29.7758 31.9197 31.9191C29.7765 34.0623 28.5724 36.9693 28.5724 40.0003Z" stroke="#01CA9A" stroke-width="2" stroke-linecap="round" stroke-linejoin="round"/>
</g>
</g>
</svg>
