<svg width="80" height="80" viewBox="0 0 80 80" fill="none" xmlns="http://www.w3.org/2000/svg">
<g id="hierarchy-13--node-organization-links-structure-link-nodes-network-hierarchy">
<g id="hierarchy-13--node-organization-links-structure-link-nodes-network-hierarchy_2">
<path id="Vector 190" d="M20.1785 40.1543L16.4844 54.2852" stroke="#01CA9A" stroke-width="2" stroke-linecap="round" stroke-linejoin="round"/>
<path id="Vector 191" d="M63.4788 25.7148L60 45" stroke="#01CA9A" stroke-width="2" stroke-linecap="round" stroke-linejoin="round"/>
<path id="Vector 192" d="M35.7148 35.7559L43 42.999" stroke="#01CA9A" stroke-width="2" stroke-linecap="round" stroke-linejoin="round"/>
<path id="Vector 2259" d="M71.428 25.7146H59.9994C56.8436 25.7146 54.2852 23.1562 54.2852 20.0003V8.57171C54.2852 5.41579 56.8436 2.85742 59.9994 2.85742H71.428C74.584 2.85742 77.1423 5.41579 77.1423 8.57171V20.0003C77.1423 23.1562 74.584 25.7146 71.428 25.7146Z" stroke="#01CA9A" stroke-width="2" stroke-linecap="round" stroke-linejoin="round"/>
<path id="Vector 2261" d="M30.0003 40.156H18.5717C15.4158 40.156 12.8574 37.5976 12.8574 34.4417V23.0131C12.8574 19.8572 15.4158 17.2988 18.5717 17.2988H30.0003C33.1562 17.2988 35.7146 19.8572 35.7146 23.0131V34.4417C35.7146 37.5976 33.1562 40.156 30.0003 40.156Z" stroke="#01CA9A" stroke-width="2" stroke-linecap="round" stroke-linejoin="round"/>
<path id="Vector 2262" d="M20.0003 77.1423H8.57171C5.41579 77.1423 2.85742 74.584 2.85742 71.428V59.9994C2.85742 56.8436 5.41579 54.2852 8.57171 54.2852H20.0003C23.1562 54.2852 25.7146 56.8435 25.7146 59.9994V71.428C25.7146 74.584 23.1562 77.1423 20.0003 77.1423Z" stroke="#01CA9A" stroke-width="2" stroke-linecap="round" stroke-linejoin="round"/>
</g>
<g id="Group 4587">
<path id="Vector_3" d="M65.6798 56.1931C65.8903 56.5806 66 57.0144 66 57.4549C66 57.8959 65.8903 58.3292 65.6798 58.7168C65.4827 59.1034 65.1818 59.4277 64.811 59.654C64.4407 59.8807 64.0142 60.0004 63.5796 60H38.4203C37.9857 60.0004 37.5596 59.8807 37.1889 59.654C36.8183 59.4277 36.5176 59.1034 36.3201 58.7168C36.11 58.3292 36 57.8959 36 57.4549C36 57.0144 36.11 56.5806 36.3201 56.1931L48.9641 33.4374C49.1379 33.0124 49.4345 32.6488 49.8162 32.3928C50.1979 32.1367 50.6473 32 51.107 32C51.5669 32 52.0165 32.1367 52.3984 32.3928C52.7799 32.6488 53.0765 33.0124 53.2501 33.4374L65.6798 56.1931Z" stroke="#01CA9A" stroke-width="2" stroke-linecap="round" stroke-linejoin="round"/>
<path id="Vector_4" d="M51.0215 47.168V42.8906" stroke="#01CA9A" stroke-width="2" stroke-linecap="round" stroke-linejoin="round"/>
<g id="Group 4488">
<path id="Ellipse 81" d="M51.001 54.119C50.7049 54.119 50.4648 53.8795 50.4648 53.5839C50.4648 53.2884 50.7049 53.0488 51.001 53.0488" stroke="#01CA9A" stroke-width="2" stroke-linecap="round" stroke-linejoin="round"/>
<path id="Ellipse 82" d="M51 54.119C51.2963 54.119 51.5363 53.8795 51.5363 53.5839C51.5363 53.2884 51.2963 53.0488 51 53.0488" stroke="#01CA9A" stroke-width="2" stroke-linecap="round" stroke-linejoin="round"/>
</g>
</g>
</g>
</svg>
