<svg width="80" height="80" viewBox="0 0 80 80" fill="none" xmlns="http://www.w3.org/2000/svg">
<g id="brain-cognitive--health-medical-brain-cognitive-specialities">
<g id="brain-cognitive--health-medical-brain-cognitive-specialities_2">
<path id="Vector" d="M25.7134 77.1434V62.8577H14.2849C12.7694 62.8577 11.3157 62.2554 10.2443 61.184C9.17288 60.112 8.57059 58.6588 8.57059 57.1432V34.286C8.57173 28.7004 10.0614 23.2161 12.886 18.3975C15.7106 13.5788 19.7689 9.6001 24.642 6.87079C29.5154 4.1415 35.028 2.76026 40.6125 2.86927C46.197 2.97828 51.6516 4.5736 56.4147 7.49102C61.1778 10.4084 65.0773 14.5425 67.712 19.4676C70.3465 24.3928 71.6209 29.9312 71.404 35.5125C71.187 41.0939 69.4866 46.5166 66.4777 51.2224C63.4688 55.9282 59.2601 59.7468 54.2849 62.2863V77.1434" stroke="#01CA9A" stroke-width="2" stroke-linecap="round" stroke-linejoin="round"/>
<path id="Ellipse 53" d="M48.5697 18.9244C56.4526 23.4756 59.7322 32.9378 56.7753 41.2151C56.0926 43.1262 54.0297 44.0872 52.068 43.5676C42.1421 40.9381 32.036 33.8251 25.8962 28.2794C24.2695 26.8101 23.9328 24.3547 25.3818 22.71C31.1024 16.2169 40.7871 14.4311 48.5697 18.9244Z" stroke="#01CA9A" stroke-width="2" stroke-linecap="round" stroke-linejoin="round"/>
</g>
</g>
</svg>
