<svg width="80" height="80" viewBox="0 0 80 80" fill="none" xmlns="http://www.w3.org/2000/svg">
<g id="chess-knight">
<g id="chess-knight_2">
<path id="Rectangle 56" d="M66.1715 64.3217C65.418 62.0617 63.3027 60.5371 60.92 60.5371H19.0797C16.6974 60.5371 14.582 62.0617 13.8283 64.3217L9.55457 77.1434H70.4453L66.1715 64.3217Z" stroke="#01CA9A" stroke-width="2" stroke-linecap="round" stroke-linejoin="round"/>
<path id="Vector 1178" d="M59.5906 60.5363C58.6829 55.7964 52.1279 50.3507 47.4888 46.7202C36.3749 38.0227 37.4047 30.5846 39.22 28.5677L50.3274 34.9147C52.9672 36.4231 56.2768 36.0682 58.5366 34.0342C61.0274 31.7924 61.5946 28.1063 59.8929 25.2194L51.5232 11.0205L54.7503 3.75953C49.4391 1.87707 34.7419 2.87249 28.9332 7.3904C21.6721 13.0378 12.3944 21.61 20.059 60.5363" stroke="#01CA9A" stroke-width="2" stroke-linecap="round" stroke-linejoin="round"/>
<path id="Vector 1179" d="M35.5829 22.6934C36.2264 25.4814 37.7963 27.4143 39.1914 28.5749" stroke="#01CA9A" stroke-width="2" stroke-linecap="round" stroke-linejoin="round"/>
</g>
</g>
</svg>
