<svg width="80" height="80" viewBox="0 0 80 80" fill="none" xmlns="http://www.w3.org/2000/svg">
<g id="justice-scale-2--office-work-scale-justice-unequal-company-arbitration-unbalance-court">
<g id="justice-scale-2--office-work-scale-justice-unequal-company-arbitration-unbalance-court_2">
<path id="Vector" d="M31.4289 62.8574L17.1431 27.543L2.85742 62.8574M31.4289 62.8574C31.4289 66.646 29.9238 70.2797 27.2447 72.9586C24.5656 75.638 20.9319 77.1431 17.1431 77.1431C13.3543 77.1431 9.72068 75.638 7.04159 72.9586C4.36252 70.2797 2.85742 66.646 2.85742 62.8574M31.4289 62.8574H2.85742" stroke="#01CA9A" stroke-width="2" stroke-linecap="round" stroke-linejoin="round"/>
<path id="Vector_2" d="M77.1417 39.9993L62.856 6.74219L48.5703 39.9993M77.1417 39.9993C77.1417 43.7881 75.6366 47.4218 72.9577 50.1009C70.2783 52.78 66.6446 54.285 62.856 54.285C59.0675 54.285 55.4336 52.78 52.7545 50.1009C50.0754 47.4218 48.5703 43.7881 48.5703 39.9993M77.1417 39.9993H48.5703" stroke="#01CA9A" stroke-width="2" stroke-linecap="round" stroke-linejoin="round"/>
<path id="Vector_3" d="M8.57031 31.4289L71.4275 2.85742" stroke="#01CA9A" stroke-width="2" stroke-linecap="round" stroke-linejoin="round"/>
<path id="Vector_4" d="M40 17.1431V2.85742" stroke="#01CA9A" stroke-width="2" stroke-linecap="round" stroke-linejoin="round"/>
</g>
</g>
</svg>
