<svg width="97" height="60" viewBox="0 0 97 60" fill="none" xmlns="http://www.w3.org/2000/svg">
<g id="Logo">
<g id="Group 4579">
<path id="Vector" fill-rule="evenodd" clip-rule="evenodd" d="M51.136 37.4344V17.4742H46.1534V12.4916H54.776C55.5218 12.4916 56.1186 13.0883 56.1186 13.8342V37.4344H51.136ZM61.31 42.8347V12.4916C61.31 11.0296 60.7133 9.65715 59.7585 8.67256C58.8336 7.71782 57.5805 7.12109 56.1782 7.12109H17.9883V38.24C17.9883 39.4035 18.585 40.5373 19.5099 41.3727C20.4348 42.2081 21.6581 42.7452 22.9709 42.8347C29.2364 42.8347 35.5318 42.8347 41.7973 42.8347H61.31ZM28.5502 27.499V37.4344H24.8804C24.1345 37.4344 23.5378 36.8377 23.5378 36.0918V12.4916H44.6914V17.4742H28.5204V22.4866H43.4383V27.4692H28.5502V27.499Z" fill="#00FFC5"/>
<path id="Vector_2" fill-rule="evenodd" clip-rule="evenodd" d="M60.0584 46.4148H23.3304C23.1813 46.4148 23.0321 46.4148 22.8829 46.4148C21.8983 46.4148 20.9734 46.2358 20.1082 45.9076C19.959 45.848 19.78 45.9076 19.6904 46.0568L15.8416 52.3522C15.782 52.4715 15.782 52.5909 15.8416 52.7102C15.9013 52.8296 16.0206 52.8892 16.14 52.8892H53.3752C54.2404 52.8892 55.1952 52.6804 56.0604 52.203C56.7467 51.8151 57.3732 51.2781 57.7909 50.5024L60.0584 46.4148Z" fill="#00FFC5"/>
<path id="Vector_3" fill-rule="evenodd" clip-rule="evenodd" d="M12.2314 51.9337C14.678 49.1589 15.8416 47.9357 17.9599 45.5488C18.0793 45.4295 18.1091 45.2803 18.1091 45.1013C18.1091 44.9223 18.0196 44.8029 17.8704 44.7134C17.4527 44.4151 17.0648 44.057 16.7366 43.699C16.4084 43.341 16.0802 42.9531 15.8117 42.5354C15.4835 42.0878 15.215 41.5806 15.0062 41.0734C14.9763 41.0138 14.9465 40.9242 14.9166 40.8646C14.857 40.7452 14.7675 40.6856 14.6481 40.6557C14.5288 40.6259 14.4094 40.6557 14.3199 40.7452L7.87538 46.7423C7.51735 47.0704 7.39801 47.5478 7.54719 47.9954C7.87538 49.0396 8.50193 50.0242 9.27767 50.8596C9.75504 51.3668 10.2921 51.8143 10.8888 52.1425C11.3363 52.4409 11.8734 52.3216 12.2314 51.9337Z" fill="#00FFC5"/>
<path id="Vector_4" fill-rule="evenodd" clip-rule="evenodd" d="M13.7523 37.8816C14.0506 37.6429 14.2296 37.3445 14.2296 36.9567C14.17 27.5882 14.349 18.1302 14.4087 8.76172L9.7841 11.9243C8.94869 12.4912 8.32212 13.2073 7.90442 13.9532C7.45688 14.7587 7.24805 15.5941 7.24805 16.3997V42.1183C7.24805 42.2376 7.30772 42.3271 7.39723 42.3868C7.48673 42.4465 7.60608 42.4166 7.69559 42.357L13.7523 37.8816Z" fill="#00FFC5"/>
<path id="Vector_5" fill-rule="evenodd" clip-rule="evenodd" d="M3.66767 46.2657V16.4298C3.66767 15.0574 4.02569 13.5954 4.80143 12.2528C5.48765 11.0295 6.47224 9.89576 7.78502 9.00068L15.0948 3.95841C15.3932 3.71972 15.8109 3.57054 16.2286 3.57054H56.2087C58.6254 3.57054 60.7736 4.6148 62.3549 6.22594C63.9362 7.86691 64.9208 10.1046 64.9208 12.5213V44.6546C64.9208 45.0126 64.8014 45.3706 64.6224 45.669L60.9228 52.2926C60.147 53.6949 59.0133 54.7093 57.79 55.3955C56.3579 56.1712 54.8064 56.5293 53.3743 56.5293H13.424C10.7984 56.5293 8.44141 55.2762 6.68109 53.4263C4.83126 51.3975 3.66767 48.7421 3.66767 46.2657ZM53.3445 59.9902C55.4628 59.9902 57.611 59.4532 59.4608 58.4388C61.3703 57.3945 62.9218 55.8729 63.966 53.9634L67.606 47.4293C68.1431 46.5939 68.4116 45.6093 68.4116 44.5949V12.4915C68.4116 9.23936 67.1286 6.07676 64.8611 3.74956C62.5637 1.39252 59.4608 -0.00976562 56.1789 -0.00976562H16.1987C15.0351 -0.00976562 13.9014 0.378103 12.9765 1.06433L5.72633 6.04692C4.05552 7.21052 2.65324 8.70232 1.66866 10.4925C0.654237 12.2826 0.117188 14.3413 0.117188 16.4V46.2657C0.117188 49.7565 1.72833 53.2772 4.11521 55.7834C6.56175 58.3493 9.84369 59.9902 13.424 59.9902H49.8238H53.3445Z" fill="#00FFC5"/>
<g id="Group 4579_2">
<path id="Vector_6" d="M59.2922 58.4409C57.444 59.4544 55.2977 59.991 53.1812 59.991H49.6636H13.2953C9.71808 59.991 6.43898 58.3515 3.99456 55.7878C1.60975 53.2837 0 49.7662 0 46.2784V16.4385C0 14.3816 0.536585 12.3247 1.55013 10.5361C2.53386 8.74751 3.93493 7.257 5.60429 6.09441L12.8481 1.11613C13.7722 0.430502 14.905 0.0429688 16.0676 0.0429688H56.0131C59.2922 0.0429688 62.3925 1.44404 64.6879 3.79904C66.9534 6.12422 68.2353 9.28409 68.2353 12.5334V44.609C68.2353 45.6226 67.967 46.6063 67.4304 47.441L63.7935 53.9694C62.7502 55.8772 61.2001 57.3976 59.2922 58.4409Z" fill="#22282E"/>
<path id="Vector_7" fill-rule="evenodd" clip-rule="evenodd" d="M50.9744 37.4023V17.4593H45.9962V12.481H54.6113C55.3565 12.481 55.9527 13.0772 55.9527 13.8225V37.4023H50.9744ZM61.1397 42.7979V12.481C61.1397 11.0204 60.5435 9.64909 59.5896 8.66536C58.6655 7.71144 57.4134 7.11523 56.0124 7.11523H17.8555V38.2071C17.8555 39.3697 18.4517 40.5025 19.3758 41.3372C20.2999 42.1719 21.5221 42.7085 22.8337 42.7979C29.0939 42.7979 35.3838 42.7979 41.6439 42.7979H61.1397ZM28.4082 27.4755V37.4023H24.7416C23.9963 37.4023 23.4001 36.8061 23.4001 36.0608V12.481H44.5355V17.4593H28.3784V22.4674H43.2835V27.4457H28.4082V27.4755Z" fill="#00FFC5"/>
<path id="Vector_8" fill-rule="evenodd" clip-rule="evenodd" d="M59.8893 46.3734H23.1931C23.044 46.3734 22.8949 46.3734 22.7459 46.3734C21.7622 46.3734 20.8381 46.1945 19.9736 45.8666C19.8245 45.807 19.6456 45.8666 19.5562 46.0156L15.7107 52.3056C15.6511 52.4248 15.6511 52.544 15.7107 52.6633C15.7704 52.7825 15.8896 52.8421 16.0088 52.8421H53.2118C54.0763 52.8421 55.0302 52.6335 55.8947 52.1565C56.5803 51.769 57.2063 51.2324 57.6237 50.4573L59.8893 46.3734Z" fill="#00FFC5"/>
<path id="Vector_9" fill-rule="evenodd" clip-rule="evenodd" d="M12.1023 51.8888C14.5467 49.1164 15.7093 47.8942 17.8258 45.5094C17.9451 45.3902 17.9749 45.2411 17.9749 45.0623C17.9749 44.8834 17.8855 44.7642 17.7364 44.6747C17.3191 44.3766 16.9315 44.0189 16.6036 43.6612C16.2757 43.3035 15.9478 42.9159 15.6795 42.4986C15.3516 42.0514 15.0833 41.5447 14.8747 41.0379C14.8448 40.9783 14.815 40.8888 14.7852 40.8292C14.7256 40.71 14.6362 40.6504 14.5169 40.6206C14.3977 40.5907 14.2784 40.6206 14.189 40.71L7.75004 46.7018C7.39232 47.0297 7.27308 47.5067 7.42213 47.9538C7.75005 48.9972 8.37605 49.9809 9.15112 50.8156C9.62808 51.3224 10.1646 51.7695 10.7608 52.0974C11.208 52.3955 11.7446 52.2763 12.1023 51.8888Z" fill="#00FFC5"/>
<path id="Vector_10" fill-rule="evenodd" clip-rule="evenodd" d="M13.6236 37.8485C13.9217 37.6101 14.1005 37.312 14.1005 36.9244C14.0409 27.5641 14.2198 18.1143 14.2794 8.75391L9.65886 11.9138C8.82417 12.4802 8.19815 13.1956 7.78081 13.9409C7.33366 14.7457 7.125 15.5804 7.125 16.3853V42.0816C7.125 42.2008 7.18462 42.2902 7.27405 42.3498C7.36348 42.4095 7.48272 42.3797 7.57215 42.32L13.6236 37.8485Z" fill="#00FFC5"/>
<path id="Vector_11" fill-rule="evenodd" clip-rule="evenodd" d="M3.54741 46.2256V16.4156C3.54741 15.0443 3.90512 13.5836 4.68018 12.2422C5.36582 11.02 6.34955 9.88718 7.66119 8.99288L14.9647 3.95497C15.2628 3.71649 15.6801 3.56744 16.0974 3.56744H56.0429C58.4575 3.56744 60.6039 4.61079 62.1838 6.22054C63.7637 7.86009 64.7475 10.0958 64.7475 12.5105V44.6159C64.7475 44.9736 64.6282 45.3313 64.4494 45.6294L60.7529 52.2473C59.9779 53.6484 58.8451 54.6619 57.6229 55.3475C56.192 56.1226 54.6419 56.4803 53.211 56.4803H13.2953C10.672 56.4803 8.31701 55.2283 6.55822 53.3801C4.70999 51.353 3.54741 48.6999 3.54741 46.2256ZM53.1812 59.9383C55.2977 59.9383 57.444 59.4017 59.2922 58.3882C61.2001 57.3448 62.7502 55.8245 63.7935 53.9167L67.4304 47.3882C67.967 46.5536 68.2353 45.5698 68.2353 44.5563V12.4807C68.2353 9.23135 66.9534 6.07149 64.6879 3.7463C62.3925 1.39131 59.2922 -0.00976562 56.0131 -0.00976562H16.0676C14.905 -0.00976562 13.7722 0.377767 12.8481 1.0634L5.60429 6.04168C3.93493 7.20427 2.53386 8.69478 1.55013 10.4834C0.536585 12.272 0 14.3289 0 16.3858V46.2256C0 49.7134 1.60975 53.231 3.99456 55.7351C6.43898 58.2987 9.71808 59.9383 13.2953 59.9383H49.6636H53.1812Z" fill="#00FFC5"/>
</g>
</g>
<g id="Group 4578">
<path id="Vector_12" d="M78.6211 7.26367V20.5275H95.6107V17.8747H81.3037V7.26367H78.6211Z" fill="#22282E"/>
<path id="Vector_13" d="M81.0947 30.0062V28.6649L83.7176 25.9823H93.4047V29.9763H81.0947V30.0062ZM81.0947 36.6232V32.6589H93.4047V36.6232H96.0276V23.3594H82.3764L78.4121 27.3534V36.6232H81.0947Z" fill="#22282E"/>
<path id="Vector_14" d="M81.3037 50.0652V47.4422H93.6137V50.0652H81.3037ZM81.3037 44.7597V42.0771H93.6137V44.7597H81.3037ZM94.9251 52.7179L96.2366 51.4064V47.4124L94.9251 46.0711L96.2366 44.7298V40.7358L94.9251 39.3945H78.6211V52.6583H94.9251V52.7179Z" fill="#22282E"/>
</g>
</g>
</svg>
