<svg width="36" height="36" viewBox="0 0 36 36" fill="none" xmlns="http://www.w3.org/2000/svg">
<g id="shopping-cart-1--shopping-cart-checkout">
<path id="Vector" d="M1.58984 1.27539H7.86971L10.1069 23.5182C10.1998 24.1314 10.5113 24.6903 10.9838 25.092C11.4564 25.4936 12.0582 25.7109 12.6783 25.704H28.8783C29.4391 25.7333 29.994 25.5781 30.4582 25.2624C30.9226 24.9467 31.2707 24.4876 31.4497 23.9554L34.8697 13.6697C34.9973 13.283 35.0312 12.8715 34.9685 12.4692C34.906 12.0668 34.7486 11.6851 34.5097 11.3554C34.2608 11.0049 33.9278 10.7223 33.5416 10.5336C33.1553 10.345 32.7277 10.2562 32.2983 10.2754H8.76971" stroke="#22282E" stroke-width="2" stroke-linecap="round" stroke-linejoin="round"/>
<path id="Vector_2" d="M28.442 34.7042C27.732 34.7042 27.1562 34.1285 27.1562 33.4185C27.1562 32.7086 27.732 32.1328 28.442 32.1328C29.1519 32.1328 29.7277 32.7086 29.7277 33.4185C29.7277 34.1285 29.1519 34.7042 28.442 34.7042Z" stroke="#22282E" stroke-width="2" stroke-linecap="round" stroke-linejoin="round"/>
<path id="Vector_3" d="M11.7271 34.7042C11.017 34.7042 10.4414 34.1285 10.4414 33.4185C10.4414 32.7086 11.017 32.1328 11.7271 32.1328C12.4372 32.1328 13.0128 32.7086 13.0128 33.4185C13.0128 34.1285 12.4372 34.7042 11.7271 34.7042Z" stroke="#22282E" stroke-width="2" stroke-linecap="round" stroke-linejoin="round"/>
</g>
</svg>
