<svg width="41" height="41" viewBox="0 0 41 41" fill="none" xmlns="http://www.w3.org/2000/svg">
<path d="M0.568359 5.5C0.568359 2.73858 2.80694 0.5 5.56836 0.5H35.5684C38.3298 0.5 40.5684 2.73858 40.5684 5.5V35.5C40.5684 38.2614 38.3298 40.5 35.5684 40.5H5.56836C2.80694 40.5 0.568359 38.2614 0.568359 35.5V5.5Z" fill="#00FFC5"/>
<path d="M12.5636 20.5625L11.0718 26.2691" stroke="#22282E" stroke-width="2" stroke-linecap="round" stroke-linejoin="round"/>
<path d="M30.0504 14.7305L28.6455 22.5186" stroke="#22282E" stroke-width="2" stroke-linecap="round" stroke-linejoin="round"/>
<path d="M18.8379 18.7852L21.7799 21.7102" stroke="#22282E" stroke-width="2" stroke-linecap="round" stroke-linejoin="round"/>
<path d="M33.2604 14.7306H28.6451C27.3706 14.7306 26.3374 13.6974 26.3374 12.423V7.80766C26.3374 6.53317 27.3706 5.5 28.6451 5.5H33.2604C34.5349 5.5 35.568 6.53317 35.568 7.80766V12.423C35.568 13.6974 34.5349 14.7306 33.2604 14.7306Z" stroke="#22282E" stroke-width="2" stroke-linecap="round" stroke-linejoin="round"/>
<path d="M16.5304 20.5627H11.9151C10.6406 20.5627 9.60742 19.5295 9.60742 18.255V13.6397C9.60742 12.3652 10.6406 11.332 11.9151 11.332H16.5304C17.8049 11.332 18.8381 12.3652 18.8381 13.6397V18.255C18.8381 19.5295 17.8049 20.5627 16.5304 20.5627Z" stroke="#22282E" stroke-width="2" stroke-linecap="round" stroke-linejoin="round"/>
<path d="M12.4918 35.5002H7.87651C6.60202 35.5002 5.56885 34.467 5.56885 33.1925V28.5772C5.56885 27.3027 6.60202 26.2695 7.87651 26.2695H12.4918C13.7663 26.2695 14.7995 27.3027 14.7995 28.5772V33.1925C14.7995 34.467 13.7663 35.5002 12.4918 35.5002Z" stroke="#22282E" stroke-width="2" stroke-linecap="round" stroke-linejoin="round"/>
<path d="M30.939 27.0397C31.024 27.1962 31.0683 27.3713 31.0683 27.5493C31.0683 27.7273 31.024 27.9023 30.939 28.0588C30.8594 28.215 30.7379 28.3459 30.5882 28.4373C30.4386 28.5289 30.2664 28.5772 30.0909 28.5771H19.9305C19.755 28.5772 19.5829 28.5289 19.4333 28.4373C19.2836 28.3459 19.1622 28.215 19.0824 28.0588C18.9976 27.9023 18.9531 27.7273 18.9531 27.5493C18.9531 27.3713 18.9976 27.1962 19.0824 27.0397L24.1886 17.85C24.2587 17.6784 24.3785 17.5315 24.5326 17.4281C24.6868 17.3248 24.8683 17.2695 25.0539 17.2695C25.2397 17.2695 25.4212 17.3248 25.5755 17.4281C25.7295 17.5315 25.8493 17.6784 25.9194 17.85L30.939 27.0397Z" stroke="#22282E" stroke-width="2" stroke-linecap="round" stroke-linejoin="round"/>
<path d="M25.0195 23.3954V21.668" stroke="#22282E" stroke-width="2" stroke-linecap="round" stroke-linejoin="round"/>
<path d="M25.0109 26.2037C24.8914 26.2037 24.7944 26.1069 24.7944 25.9876C24.7944 25.8682 24.8914 25.7715 25.0109 25.7715" stroke="#22282E" stroke-width="2" stroke-linecap="round" stroke-linejoin="round"/>
<path d="M25.0107 26.2037C25.1304 26.2037 25.2273 26.1069 25.2273 25.9876C25.2273 25.8682 25.1304 25.7715 25.0107 25.7715" stroke="#22282E" stroke-width="2" stroke-linecap="round" stroke-linejoin="round"/>
</svg>
