<svg width="41" height="41" viewBox="0 0 41 41" fill="none" xmlns="http://www.w3.org/2000/svg">
<path d="M0.568359 5.5C0.568359 2.73858 2.80694 0.5 5.56836 0.5H35.5684C38.3298 0.5 40.5684 2.73858 40.5684 5.5V35.5C40.5684 38.2614 38.3298 40.5 35.5684 40.5H5.56836C2.80694 40.5 0.568359 38.2614 0.568359 35.5V5.5Z" fill="#00FFC5"/>
<path d="M17.7203 9.89453H7.38979C6.79806 9.89453 6.31836 10.3742 6.31836 10.966V28.1088C6.31836 28.7005 6.79806 29.1802 7.38979 29.1802H33.1041C33.6957 29.1802 34.1755 28.7005 34.1755 28.1088V17.5803" stroke="#22282E" stroke-width="2" stroke-linecap="round" stroke-linejoin="round"/>
<path d="M18.1043 29.1797L15.9614 34.5368" stroke="#22282E" stroke-width="2" stroke-linecap="round" stroke-linejoin="round"/>
<path d="M22.3892 29.1797L24.532 34.5368" stroke="#22282E" stroke-width="2" stroke-linecap="round" stroke-linejoin="round"/>
<path d="M13.8184 34.5352H26.6755" stroke="#22282E" stroke-width="2" stroke-linecap="round" stroke-linejoin="round"/>
<path d="M22.3892 12.3571L26.6749 15.5714L34.1749 7" stroke="#22282E" stroke-width="2" stroke-linecap="round" stroke-linejoin="round"/>
</svg>
