<svg width="41" height="41" viewBox="0 0 41 41" fill="none" xmlns="http://www.w3.org/2000/svg">
<path d="M0.568359 5.5C0.568359 2.73858 2.80694 0.5 5.56836 0.5H35.5684C38.3298 0.5 40.5684 2.73858 40.5684 5.5V35.5C40.5684 38.2614 38.3298 40.5 35.5684 40.5H5.56836C2.80694 40.5 0.568359 38.2614 0.568359 35.5V5.5Z" fill="#00FFC5"/>
<path d="M11.9961 20.5002V14.8645C12.0128 13.7567 12.248 12.6631 12.6881 11.6464C13.1282 10.6296 13.7646 9.70973 14.5609 8.93935C15.3571 8.16899 16.2976 7.5633 17.3283 7.15701C18.359 6.75072 19.4598 6.55181 20.5675 6.57167C21.6753 6.55181 22.776 6.75072 23.8067 7.15701C24.8375 7.5633 25.7779 8.16899 26.5742 8.93935C27.3704 9.70973 28.0069 10.6296 28.447 11.6464C28.887 12.6631 29.1222 13.7567 29.139 14.8645V20.5002" stroke="#22282E" stroke-width="2" stroke-linecap="round" stroke-linejoin="round"/>
<path d="M8.78202 17.2871H10.9249C11.209 17.2871 11.4816 17.4 11.6825 17.6009C11.8834 17.8018 11.9963 18.0744 11.9963 18.3585V24.7871C11.9963 25.0713 11.8834 25.3438 11.6825 25.5447C11.4816 25.7457 11.209 25.8585 10.9249 25.8585H8.78202C8.21369 25.8585 7.66865 25.6328 7.26679 25.2309C6.86493 24.829 6.63916 24.284 6.63916 23.7157V19.43C6.63916 18.8616 6.86493 18.3166 7.26679 17.9147C7.66865 17.5129 8.21369 17.2871 8.78202 17.2871Z" stroke="#22282E" stroke-width="2" stroke-linecap="round" stroke-linejoin="round"/>
<path d="M32.3534 25.8585H30.2106C29.9264 25.8585 29.6539 25.7457 29.4529 25.5447C29.2521 25.3438 29.1392 25.0713 29.1392 24.7871V18.3585C29.1392 18.0744 29.2521 17.8018 29.4529 17.6009C29.6539 17.4 29.9264 17.2871 30.2106 17.2871H32.3534C32.9217 17.2871 33.4669 17.5129 33.8687 17.9147C34.2704 18.3166 34.4963 18.8616 34.4963 19.43V23.7157C34.4963 24.284 34.2704 24.829 33.8687 25.2309C33.4669 25.6328 32.9217 25.8585 32.3534 25.8585Z" stroke="#22282E" stroke-width="2" stroke-linecap="round" stroke-linejoin="round"/>
<path d="M24.853 31.7497C25.9897 31.7497 27.0797 31.2982 27.8835 30.4944C28.6872 29.6906 29.1387 28.6006 29.1387 27.464V22.6426" stroke="#22282E" stroke-width="2" stroke-linecap="round" stroke-linejoin="round"/>
<path d="M24.8537 31.7489C24.8537 32.4592 24.5714 33.1407 24.0691 33.643C23.5668 34.1452 22.8855 34.4275 22.1751 34.4275H18.9608C18.2504 34.4275 17.5691 34.1452 17.0668 33.643C16.5644 33.1407 16.2822 32.4592 16.2822 31.7489C16.2822 31.0385 16.5644 30.3571 17.0668 29.8548C17.5691 29.3525 18.2504 29.0703 18.9608 29.0703H22.1751C22.8855 29.0703 23.5668 29.3525 24.0691 29.8548C24.5714 30.3571 24.8537 31.0385 24.8537 31.7489Z" stroke="#22282E" stroke-width="2" stroke-linecap="round" stroke-linejoin="round"/>
</svg>
