<svg width="80" height="80" viewBox="0 0 80 80" fill="none" xmlns="http://www.w3.org/2000/svg">
<g id="star-1--reward-rating-rate-social-star-media-favorite-like-stars">
<g id="star-1--reward-rating-rate-social-star-media-favorite-like-stars_2">
<path id="Vector" d="M42.3706 6.70116L51.4563 25.044C51.663 25.5096 51.988 25.9129 52.3991 26.2137C52.8102 26.5144 53.2929 26.7022 53.7991 26.7583L73.8561 29.7297C74.4372 29.8044 74.9847 30.0427 75.435 30.4169C75.8852 30.7911 76.2201 31.2857 76.3995 31.8429C76.5795 32.4002 76.5967 32.9971 76.4498 33.5639C76.3035 34.1308 75.9984 34.6441 75.5704 35.044L61.1132 49.3869C60.7447 49.7316 60.4675 50.1631 60.3081 50.6422C60.1481 51.1212 60.111 51.6326 60.199 52.1297L63.6847 72.3009C63.7858 72.8809 63.7218 73.4769 63.5007 74.0221C63.2795 74.5672 62.9098 75.0392 62.4332 75.3849C61.9572 75.7301 61.3932 75.9346 60.8064 75.9758C60.2195 76.0164 59.6327 75.8918 59.1132 75.6152L41.0563 66.0724C40.5939 65.8455 40.0856 65.7278 39.5706 65.7278C39.0555 65.7278 38.5472 65.8455 38.0848 66.0724L20.0277 75.6152C19.5082 75.8918 18.9216 76.0164 18.3347 75.9758C17.7478 75.9346 17.1841 75.7301 16.7078 75.3849C16.2315 75.0392 15.8616 74.5672 15.6404 74.0221C15.4192 73.4769 15.3554 72.8809 15.4563 72.3009L18.942 51.9012C19.0303 51.404 18.993 50.8926 18.8333 50.4136C18.6736 49.9345 18.3967 49.503 18.0277 49.1583L3.39914 35.044C2.96636 34.6332 2.662 34.1056 2.52294 33.5253C2.38387 32.9449 2.41608 32.3367 2.61564 31.7743C2.81521 31.2119 3.17357 30.7194 3.64732 30.3565C4.12107 29.9937 4.68989 29.7759 5.28484 29.7297L25.342 26.7583C25.8483 26.7022 26.331 26.5144 26.7421 26.2137C27.1532 25.9129 27.4782 25.5096 27.6848 25.044L36.7706 6.70116C37.018 6.16693 37.4131 5.71463 37.9092 5.39764C38.4054 5.08066 38.9818 4.91223 39.5706 4.91223C40.1593 4.91223 40.7358 5.08066 41.2319 5.39764C41.728 5.71463 42.1231 6.16693 42.3706 6.70116Z" stroke="#01CA9A" stroke-width="2" stroke-linecap="round" stroke-linejoin="round"/>
</g>
</g>
</svg>
