<svg width="80" height="80" viewBox="0 0 80 80" fill="none" xmlns="http://www.w3.org/2000/svg">
<g id="Backup Storage">
<g id="Backup Storage_2">
<path id="Ellipse 972" d="M28.5425 51.819C29.8661 45.2983 35.6311 40.3904 42.5424 40.3904C50.4322 40.3904 56.8281 46.7863 56.8281 54.6761C56.8281 62.5658 50.4322 68.9618 42.5424 68.9618C39.0174 68.9618 35.7906 67.6852 33.2992 65.5687" stroke="#01CA9A" stroke-width="2" stroke-linecap="round" stroke-linejoin="round"/>
<path id="Vector" d="M13.9704 61.7711C12.1192 61.0156 10.3876 59.9545 8.85374 58.6139C5.21095 55.4294 2.98234 50.9285 2.65821 46.1009C2.33407 41.2734 3.94095 36.5147 7.12539 32.8719C8.70214 31.0682 10.6187 29.5927 12.7657 28.5297C14.9127 27.4666 17.2481 26.8368 19.6384 26.6763C19.8865 26.6818 20.1309 26.6161 20.3429 26.4871C20.5549 26.3581 20.7255 26.1711 20.8346 25.9483C22.4836 21.169 25.7212 17.0995 30.0074 14.4185C34.2937 11.7374 39.3695 10.6067 44.3885 11.2151C49.4074 11.8235 54.0661 14.1341 57.5876 17.7615C61.1093 21.389 63.2807 26.1142 63.7401 31.149C63.7784 31.414 63.8921 31.6626 64.067 31.8654C64.2424 32.0681 64.4716 32.2165 64.7281 32.2931C68.4447 33.1686 71.711 35.3765 73.9087 38.4986C76.1064 41.6206 77.083 45.4402 76.6538 49.2339C76.2241 53.0278 74.4184 56.5322 71.579 59.0842C70.567 59.9934 69.4487 60.7591 68.2561 61.3694" stroke="#01CA9A" stroke-width="2" stroke-linecap="round" stroke-linejoin="round"/>
<path id="Ellipse 973" d="M25.3996 43.2419L28.5425 51.8134L36.8281 50.3848" stroke="#01CA9A" stroke-width="2" stroke-linecap="round" stroke-linejoin="round"/>
</g>
</g>
</svg>
