<svg width="77" height="77" viewBox="0 0 77 77" fill="none" xmlns="http://www.w3.org/2000/svg">
<g id="chat-bubble-oval-smiley-2--messages-message-bubble-chat-oval-smiley-smile">
<path id="Vector" d="M38.5597 1.5586C31.9036 1.56067 25.3726 3.36813 19.6624 6.78844C13.9523 10.2088 9.27681 15.1139 6.13396 20.9813C2.99109 26.8487 1.49857 33.4588 1.81536 40.1074C2.13214 46.756 4.24637 53.1942 7.93287 58.736L1.76221 75.1538L22.4254 71.4172C27.401 73.8486 32.8613 75.1258 38.3992 75.1532C43.937 75.1806 49.4097 73.9578 54.4092 71.5755C59.4085 69.1938 63.8062 65.7138 67.2731 61.3955C70.7405 57.0778 73.1891 52.0326 74.4348 46.6367C75.6811 41.2408 75.6937 35.6332 74.4708 30.2319C73.248 24.8306 70.8222 19.775 67.3737 15.4418C63.9251 11.1086 59.5428 7.60975 54.5539 5.20593C49.5649 2.80208 44.0976 1.55533 38.5597 1.5586Z" stroke="#01CA9A" stroke-width="2" stroke-linecap="round" stroke-linejoin="round"/>
<g id="Group 625">
<path id="Vector_4" d="M25.4274 28.562C23.7354 28.562 22.3638 27.1904 22.3638 25.4984C22.3638 23.8065 23.7354 22.4348 25.4274 22.4348" stroke="#01CA9A" stroke-width="2" stroke-linecap="round" stroke-linejoin="round"/>
<path id="Vector_5" d="M25.428 28.562C27.12 28.562 28.4916 27.1904 28.4916 25.4984C28.4916 23.8065 27.12 22.4348 25.428 22.4348" stroke="#01CA9A" stroke-width="2" stroke-linecap="round" stroke-linejoin="round"/>
</g>
<g id="Group 624">
<path id="Vector_4_2" d="M51.4276 28.562C49.7357 28.562 48.364 27.1904 48.364 25.4984C48.364 23.8065 49.7357 22.4348 51.4276 22.4348" stroke="#01CA9A" stroke-width="2" stroke-linecap="round" stroke-linejoin="round"/>
<path id="Vector_5_2" d="M51.4282 28.562C53.1202 28.562 54.4918 27.1904 54.4918 25.4984C54.4918 23.8065 53.1202 22.4348 51.4282 22.4348" stroke="#01CA9A" stroke-width="2" stroke-linecap="round" stroke-linejoin="round"/>
</g>
<path id="Ellipse 650" d="M38.5703 61.2126C49.616 61.2126 58.5703 52.2584 58.5703 41.2126H18.5703C18.5703 52.2584 27.5246 61.2126 38.5703 61.2126Z" stroke="#01CA9A" stroke-width="2" stroke-linecap="round" stroke-linejoin="round"/>
</g>
</svg>
