<svg width="77" height="65" viewBox="0 0 77 65" fill="none" xmlns="http://www.w3.org/2000/svg">
<g id="diamond-2--diamond-money-payment-finance-wealth-jewelry">
<path id="Vector" d="M59.361 1.27258H17.7794C16.8207 1.29893 15.8818 1.55058 15.0383 2.00721C14.1949 2.46384 13.4708 3.11264 12.9244 3.90115L2.52904 18.3012C1.75714 19.3924 1.37164 20.7104 1.43373 22.0458C1.49581 23.3813 2.00193 24.6577 2.87174 25.6726L34.0578 61.6152C34.5918 62.3038 35.2759 62.8609 36.0579 63.2438C36.84 63.6272 37.6993 63.8261 38.5701 63.8261C39.4409 63.8261 40.3002 63.6272 41.0823 63.2438C41.8643 62.8609 42.5484 62.3038 43.0824 61.6152L74.2684 25.6726C75.1381 24.6577 75.6444 23.3813 75.7067 22.0458C75.7684 20.7104 75.3832 19.3924 74.6112 18.3012L64.2158 3.90115C63.6695 3.11264 62.9455 2.46384 62.1021 2.00721C61.2587 1.55058 60.3192 1.29893 59.361 1.27258Z" stroke="#01CA9A" stroke-width="2" stroke-linecap="round" stroke-linejoin="round"/>
<path id="Vector_2" d="M35.5989 1.21533L21.656 22.8153L38.5703 63.6723" stroke="#01CA9A" stroke-width="2" stroke-linecap="round" stroke-linejoin="round"/>
<path id="Vector_3" d="M41.7129 1.21533L55.5986 22.8153L38.5701 63.6723" stroke="#01CA9A" stroke-width="2" stroke-linecap="round" stroke-linejoin="round"/>
<path id="Vector_4" d="M1.54175 22.8156H75.5988" stroke="#01CA9A" stroke-width="2" stroke-linecap="round" stroke-linejoin="round"/>
</g>
</svg>
