<svg width="80" height="80" viewBox="0 0 80 80" fill="none" xmlns="http://www.w3.org/2000/svg">
<g id="lack-of-knowledge">
<g id="lack-of-knowledge_2">
<path id="Vector 835" d="M4.28418 64.2937V43.6125L22.3803 35.8571L40.4766 43.6125V64.2937L22.3803 72.0491L4.28418 64.2937Z" stroke="#01CA9A" stroke-width="2" stroke-linecap="round" stroke-linejoin="round"/>
<path id="Vector 840" d="M4.28418 43.5704L22.3803 51.3259L40.4766 43.5704" stroke="#01CA9A" stroke-width="2" stroke-linecap="round" stroke-linejoin="round"/>
<path id="Vector 841" d="M22.3792 15.3129L40.4753 23.0684L58.5715 15.3129" stroke="#01CA9A" stroke-width="2" stroke-linecap="round" stroke-linejoin="round" stroke-dasharray="4 4"/>
<path id="Vector 842" d="M40.4756 43.5704L58.5716 51.3259L76.6682 43.5704" stroke="#01CA9A" stroke-width="2" stroke-linecap="round" stroke-linejoin="round"/>
<path id="Vector 839" d="M22.3911 35.8424V15.161L40.4873 7.40552L58.5837 15.161V35.8424L40.4873 43.5979L22.3911 35.8424Z" stroke="#01CA9A" stroke-width="2" stroke-linecap="round" stroke-linejoin="round" stroke-dasharray="4 4"/>
<path id="Vector 837" d="M40.4756 64.2937V43.6125L58.5716 35.8571L76.6682 43.6125V64.2937L58.5716 72.0491L40.4756 64.2937Z" stroke="#01CA9A" stroke-width="2" stroke-linecap="round" stroke-linejoin="round"/>
<path id="Vector 1218" d="M22.3792 51.3341V72.0485" stroke="#01CA9A" stroke-width="2" stroke-linecap="round" stroke-linejoin="round"/>
<path id="Vector 1219" d="M58.583 51.3341V72.0485" stroke="#01CA9A" stroke-width="2" stroke-linecap="round" stroke-linejoin="round"/>
<path id="Vector 1220" d="M40.4756 23.0682V43.7825" stroke="#01CA9A" stroke-width="2" stroke-linecap="round" stroke-linejoin="round" stroke-dasharray="4 4"/>
</g>
</g>
</svg>
