<svg width="80" height="78" viewBox="0 0 80 78" fill="none" xmlns="http://www.w3.org/2000/svg">
<g id="process update">
<path id="Vector" d="M11.4285 53.0199V44.8313C11.4285 43.3157 12.0305 41.8623 13.1021 40.7907C14.1738 39.7191 15.6272 39.117 17.1428 39.117H62.857C64.3725 39.117 65.8262 39.7191 66.8976 40.7907C67.969 41.8623 68.5713 43.3157 68.5713 44.8313L68.5713 53.0199" stroke="#01CA9A" stroke-width="2" stroke-linecap="round" stroke-linejoin="round"/>
<path id="Vector_2" d="M39.9998 22.9794L39.9998 53.3971" stroke="#01CA9A" stroke-width="2" stroke-linecap="round" stroke-linejoin="round"/>
<path id="Vector_5" d="M40.9469 2.13803L44.0525 8.3853C44.1219 8.54328 44.2321 8.68003 44.3716 8.78152C44.5112 8.88305 44.6752 8.94571 44.8469 8.96308L51.7441 10.0103C51.9413 10.0359 52.1272 10.1172 52.2798 10.2446C52.4327 10.372 52.5459 10.5402 52.6065 10.7296C52.667 10.919 52.6725 11.1217 52.622 11.3141C52.5719 11.5064 52.4676 11.6805 52.3221 11.8158L47.2303 16.6548C47.1544 16.7996 47.1147 16.9607 47.1147 17.1242C47.1147 17.2878 47.1544 17.4488 47.2303 17.5937L48.2053 24.455C48.2469 24.6532 48.2301 24.8592 48.1568 25.0481C48.0836 25.2371 47.9572 25.4008 47.7928 25.5192C47.6284 25.6376 47.4332 25.7059 47.2308 25.716C47.0284 25.7256 46.8275 25.6762 46.6525 25.5742L40.5136 22.3242C40.3547 22.2526 40.1824 22.2155 40.008 22.2155C39.8337 22.2155 39.6614 22.2526 39.5025 22.3242L33.3635 25.5742C33.1885 25.6762 32.9876 25.7256 32.7853 25.716C32.5828 25.7059 32.3876 25.6376 32.2233 25.5192C32.0589 25.4008 31.9324 25.2371 31.8592 25.0481C31.786 24.8592 31.7692 24.6532 31.8108 24.455L32.9663 17.5937C33.016 17.4344 33.0255 17.2653 32.994 17.1015C32.9625 16.9377 32.891 16.7842 32.7857 16.6548L27.694 11.7798C27.559 11.6429 27.4642 11.4716 27.4201 11.2845C27.3759 11.0974 27.3842 10.9017 27.4438 10.719C27.5035 10.5362 27.6123 10.3734 27.7584 10.2484C27.9044 10.1234 28.0821 10.041 28.2718 10.0103L35.1691 8.99916C35.3408 8.98179 35.5048 8.91917 35.6444 8.81764C35.784 8.71615 35.8941 8.5794 35.9635 8.42138L39.0691 2.17415C39.1522 1.9973 39.2831 1.84723 39.4471 1.74088C39.611 1.63456 39.8014 1.57621 39.9968 1.57246C40.1922 1.56871 40.3847 1.61968 40.5526 1.71964C40.7205 1.81957 40.8571 1.96449 40.9469 2.13803Z" stroke="#01CA9A" stroke-width="2" stroke-linecap="round" stroke-linejoin="round"/>
<g id="Group 4636">
<path id="Vector_3" d="M36.6782 56.5906L37.4371 54.6315C37.5651 54.2998 37.7903 54.0145 38.0832 53.8129C38.3761 53.6113 38.723 53.5029 39.0786 53.5019H40.5258C40.8814 53.5029 41.2283 53.6113 41.5212 53.8129C41.8141 54.0145 42.0392 54.2998 42.1672 54.6315L42.9262 56.5906L45.5029 58.0731L47.5856 57.7554C47.9324 57.7084 48.2854 57.7654 48.5997 57.9194C48.9139 58.0734 49.1753 58.3174 49.3505 58.6203L50.0565 59.8557C50.2374 60.1635 50.3209 60.5188 50.2957 60.8749C50.2704 61.2309 50.1379 61.571 49.9153 61.8501L48.6269 63.4915V66.4567L49.9506 68.0981C50.1732 68.3772 50.3057 68.7173 50.331 69.0734C50.3562 69.4294 50.2727 69.7848 50.0918 70.0925L49.3858 71.328C49.2106 71.6308 48.9492 71.8747 48.635 72.0288C48.3207 72.1827 47.9677 72.2399 47.6209 72.1928L45.5382 71.8751L42.9615 73.3577L42.2025 75.3168C42.0745 75.6484 41.8494 75.9338 41.5565 76.1353C41.2636 76.3369 40.9167 76.4453 40.5611 76.4463H39.0786C38.723 76.4453 38.3761 76.3369 38.0832 76.1353C37.7903 75.9338 37.5651 75.6484 37.4371 75.3168L36.6782 73.3577L34.1014 71.8751L32.0187 72.1928C31.672 72.2399 31.319 72.1827 31.0047 72.0288C30.6905 71.8747 30.4291 71.6308 30.2538 71.328L29.5478 70.0925C29.3669 69.7848 29.2835 69.4294 29.3087 69.0734C29.334 68.7173 29.4665 68.3772 29.689 68.0981L30.9774 66.4567V63.4915L29.6537 61.8501C29.4312 61.571 29.2987 61.2309 29.2734 60.8749C29.2482 60.5188 29.3316 60.1635 29.5125 59.8557L30.2185 58.6203C30.3938 58.3174 30.6552 58.0734 30.9694 57.9194C31.2837 57.7654 31.6367 57.7084 31.9834 57.7554L34.0661 58.0731L36.6782 56.5906Z" stroke="#01CA9A" stroke-width="2" stroke-linecap="round" stroke-linejoin="round"/>
<g id="Group 4587">
<path id="Vector_4" d="M39.8193 63.8777V60.3726" stroke="#01CA9A" stroke-width="2" stroke-linecap="round" stroke-linejoin="round"/>
<g id="Group 4488">
<path id="Ellipse 81" d="M39.8026 69.5753C39.56 69.5753 39.3633 69.379 39.3633 69.1368C39.3633 68.8946 39.56 68.6983 39.8026 68.6983" stroke="#01CA9A" stroke-width="2" stroke-linecap="round" stroke-linejoin="round"/>
<path id="Ellipse 82" d="M39.802 69.5752C40.0448 69.5752 40.2415 69.3789 40.2415 69.1367C40.2415 68.8945 40.0448 68.6982 39.802 68.6982" stroke="#01CA9A" stroke-width="2" stroke-linecap="round" stroke-linejoin="round"/>
</g>
</g>
</g>
<g id="cog--work-loading-cog-gear-settings-machine">
<path id="Vector_6" d="M8.60794 56.34L9.36672 54.3813C9.49469 54.0497 9.71984 53.7644 10.0127 53.5629C10.3055 53.3614 10.6524 53.253 11.0078 53.252H12.4548C12.8103 53.253 13.1571 53.3614 13.45 53.5629C13.7428 53.7644 13.9679 54.0497 14.0959 54.3813L14.8547 56.34L17.4309 57.8223L19.5132 57.5047C19.8599 57.4576 20.2129 57.5147 20.5271 57.6686C20.8412 57.8226 21.1026 58.0665 21.2778 58.3693L21.9836 59.6046C22.1645 59.9122 22.248 60.2675 22.2228 60.6235C22.1975 60.9795 22.065 61.3195 21.8425 61.5986L20.5543 63.2397V66.2042L21.8778 67.8453C22.1003 68.1244 22.2328 68.4644 22.258 68.8204C22.2833 69.1764 22.1998 69.5317 22.0189 69.8393L21.3131 71.0746C21.1379 71.3774 20.8765 71.6212 20.5624 71.7753C20.2482 71.9292 19.8952 71.9863 19.5485 71.9392L17.4662 71.6216L14.89 73.1039L14.1312 75.0626C14.0032 75.3942 13.7781 75.6795 13.4852 75.881C13.1924 76.0825 12.8456 76.1909 12.4901 76.192H11.0078C10.6524 76.1909 10.3055 76.0825 10.0127 75.881C9.71984 75.6795 9.49469 75.3942 9.36672 75.0626L8.60794 73.1039L6.0316 71.6216L3.94935 71.9392C3.60264 71.9863 3.24976 71.9292 2.93555 71.7753C2.62136 71.6212 2.36002 71.3774 2.18474 71.0746L1.47889 69.8393C1.29802 69.5317 1.21469 69.1764 1.23989 68.8204C1.26509 68.4644 1.39765 68.1244 1.62006 67.8453L2.90823 66.2042V63.2397L1.58477 61.5986C1.36236 61.3195 1.2298 60.9795 1.2046 60.6235C1.1794 60.2675 1.26273 59.9122 1.4436 59.6046L2.14945 58.3693C2.32473 58.0665 2.58607 57.8226 2.90025 57.6686C3.21446 57.5147 3.56735 57.4576 3.91406 57.5047L5.99631 57.8223L8.60794 56.34Z" stroke="#01CA9A" stroke-width="2" stroke-linecap="round" stroke-linejoin="round"/>
<path id="Vector_7" d="M8.60794 56.34L9.36672 54.3813C9.49469 54.0497 9.71984 53.7644 10.0127 53.5629C10.3055 53.3614 10.6524 53.253 11.0078 53.252H12.4548C12.8103 53.253 13.1571 53.3614 13.45 53.5629C13.7428 53.7644 13.9679 54.0497 14.0959 54.3813L14.8547 56.34L17.4309 57.8223L19.5132 57.5047C19.8599 57.4576 20.2129 57.5147 20.5271 57.6686C20.8412 57.8226 21.1026 58.0665 21.2778 58.3693L21.9836 59.6046C22.1645 59.9122 22.248 60.2675 22.2228 60.6235C22.1975 60.9795 22.065 61.3195 21.8425 61.5986L20.5543 63.2397V66.2042L21.8778 67.8453C22.1003 68.1244 22.2328 68.4644 22.258 68.8204C22.2833 69.1764 22.1998 69.5317 22.0189 69.8393L21.3131 71.0746C21.1379 71.3774 20.8765 71.6212 20.5624 71.7753C20.2482 71.9292 19.8952 71.9863 19.5485 71.9392L17.4662 71.6216L14.89 73.1039L14.1312 75.0626C14.0032 75.3942 13.7781 75.6795 13.4852 75.881C13.1924 76.0825 12.8456 76.1909 12.4901 76.192H11.0078C10.6524 76.1909 10.3055 76.0825 10.0127 75.881C9.71984 75.6795 9.49469 75.3942 9.36672 75.0626L8.60794 73.1039L6.0316 71.6216L3.94935 71.9392C3.60264 71.9863 3.24976 71.9292 2.93555 71.7753C2.62136 71.6212 2.36002 71.3774 2.18474 71.0746L1.47889 69.8393C1.29802 69.5317 1.21469 69.1764 1.23989 68.8204C1.26509 68.4644 1.39765 68.1244 1.62006 67.8453L2.90823 66.2042V63.2397L1.58477 61.5986C1.36236 61.3195 1.2298 60.9795 1.2046 60.6235C1.1794 60.2675 1.26273 59.9122 1.4436 59.6046L2.14945 58.3693C2.32473 58.0665 2.58607 57.8226 2.90025 57.6686C3.21446 57.5147 3.56735 57.4576 3.91406 57.5047L5.99631 57.8223L8.60794 56.34Z" stroke="#01CA9A" stroke-width="2" stroke-linecap="round" stroke-linejoin="round"/>
</g>
<g id="cog--work-loading-cog-gear-settings-machine_2">
<path id="Vector_8" d="M65.6079 56.34L66.3667 54.3813C66.4947 54.0497 66.7198 53.7644 67.0127 53.5629C67.3055 53.3614 67.6524 53.253 68.0078 53.252H69.4548C69.8103 53.253 70.1571 53.3614 70.45 53.5629C70.7428 53.7644 70.9679 54.0497 71.0959 54.3813L71.8547 56.34L74.4309 57.8223L76.5132 57.5047C76.8599 57.4576 77.2129 57.5147 77.5271 57.6686C77.8412 57.8226 78.1026 58.0665 78.2778 58.3693L78.9836 59.6046C79.1645 59.9122 79.248 60.2675 79.2228 60.6235C79.1975 60.9795 79.065 61.3195 78.8425 61.5986L77.5543 63.2397V66.2042L78.8778 67.8453C79.1003 68.1244 79.2328 68.4644 79.258 68.8204C79.2833 69.1764 79.1998 69.5317 79.0189 69.8393L78.3131 71.0746C78.1379 71.3774 77.8765 71.6212 77.5624 71.7753C77.2482 71.9292 76.8952 71.9863 76.5485 71.9392L74.4662 71.6216L71.89 73.1039L71.1312 75.0626C71.0032 75.3942 70.7781 75.6795 70.4852 75.881C70.1924 76.0825 69.8456 76.1909 69.4901 76.192H68.0078C67.6524 76.1909 67.3055 76.0825 67.0127 75.881C66.7198 75.6795 66.4947 75.3942 66.3667 75.0626L65.6079 73.1039L63.0316 71.6216L60.9494 71.9392C60.6026 71.9863 60.2498 71.9292 59.9355 71.7753C59.6214 71.6212 59.36 71.3774 59.1847 71.0746L58.4789 69.8393C58.298 69.5317 58.2147 69.1764 58.2399 68.8204C58.2651 68.4644 58.3976 68.1244 58.6201 67.8453L59.9082 66.2042V63.2397L58.5848 61.5986C58.3624 61.3195 58.2298 60.9795 58.2046 60.6235C58.1794 60.2675 58.2627 59.9122 58.4436 59.6046L59.1494 58.3693C59.3247 58.0665 59.5861 57.8226 59.9003 57.6686C60.2145 57.5147 60.5673 57.4576 60.9141 57.5047L62.9963 57.8223L65.6079 56.34Z" stroke="#01CA9A" stroke-width="2" stroke-linecap="round" stroke-linejoin="round"/>
<path id="Vector_9" d="M65.6079 56.34L66.3667 54.3813C66.4947 54.0497 66.7198 53.7644 67.0127 53.5629C67.3055 53.3614 67.6524 53.253 68.0078 53.252H69.4548C69.8103 53.253 70.1571 53.3614 70.45 53.5629C70.7428 53.7644 70.9679 54.0497 71.0959 54.3813L71.8547 56.34L74.4309 57.8223L76.5132 57.5047C76.8599 57.4576 77.2129 57.5147 77.5271 57.6686C77.8412 57.8226 78.1026 58.0665 78.2778 58.3693L78.9836 59.6046C79.1645 59.9122 79.248 60.2675 79.2228 60.6235C79.1975 60.9795 79.065 61.3195 78.8425 61.5986L77.5543 63.2397V66.2042L78.8778 67.8453C79.1003 68.1244 79.2328 68.4644 79.258 68.8204C79.2833 69.1764 79.1998 69.5317 79.0189 69.8393L78.3131 71.0746C78.1379 71.3774 77.8765 71.6212 77.5624 71.7753C77.2482 71.9292 76.8952 71.9863 76.5485 71.9392L74.4662 71.6216L71.89 73.1039L71.1312 75.0626C71.0032 75.3942 70.7781 75.6795 70.4852 75.881C70.1924 76.0825 69.8456 76.1909 69.4901 76.192H68.0078C67.6524 76.1909 67.3055 76.0825 67.0127 75.881C66.7198 75.6795 66.4947 75.3942 66.3667 75.0626L65.6079 73.1039L63.0316 71.6216L60.9494 71.9392C60.6026 71.9863 60.2498 71.9292 59.9355 71.7753C59.6214 71.6212 59.36 71.3774 59.1847 71.0746L58.4789 69.8393C58.298 69.5317 58.2147 69.1764 58.2399 68.8204C58.2651 68.4644 58.3976 68.1244 58.6201 67.8453L59.9082 66.2042V63.2397L58.5848 61.5986C58.3624 61.3195 58.2298 60.9795 58.2046 60.6235C58.1794 60.2675 58.2627 59.9122 58.4436 59.6046L59.1494 58.3693C59.3247 58.0665 59.5861 57.8226 59.9003 57.6686C60.2145 57.5147 60.5673 57.4576 60.9141 57.5047L62.9963 57.8223L65.6079 56.34Z" stroke="#01CA9A" stroke-width="2" stroke-linecap="round" stroke-linejoin="round"/>
</g>
</g>
</svg>
