<svg width="80" height="80" viewBox="0 0 80 80" fill="none" xmlns="http://www.w3.org/2000/svg">
<g id="performance-cost">
<g id="performance-cost_2">
<path id="Vector" d="M2.85742 8.68841V71.5456C2.85742 74.7016 5.41579 77.2598 8.57171 77.2598H71.4289C74.5849 77.2598 77.1431 74.7016 77.1431 71.5456V8.68841C77.1431 5.53249 74.5849 2.97412 71.4289 2.97412H8.57171C5.41579 2.97412 2.85742 5.53249 2.85742 8.68841Z" stroke="#01CA9A" stroke-width="2" stroke-linecap="round" stroke-linejoin="round"/>
<path id="Vector_2" d="M25.7146 62.9741L25.7146 38.6968" stroke="#01CA9A" stroke-width="2" stroke-linecap="round" stroke-linejoin="round"/>
<g id="cog--work-loading-cog-gear-settings-machine">
<path id="Vector_3" d="M22.309 16.5377L23.1404 14.3914C23.2806 14.0281 23.5273 13.7155 23.8481 13.4947C24.169 13.2739 24.5491 13.1551 24.9386 13.154H26.524C26.9135 13.1551 27.2936 13.2739 27.6145 13.4947C27.9353 13.7155 28.182 14.0281 28.3222 14.3914L29.1536 16.5377L31.9765 18.1618L34.2581 17.8138C34.638 17.7622 35.0247 17.8248 35.3691 17.9935C35.7132 18.1622 35.9996 18.4294 36.1916 18.7612L36.965 20.1147C37.1632 20.4518 37.2546 20.8411 37.227 21.2311C37.1993 21.6212 37.0541 21.9937 36.8103 22.2996L35.3988 24.0977V27.3461L36.849 29.1443C37.0928 29.4501 37.238 29.8226 37.2657 30.2127C37.2933 30.6027 37.2019 30.992 37.0037 31.3291L36.2303 32.6826C36.0383 33.0144 35.7519 33.2816 35.4077 33.4504C35.0634 33.619 34.6767 33.6817 34.2967 33.63L32.0152 33.282L29.1923 34.9062L28.3609 37.0524C28.2207 37.4157 27.974 37.7283 27.6531 37.9491C27.3323 38.17 26.9522 38.2887 26.5627 38.2898H24.9386C24.5491 38.2887 24.169 38.17 23.8481 37.9491C23.5273 37.7283 23.2806 37.4157 23.1404 37.0524L22.309 34.9062L19.486 33.282L17.2044 33.63C16.8246 33.6817 16.4379 33.619 16.0936 33.4504C15.7493 33.2816 15.463 33.0144 15.2709 32.6826L14.4975 31.3291C14.2993 30.992 14.208 30.6027 14.2356 30.2127C14.2632 29.8226 14.4085 29.4501 14.6522 29.1443L16.0637 27.3461V24.0977L14.6135 22.2996C14.3698 21.9937 14.2246 21.6212 14.197 21.2311C14.1694 20.8411 14.2607 20.4518 14.4588 20.1147L15.2323 18.7612C15.4243 18.4294 15.7107 18.1622 16.0549 17.9935C16.3992 17.8248 16.7859 17.7622 17.1658 17.8138L19.4473 18.1618L22.309 16.5377Z" stroke="#01CA9A" stroke-width="2" stroke-linecap="round" stroke-linejoin="round"/>
<path id="Vector_3_2" d="M22.2986 26.1533L24.7306 27.9773L28.9865 23.1133" stroke="#01CA9A" stroke-width="2" stroke-linecap="round" stroke-linejoin="round"/>
</g>
<path id="Vector_4" d="M54.2859 17.2598V32.1996" stroke="#01CA9A" stroke-width="2" stroke-linecap="round" stroke-linejoin="round"/>
<path id="Vector_5" d="M54.2859 53.94V62.9741" stroke="#01CA9A" stroke-width="2" stroke-linecap="round" stroke-linejoin="round"/>
<g id="dollar-coin-1--accounting-billing-payment-cash-coin-currency-money-finance">
<path id="Vector 3" d="M57.1354 40.1493C57.0379 39.8734 56.8874 39.6224 56.6961 39.4088C56.2893 38.9542 55.6982 38.6682 55.0402 38.6682H53.3205C52.2253 38.6682 51.3374 39.5561 51.3374 40.6513C51.3374 41.5833 51.9863 42.3895 52.8967 42.5887L55.5149 43.1614C56.5349 43.3845 57.2618 44.2883 57.2618 45.3324C57.2618 46.5594 56.2672 47.5549 55.0402 47.5549H53.5591C52.5917 47.5549 51.7688 46.9366 51.4638 46.0737" stroke="#01CA9A" stroke-width="2" stroke-linecap="round" stroke-linejoin="round"/>
<path id="Vector 2489" d="M54.2998 38.6683V36.4467" stroke="#01CA9A" stroke-width="2" stroke-linecap="round" stroke-linejoin="round"/>
<path id="Vector 2490" d="M54.2998 49.7766V47.5549" stroke="#01CA9A" stroke-width="2" stroke-linecap="round" stroke-linejoin="round"/>
<path id="Ellipse 19" d="M54.3001 53.7716C60.1877 53.7716 64.9606 48.9988 64.9606 43.1112C64.9606 37.2235 60.1877 32.4507 54.3001 32.4507C48.4125 32.4507 43.6396 37.2235 43.6396 43.1112C43.6396 48.9988 48.4125 53.7716 54.3001 53.7716Z" stroke="#01CA9A" stroke-width="2" stroke-linecap="round" stroke-linejoin="round"/>
</g>
</g>
</g>
</svg>
