<svg width="90" height="91" viewBox="0 0 90 91" fill="none" xmlns="http://www.w3.org/2000/svg">
<rect y="0.730469" width="90" height="90" rx="15" fill="#00FFC5"/>
<path d="M15 39.2305H19V61.2305H23V35.2305H15V39.2305Z" fill="#22282E"/>
<path d="M19 33.2305H25V61.2305H29V29.2305H19V33.2305ZM37 45.2305C37 38.6125 42.382 33.2305 49 33.2305C55.618 33.2305 61 38.6125 61 45.2305H65C65 36.4085 57.822 29.2305 49 29.2305C40.178 29.2305 33 36.4085 33 45.2305C33 54.0525 40.178 61.2305 49 61.2305H75V57.2305H49C42.382 57.2305 37 51.8485 37 45.2305Z" fill="#22282E"/>
<path d="M49.002 49.2266C46.796 49.2266 45.002 47.4326 45.002 45.2266C45.002 43.0206 46.796 41.2266 49.002 41.2266C51.208 41.2266 53.002 43.0206 53.002 45.2266H57.002C57.002 40.8146 53.414 37.2266 49.002 37.2266C44.59 37.2266 41.002 40.8146 41.002 45.2266C41.002 49.6386 44.59 53.2266 49.002 53.2266H75.002V49.2266H49.002Z" fill="#22282E"/>
</svg>
