<svg width="90" height="90" viewBox="0 0 90 90" fill="none" xmlns="http://www.w3.org/2000/svg">
<rect y="-0.269531" width="90" height="90" rx="15" fill="#00FFC5"/>
<path d="M61.8652 46.75L67.3463 63.0111" stroke="#22282E" stroke-width="2" stroke-linecap="round" stroke-linejoin="round"/>
<path d="M63.2003 45.6998C64.8369 44.2995 65.0285 41.8376 63.6282 40.201C62.2279 38.5644 59.766 38.3728 58.1294 39.7731C56.4927 41.1734 56.3012 43.6353 57.7015 45.2719C59.1018 46.9085 61.5637 47.1001 63.2003 45.6998Z" stroke="#22282E" stroke-width="2" stroke-linecap="round" stroke-linejoin="round"/>
<path d="M71.3976 70.0162C73.0342 68.6159 73.2257 66.154 71.8254 64.5174C70.4251 62.8808 67.9632 62.6892 66.3266 64.0895C64.69 65.4898 64.4984 67.9517 65.8988 69.5883C67.2991 71.225 69.761 71.4165 71.3976 70.0162Z" stroke="#22282E" stroke-width="2" stroke-linecap="round" stroke-linejoin="round"/>
<path d="M28.1211 46.75L22.6401 63.0111" stroke="#22282E" stroke-width="2" stroke-linecap="round" stroke-linejoin="round"/>
<path d="M26.7958 45.6998C25.1592 44.2995 24.9676 41.8376 26.3679 40.201C27.7682 38.5644 30.2301 38.3728 31.8667 39.7731C33.5034 41.1734 33.6949 43.6353 32.2946 45.2719C30.8943 46.9085 28.4324 47.1001 26.7958 45.6998Z" stroke="#22282E" stroke-width="2" stroke-linecap="round" stroke-linejoin="round"/>
<path d="M18.6024 70.0162C16.9658 68.6159 16.7743 66.154 18.1746 64.5174C19.5749 62.8808 22.0368 62.6892 23.6734 64.0895C25.31 65.4898 25.5016 67.9517 24.1012 69.5883C22.7009 71.225 20.239 71.4165 18.6024 70.0162Z" stroke="#22282E" stroke-width="2" stroke-linecap="round" stroke-linejoin="round"/>
<path d="M59.0742 46.75L53.5932 63.0111" stroke="#22282E" stroke-width="2" stroke-linecap="round" stroke-linejoin="round"/>
<path d="M49.5517 70.0162C47.915 68.6159 47.7235 66.154 49.1238 64.5174C50.5241 62.8808 52.986 62.6892 54.6226 64.0895C56.2592 65.4898 56.4508 67.9517 55.0505 69.5883C53.6502 71.225 51.1883 71.4165 49.5517 70.0162Z" stroke="#22282E" stroke-width="2" stroke-linecap="round" stroke-linejoin="round"/>
<path d="M30.916 46.75L36.397 63.0111" stroke="#22282E" stroke-width="2" stroke-linecap="round" stroke-linejoin="round"/>
<path d="M40.4444 70.0162C42.0811 68.6159 42.2726 66.154 40.8723 64.5174C39.472 62.8808 37.0101 62.6892 35.3735 64.0895C33.7369 65.4898 33.5453 67.9517 34.9456 69.5883C36.3459 71.225 38.8078 71.4165 40.4444 70.0162Z" stroke="#22282E" stroke-width="2" stroke-linecap="round" stroke-linejoin="round"/>
<path d="M47.5723 25.668L57.9613 39.3257" stroke="#22282E" stroke-width="2" stroke-linecap="round" stroke-linejoin="round"/>
<path d="M48.4994 24.2481C49.6028 22.3983 48.9978 20.0043 47.148 18.9008C45.2982 17.7974 42.9041 18.4024 41.8007 20.2522C40.6972 22.102 41.3023 24.4961 43.1521 25.5995C45.0019 26.703 47.396 26.0979 48.4994 24.2481Z" stroke="#22282E" stroke-width="2" stroke-linecap="round" stroke-linejoin="round"/>
<path d="M42.418 25.668L32.0289 39.3257" stroke="#22282E" stroke-width="2" stroke-linecap="round" stroke-linejoin="round"/>
</svg>
