<svg width="91" height="91" viewBox="0 0 91 91" fill="none" xmlns="http://www.w3.org/2000/svg">
<rect x="0.75" y="0.730469" width="90" height="90" rx="15" fill="#00FFC5"/>
<path d="M47.2906 73.1415C46.2977 73.5246 45.1978 73.5246 44.2049 73.1415C36.4643 70.1573 29.8081 64.9 25.1115 58.0616C20.4147 51.2231 17.8975 43.1233 17.8906 34.8273V22.3131C17.8906 21.1764 18.3422 20.0863 19.1459 19.2826C19.9496 18.4789 21.0397 18.0273 22.1763 18.0273H69.3192C70.4558 18.0273 71.5461 18.4789 72.3496 19.2826C73.1532 20.0863 73.6049 21.1764 73.6049 22.3131V34.8273C73.5981 43.1233 71.0806 51.2231 66.3839 58.0616C61.6876 64.9 55.0312 70.1573 47.2906 73.1415Z" stroke="#22282E" stroke-width="2" stroke-linecap="round" stroke-linejoin="round"/>
<path d="M54.3206 45.7132V37.1417C54.3206 32.4079 50.483 28.5703 45.7492 28.5703C41.0153 28.5703 37.1777 32.4079 37.1777 37.1417V45.7132C37.1777 50.447 41.0153 54.2846 45.7492 54.2846C50.483 54.2846 54.3206 50.447 54.3206 45.7132Z" stroke="#22282E" stroke-width="2" stroke-linecap="round" stroke-linejoin="round"/>
<path d="M30.75 41.4258H37.1786" stroke="#22282E" stroke-width="2" stroke-linecap="round" stroke-linejoin="round"/>
<path d="M54.3223 41.4258H60.7508" stroke="#22282E" stroke-width="2" stroke-linecap="round" stroke-linejoin="round"/>
<path d="M37.1777 39.2891H54.3206" stroke="#22282E" stroke-width="2" stroke-linecap="round" stroke-linejoin="round"/>
<path d="M53.5156 33.6596L58.6049 28.5703" stroke="#22282E" stroke-width="2" stroke-linecap="round" stroke-linejoin="round"/>
<path d="M53.5156 49.1953L58.6049 54.2846" stroke="#22282E" stroke-width="2" stroke-linecap="round" stroke-linejoin="round"/>
<path d="M37.9799 49.1953L32.8906 54.2846" stroke="#22282E" stroke-width="2" stroke-linecap="round" stroke-linejoin="round"/>
<path d="M37.9799 33.6596L32.8906 28.5703" stroke="#22282E" stroke-width="2" stroke-linecap="round" stroke-linejoin="round"/>
</svg>
