<svg width="90" height="91" viewBox="0 0 90 91" fill="none" xmlns="http://www.w3.org/2000/svg">
<rect y="0.730469" width="90" height="90" rx="15" fill="#00FFC5"/>
<path d="M44.9978 39.3036C60.3831 39.3036 72.8549 34.5066 72.8549 28.5893C72.8549 22.672 60.3831 17.875 44.9978 17.875C29.6127 17.875 17.1406 22.672 17.1406 28.5893C17.1406 34.5066 29.6127 39.3036 44.9978 39.3036Z" stroke="#22282E" stroke-width="2" stroke-linecap="round" stroke-linejoin="round"/>
<path d="M17.1406 28.5938V62.8795C17.1406 68.7937 29.6121 73.5937 44.9978 73.5937C60.3835 73.5937 72.8549 68.7937 72.8549 62.8795V28.5938" stroke="#22282E" stroke-width="2" stroke-linecap="round" stroke-linejoin="round"/>
<path d="M72.8549 45.7305C72.8549 51.6448 60.3835 56.4448 44.9978 56.4448C29.6121 56.4448 17.1406 51.6448 17.1406 45.7305" stroke="#22282E" stroke-width="2" stroke-linecap="round" stroke-linejoin="round"/>
</svg>
