<svg width="91" height="91" viewBox="0 0 91 91" fill="none" xmlns="http://www.w3.org/2000/svg">
<rect x="0.5" y="0.230469" width="90" height="90" rx="15" fill="#00FFC5"/>
<path d="M69.0692 19.5156H21.9263C19.5594 19.5156 17.6406 21.4344 17.6406 23.8013V40.9442C17.6406 43.3111 19.5594 45.2299 21.9263 45.2299H69.0692C71.4362 45.2299 73.3549 43.3111 73.3549 40.9442V23.8013C73.3549 21.4344 71.4362 19.5156 69.0692 19.5156Z" stroke="#22282E" stroke-width="2" stroke-linecap="round" stroke-linejoin="round"/>
<path d="M30.4983 34.5201C31.6818 34.5201 32.6412 33.5607 32.6412 32.3772C32.6412 31.1938 31.6818 30.2344 30.4983 30.2344C29.3149 30.2344 28.3555 31.1938 28.3555 32.3772C28.3555 33.5607 29.3149 34.5201 30.4983 34.5201Z" stroke="#22282E" stroke-width="2" stroke-linecap="round" stroke-linejoin="round"/>
<path d="M47.6406 32.3711H62.6406" stroke="#22282E" stroke-width="2" stroke-linecap="round" stroke-linejoin="round"/>
<path d="M21.9263 45.2344C20.7897 45.2344 19.6996 45.6859 18.8959 46.4896C18.0922 47.2934 17.6406 48.3834 17.6406 49.5201V66.6629C17.6406 67.7995 18.0922 68.8898 18.8959 69.6934C19.6996 70.4969 20.7897 70.9487 21.9263 70.9487H69.0692C70.2058 70.9487 71.2961 70.4969 72.0996 69.6934C72.9032 68.8898 73.3549 67.7995 73.3549 66.6629V49.5201C73.3549 48.3834 72.9032 47.2934 72.0996 46.4896C71.2961 45.6859 70.2058 45.2344 69.0692 45.2344" stroke="#22282E" stroke-width="2" stroke-linecap="round" stroke-linejoin="round"/>
<path d="M30.4983 60.231C31.6818 60.231 32.6412 59.2715 32.6412 58.0882C32.6412 56.9047 31.6818 55.9453 30.4983 55.9453C29.3149 55.9453 28.3555 56.9047 28.3555 58.0882C28.3555 59.2715 29.3149 60.231 30.4983 60.231Z" stroke="#22282E" stroke-width="2" stroke-linecap="round" stroke-linejoin="round"/>
<path d="M47.6406 58.0859H62.6406" stroke="#22282E" stroke-width="2" stroke-linecap="round" stroke-linejoin="round"/>
</svg>
