<svg width="91" height="91" viewBox="0 0 91 91" fill="none" xmlns="http://www.w3.org/2000/svg">
<rect x="0.5" y="0.730469" width="90" height="90" rx="15" fill="#00FFC5"/>
<path d="M17.6406 39.2974V56.4403C17.6406 58.8073 19.5594 60.726 21.9263 60.726H47.6406C50.0075 60.726 51.9263 58.8073 51.9263 56.4403V39.2974C51.9263 36.9305 50.0075 35.0117 47.6406 35.0117H21.9263C19.5594 35.0117 17.6406 36.9305 17.6406 39.2974Z" stroke="#22282E" stroke-width="2" stroke-linecap="round" stroke-linejoin="round"/>
<path d="M28.3555 69.3008H41.2126" stroke="#22282E" stroke-width="2" stroke-linecap="round" stroke-linejoin="round"/>
<path d="M34.7812 69.298V60.7266" stroke="#22282E" stroke-width="2" stroke-linecap="round" stroke-linejoin="round"/>
<path d="M47.6406 26.442V24.2991C47.6406 23.1156 48.6 22.1562 49.7835 22.1562H71.2121C72.3953 22.1562 73.3549 23.1156 73.3549 24.2991V67.1562C73.3549 68.3395 72.3953 69.2991 71.2121 69.2991H54.0692" stroke="#22282E" stroke-width="2" stroke-linecap="round" stroke-linejoin="round"/>
<path d="M64.249 32.3341C63.9529 32.3341 63.7129 32.094 63.7129 31.7979C63.7129 31.5018 63.9529 31.2617 64.249 31.2617" stroke="#22282E" stroke-width="2" stroke-linecap="round" stroke-linejoin="round"/>
<path d="M64.25 32.3341C64.5461 32.3341 64.7861 32.094 64.7861 31.7979C64.7861 31.5018 64.5461 31.2617 64.25 31.2617" stroke="#22282E" stroke-width="2" stroke-linecap="round" stroke-linejoin="round"/>
<path d="M60.5 41.4375H73.3571" stroke="#22282E" stroke-width="2" stroke-linecap="round" stroke-linejoin="round"/>
</svg>
