<svg width="91" height="90" viewBox="0 0 91 90" fill="none" xmlns="http://www.w3.org/2000/svg">
<rect x="0.5" y="-0.269531" width="90" height="90" rx="15" fill="#00FFC5"/>
<path d="M50.9668 19.2539H40.0345C39.2798 19.2539 38.668 19.8657 38.668 20.6204V26.1139C38.668 26.8686 39.2798 27.4805 40.0345 27.4805H50.9668C51.7214 27.4805 52.3334 26.8686 52.3334 26.1139V20.6204C52.3334 19.8657 51.7214 19.2539 50.9668 19.2539Z" stroke="#22282E" stroke-width="2" stroke-linecap="round" stroke-linejoin="round"/>
<path d="M70.6309 19.2539H59.6986C58.9439 19.2539 58.332 19.8657 58.332 20.6204V26.1139C58.332 26.8686 58.9439 27.4805 59.6986 27.4805H70.6309C71.3855 27.4805 71.9974 26.8686 71.9974 26.1139V20.6204C71.9974 19.8657 71.3855 19.2539 70.6309 19.2539Z" stroke="#22282E" stroke-width="2" stroke-linecap="round" stroke-linejoin="round"/>
<path d="M31.2988 19.2539H20.3665C19.6118 19.2539 19 19.8656 19 20.6204V26.1139C19 26.8685 19.6118 27.4805 20.3665 27.4805H31.2988C32.0536 27.4805 32.6654 26.8685 32.6654 26.1139V20.6204C32.6654 19.8656 32.0536 19.2539 31.2988 19.2539Z" stroke="#22282E" stroke-width="2" stroke-linecap="round" stroke-linejoin="round"/>
<path d="M50.9668 33.5H40.0345C39.2798 33.5 38.668 34.1118 38.668 34.8665V40.36C38.668 41.1147 39.2798 41.7266 40.0345 41.7266H50.9668C51.7214 41.7266 52.3334 41.1147 52.3334 40.36V34.8665C52.3334 34.1118 51.7214 33.5 50.9668 33.5Z" stroke="#22282E" stroke-width="2" stroke-linecap="round" stroke-linejoin="round"/>
<path d="M58.332 37.6133V34.8665C58.332 34.1118 58.9439 33.5 59.6986 33.5H70.6309C71.3855 33.5 71.9974 34.1118 71.9974 34.8665V40.36C71.9974 41.1147 71.3855 41.7266 70.6309 41.7266H67.8978" stroke="#22282E" stroke-width="2" stroke-linecap="round" stroke-linejoin="round"/>
<path d="M31.2988 33.5H20.3665C19.6118 33.5 19 34.1117 19 34.8665V40.36C19 41.1146 19.6118 41.7266 20.3665 41.7266H31.2988C32.0536 41.7266 32.6654 41.1146 32.6654 40.36V34.8665C32.6654 34.1117 32.0536 33.5 31.2988 33.5Z" stroke="#22282E" stroke-width="2" stroke-linecap="round" stroke-linejoin="round"/>
<path d="M52.3334 49.1087C52.3334 48.354 51.7214 47.7422 50.9668 47.7422H40.0345C39.2798 47.7422 38.668 48.354 38.668 49.1087V54.6022C38.668 55.3569 39.2798 55.9688 40.0345 55.9688H45.5007H46.8672" stroke="#22282E" stroke-width="2" stroke-linecap="round" stroke-linejoin="round"/>
<path d="M31.2988 47.7422H20.3665C19.6118 47.7422 19 48.3539 19 49.1087V54.6022C19 55.3568 19.6118 55.9688 20.3665 55.9688H31.2988C32.0536 55.9688 32.6654 55.3568 32.6654 54.6022V49.1087C32.6654 48.3539 32.0536 47.7422 31.2988 47.7422Z" stroke="#22282E" stroke-width="2" stroke-linecap="round" stroke-linejoin="round"/>
<path d="M45.5007 61.9844H40.0345C39.2798 61.9844 38.668 62.5962 38.668 63.3509V68.8444C38.668 69.5991 39.2798 70.2109 40.0345 70.2109H45.5007H48.2337" stroke="#22282E" stroke-width="2" stroke-linecap="round" stroke-linejoin="round"/>
<path d="M31.2988 61.9844H20.3665C19.6118 61.9844 19 62.596 19 63.3509V68.8444C19 69.599 19.6118 70.2109 20.3665 70.2109H31.2988C32.0536 70.2109 32.6654 69.599 32.6654 68.8444V63.3509C32.6654 62.596 32.0536 61.9844 31.2988 61.9844Z" stroke="#22282E" stroke-width="2" stroke-linecap="round" stroke-linejoin="round"/>
<path d="M60.277 43.4979C59.6539 43.2308 59.0901 43.8539 59.3572 44.299C60.2932 45.93 60.9171 47.7212 61.1969 49.5807C61.5824 52.2048 61.1991 55.0807 59.5055 57.2064C59.4411 57.287 59.36 57.3525 59.2678 57.3987C59.1756 57.4448 59.0745 57.4703 58.9714 57.4735C58.8657 57.4783 58.7603 57.4595 58.6627 57.4184C58.5652 57.3773 58.4781 57.3151 58.4077 57.2361C57.6422 56.4434 56.8488 55.6401 56.3306 54.6547C56.1822 54.3579 55.6481 53.8832 54.8767 54.6547C53.0138 56.1887 51.8799 58.5444 52.1172 60.945C52.2138 66.2624 56.9149 70.1459 62.0656 70.2094C67.3211 70.2739 71.9555 66.3819 71.9976 60.945C71.9976 57.5152 70.9633 54.1649 69.0302 51.3313C66.9104 47.9463 63.8756 45.2304 60.277 43.4979Z" stroke="#22282E" stroke-width="2" stroke-linecap="round" stroke-linejoin="round"/>
</svg>
