<svg width="90" height="90" viewBox="0 0 90 90" fill="none" xmlns="http://www.w3.org/2000/svg">
<rect y="-0.269531" width="90" height="90" rx="15" fill="#00FFC5"/>
<path d="M32.0742 52.6487L40.5099 45.1953V67.5556" stroke="#22282E" stroke-width="2" stroke-linecap="round" stroke-linejoin="round"/>
<path d="M57.9277 60.1019L49.4922 67.5556V45.1953" stroke="#22282E" stroke-width="2" stroke-linecap="round" stroke-linejoin="round"/>
<path d="M31.7984 61.1996C28.1777 61.4426 24.6088 60.2375 21.8766 57.8495C19.1445 55.461 17.4731 52.0852 17.23 48.4645C16.9869 44.8438 18.192 41.2749 20.5804 38.5428C21.7629 37.19 23.2004 36.0834 24.8106 35.286C26.4209 34.4888 28.1724 34.0165 29.9651 33.8961C30.1512 33.9002 30.3345 33.8509 30.4935 33.7542C30.6525 33.6574 30.7805 33.5172 30.8623 33.35C32.099 29.7656 34.5272 26.7135 37.7419 24.7027C40.9566 22.6919 44.7635 21.8439 48.5277 22.3002C52.2919 22.7564 55.7859 24.4894 58.427 27.21C61.0683 29.9306 62.6969 33.4745 63.0414 37.2505C63.0701 37.4494 63.1554 37.6358 63.2866 37.7879C63.4181 37.9399 63.59 38.0512 63.7824 38.1087C66.5699 38.7653 69.0196 40.4212 70.6679 42.7627C72.3161 45.1043 73.0486 47.969 72.7267 50.8143C72.4044 53.6597 71.0501 56.2881 68.9206 58.2022C68.0236 59.0079 67.0151 59.6636 65.9347 60.1543" stroke="#22282E" stroke-width="2" stroke-linecap="round" stroke-linejoin="round"/>
</svg>
