<svg width="90" height="91" viewBox="0 0 90 91" fill="none" xmlns="http://www.w3.org/2000/svg">
<rect y="0.730469" width="90" height="90" rx="15" fill="#00FFC5"/>
<path d="M72 57.7305V31.3305C72 27.9702 72 26.29 71.346 25.0065C70.7708 23.8776 69.8529 22.9597 68.7239 22.3844C67.4405 21.7305 65.7603 21.7305 62.4 21.7305H27.6C24.2397 21.7305 22.5595 21.7305 21.2761 22.3844C20.1471 22.9597 19.2292 23.8776 18.654 25.0065C18 26.29 18 27.9702 18 31.3305V57.7305M23 69.7305H67C68.8599 69.7305 69.7899 69.7305 70.5529 69.526C72.6235 68.9712 74.2408 67.3539 74.7956 65.2834C75 64.5204 75 63.5904 75 61.7305C75 60.8005 75 60.3355 74.8978 59.954C74.6204 58.9187 73.8117 58.1101 72.7765 57.8327C72.395 57.7305 71.93 57.7305 71 57.7305H19C18.07 57.7305 17.605 57.7305 17.2235 57.8327C16.1883 58.1101 15.3796 58.9187 15.1022 59.954C15 60.3355 15 60.8005 15 61.7305C15 63.5904 15 64.5204 15.2044 65.2834C15.7592 67.3539 17.3765 68.9712 19.4471 69.526C20.2101 69.7305 21.1401 69.7305 23 69.7305Z" stroke="#22282E" stroke-width="2" stroke-linecap="round" stroke-linejoin="round"/>
</svg>
