<svg width="90" height="91" viewBox="0 0 90 91" fill="none" xmlns="http://www.w3.org/2000/svg">
<rect y="0.230469" width="90" height="90" rx="15" fill="#00FFC5"/>
<path d="M41.38 35.2183C54.3982 35.2183 64.9514 31.1505 64.9514 26.1326C64.9514 21.1147 54.3982 17.0469 41.38 17.0469C28.3619 17.0469 17.8086 21.1147 17.8086 26.1326C17.8086 31.1505 28.3619 35.2183 41.38 35.2183Z" stroke="#22282E" stroke-width="2" stroke-linecap="round" stroke-linejoin="round"/>
<path d="M64.9492 40.6185V26.1328" stroke="#22282E" stroke-width="2" stroke-linecap="round" stroke-linejoin="round"/>
<path d="M17.8086 26.1328V55.1042C17.8086 59.5724 26.1268 63.1493 37.0943 64.0026" stroke="#22282E" stroke-width="2" stroke-linecap="round" stroke-linejoin="round"/>
<path d="M41.38 49.5315C28.5229 49.7029 17.8086 45.6315 17.8086 40.6172" stroke="#22282E" stroke-width="2" stroke-linecap="round" stroke-linejoin="round"/>
<path d="M45.7227 60.3491C45.7227 67.0096 51.1221 72.4091 57.7827 72.4091C64.4432 72.4091 69.8427 67.0096 69.8427 60.3491C69.8427 53.6885 64.4432 48.2891 57.7827 48.2891C54.5216 48.2891 51.5629 49.5834 49.3921 51.6863" stroke="#22282E" stroke-width="2" stroke-linecap="round"/>
<path d="M58.1834 61.1519C57.9613 61.1519 57.7812 60.9719 57.7812 60.7498C57.7812 60.5277 57.9613 60.3477 58.1834 60.3477" stroke="#22282E" stroke-width="2" stroke-linecap="round" stroke-linejoin="round"/>
<path d="M58.1836 61.1519C58.4057 61.1519 58.5857 60.9719 58.5857 60.7498C58.5857 60.5277 58.4057 60.3477 58.1836 60.3477" stroke="#22282E" stroke-width="2" stroke-linecap="round" stroke-linejoin="round"/>
<path d="M50.8107 44.7813L49.2676 52.3229L55.7997 54.896" stroke="#22282E" stroke-width="2" stroke-linecap="round" stroke-linejoin="round"/>
</svg>
