<svg width="91" height="91" viewBox="0 0 91 91" fill="none" xmlns="http://www.w3.org/2000/svg">
<rect x="0.5" y="0.230469" width="90" height="90" rx="15" fill="#00FFC5"/>
<path d="M54.3149 28.8177L53.0257 25.414C52.9504 25.1881 52.7617 24.9869 52.4915 24.8445C52.2214 24.7022 51.8865 24.6275 51.5439 24.6331H40.5782C40.2432 24.6344 39.9188 24.7122 39.6577 24.854C39.3967 24.9958 39.2145 25.1932 39.1408 25.414L37.8516 28.8177" stroke="#22282E" stroke-width="2" stroke-linecap="round" stroke-linejoin="round"/>
<path d="M61.6026 33.6203L65.1808 33.6203C66.1297 33.6203 67.04 33.9973 67.711 34.6683C68.3819 35.3393 68.759 36.2495 68.759 37.1985L68.759 62.246C68.759 63.195 68.3819 64.1051 67.711 64.7762C67.04 65.4472 66.1297 65.8242 65.1808 65.8242L25.8204 65.8242C24.8714 65.8242 23.9613 65.4472 23.2902 64.7762C22.6192 64.1051 22.2422 63.195 22.2422 62.246L22.2422 37.1985C22.2422 36.2495 22.6192 35.3393 23.2902 34.6683C23.9613 33.9973 24.8714 33.6203 25.8204 33.6203L29.3986 33.6203" stroke="#22282E" stroke-width="2" stroke-linecap="round" stroke-linejoin="round"/>
<path d="M61.1489 33.6185L59.828 30.3271C59.6738 29.8904 59.2869 29.5012 58.7334 29.2259C58.1798 28.9505 57.4935 28.806 56.7915 28.817H54.5523M30.0547 33.6185L31.3756 30.3271C31.5266 29.9002 31.9 29.5185 32.4349 29.2443C32.9698 28.97 33.6347 28.8194 34.3211 28.817H37.1299" stroke="#22282E" stroke-width="2" stroke-linecap="round" stroke-linejoin="round"/>
<path d="M30.2422 50.4961L30.2422 58.2085" stroke="#22282E" stroke-width="2" stroke-linecap="round" stroke-linejoin="round"/>
<path d="M36.1758 50.4961L36.1758 58.2085" stroke="#22282E" stroke-width="2" stroke-linecap="round" stroke-linejoin="round"/>
<path d="M42.1055 50.4961L42.1055 58.2085" stroke="#22282E" stroke-width="2" stroke-linecap="round" stroke-linejoin="round"/>
<path d="M48.0371 50.4961L48.0371 58.2085" stroke="#22282E" stroke-width="2" stroke-linecap="round" stroke-linejoin="round"/>
<path d="M53.9668 50.4961L53.9668 58.2085" stroke="#22282E" stroke-width="2" stroke-linecap="round" stroke-linejoin="round"/>
<path d="M59.8965 50.4961L59.8965 58.2085" stroke="#22282E" stroke-width="2" stroke-linecap="round" stroke-linejoin="round"/>
</svg>
