<svg width="90" height="91" viewBox="0 0 90 91" fill="none" xmlns="http://www.w3.org/2000/svg">
<rect y="0.230469" width="90" height="90" rx="15" fill="#00FFC5"/>
<path d="M44.3565 67.7052C47.4572 67.7052 49.9708 65.1916 49.9708 62.0909C49.9708 58.9902 47.4572 56.4766 44.3565 56.4766C41.2558 56.4766 38.7422 58.9902 38.7422 62.0909C38.7422 65.1916 41.2558 67.7052 44.3565 67.7052Z" stroke="#22282E" stroke-width="2" stroke-linecap="round" stroke-linejoin="round"/>
<path d="M33.7695 49.4894C35.1631 48.0587 36.8292 46.9216 38.6693 46.1452C40.5095 45.3687 42.4865 44.9688 44.4838 44.9688C46.4811 44.9688 48.4581 45.3687 50.2983 46.1452C52.1384 46.9216 53.8045 48.0587 55.1981 49.4894" stroke="#22282E" stroke-width="2" stroke-linecap="round" stroke-linejoin="round"/>
<path d="M24.4727 42.2407C27.0814 39.6167 30.1832 37.5344 33.5996 36.1134C37.016 34.6925 40.6796 33.9609 44.3798 33.9609C48.0799 33.9609 51.7436 34.6925 55.16 36.1134C58.5763 37.5344 61.6783 39.6167 64.287 42.2407" stroke="#22282E" stroke-width="2" stroke-linecap="round" stroke-linejoin="round"/>
<path d="M16.5 34.2735C20.1576 30.614 24.5003 27.7111 29.2802 25.7305C34.06 23.7499 39.1832 22.7305 44.3571 22.7305C49.5311 22.7305 54.6543 23.7499 59.4343 25.7305C64.2141 27.7111 68.5569 30.614 72.2143 34.2735" stroke="#22282E" stroke-width="2" stroke-linecap="round" stroke-linejoin="round"/>
</svg>
