<svg width="634" height="634" viewBox="0 0 634 634" fill="none" xmlns="http://www.w3.org/2000/svg">
<path d="M333.289 606.642C322.797 610.691 311.175 610.691 300.683 606.642C218.891 575.11 148.557 519.558 98.929 447.298C49.3004 375.038 22.7015 289.45 22.6289 201.79V69.5553C22.6289 57.5446 27.4001 46.0262 35.8928 37.5334C44.3855 29.0407 55.9039 24.2695 67.9146 24.2695H566.057C578.067 24.2695 589.588 29.0407 598.079 37.5334C606.57 46.0262 611.343 57.5446 611.343 69.5553V201.79C611.271 289.45 584.67 375.038 535.041 447.298C485.417 519.558 415.081 575.11 333.289 606.642Z" stroke="#01CA9A" stroke-width="2" stroke-linecap="round" stroke-linejoin="round"/>
<path d="M407.563 316.795V226.224C407.563 176.203 367.013 135.652 316.991 135.652C266.97 135.652 226.42 176.203 226.42 226.224V316.795C226.42 366.816 266.97 407.367 316.991 407.367C367.013 407.367 407.563 366.816 407.563 316.795Z" stroke="#01CA9A" stroke-width="2" stroke-linecap="round" stroke-linejoin="round"/>
<path d="M158.5 271.492H226.429" stroke="#01CA9A" stroke-width="2" stroke-linecap="round" stroke-linejoin="round"/>
<path d="M407.58 271.492H475.509" stroke="#01CA9A" stroke-width="2" stroke-linecap="round" stroke-linejoin="round"/>
<path d="M226.42 248.895H407.563" stroke="#01CA9A" stroke-width="2" stroke-linecap="round" stroke-linejoin="round"/>
<path d="M399.066 189.429L452.843 135.652" stroke="#01CA9A" stroke-width="2" stroke-linecap="round" stroke-linejoin="round"/>
<path d="M399.066 353.59L452.843 407.367" stroke="#01CA9A" stroke-width="2" stroke-linecap="round" stroke-linejoin="round"/>
<path d="M234.906 353.59L181.129 407.367" stroke="#01CA9A" stroke-width="2" stroke-linecap="round" stroke-linejoin="round"/>
<path d="M234.906 189.429L181.129 135.652" stroke="#01CA9A" stroke-width="2" stroke-linecap="round" stroke-linejoin="round"/>
</svg>
