<svg width="115" height="65" viewBox="0 0 115 65" fill="none" xmlns="http://www.w3.org/2000/svg">
<path fill-rule="evenodd" clip-rule="evenodd" d="M39.9041 26.9071L36.7112 23.8085L51.7461 21.6327L58.7046 9.15294L65.6614 21.6327L80.6993 23.8085L77.5051 26.9071H83.4266L89.671 20.8477L68.2725 17.7514L58.7046 0L49.134 17.7514L27.7367 20.8477L33.9807 26.9071H39.9041Z" fill="#22282E"/>
<path fill-rule="evenodd" clip-rule="evenodd" d="M71.1199 41.8152L71.9359 48.5237L58.7046 42.3664L45.4711 48.5237L46.287 41.8152H42.1974L40.0858 56.0622L58.7046 47.0801L77.3236 56.0622L75.2096 41.8152H71.1199Z" fill="#22282E"/>
<path fill-rule="evenodd" clip-rule="evenodd" d="M29.8761 37.2722C29.8761 38.0295 29.8453 38.5094 29.781 38.7103C29.7184 38.9106 29.5731 39.0105 29.3458 39.0105C29.1247 39.0105 28.983 38.9224 28.922 38.7494C28.8616 38.5722 28.83 38.1136 28.83 37.3681L28.8301 31.3621C28.8301 30.699 28.876 30.3028 28.9688 30.167C29.0624 30.0326 29.1945 29.9655 29.3693 29.9655C29.5761 29.9652 29.7113 30.0484 29.7786 30.2141C29.845 30.3811 29.8761 30.7621 29.8761 31.3625V37.2722ZM33.1186 30.6072C33.0545 30.0779 32.8561 29.5887 32.523 29.138C32.1911 28.6876 31.7506 28.3511 31.2046 28.1266C30.6583 27.8996 30.0406 27.7887 29.353 27.7887C28.6302 27.7886 27.9956 27.9081 27.4523 28.1455C26.9068 28.383 26.4767 28.7251 26.1564 29.1698C25.8366 29.6154 25.6467 30.1059 25.5858 30.6442C25.524 31.1798 25.4936 32.0964 25.4936 33.3877L25.4937 35.5885C25.4937 36.9122 25.526 37.8385 25.5903 38.3707C25.6535 38.8981 25.8516 39.3881 26.1831 39.8373C26.5177 40.2886 26.9565 40.6272 27.5029 40.851C28.0509 41.0761 28.6663 41.1896 29.353 41.1896C30.0775 41.1893 30.712 41.0704 31.2559 40.8297C31.7989 40.5931 32.231 40.2504 32.5515 39.8048C32.871 39.3624 33.0612 38.8685 33.1215 38.3328C33.1827 37.7953 33.2128 36.8804 33.2128 35.5886L33.2129 33.3878C33.2129 32.0654 33.1813 31.1363 33.1186 30.6072ZM13.4403 32.8684C13.3504 33.0275 13.1428 33.1084 12.8152 33.1084C12.7356 33.1083 12.6242 33.1106 12.4821 33.1169L12.4822 30.2575C12.8254 30.2639 13.0571 30.2876 13.1756 30.3288C13.2944 30.3703 13.3913 30.4721 13.4637 30.6356C13.5374 30.7971 13.575 31.0794 13.575 31.4824C13.575 32.244 13.5306 32.7049 13.4403 32.8684ZM13.5752 37.5187C13.5752 38.0382 13.5106 38.3625 13.3819 38.4946C13.2517 38.6285 12.9514 38.7018 12.4822 38.7178L12.4823 35.119C12.9787 35.136 13.2845 35.2002 13.4016 35.3174C13.5169 35.4327 13.5752 35.7669 13.5752 36.3179V37.5187ZM14.9301 33.9718C15.6234 33.8125 16.0857 33.5838 16.322 33.2892C16.5569 32.9915 16.6745 32.4685 16.6745 31.7173C16.6747 30.6059 16.5078 29.8004 16.176 29.2997C15.842 28.7998 15.4044 28.4681 14.8629 28.3043C14.3223 28.1396 13.5256 28.0582 12.4747 28.0582L9.14588 28.0581V40.9185H13.0043C14.3469 40.9185 15.2333 40.8409 15.6672 40.6882C16.1006 40.5346 16.4164 40.2486 16.6141 39.8287C16.8124 39.4092 16.9113 38.7674 16.9113 37.8989L16.9115 36.705C16.9115 35.8681 16.7755 35.2457 16.4993 34.8405C16.2248 34.4347 15.7013 34.1467 14.9301 33.9718ZM26.182 28.0582L24.8292 30.632H22.8481V40.9186H19.5126V35.3578H22.1404C22.261 35.3578 22.3598 35.2604 22.3598 35.1396V34.4743C22.3598 34.351 22.2608 34.252 22.1404 34.252L19.5126 34.2517V34.0334H22.1404C22.261 34.0334 22.3598 33.9338 22.3598 33.8133V33.147C22.3598 33.0252 22.2608 32.928 22.1404 32.928L19.5126 32.9279V32.707H22.1404C22.261 32.707 22.3598 32.608 22.3598 32.4868V31.8209C22.3598 31.6994 22.2608 31.6011 22.1404 31.6011L19.5126 31.6008V30.6324H17.538L16.1846 28.0586H26.182V28.0582ZM3.75506 36.3254C3.84118 35.1862 4.05615 33.3876 4.39449 30.9263C4.56606 33.0706 4.73376 34.8701 4.90266 36.3257L3.75506 36.3254ZM1.84962 28.0582L0.147241 40.9186H3.59607L3.79738 38.6064H4.99132L5.16906 40.9186H8.57932L6.6704 28.0582H1.84962Z" fill="#22282E"/>
<path fill-rule="evenodd" clip-rule="evenodd" d="M98.0249 28.0582L99.3789 30.632H101.35V31.6004H103.979C104.101 31.6004 104.199 31.6992 104.199 31.8204V32.4864C104.199 32.6072 104.101 32.7067 103.979 32.7067L101.35 32.7066V32.9275H103.979C104.101 32.9275 104.199 33.0248 104.199 33.1466V33.8124C104.199 33.9334 104.101 34.033 103.979 34.033H101.35V34.2513H103.979C104.101 34.2513 104.199 34.351 104.199 34.4741V35.139C104.199 35.2595 104.101 35.3574 103.979 35.3574H101.35V40.9182H104.687V30.6316H106.667L108.02 28.0578H98.0247L98.0249 28.0582ZM114.853 40.9266H112.064V35.0735L110.328 40.9266H107.403V30.6035L108.756 28.0582H110.193V33.8645L112.064 28.0582H114.853V40.9266ZM98.5921 40.9266H95.8028V35.0735L94.0667 40.9266H91.1418V28.0582H93.9326V33.8645L95.8028 28.0582H97.2396L98.592 30.6879L98.5921 40.9266ZM89.9464 33.6671H86.6101V31.4308C86.6101 30.782 86.5743 30.3768 86.5025 30.214C86.4311 30.0542 86.2734 29.9735 86.0296 29.9735C85.7576 29.9735 85.5825 30.0705 85.5066 30.2663C85.434 30.4634 85.3962 30.8882 85.3962 31.5381L85.3963 37.5125C85.3963 38.1349 85.4337 38.5452 85.5066 38.7336C85.5825 38.9248 85.7474 39.0218 86.0071 39.0218C86.2565 39.0218 86.4172 38.9248 86.4949 38.7336C86.5717 38.5418 86.6101 38.093 86.6101 37.3879V35.7729H89.9464V36.2737C89.9464 37.6039 89.8516 38.5468 89.6634 39.1035C89.476 39.6616 89.0615 40.1511 88.4204 40.5689C87.7787 40.9881 86.9867 41.1976 86.0465 41.1976C85.0694 41.1976 84.2635 41.0205 83.6295 40.6657C82.9965 40.3099 82.5757 39.8192 82.3695 39.1909C82.1639 38.5646 82.0607 37.6202 82.0607 36.3597L82.0608 32.6023C82.0608 31.6751 82.0922 30.9809 82.1564 30.5163C82.2185 30.0542 82.4082 29.6079 82.7219 29.1787C83.0375 28.7503 83.4712 28.4125 84.0307 28.1662C84.5871 27.9201 85.2296 27.7977 85.9519 27.7977C86.9338 27.7977 87.7447 27.9869 88.3852 28.3683C89.0245 28.7493 89.4439 29.2235 89.6448 29.7919C89.8462 30.3598 89.9463 31.2463 89.9463 32.4446L89.9464 33.6671Z" fill="#22282E"/>
<path fill-rule="evenodd" clip-rule="evenodd" d="M60.3839 36.3255C60.4718 35.1864 60.6857 33.3877 61.0236 30.9264C61.1949 33.0708 61.3638 34.8703 61.5326 36.3258L60.3839 36.3255ZM58.48 28.0583L56.7774 40.9187H60.2265L60.4272 38.6065H61.6207L61.8002 40.9187H65.2103L63.3019 28.0583H58.48ZM72.0938 28.0583L73.4471 30.6248V40.9186H70.1112V35.5165H69.112V40.9186H65.7761V28.0582H69.112V32.6577H70.1112V28.0582L72.0938 28.0583ZM53.786 33.727C53.786 34.2028 53.727 34.516 53.6072 34.6687C53.4898 34.8188 53.2767 34.8917 52.9694 34.8917C52.9012 34.8916 52.8198 34.8902 52.7241 34.8866V30.2578C53.1573 30.2578 53.4427 30.3257 53.5794 30.4568C53.7181 30.5889 53.7859 30.8747 53.7859 31.3139L53.786 33.727ZM55.9457 28.892C55.7 28.6216 55.3328 28.4139 54.8432 28.2738C54.3551 28.1297 53.6552 28.0585 52.747 28.0585L49.3874 28.0583V40.9187H52.7241V37.0937H53.619C54.348 37.0937 54.9384 36.994 55.391 36.7916C55.8417 36.5906 56.1529 36.3021 56.3218 35.9264C56.4904 35.5511 56.5751 34.9528 56.5751 34.1328L56.5752 31.6568C56.5752 30.8518 56.5313 30.2579 56.4439 29.8718C56.3579 29.4876 56.1907 29.1619 55.9457 28.892ZM82.8587 28.0582L81.5064 30.632H79.5248V40.9186H76.1902V35.3578H78.7328C78.8554 35.3578 78.9526 35.2604 78.9526 35.1396L78.9529 34.4743C78.9529 34.351 78.8551 34.252 78.7325 34.252L76.1902 34.2517V34.0334H78.7328C78.8554 34.0334 78.9526 33.9338 78.9526 33.8133L78.9529 33.147C78.9529 33.0252 78.8551 32.928 78.7325 32.928L76.1902 32.9279V32.707H78.7328C78.8554 32.707 78.9526 32.608 78.9526 32.4868L78.9529 31.8209C78.9529 31.6994 78.8551 31.6011 78.7325 31.6011L76.1902 31.6008V30.6324H74.2159L72.8631 28.0586H82.8588L82.8587 28.0582ZM40.8525 30.6225H37.8015V40.9185H34.458V28.0506H41.2317L40.8525 30.6225ZM43.997 36.3254C44.0829 35.1862 44.2976 33.3876 44.6366 30.9263C44.8059 33.0706 44.9756 34.8701 45.1443 36.3257L43.997 36.3254ZM42.0906 28.0582L40.3886 40.9186H43.8387L44.0396 38.6064H45.2322L45.4114 40.9186H48.8214L46.9146 28.0582H42.0906Z" fill="#22282E"/>
<path fill-rule="evenodd" clip-rule="evenodd" d="M108.387 43.7335L106.388 47.7914L101.921 48.4432L105.154 51.6016L104.39 56.0622L108.387 53.9553L112.383 56.0622L111.619 51.6016L114.853 48.4432L110.384 47.7914L108.387 43.7335Z" fill="#22282E"/>
<path fill-rule="evenodd" clip-rule="evenodd" d="M89.4032 43.7335L87.4048 47.7914L82.9365 48.4432L86.1696 51.6016L85.4057 56.0622L89.4032 53.9553L93.3995 56.0622L92.6359 51.6016L95.8691 48.4432L91.4011 47.7914L89.4032 43.7335Z" fill="#22282E"/>
<path fill-rule="evenodd" clip-rule="evenodd" d="M25.5971 43.7335L23.5986 47.7914L19.131 48.4432L22.3638 51.6016L21.6009 56.0622L25.5971 53.9553L29.5933 56.0622L28.83 51.6016L32.0635 48.4432L27.5949 47.7914L25.5971 43.7335Z" fill="#22282E"/>
<path fill-rule="evenodd" clip-rule="evenodd" d="M6.6128 43.7335L4.61522 47.7914L0.146973 48.4432L3.38016 51.6016L2.6167 56.0622L6.6128 53.9553L10.6097 56.0622L9.84679 51.6016L13.0798 48.4432L8.61133 47.7914L6.6128 43.7335Z" fill="#22282E"/>
<path fill-rule="evenodd" clip-rule="evenodd" d="M41.7883 64.9857C41.4094 64.9857 41.0865 64.946 40.8214 64.8677C40.5551 64.7884 40.3053 64.691 40.0715 64.5767L40.0716 63.7013H40.1208C40.3498 63.9166 40.609 64.0837 40.8994 64.2016C41.1885 64.3208 41.4681 64.3796 41.7368 64.3796C42.1194 64.3796 42.4099 64.2988 42.6067 64.139C42.8024 63.978 42.9006 63.7675 42.9006 63.5055C42.9007 63.296 42.849 63.1267 42.7469 62.9956C42.6439 62.8644 42.4805 62.7669 42.2575 62.7045C42.0956 62.6576 41.948 62.6179 41.8147 62.5881C41.6816 62.558 41.5136 62.5158 41.312 62.4642C41.1322 62.4171 40.9701 62.3583 40.8273 62.2849C40.6845 62.2128 40.5585 62.1177 40.4483 62C40.3403 61.8847 40.2562 61.7497 40.1974 61.5935C40.1376 61.4371 40.1074 61.2566 40.1074 61.0524C40.1075 60.6279 40.2729 60.2719 40.603 59.9843C40.9342 59.6969 41.3553 59.5526 41.8688 59.5526C42.1618 59.5526 42.4387 59.5817 42.7002 59.6405C42.962 59.6993 43.2029 59.7836 43.426 59.8919L43.4261 60.7289H43.3734C43.2078 60.5761 42.9941 60.4427 42.7337 60.3296C42.4748 60.2154 42.2022 60.1587 41.9166 60.1587C41.5926 60.1587 41.3323 60.2345 41.1331 60.385C40.9341 60.5364 40.8343 60.7351 40.8343 60.9814C40.8343 61.2025 40.8931 61.3795 41.0095 61.5118C41.1259 61.6426 41.295 61.738 41.5158 61.7992C41.6634 61.8389 41.8444 61.8847 42.0569 61.935C42.2706 61.9855 42.4469 62.0312 42.5873 62.0745C42.9485 62.1839 43.2122 62.3511 43.3778 62.5738C43.5447 62.7973 43.6275 63.0717 43.6275 63.3974C43.6275 63.6019 43.5854 63.8039 43.5028 64.0036C43.4199 64.203 43.3035 64.3728 43.1536 64.5111C42.9858 64.6638 42.7948 64.7805 42.5825 64.8632C42.3714 64.9452 42.106 64.9861 41.7882 64.9861L41.7883 64.9857ZM46.1701 64.8919H44.1327V64.358H44.8021V60.1804H44.1327V59.6463H46.1701V60.1804H45.5006V64.358H46.1701V64.8919ZM50.7629 64.8919H49.9853L47.6747 60.3693V64.8919H47.0269V59.6463H48.012L50.115 63.8V59.6463H50.7629V64.8919ZM53.875 64.9857C53.5333 64.9857 53.2174 64.9279 52.9307 64.8137C52.6441 64.6984 52.3956 64.5262 52.1868 64.2988C51.978 64.0717 51.8159 63.7866 51.702 63.4463C51.5871 63.1059 51.5293 62.7151 51.5293 62.2739C51.5295 61.8347 51.5843 61.4523 51.696 61.1264C51.8077 60.8008 51.9694 60.5158 52.183 60.274C52.3918 60.0394 52.6388 59.8603 52.9256 59.7376C53.2114 59.6137 53.5315 59.5524 53.8855 59.5524C54.061 59.5524 54.2263 59.5658 54.3799 59.591C54.5335 59.6173 54.675 59.6499 54.807 59.6894C54.9189 59.7242 55.0352 59.7688 55.1525 59.8216C55.2713 59.8745 55.3877 59.9322 55.5029 59.996L55.503 60.8366H55.4467C55.3855 60.7813 55.3075 60.714 55.2114 60.6358C55.1158 60.5577 54.9978 60.4807 54.8598 60.4038C54.7271 60.3328 54.5815 60.274 54.4244 60.2282C54.2674 60.1812 54.0861 60.1583 53.8797 60.1583C53.6581 60.1583 53.4466 60.2041 53.2475 60.2955C53.0484 60.387 52.8731 60.5217 52.7244 60.6984C52.5771 60.8764 52.4616 61.1001 52.3802 61.3694C52.2973 61.6374 52.2566 61.9405 52.2566 62.2773C52.2567 62.6355 52.2996 62.9435 52.3859 63.202C52.4739 63.4605 52.591 63.6784 52.7412 63.8563C52.8866 64.0295 53.0579 64.1606 53.2547 64.2483C53.4518 64.3362 53.6603 64.3794 53.8798 64.3794C54.0818 64.3794 54.2674 64.3555 54.439 64.3061C54.6096 64.2568 54.7616 64.1942 54.8948 64.1197C55.0246 64.0465 55.1347 63.9717 55.2295 63.8962C55.3233 63.8204 55.3963 63.7553 55.4504 63.7013H55.5031V64.5335C55.3879 64.5876 55.28 64.6392 55.1779 64.6897C55.076 64.7391 54.9524 64.7872 54.8072 64.834C54.6548 64.8833 54.5133 64.9206 54.3823 64.947C54.2531 64.9721 54.0835 64.9857 53.875 64.9857ZM56.1558 64.8919V59.6463H59.4312V60.2669H56.8543V61.7027H59.2586V62.3232H56.8543V64.2714H59.4312V64.892L56.1558 64.8919ZM65.5176 64.8919H62.2924V64.1524C62.5242 63.931 62.7435 63.7207 62.9501 63.5186C63.1565 63.3168 63.3579 63.1062 63.5548 62.8875C63.9533 62.4486 64.2253 62.0972 64.3708 61.8326C64.5161 61.5693 64.589 61.2964 64.589 61.0138C64.5892 60.8682 64.5662 60.7407 64.5205 60.6302C64.4751 60.5196 64.4114 60.4281 64.3322 60.3562C64.2506 60.2852 64.1546 60.2323 64.0466 60.1972C63.9388 60.1625 63.821 60.1443 63.6914 60.1443C63.5678 60.1443 63.4418 60.1601 63.3136 60.1925C63.1853 60.224 63.0627 60.2633 62.9465 60.3105C62.847 60.35 62.7521 60.3982 62.661 60.4547C62.57 60.5113 62.4954 60.5595 62.4391 60.599H62.4007V59.8544C62.546 59.7811 62.7474 59.7115 63.0066 59.6416C63.2656 59.5733 63.5105 59.5383 63.7419 59.5383C64.2292 59.5383 64.6105 59.6681 64.8878 59.9269C65.1641 60.1865 65.3018 60.5375 65.3018 60.9814C65.3018 61.1856 65.2778 61.3746 65.2297 61.5478C65.1818 61.721 65.1159 61.8823 65.0318 62.0301C64.9453 62.1828 64.8409 62.3343 64.7188 62.4846C64.5977 62.6335 64.4691 62.7817 64.3337 62.9271C64.1129 63.1664 63.8681 63.4152 63.5982 63.6739C63.3273 63.9311 63.1112 64.1358 62.9504 64.286H65.5179V64.8922L65.5176 64.8919ZM69.483 62.2655C69.483 63.2071 69.346 63.8986 69.0737 64.3398C68.8002 64.7802 68.379 65 67.809 65C67.232 65 66.8096 64.7752 66.5396 64.3265C66.2698 63.8781 66.1352 63.1938 66.1352 62.2726C66.1353 61.3263 66.2721 60.6335 66.5444 60.196C66.8181 59.757 67.239 59.538 67.809 59.538C68.3862 59.538 68.8085 59.7653 69.0784 60.2187C69.3484 60.6718 69.4828 61.354 69.483 62.2655ZM68.5834 63.8636C68.6517 63.6891 68.6993 63.4703 68.7281 63.2045C68.7561 62.94 68.7701 62.6274 68.7701 62.2655C68.7705 61.9072 68.7556 61.5944 68.7281 61.3299C68.6993 61.0642 68.6502 60.8441 68.5805 60.6685C68.5099 60.4893 68.4127 60.3545 68.2903 60.262C68.1668 60.1693 68.0059 60.1226 67.8092 60.1226C67.6147 60.1226 67.454 60.1693 67.3293 60.262C67.2032 60.3545 67.1036 60.4917 67.0316 60.6744C66.9611 60.8537 66.9128 61.0785 66.8865 61.3503C66.8617 61.6234 66.8481 61.9298 66.8481 62.2726C66.8484 62.6381 66.8589 62.9448 66.8816 63.1913C66.9033 63.4368 66.9525 63.6579 67.028 63.8528C67.0953 64.0332 67.1924 64.1727 67.3183 64.27C67.4432 64.3673 67.6075 64.4153 67.809 64.4153C68.0037 64.4153 68.1641 64.3686 68.2901 64.2759C68.4151 64.1835 68.5134 64.0465 68.5834 63.8636ZM73.4122 62.2655C73.4122 63.2071 73.2753 63.8986 73.0028 64.3398C72.7297 64.7802 72.3081 65 71.7383 65C71.1613 65 70.7388 64.7752 70.469 64.3265C70.1991 63.8781 70.0645 63.1938 70.0645 62.2726C70.0645 61.3263 70.2013 60.6335 70.4736 60.196C70.7473 59.757 71.1684 59.538 71.7383 59.538C72.3153 59.538 72.7376 59.7653 73.0077 60.2187C73.2777 60.6718 73.4122 61.354 73.4122 62.2655ZM72.5122 63.8636C72.5809 63.6891 72.6285 63.4703 72.6574 63.2045C72.6853 62.94 72.6993 62.6274 72.6993 62.2655C72.6996 61.9072 72.6849 61.5944 72.6574 61.3299C72.6286 61.0642 72.5795 60.8441 72.5099 60.6685C72.4392 60.4893 72.342 60.3545 72.2196 60.262C72.0959 60.1693 71.9352 60.1226 71.7384 60.1226C71.544 60.1226 71.3832 60.1693 71.2584 60.262C71.1325 60.3545 71.0328 60.4917 70.9609 60.6744C70.8903 60.8537 70.842 61.0785 70.8157 61.3503C70.7908 61.6234 70.7774 61.9298 70.7774 62.2726C70.7775 62.6381 70.7881 62.9448 70.8109 63.1913C70.8326 63.4368 70.8818 63.6579 70.9573 63.8528C71.0249 64.0332 71.1216 64.1727 71.2477 64.27C71.3725 64.3673 71.5367 64.4153 71.7383 64.4153C71.9328 64.4153 72.0935 64.3686 72.2194 64.2759C72.3442 64.1835 72.4426 64.0465 72.5122 63.8636ZM77.3053 64.8918H74.0805V64.1523C74.3122 63.9309 74.5315 63.7206 74.7378 63.5185C74.9446 63.3166 75.1457 63.1061 75.3425 62.8874C75.741 62.4484 76.0131 62.0971 76.1585 61.8324C76.3038 61.5691 76.3768 61.2963 76.3768 61.0137C76.3769 60.8681 76.354 60.7406 76.3083 60.6301C76.2628 60.5194 76.1992 60.4279 76.1199 60.356C76.0383 60.285 75.9424 60.2321 75.8343 60.197C75.7265 60.1623 75.6088 60.1441 75.4793 60.1441C75.3559 60.1441 75.2297 60.1599 75.1013 60.1923C74.973 60.2238 74.8505 60.2632 74.7343 60.3103C74.6345 60.3499 74.5399 60.3981 74.4487 60.4546C74.3576 60.5111 74.283 60.5593 74.2268 60.5988H74.1886V59.8543C74.3335 59.781 74.535 59.7114 74.7943 59.6414C75.0537 59.5731 75.2982 59.5382 75.5297 59.5382C76.0173 59.5382 76.3984 59.668 76.6755 59.9267C76.9517 60.1863 77.0895 60.5374 77.0895 60.9813C77.0899 61.1855 77.0655 61.3745 77.0176 61.5477C76.9697 61.7209 76.9036 61.8821 76.8196 62.03C76.7333 62.1827 76.6287 62.3342 76.5064 62.4845C76.3854 62.6334 76.2569 62.7815 76.1214 62.927C75.901 63.1662 75.6559 63.4151 75.3859 63.6737C75.1149 63.931 74.8989 64.1357 74.738 64.2858H77.3055V64.892L77.3053 64.8918Z" fill="#22282E"/>
</svg>
