<svg width="104" height="54" viewBox="0 0 104 54" fill="none" xmlns="http://www.w3.org/2000/svg">
<path d="M0 17.7655L17.7655 0H35.5304L17.7655 17.7655H0Z" fill="#22282E"/>
<path d="M1.38973e-07 35.5305L17.7655 17.7655L35.5304 17.7655L17.7655 35.5305H1.38973e-07Z" fill="#22282E"/>
<path d="M58.0406 30.4289C58.8956 31.3277 59.9395 31.7757 61.1767 31.7757C62.4101 31.7757 63.4568 31.3277 64.3113 30.4289C65.1674 29.5318 65.5954 28.2719 65.5954 26.645C65.5954 25.0219 65.1674 23.7599 64.3113 22.8611C63.4568 21.964 62.4101 21.517 61.1767 21.517C59.9395 21.517 58.8956 21.964 58.0406 22.8611C57.1861 23.7599 56.758 25.0224 56.758 26.645C56.758 28.2719 57.1861 29.5313 58.0406 30.4289ZM65.4033 35.253C64.1607 35.7782 62.7497 36.0411 61.1767 36.0411C59.6033 36.0411 58.1923 35.7782 56.9502 35.253C55.7049 34.7305 54.7058 34.0169 53.9528 33.1225C53.1998 32.2248 52.6249 31.2251 52.2265 30.124C51.8276 29.0239 51.629 27.8655 51.629 26.645C51.629 25.4278 51.8276 24.2689 52.2265 23.1688C52.6249 22.0676 53.1998 21.0674 53.9528 20.1714C54.7058 19.2759 55.7049 18.5633 56.9502 18.0365C58.1928 17.514 59.6033 17.25 61.1767 17.25C62.7497 17.25 64.1607 17.514 65.4033 18.0365C66.6469 18.5633 67.6472 19.2753 68.4007 20.1714C69.1526 21.0674 69.7286 22.0676 70.1259 23.1688C70.5231 24.2689 70.7234 25.4273 70.7234 26.645C70.7234 27.8649 70.5231 29.0233 70.1259 30.124C69.7286 31.2251 69.1526 32.2248 68.4007 33.1225C67.6477 34.0169 66.6475 34.7305 65.4033 35.253Z" fill="#22282E"/>
<path d="M75.0897 17.7585H88.5979V35.5321H83.6205V22.0239H80.066V29.032C80.066 29.6932 80.045 30.2611 80.0034 30.7334C79.9597 31.2078 79.8166 31.7881 79.5705 32.4736C79.3265 33.1602 78.9919 33.7173 78.5687 34.1497C78.1444 34.5804 77.5101 34.9594 76.6648 35.2789C75.8185 35.6017 74.802 35.7631 73.6183 35.7631C72.8221 35.7631 72.1263 35.6854 71.5342 35.5326V31.2683C71.9752 31.3854 72.3395 31.447 72.6278 31.447C73.642 31.447 74.3065 31.1452 74.6212 30.5439C74.9343 29.9442 75.0903 28.9494 75.0903 27.56L75.0897 17.7585Z" fill="#22282E"/>
<path d="M94.284 35.5321V22.0239H90.3733V17.7591H103.171V22.0239H99.2587V35.5321H94.284Z" fill="#22282E"/>
<path d="M44.4935 31.5463C44.0725 31.8345 43.4539 31.9781 42.6405 31.9781H40.5094V28.245H42.6405C43.4696 28.245 44.0925 28.3864 44.507 28.6649C44.92 28.9434 45.1294 29.4222 45.1294 30.098C45.1294 30.7771 44.9173 31.2586 44.4935 31.5463ZM49.7764 28.0436C49.5562 27.452 49.2885 26.9727 48.9754 26.6089C48.6634 26.2434 48.2623 25.9298 47.77 25.6675C47.2794 25.4062 46.8395 25.2157 46.4503 25.0969C46.0622 24.9782 45.6033 24.8848 45.0781 24.8178C44.554 24.7498 44.1778 24.7115 43.95 24.7034C43.7206 24.6937 43.4447 24.6899 43.1246 24.6899H40.5099V22.0228H44.4007L48.6596 17.7655V17.7574H35.532V35.5305H43.1252C43.4453 35.5305 43.7157 35.5261 43.9359 35.5197C44.1562 35.5116 44.5335 35.4716 45.0679 35.4036C45.5985 35.3367 46.0573 35.2395 46.4373 35.1116C46.8173 34.9847 47.2551 34.7861 47.7452 34.5173C48.2359 34.2452 48.6413 33.9241 48.9651 33.5521C49.2863 33.1797 49.5567 32.6869 49.777 32.0774C49.9956 31.468 50.1068 30.783 50.1068 30.0214C50.1068 29.2948 49.9956 28.6341 49.7764 28.0436Z" fill="#22282E"/>
<path d="M26.6736 44.4191L17.78 53.3132L8.88381 44.4191L17.78 35.5256L26.6736 44.4191Z" fill="#22282E"/>
</svg>
