<svg width="131" height="46" viewBox="0 0 131 46" fill="none" xmlns="http://www.w3.org/2000/svg">
<path d="M38.7873 23.7814C40.6944 13.8778 34.4609 4.29363 24.7658 1.93416C17.836 3.63058 12.1724 9.20548 10.7376 16.6719C8.83054 26.5755 15.0663 36.1575 24.7591 38.5169C31.689 36.8205 37.3503 31.2456 38.7873 23.7814Z" fill="#22282E"/>
<path d="M20.2797 2.49077C11.8043 2.49077 4.49081 8.54244 2.88753 16.8782C1.04475 26.4779 7.35144 35.7938 16.9556 37.6388C18.0666 37.8517 19.1975 37.9581 20.3174 37.9581C28.7951 37.9581 36.113 31.9065 37.7118 23.5729C38.6077 18.9205 37.6386 14.1994 34.9798 10.2788C32.3232 6.35816 28.3028 3.70598 23.6482 2.81009C22.5372 2.59721 21.4018 2.48855 20.2797 2.48855V2.49077ZM20.3218 40.4484C19.0423 40.4484 17.7473 40.3265 16.4811 40.0825C5.53527 37.9781 -1.66287 27.3583 0.446016 16.4103C2.27327 6.90367 10.6157 0.00268555 20.2797 0.00268555C21.5592 0.00268555 22.8521 0.129085 24.1138 0.370797C29.4226 1.38865 34.0107 4.41559 37.0399 8.88616C40.069 13.3589 41.1778 18.7431 40.1555 24.0453C38.3283 33.5497 29.9837 40.4506 20.3218 40.4506V40.4484Z" fill="#22282E"/>
<path d="M71.9617 17.5035C71.9617 14.7671 70.3939 12.6094 66.0564 12.6094H62.7833V27.8129H66.0564C70.4605 27.8129 71.9617 25.5177 71.9617 22.6726V17.5035ZM65.4865 29.9683H61.7145C60.8474 29.9683 60.1134 29.3585 60.1134 28.64V11.78C60.1134 11.0593 60.8474 10.454 61.7145 10.454H65.4865C72.2921 10.454 74.6339 13.8002 74.6339 17.5035V22.6726C74.6339 26.4557 72.3321 29.9683 65.4865 29.9683Z" fill="#22282E"/>
<path d="M94.6339 26.4025L100.273 11.035C100.442 10.5382 101.074 10.2056 101.575 10.2056C102.378 10.2056 102.981 10.6491 102.981 11.3121C102.981 11.423 102.943 11.6426 102.912 11.729L96.399 28.7797C96.0664 29.6357 95.634 30.2455 94.6339 30.2455C93.6648 30.2455 93.1969 29.6113 92.8975 28.7797L86.3913 11.729C86.358 11.6426 86.3225 11.423 86.3225 11.3121C86.3225 10.6491 86.9545 10.2056 87.724 10.2056C88.1941 10.2056 88.7906 10.5382 88.9947 11.035L94.6339 26.4025Z" fill="#22282E"/>
<path d="M123.178 12.6382H118.639V19.2709H123.378C126.316 19.2709 127.917 18.1377 127.917 16.0089C127.917 14.379 127.05 12.6382 123.176 12.6382H123.178ZM125.413 21.26C125.413 21.26 129.381 26.6464 130.758 28.5291C130.926 28.7664 130.957 28.9948 130.922 29.1656C130.78 29.8774 130.064 30.2145 129.485 30.2145C129.019 30.2145 128.618 30.0215 128.387 29.6911L122.477 21.3997H118.639V29.0857C118.639 29.6933 118.005 30.2455 117.266 30.2455C116.57 30.2455 115.967 29.7177 115.967 29.0857V11.8089C115.967 11.0904 116.667 10.4828 117.503 10.4828H123.311C128.813 10.4828 130.587 13.2747 130.587 16.0089C130.587 18.9405 128.587 20.7345 125.413 21.26Z" fill="#22282E"/>
<path d="M60.9295 43.2935C60.9295 44.2737 61.3087 44.8879 62.4618 44.8879C62.9519 44.8879 63.3089 44.7682 63.6171 44.5664V42.6771H62.6237C62.4219 42.6771 62.2356 42.5285 62.2356 42.3444C62.2356 42.1626 62.4219 42.0118 62.6237 42.0118H63.8367C64.1648 42.0118 64.4199 42.1338 64.4199 42.4154V44.5132C64.4199 45.2228 63.3178 45.531 62.4108 45.531C60.8385 45.531 60.1134 44.6418 60.1134 43.2935V41.4153C60.1134 40.0626 60.8385 39.1778 62.4108 39.1778C63.3399 39.1778 64.2181 39.5171 64.2181 39.9317C64.2181 40.0981 64.0651 40.2378 63.8477 40.2378C63.7036 40.2378 63.6437 40.1757 63.4796 40.087C63.1758 39.9051 62.8587 39.8164 62.4596 39.8164C61.3087 39.8164 60.9272 40.4307 60.9272 41.4153V43.2935H60.9295Z" fill="#22282E"/>
<path d="M69.2541 39.9473H67.8637V42.0539H69.3162C70.2165 42.0539 70.7066 41.6947 70.7066 41.0161C70.7066 40.4994 70.4427 39.9473 69.2541 39.9473ZM69.9393 42.6837L71.5737 44.9944C71.6047 45.0476 71.6224 45.123 71.6224 45.1962C71.6224 45.378 71.3497 45.5288 71.1834 45.5288C71.0437 45.5288 70.9195 45.4645 70.8485 45.3603L69.039 42.7303H67.8637V45.1718C67.8637 45.3603 67.6708 45.5377 67.449 45.5377C67.2317 45.5377 67.0499 45.3692 67.0499 45.1718V39.6834C67.0499 39.455 67.2628 39.2643 67.5222 39.2643H69.2962C70.9816 39.2643 71.5227 40.1491 71.5227 41.0183C71.5227 41.9497 70.9084 42.5218 69.9393 42.6859V42.6837Z" fill="#22282E"/>
<path d="M74.8468 41.4153V43.2935C74.8468 44.216 75.3302 44.8547 76.3791 44.8547C77.4302 44.8547 77.9114 44.2138 77.9114 43.2935V41.4153C77.9114 40.4839 77.5011 39.8608 76.3791 39.8608C75.2592 39.8608 74.8468 40.4839 74.8468 41.4153ZM74.0329 43.2935V41.4153C74.0329 40.1934 74.696 39.1756 76.3813 39.1756C78.0666 39.1756 78.7297 40.1934 78.7297 41.4153V43.2935C78.7297 44.5376 77.9447 45.5399 76.3813 45.5399C74.8179 45.5399 74.0329 44.5398 74.0329 43.2935Z" fill="#22282E"/>
<path d="M83.5506 45.5377C82.1003 45.5377 81.2954 44.6418 81.2954 43.431V39.5437C81.2954 39.333 81.475 39.1778 81.7123 39.1778C81.9274 39.1778 82.1159 39.3441 82.1159 39.5437V43.431C82.1159 44.2759 82.5727 44.8547 83.5528 44.8547C84.533 44.8547 84.9809 44.2582 84.9809 43.431V39.5437C84.9809 39.3507 85.1583 39.1778 85.3801 39.1778C85.6284 39.1778 85.8103 39.3507 85.8103 39.5437V43.431C85.8103 44.6529 84.9765 45.5377 83.555 45.5377H83.5506Z" fill="#22282E"/>
<path d="M89.385 42.4841H90.5602C91.5293 42.4841 92.0416 42.0805 92.0416 41.2201C92.0416 40.5881 91.7666 39.9495 90.5602 39.9495H89.385V42.4841ZM89.385 43.1693V45.174C89.385 45.3625 89.2009 45.5399 88.9747 45.5399C88.7618 45.5399 88.5689 45.3714 88.5689 45.174V39.6834C88.5689 39.4572 88.7929 39.2643 89.059 39.2643H90.558C92.2522 39.2643 92.8554 40.2023 92.8554 41.229C92.8554 42.473 91.9573 43.1693 90.558 43.1693H89.3827H89.385Z" fill="#22282E"/>
</svg>
