<svg width="223" height="25" viewBox="0 0 223 25" fill="none" xmlns="http://www.w3.org/2000/svg">
<path d="M47.6627 15.8769C48.58 15.8769 49.2721 15.6877 49.729 15.3115C50.1873 14.9359 50.4185 14.4064 50.4185 13.7265C50.4185 13.0479 50.1873 12.5144 49.729 12.1293C49.2714 11.7429 48.58 11.549 47.6627 11.549H38.2071V15.8769H47.6627ZM38.2071 4.13459V8.18652H47.1922C48.0227 8.18652 48.6505 8.00416 49.0809 7.63469C49.5128 7.26794 49.729 6.78119 49.729 6.17445C49.729 5.54873 49.5128 5.05317 49.0809 4.68506C48.6505 4.3183 48.022 4.13459 47.1922 4.13459H38.2071ZM50.6124 9.81353C52.1194 9.94302 53.282 10.4148 54.0989 11.2317C54.9165 12.0507 55.3273 13.1211 55.3273 14.4437C55.3273 16.0985 54.7511 17.3798 53.6047 18.2889C52.4556 19.198 50.6496 19.6542 48.1861 19.6542H33.4379V0.358566H48.2681C50.4015 0.358566 51.9953 0.780233 53.0522 1.62628C54.1084 2.47165 54.6351 3.61055 54.6351 5.04368C54.6351 6.21987 54.2847 7.18862 53.5762 7.95332C52.8678 8.71327 51.8814 9.16002 50.6117 9.2895L50.6124 9.81353Z" fill="#22282E"/>
<path d="M72.0577 9.78438C73.1607 9.78438 73.9979 9.53626 74.5674 9.0407C75.1368 8.54514 75.4202 7.874 75.4202 7.02863C75.4202 6.18462 75.1362 5.51619 74.5674 5.02944C73.9979 4.5427 73.1607 4.29864 72.0577 4.29864H64.503V9.7837L72.0577 9.78438ZM72.2509 0.357888C74.9145 0.357888 76.9272 0.951069 78.2865 2.1354C79.6477 3.3204 80.3277 4.9508 80.3277 7.02863C80.3277 9.10578 79.6477 10.7402 78.2865 11.9354C76.9266 13.1299 74.9145 13.7272 72.2509 13.7272H64.7524V19.6536H59.8443V0.357888H72.2509Z" fill="#22282E"/>
<path d="M104.31 0.358566V4.21661H90.0586V8.13161H102.38V11.5782H90.0586V15.7942H104.31V19.6542H85.1504V0.358566H104.31Z" fill="#22282E"/>
<path d="M114.371 19.6536H109.465V0.357888H127.051V4.43626H114.371V19.6536Z" fill="#22282E"/>
<path d="M131.709 19.6536V0.357888H136.424V11.6588C136.424 12.7442 136.365 13.6628 136.245 14.4166C136.125 15.1698 135.946 15.9419 135.708 16.7324H136.176L146.485 0.357888H154.121V19.6536H149.406V8.35193C149.406 7.26794 149.467 6.348 149.586 5.59483C149.705 4.84166 149.884 4.06951 150.124 3.27905H149.655L139.345 19.6536H131.709Z" fill="#22282E"/>
<path d="M176.243 15.2288C177.428 14.7047 178.32 13.9888 178.916 13.0791C179.512 12.17 179.815 11.145 179.815 10.0047C179.815 8.86648 179.512 7.83943 178.916 6.93169C178.32 6.02056 177.428 5.30468 176.243 4.782C175.058 4.25797 173.611 3.99561 171.9 3.99561C170.191 3.99561 168.744 4.25797 167.56 4.782C166.375 5.30468 165.483 6.02056 164.885 6.93169C164.288 7.83943 163.989 8.86648 163.989 10.0047C163.989 11.145 164.288 12.17 164.885 13.0791C165.483 13.9882 166.375 14.7047 167.56 15.2288C168.744 15.7528 170.191 16.0145 171.9 16.0145C173.611 16.0145 175.057 15.7535 176.243 15.2288ZM164.914 18.7024C162.994 17.8306 161.542 16.6395 160.559 15.1318C159.575 13.6262 159.086 11.9171 159.086 10.0047C159.086 8.09432 159.575 6.38461 160.559 4.87691C161.542 3.37057 162.993 2.18082 164.914 1.30766C166.835 0.435171 169.163 -0.000732422 171.901 -0.000732422C174.639 -0.000732422 176.97 0.435171 178.89 1.30766C180.81 2.18082 182.262 3.36989 183.246 4.87691C184.229 6.38461 184.72 8.09432 184.72 10.0047C184.72 11.9164 184.228 13.6262 183.246 15.1318C182.262 16.6395 180.81 17.8306 178.89 18.7024C176.97 19.5756 174.639 20.0115 171.901 20.0115C169.164 20.0115 166.835 19.5756 164.914 18.7024Z" fill="#22282E"/>
<path d="M206.91 7.63469V0.35721H211.815V19.6536H206.91V11.7151H194.588V19.6536H189.682V0.35721H194.588V7.63469H206.91Z" fill="#22282E"/>
<path d="M5.31435 24.3393H0.423828L5.32249 0.357888H10.213L5.31435 24.3393Z" fill="#22282E"/>
<path d="M217.512 0.358566L216.482 5.42331H221.373L222.402 0.358566H217.512Z" fill="#22282E"/>
<path d="M29.4856 19.6529V15.5759H25.5774V0.35721H14.7361L13.9192 4.35423H20.8631V15.6559H11.6109L10.8177 19.5397V19.6529H29.4856Z" fill="#22282E"/>
</svg>
