<svg width="111" height="65" viewBox="0 0 111 65" fill="none" xmlns="http://www.w3.org/2000/svg">
<path fill-rule="evenodd" clip-rule="evenodd" d="M88.1683 29.7079V29.7092L88.2078 29.835C88.2272 29.8964 88.2467 29.9582 88.2656 30.0199C88.1952 30.0666 88.1192 30.1091 88.0432 30.1517C87.8762 30.2451 87.709 30.3388 87.5991 30.4771C87.5195 30.5776 87.439 30.678 87.3584 30.7785C86.9193 31.3259 86.4762 31.8783 86.1473 32.4887C85.4368 33.8058 85.6554 35.015 86.6899 36.0974C86.9699 36.3894 87.2818 36.6573 87.6097 36.892C88.8575 37.7865 90.2919 38.1771 91.793 38.2704C93.1754 38.3557 94.5365 38.1891 95.7576 37.4372C97.0894 36.616 97.5973 35.1736 96.8774 33.7925C96.4668 33.006 95.8496 32.3061 95.231 31.6569C94.9115 31.322 94.5228 31.0525 94.1023 30.7611C93.9052 30.6245 93.7012 30.4831 93.494 30.3278C93.69 30.2196 93.878 30.0959 94.0624 29.9745C94.4574 29.7144 94.8363 29.4649 95.2444 29.4013C97.3013 29.08 99.3756 28.8267 101.453 28.6814C103.344 28.5497 105.239 28.4791 107.135 28.4085C107.983 28.3769 108.832 28.3453 109.68 28.3082C109.747 28.3055 109.814 28.2935 109.88 28.2816C109.912 28.2759 109.943 28.2702 109.975 28.2655C109.978 28.2408 109.98 28.2165 109.982 28.1922C109.985 28.1679 109.987 28.1435 109.99 28.1189C108.364 27.68 106.738 27.2407 105.101 26.7983C103.695 26.4184 102.28 26.0362 100.85 25.65C100.907 25.59 100.961 25.5356 101.011 25.4845C101.107 25.3867 101.192 25.3006 101.27 25.2087C101.404 25.0516 101.543 24.8977 101.682 24.7437C102.01 24.3804 102.339 24.0162 102.599 23.609C104.372 20.8375 103.287 17.5514 100.179 16.4956C99.0104 16.0984 97.7359 15.8757 96.5001 15.8331C93.354 15.7224 90.2759 16.3197 87.2285 17.0475C86.6223 17.1923 86.0235 17.3662 85.4249 17.5401C85.1469 17.6208 84.8689 17.7016 84.5903 17.7794C84.5836 17.8194 84.5766 17.8597 84.5696 17.9L84.5691 17.9032L84.5689 17.9046L84.5686 17.9062C84.5619 17.9445 84.5553 17.9827 84.549 18.0207C84.7259 18.1234 84.9006 18.2313 85.0753 18.3393C85.4652 18.5803 85.8552 18.8213 86.2713 19.0045C88.6082 20.0337 91.0011 20.3083 93.502 19.5884C94.8391 19.2031 96.2255 19.0058 97.6199 19.3791C98.9424 19.7324 99.4823 21.0042 98.8051 22.1946C98.6531 22.4599 98.4665 22.7172 98.2518 22.9345L98.1621 23.0255C97.8525 23.34 97.5365 23.6611 97.1707 23.8956C95.9396 24.6874 94.6964 25.4598 93.453 26.2324C92.9986 26.5147 92.5442 26.7971 92.0903 27.0804L92.0646 27.0446L92.0171 26.9791L91.9903 26.9417C92.5715 26.4035 93.1533 25.8658 93.7353 25.3279L93.7388 25.3247L94.6445 24.4875C94.614 24.4305 94.5822 24.3749 94.5504 24.3192L94.5498 24.3182C86.9445 22.8145 79.2686 21.9107 71.5073 21.6414C77.8608 23.4464 84.137 25.446 90.212 28.1589C89.804 28.6254 89.4601 28.7201 88.9189 28.6028C87.4701 28.2883 86.0076 28.0312 84.5459 27.7743C84.1299 27.7012 83.714 27.6281 83.2985 27.5536C83.174 27.5318 83.0452 27.5379 82.9162 27.544C82.856 27.5468 82.7958 27.5496 82.736 27.5496L82.7403 27.5658L82.7449 27.5836L82.7453 27.585C82.7483 27.5966 82.7513 27.6083 82.7546 27.6203L88.1683 29.7079ZM93.2901 34.5204C93.0021 35.0323 92.5089 35.1629 92.2249 35.1763C90.9998 35.1789 90.3346 34.7257 90.172 33.9565C90.0467 33.3633 90.7852 31.9822 91.3557 31.7689C91.4437 31.7355 91.5997 31.7529 91.6637 31.8115C91.7689 31.9096 91.8756 32.0067 91.9823 32.1039C92.3585 32.4462 92.7358 32.7895 93.0514 33.182C93.3447 33.5472 93.57 34.0205 93.2901 34.5204Z" fill="#22282E"/>
<path d="M1.5938 35.7371C1.3005 36.9987 1.00635 38.2639 0.845215 39.561L0.847881 39.565C1.05906 39.565 1.26772 39.566 1.47442 39.567L1.47552 39.567C2.12052 39.5702 2.74645 39.5733 3.37009 39.545C3.49407 39.5397 3.67537 39.2904 3.7127 39.1264C4.00331 37.8706 4.2806 36.6109 4.52455 35.3458C4.59787 34.9685 4.75918 34.8632 5.11111 34.9258C5.72967 35.0352 6.24424 35.3191 6.59484 35.843C7.07742 36.5642 7.54401 37.2974 8.00126 38.036C8.75179 39.2477 9.76894 39.9703 11.2593 39.789C11.8912 39.7116 12.4898 39.529 12.8617 38.8665C11.8232 38.4265 11.19 37.6427 10.6594 36.7495C9.9649 35.5804 9.22637 34.4499 7.7693 33.9487C8.72251 33.1938 9.6579 32.4525 10.5845 31.7181L10.6314 31.6809C11.5511 30.952 12.4622 30.2299 13.3736 29.5082C12.3831 29.3788 11.458 29.3549 10.5355 29.3935C10.2595 29.4055 9.93424 29.5308 9.72761 29.7135C8.96299 30.3859 8.21399 31.0752 7.46478 31.7648C7.11951 32.0825 6.77378 32.4007 6.42687 32.7169C6.10871 33.0067 5.78643 33.2912 5.46393 33.5759L5.46317 33.5766C5.30087 33.7198 5.13838 33.8633 4.97647 34.0073L4.84183 33.9394L5.19384 32.2346C5.38502 31.3087 5.57698 30.3792 5.77099 29.4388H2.43959C2.55303 31.6114 2.07456 33.6693 1.5938 35.7371Z" fill="#22282E"/>
<path d="M40.9064 44.4759C41.1368 44.2688 41.3675 44.0617 41.5983 43.8547C42.0684 43.4328 42.5388 43.0108 43.0073 42.587C43.2804 42.3393 43.5519 42.0897 43.8234 41.8401C44.4344 41.2784 45.0454 40.7167 45.6748 40.1767C45.8988 39.9848 46.2401 39.8474 46.536 39.8341C47.4372 39.7901 48.3424 39.8181 49.3128 39.9568C47.4692 41.4192 45.6255 42.8816 43.7205 44.392C45.1669 44.8705 45.8961 45.997 46.5853 47.1448C47.1319 48.0553 47.7531 48.8698 48.9756 49.3524C48.8176 49.4549 48.6775 49.5558 48.5471 49.6496L48.5463 49.6502C48.2888 49.8356 48.0692 49.9936 47.8251 50.0829C46.4174 50.5948 45.0323 50.0696 44.1138 48.7019C43.8171 48.2597 43.5355 47.8069 43.2538 47.3541L43.2532 47.3532L43.2526 47.3523C43.0753 47.0673 42.8978 46.782 42.7167 46.4996C42.2355 45.7491 41.5569 45.3425 40.5918 45.3318C40.5064 45.7302 40.4192 46.127 40.3321 46.5231C40.1255 47.4628 39.9198 48.3985 39.7426 49.3391C39.6479 49.8456 39.46 50.0563 38.9214 50.0203C38.4274 49.9876 37.9302 49.9948 37.4302 50.0021C37.2163 50.0052 37.002 50.0083 36.7871 50.0083C36.9576 48.7234 37.249 47.4701 37.539 46.2228L37.5392 46.2218C38.0268 44.1243 38.5106 42.0435 38.4095 39.8568H41.7369C41.4143 41.4072 41.1023 42.9042 40.7904 44.4C40.829 44.4253 40.869 44.4506 40.9077 44.4746L40.9064 44.4759Z" fill="#22282E"/>
<path d="M64.7017 44.9226C64.4404 46.193 64.1778 47.4634 63.8925 48.8419C64.1021 48.8419 64.3014 48.8378 64.4935 48.8338C64.9112 48.8252 65.2946 48.8173 65.6735 48.8539C66.1828 48.9019 66.3494 48.6726 66.4321 48.2286C66.6062 47.2969 66.7996 46.3694 66.9931 45.4415L67.0613 45.1145C67.2084 44.4081 67.3597 43.7031 67.5111 42.9974C67.5683 42.731 67.6255 42.4645 67.6825 42.1977C65.5976 41.8791 63.9419 42.3857 62.8487 44.2347C62.6305 44.6032 62.3835 44.955 62.1196 45.3308C61.9949 45.5083 61.8665 45.6913 61.7356 45.8837C61.7067 45.8118 61.6819 45.7509 61.6601 45.6972C61.6156 45.5877 61.5834 45.5083 61.553 45.4278C61.4745 45.2174 61.3977 45.0064 61.3209 44.7954L61.3204 44.794C61.1469 44.3172 60.9731 43.8398 60.7811 43.3708C60.4332 42.523 59.7599 42.1484 58.8628 42.1377C58.7613 42.1364 58.6595 42.1381 58.5578 42.1398C58.3494 42.1433 58.1409 42.1468 57.9349 42.1244C57.507 42.0778 57.3604 42.2897 57.2911 42.6683C57.2098 43.1102 57.1139 43.5493 57.018 43.9885L57.0178 43.9896L57.0171 43.993C56.9654 44.2294 56.9138 44.4657 56.8645 44.7026C56.5818 46.053 56.3006 47.4035 56.002 48.8405C56.2003 48.8405 56.3912 48.8368 56.5767 48.8332C56.9883 48.8251 57.3732 48.8176 57.7536 48.8525C58.2789 48.9005 58.4588 48.6712 58.5482 48.2006C58.6999 47.4003 58.8717 46.6039 59.0546 45.7563L59.055 45.7542C59.1306 45.404 59.208 45.0449 59.2867 44.6733C59.3276 44.7647 59.3628 44.8378 59.3925 44.8994C59.4458 45.0102 59.4816 45.0846 59.5013 45.1625C59.5938 45.5302 59.6843 45.8984 59.7749 46.2667C59.9142 46.8331 60.0537 47.4002 60.1999 47.9647C60.2452 48.1393 60.3132 48.3726 60.4452 48.4486C60.9517 48.7419 62.0875 48.4073 62.4208 47.9087L62.5901 47.6546C62.8439 47.2732 63.0983 46.8911 63.3633 46.517C63.6441 46.1207 63.9317 45.7292 64.2193 45.3376L64.2215 45.3346C64.3386 45.1751 64.4557 45.0157 64.5724 44.8559L64.6043 44.8725L64.6661 44.904C64.6781 44.9102 64.6899 44.9163 64.7017 44.9226Z" fill="#22282E"/>
<path fill-rule="evenodd" clip-rule="evenodd" d="M75.3975 50.8321L75.3988 50.8307C76.4893 51.9116 78.1358 51.4981 78.5209 50.0989C78.6056 49.7912 78.675 49.4789 78.738 49.1952C78.7643 49.0771 78.7895 48.9636 78.8142 48.8578C79.0758 48.8689 79.3288 48.8848 79.5756 48.9003C80.0948 48.9329 80.5872 48.9638 81.0778 48.9458C82.3855 48.8991 83.492 48.3565 84.0279 47.1434C84.4225 46.2489 84.6758 45.2464 84.7664 44.2719C84.8904 42.9482 84.3492 42.3376 83.0681 42.0737C81.3884 41.7271 79.7247 41.9737 78.0783 42.327C77.9023 42.3656 77.6944 42.6429 77.6477 42.8442C77.5178 43.3959 77.4037 43.9517 77.2896 44.5075C77.1368 45.2516 76.984 45.9961 76.7932 46.7302C76.6935 47.1126 76.6297 47.5076 76.5659 47.9034C76.3977 48.9457 76.2287 49.9931 75.3988 50.8307L75.3975 50.8294V50.8321ZM80.2313 47.3421C81.2311 47.35 81.771 46.9608 82.0496 46.0889C82.1309 45.833 82.2096 45.5744 82.2549 45.3104C82.5042 43.8907 82.0523 43.4348 80.6059 43.6387L80.5838 43.6417L80.5687 43.6436L80.5468 43.6463C80.4478 43.6582 80.3415 43.6711 80.2739 43.7254C80.2465 43.7473 80.2175 43.7696 80.188 43.7923C80.031 43.9131 79.8582 44.046 79.8167 44.2053C79.7122 44.6048 79.6301 45.0095 79.548 45.4142C79.4698 45.7997 79.3916 46.1852 79.2941 46.5662C79.1981 46.9435 79.3394 47.1208 79.6514 47.2207C79.8126 47.2719 79.9818 47.2998 80.1109 47.3211C80.1568 47.3287 80.1977 47.3354 80.2313 47.3421Z" fill="#22282E"/>
<path fill-rule="evenodd" clip-rule="evenodd" d="M100.476 45.313C101.196 45.4905 101.634 45.7997 101.615 46.4036C101.587 47.2621 101.342 48.0846 100.473 48.4592C99.9714 48.6752 99.3968 48.8058 98.8516 48.8205C97.642 48.8539 96.4317 48.8467 95.2218 48.8396H95.2184C94.7866 48.8371 94.3548 48.8345 93.9232 48.8338C93.876 48.8338 93.8289 48.8211 93.7623 48.8032C93.7253 48.7933 93.6823 48.7817 93.6299 48.7698C93.7129 48.0361 93.8696 47.3116 94.0265 46.5863C94.3378 45.1465 94.6499 43.7033 94.3884 42.1777C94.4511 42.1722 94.5104 42.166 94.5674 42.16C94.6922 42.1469 94.8059 42.135 94.9203 42.135C96.7946 42.135 98.6703 42.135 100.545 42.1417C101.442 42.1457 102.003 42.4523 102.096 42.9695C102.267 43.912 101.82 44.7785 100.997 45.1025C100.934 45.1275 100.872 45.1528 100.786 45.1876C100.708 45.2193 100.61 45.2589 100.476 45.313ZM97.0235 47.2629C96.8119 47.2586 96.5948 47.2541 96.3707 47.2541C96.3903 47.1483 96.4057 47.0478 96.4204 46.9519C96.454 46.7334 96.484 46.538 96.5507 46.3556C96.5947 46.2329 96.7827 46.0916 96.912 46.0836C97.4319 46.053 97.9611 46.0236 98.473 46.093C98.6271 46.1131 98.7661 46.2463 98.9051 46.3796C98.9681 46.4399 99.0311 46.5003 99.0956 46.5502C99.0369 46.6239 98.9805 46.7149 98.9241 46.8059C98.801 47.0044 98.6779 47.2029 98.5317 47.2221C98.0462 47.284 97.5519 47.2738 97.0235 47.2629ZM97.5387 44.6399C97.349 44.6366 97.1571 44.6332 96.9626 44.6332C97.0079 43.9587 97.3341 43.6214 97.9411 43.6214C98.0368 43.6214 98.1335 43.6176 98.2303 43.6138C98.4623 43.6046 98.6949 43.5955 98.9169 43.6387C99.0548 43.6654 99.1781 43.7662 99.3012 43.8668C99.3567 43.9122 99.4121 43.9575 99.4688 43.996C99.42 44.0624 99.3728 44.1449 99.3256 44.2275C99.2221 44.4086 99.1183 44.5902 98.9956 44.6039C98.5197 44.657 98.0367 44.6486 97.5387 44.6399Z" fill="#22282E"/>
<path d="M24.8986 35.171L25.2756 34.7843C25.7733 34.2736 26.2712 33.7627 26.7703 33.254C26.8745 33.1475 26.9764 33.0379 27.0784 32.9284C27.3324 32.6553 27.5866 32.3819 27.8768 32.1556C28.5842 31.6051 29.4075 31.6602 30.2863 31.7191C30.378 31.7253 30.4702 31.7314 30.5629 31.737C30.5127 31.988 30.4636 32.2354 30.4151 32.4803C30.2963 33.0792 30.1807 33.6625 30.0577 34.2445C29.9597 34.7103 29.8587 35.1757 29.7577 35.6412L29.7564 35.6476C29.5929 36.4014 29.4292 37.1559 29.2778 37.9119C29.2098 38.2505 29.0899 38.4211 28.7166 38.4078C28.2738 38.3919 27.8297 38.395 27.3604 38.3983H27.3594C27.1595 38.3997 26.9545 38.4011 26.7436 38.4011C26.9689 37.2893 27.1769 36.2615 27.3835 35.2337C27.3688 35.2217 27.3538 35.21 27.3389 35.1983L27.3134 35.1785L27.2942 35.163C27.2344 35.2266 27.1748 35.2904 27.1152 35.3543C26.9663 35.5138 26.8173 35.6734 26.665 35.8296C26.5157 35.9826 26.3679 36.1373 26.22 36.2921C25.8474 36.6821 25.4746 37.0723 25.0786 37.4359C24.1134 38.3211 22.9323 38.4518 21.6299 38.3651C21.7581 37.7565 21.884 37.1547 22.009 36.5576L22.0092 36.5566L22.0095 36.5554C22.2883 35.2228 22.5622 33.9138 22.8457 32.6061C22.8717 32.4862 22.8927 32.382 22.9109 32.2915C22.9737 31.9795 23.0039 31.8296 23.0954 31.7585C23.1801 31.6927 23.3172 31.6945 23.5812 31.6979C23.6913 31.6994 23.8233 31.7011 23.9828 31.6983C24.305 31.6928 24.6271 31.6965 24.9493 31.7002L25.1426 31.7023C25.1771 31.7023 25.2112 31.7081 25.2708 31.7183C25.3101 31.725 25.3604 31.7336 25.4292 31.7436C25.309 32.3519 25.1896 32.9587 25.0703 33.5647L25.0695 33.5689C24.9708 34.0704 24.8722 34.5714 24.7733 35.0724C24.794 35.089 24.815 35.1054 24.836 35.1217C24.857 35.138 24.878 35.1544 24.8986 35.171Z" fill="#22282E"/>
<path d="M39.6252 36.804C39.5197 37.3033 39.4142 37.8024 39.3091 38.301L39.3104 38.3037C40.3236 38.5716 41.9486 38.229 42.7111 37.4785C43.1333 37.0637 43.5426 36.6367 43.9521 36.2094C44.1307 36.023 44.3097 35.8363 44.4895 35.6508C44.597 35.5388 44.704 35.4262 44.8107 35.3137L44.9667 35.1496L45.052 35.2243C44.9371 35.8043 44.8217 36.3843 44.7033 36.9796L44.6951 37.0208C44.606 37.4685 44.5152 37.9251 44.4215 38.397C44.6273 38.397 44.8268 38.3986 45.0216 38.4001C45.5661 38.4044 46.0746 38.4084 46.5811 38.377C46.7064 38.369 46.8811 38.1104 46.9197 37.9411C47.1046 37.1375 47.2727 36.3304 47.4407 35.5234L47.4409 35.5224L47.4414 35.5199C47.5045 35.2169 47.5676 34.9138 47.6316 34.611C47.8289 33.6739 48.0262 32.738 48.2275 31.7862C46.7037 31.4743 45.544 31.8782 44.5775 33.0526C44.1551 33.565 43.6479 34.0079 43.1331 34.4573C42.9005 34.6604 42.6664 34.8648 42.4379 35.0776C42.6591 33.9725 42.8791 32.874 43.1137 31.6996C42.9001 31.6996 42.6948 31.7016 42.4955 31.7036C42.0333 31.7082 41.6023 31.7126 41.1741 31.6902C40.8021 31.6702 40.6542 31.8355 40.5902 32.1595C40.4862 32.6874 40.3809 33.2166 40.2702 33.7432C40.0571 34.7601 39.8421 35.7775 39.6273 36.794L39.6252 36.804Z" fill="#22282E"/>
<path fill-rule="evenodd" clip-rule="evenodd" d="M33.0674 42.4578C32.9852 42.8501 32.906 43.2399 32.8271 43.6276C32.6424 44.5361 32.46 45.4329 32.2489 46.3224C32.0662 47.0916 32.1382 47.7355 32.8381 48.2007C32.0822 49.1979 30.6718 49.2286 29.5627 48.2741C28.5815 48.886 27.5151 49.1112 26.3659 48.874C25.0595 48.6033 24.5569 48.0328 24.6729 46.6997C24.7449 45.8678 24.9409 45.0253 25.2181 44.2361C25.6394 43.0363 26.5512 42.3418 27.8097 42.0952C29.492 41.7659 31.1464 41.9405 32.7928 42.3231C32.8387 42.3342 32.8814 42.3578 32.9424 42.3914C32.9769 42.4104 33.0173 42.4327 33.0674 42.4578ZM28.3149 47.2423C29.2081 47.2396 29.6813 46.9343 29.8386 46.2264C29.9973 45.5132 30.1452 44.796 30.2679 44.0762C30.2892 43.9495 30.2039 43.7189 30.1026 43.6696C29.0188 43.1443 27.751 43.7215 27.4377 44.8707C27.3364 45.2413 27.2364 45.6172 27.1911 45.9971C27.0831 46.917 27.3911 47.2436 28.3122 47.2409L28.3149 47.2423Z" fill="#22282E"/>
<path fill-rule="evenodd" clip-rule="evenodd" d="M72.7309 48.2899C73.9294 49.2231 75.0891 49.2084 76.061 48.2153C75.3211 47.7434 75.2265 47.0901 75.4078 46.3249C75.5423 45.7622 75.6665 45.1967 75.7907 44.6311L75.791 44.6295L75.7913 44.6284C75.9105 44.0856 76.0298 43.5422 76.1583 43.0015C76.2636 42.5563 76.1756 42.3257 75.677 42.243C74.284 42.0111 72.9002 41.8204 71.4751 42.0084C69.9807 42.2057 68.8436 42.8696 68.3704 44.32C68.0824 45.2011 67.9504 46.153 67.8824 47.0821C67.8105 48.0606 68.393 48.6472 69.3542 48.8498C70.5646 49.1044 71.6924 48.9271 72.7309 48.2899ZM71.1059 47.2274C70.526 47.1155 70.3407 46.8302 70.3447 46.117C70.3747 45.9806 70.4023 45.8432 70.4298 45.7058C70.4888 45.4111 70.5481 45.1155 70.6326 44.8292C70.9646 43.7068 72.1843 43.1628 73.2561 43.6628C73.3588 43.7108 73.4534 43.9414 73.4321 44.0667C73.2895 44.8785 73.1442 45.6917 72.9389 46.4889C72.7936 47.0515 71.8977 47.3821 71.1059 47.2274Z" fill="#22282E"/>
<path fill-rule="evenodd" clip-rule="evenodd" d="M65.1659 31.9677C65.0808 32.3612 64.9987 32.7467 64.9179 33.1264L64.9172 33.1295C64.7285 34.0157 64.5464 34.8703 64.3488 35.7217C64.1634 36.5188 64.1048 37.2614 64.9233 37.7573C64.1181 38.7544 62.881 38.7744 61.6292 37.8413C60.6001 38.4785 59.4936 38.6718 58.3018 38.4132C57.3193 38.1999 56.7888 37.748 56.7461 36.7495C56.6835 35.3204 56.9661 33.934 57.8792 32.7729C58.6671 31.773 59.8336 31.5837 61.004 31.5051C62.3971 31.4104 63.7702 31.5784 65.1659 31.9677ZM60.3521 36.8015C61.2293 36.8068 61.7212 36.5255 61.8799 35.8736C62.0612 35.1271 62.2105 34.3726 62.3504 33.6167C62.3718 33.5007 62.2985 33.2968 62.2051 33.2421C61.3626 32.7435 59.9735 33.2114 59.6283 34.1273C59.4523 34.5912 59.3337 35.0871 59.2603 35.5777C59.1324 36.4269 59.4843 36.7961 60.3535 36.8001L60.3521 36.8015Z" fill="#22282E"/>
<path fill-rule="evenodd" clip-rule="evenodd" d="M110.448 43.6028C110.532 43.2151 110.618 42.8217 110.706 42.4203H110.704C110.63 42.3983 110.561 42.376 110.495 42.3548C110.362 42.3117 110.241 42.2729 110.118 42.2496C108.732 41.9857 107.346 41.8204 105.924 42.0057C104.338 42.2136 103.193 42.9415 102.722 44.5092C102.502 45.2424 102.31 46.0063 102.271 46.7648C102.215 47.8766 102.65 48.6285 103.875 48.8644C105.071 49.0951 106.165 48.8818 107.182 48.2899C108.376 49.219 109.638 49.1884 110.463 48.1966C109.627 47.6847 109.703 46.9195 109.893 46.1076C110.084 45.2844 110.263 44.4571 110.448 43.6028ZM107.438 46.3009C107.296 46.9355 106.776 47.2421 105.908 47.2421C104.992 47.2407 104.63 46.8141 104.81 45.925C104.892 45.5117 104.992 45.0985 105.124 44.6985C105.46 43.6854 106.777 43.1641 107.722 43.6774C107.824 43.732 107.897 43.964 107.874 44.096C107.749 44.8345 107.602 45.5704 107.438 46.3009Z" fill="#22282E"/>
<path fill-rule="evenodd" clip-rule="evenodd" d="M88.0601 48.9605C87.5967 48.8993 87.1333 48.838 86.6885 48.7113C85.8459 48.4727 85.3474 47.7995 85.4207 46.9263C85.4967 46.0158 85.6313 45.088 85.9086 44.2215C86.2819 43.055 87.167 42.3658 88.3855 42.1085C89.5373 41.8659 90.6851 41.8326 91.8315 42.0978C93.1166 42.3951 93.5206 43.1017 93.4886 44.4334C93.4766 44.9267 93.3539 45.4279 93.2193 45.9078C92.5847 48.1554 91.3729 48.9619 88.6721 49.0446V49.0473C88.4694 49.0146 88.2645 48.9875 88.0601 48.9605ZM89.1973 47.3729C89.6706 47.4116 90.2532 47.2862 90.4504 46.6664C90.6888 45.9141 90.82 45.1257 90.9501 44.3445L90.9637 44.2628C90.9917 44.0961 90.8624 43.8349 90.7224 43.7216C90.0852 43.203 88.6841 43.5123 88.3628 44.2681C88.1508 44.767 88.0307 45.3107 87.9127 45.8449L87.8949 45.9252C87.6483 47.0356 87.9496 47.3942 89.1987 47.3716L89.1973 47.3729Z" fill="#22282E"/>
<path fill-rule="evenodd" clip-rule="evenodd" d="M50.4065 48.9581C50.6089 48.9874 50.8113 49.0168 51.0122 49.0513L51.0109 49.0499C53.745 48.9686 54.9821 48.1421 55.5967 45.8825C55.7233 45.4186 55.8087 44.94 55.8593 44.4628C55.9953 43.175 55.3981 42.3431 54.117 42.0725C53.0092 41.8392 51.8947 41.8766 50.7802 42.1018C49.4311 42.3751 48.5553 43.1923 48.1714 44.4614C47.9301 45.2613 47.8381 46.1185 47.7834 46.957C47.7288 47.7941 48.2194 48.462 49.0325 48.6953C49.4789 48.8234 49.9427 48.8907 50.4065 48.9581ZM52.8412 46.6237C52.6306 47.2689 52.0533 47.4142 51.5601 47.3729L51.5588 47.3742C50.2976 47.3942 50.0177 47.0543 50.2617 45.9172L50.2886 45.7903C50.3912 45.306 50.4949 44.8162 50.6776 44.3614C51.0055 43.5443 52.3333 43.175 53.0465 43.7016C53.2265 43.8335 53.3824 44.1748 53.3491 44.3881C53.2318 45.1426 53.0785 45.8998 52.8412 46.6237Z" fill="#22282E"/>
<path d="M15.7212 48.8418C15.9584 47.7192 16.1898 46.6228 16.4193 45.5358C16.6566 44.4115 16.8917 43.2974 17.1289 42.175H19.5285C19.3845 42.9269 19.2486 43.6347 19.0912 44.4479C19.2876 44.4479 19.481 44.449 19.672 44.45C20.2511 44.4532 20.8093 44.4563 21.3655 44.4293C21.4815 44.4239 21.6428 44.1893 21.6841 44.0333C21.8094 43.5707 21.9001 43.0962 21.9787 42.6229C22.0347 42.287 22.1707 42.1163 22.5453 42.131C22.9855 42.1486 23.4264 42.145 23.8922 42.1411C24.0963 42.1394 24.3053 42.1377 24.5209 42.1377C24.3848 42.7891 24.2526 43.424 24.1222 44.0499L24.1219 44.0511L24.1172 44.0737C23.9633 44.8127 23.8119 45.5393 23.6598 46.2663C23.6137 46.4871 23.565 46.7075 23.5164 46.928C23.4159 47.3834 23.3153 47.8394 23.2372 48.2992C23.1652 48.7245 22.9666 48.8751 22.536 48.8511C22.1277 48.8272 21.7176 48.8325 21.2837 48.838C21.0885 48.8406 20.8885 48.8431 20.6816 48.8431C20.7307 48.607 20.7768 48.3792 20.8216 48.1574C20.9216 47.6628 21.0156 47.1979 21.1242 46.7368C21.2189 46.3369 21.1202 46.1383 20.683 46.1756C20.6065 46.1818 20.5289 46.1798 20.4513 46.1777C20.4125 46.1766 20.3737 46.1756 20.335 46.1756C19.217 46.1747 18.5576 46.7293 18.3567 47.8393C18.2358 48.5085 17.8279 48.8431 17.1329 48.8431C16.938 48.8431 16.7428 48.8428 16.533 48.8425H16.5235C16.2826 48.8422 16.0223 48.8418 15.7212 48.8418Z" fill="#22282E"/>
<path d="M34.2472 32.2689C34.2823 32.0836 34.3183 31.8939 34.3578 31.6982C34.1525 31.6982 33.9526 31.6993 33.7564 31.7003C33.289 31.7027 32.8424 31.7051 32.3955 31.6929C32.0635 31.6835 31.9156 31.8075 31.8502 32.1368C31.6547 33.1314 31.4457 34.123 31.2366 35.1144L31.2361 35.1167C31.1674 35.4427 31.0986 35.7687 31.0304 36.0947C30.8744 36.8373 30.7171 37.5785 30.5425 38.401C30.7623 38.401 30.9716 38.3979 31.1735 38.3949C31.6215 38.3883 32.0332 38.3822 32.4421 38.4117C32.8807 38.4437 33.0167 38.2304 33.086 37.8651C33.1967 37.2799 33.314 36.6933 33.458 36.1147C33.4913 35.9774 33.6353 35.7655 33.7352 35.7615C34.2997 35.7392 34.8658 35.7415 35.4549 35.7439C35.642 35.7447 35.8317 35.7455 36.0242 35.7455C35.938 36.1945 35.856 36.6205 35.7743 37.0453L35.7736 37.0485C35.6886 37.4902 35.6038 37.9307 35.5149 38.3943C35.715 38.3943 35.9084 38.3954 36.097 38.3965C36.6582 38.3997 37.1761 38.4026 37.6919 38.3757C37.7998 38.369 37.9545 38.1344 37.9891 37.9837C38.2873 36.6588 38.5682 35.3303 38.849 34.0027L38.9143 33.6938C38.9982 33.2954 39.0779 32.8964 39.1619 32.4753L39.1623 32.4737C39.2117 32.2261 39.2626 31.9708 39.3169 31.7035C39.122 31.7035 38.9335 31.7027 38.7498 31.702C38.181 31.6996 37.6582 31.6974 37.1373 31.7195C37.0333 31.7235 36.8853 31.9195 36.8493 32.0515C36.712 32.5527 36.5867 33.0593 36.5094 33.5725C36.4574 33.9205 36.2948 34.0271 35.9708 34.0191C35.4483 34.0071 34.9257 34.0085 34.4031 34.0191C34.0325 34.0271 33.8672 33.9325 33.9805 33.5099C34.0879 33.1102 34.1652 32.702 34.2472 32.2689Z" fill="#22282E"/>
<path d="M17.8396 38.397L17.8591 38.3017C18.1997 36.6416 18.5206 35.0781 18.8594 33.4259C18.6952 33.4259 18.537 33.4227 18.3833 33.4195C17.9994 33.4116 17.6441 33.4042 17.2956 33.4499C17.141 33.4699 16.977 33.7459 16.8957 33.9392C16.7247 34.3446 16.5641 34.7544 16.4036 35.1641C16.1349 35.8498 15.8664 36.5352 15.5493 37.1986C15.1054 38.1277 14.3162 38.6077 13.2417 38.517C12.7311 38.4744 12.3619 38.2237 12.1006 37.6998C13.215 37.0997 13.6261 36.0186 14.0364 34.9398C14.0909 34.7965 14.1454 34.6532 14.2015 34.5111C14.4015 34.0059 14.5685 33.4877 14.7354 32.9697C14.7754 32.8454 14.8156 32.7209 14.8561 32.5967L14.8601 32.5845C15.1494 31.6996 15.1498 31.6982 16.1119 31.6982H20.9297C21.0645 31.6982 21.1993 31.7055 21.3613 31.7143C21.4492 31.719 21.5453 31.7242 21.6535 31.7289C21.4762 32.5767 21.3123 33.3606 21.147 34.1445C21.0917 34.4074 21.0368 34.6704 20.9818 34.9334C20.7691 35.9516 20.5564 36.9699 20.3244 37.9838C20.2884 38.1411 20.0925 38.369 19.9592 38.3784C19.4847 38.4084 19.0081 38.4046 18.4708 38.4003C18.2699 38.3987 18.0604 38.397 17.8396 38.397Z" fill="#22282E"/>
<path d="M51.3363 34.7323C51.5563 33.6485 51.7443 32.7167 51.9496 31.6982V31.6956C51.7425 31.6956 51.5429 31.6981 51.3486 31.7005C50.9088 31.706 50.496 31.7112 50.0846 31.6862C49.6513 31.6609 49.4687 31.8169 49.3887 32.2395C49.2596 32.9177 49.1125 33.5918 48.9655 34.266C48.8787 34.6637 48.7919 35.0615 48.7088 35.4602C48.5808 36.0734 48.4579 36.6878 48.3306 37.3236C48.2603 37.6746 48.1887 38.0322 48.1143 38.3997C48.3265 38.3997 48.531 38.3981 48.7302 38.3965C49.1876 38.393 49.6164 38.3896 50.0446 38.4063C50.4258 38.421 50.5898 38.2877 50.6591 37.9024C50.7612 37.3274 50.8896 36.7569 51.0315 36.1268C51.0936 35.8511 51.1582 35.5641 51.2244 35.2602C51.3664 35.3731 51.5017 35.4718 51.6286 35.5644C51.884 35.7509 52.1056 35.9126 52.2802 36.1148C52.5536 36.4328 52.7875 36.7846 53.0214 37.1365C53.1091 37.2684 53.1969 37.4003 53.2867 37.5305C54.0718 38.6676 55.4889 38.8769 56.6034 38.0237C56.196 37.6397 55.9001 37.1606 55.6024 36.6786C55.1169 35.8926 54.6266 35.0988 53.6399 34.6963C54.8424 33.6965 55.9662 32.7607 57.09 31.8249C56.3888 31.6982 55.7529 31.6649 55.1223 31.7129C54.845 31.7342 54.5264 31.8609 54.3185 32.0435C53.7572 32.537 53.213 33.0495 52.669 33.5619C52.4107 33.8052 52.1524 34.0485 51.8922 34.2897C51.8034 34.3716 51.7072 34.4455 51.5767 34.5457C51.5076 34.5988 51.4288 34.6593 51.3363 34.7323Z" fill="#22282E"/>
</svg>
