<svg width="148" height="65" viewBox="0 0 148 65" fill="none" xmlns="http://www.w3.org/2000/svg">
<g id="case logos">
<path id="logo/lg" d="M32.4333 0C23.8314 0 15.5819 3.4241 9.49949 9.51903C3.41707 15.614 0 23.8805 0 32.5C0 41.1195 3.41707 49.386 9.49949 55.481C15.5819 61.5759 23.8314 65 32.4333 65C40.9259 64.8345 49.0149 61.3376 54.9625 55.2607C60.9101 49.1838 64.2418 41.0117 64.2418 32.5C64.2418 23.9883 60.9101 15.8162 54.9625 9.7393C49.0149 3.66239 40.9259 0.165541 32.4333 0ZM32.4333 5.28755C32.7401 5.28755 33.3904 5.28755 33.7218 5.29985V7.8391C33.2923 7.82986 32.8628 7.82372 32.4333 7.82066C29.2003 7.81257 25.9978 8.44688 23.011 9.6869C20.0242 10.9269 17.3124 12.748 15.0324 15.0449C12.7392 17.3288 10.9211 20.046 9.68352 23.0391C8.44597 26.0322 7.81358 29.2417 7.82301 32.4816C7.82301 39.0726 10.3816 45.2701 15.0324 49.9182C17.3124 52.2151 20.0242 54.0362 23.011 55.2762C25.9978 56.5162 29.2003 57.1505 32.4333 57.1425C38.6718 57.131 44.6743 54.7517 49.2317 50.4838C53.7891 46.2159 56.5629 40.3765 56.9944 34.1416V33.7727H40.1949V31.2519H58.4854L59.5714 31.2457V32.4816C59.5828 36.054 58.8869 39.5933 57.524 42.8944C56.1612 46.1956 54.1585 49.1931 51.6319 51.7135C49.115 54.2474 46.1218 56.2562 42.8255 57.6239C39.5291 58.9916 35.9949 59.691 32.4271 59.6817C25.187 59.6817 18.3764 56.8535 13.2224 51.7135C10.6969 49.1926 8.69532 46.1948 7.33355 42.8937C5.97179 39.5926 5.27685 36.0536 5.28897 32.4816C5.29708 25.2696 8.15933 18.3552 13.2479 13.255C18.3366 8.15472 25.2361 5.28502 32.4333 5.27526V5.28755ZM130.991 10.6858C117.431 10.6858 110.301 18.1068 110.301 32.2541C110.301 46.3337 116.744 53.9576 130.917 53.9576C137.421 53.9576 143.796 52.2976 147.257 49.869V29.4812H130.445V37.3141H138.329V44.6614C136.875 45.2147 134.034 45.7742 131.335 45.7742C122.622 45.7742 119.714 41.3351 119.714 32.3217C119.714 23.7264 122.475 18.6601 131.2 18.6601C136.047 18.6601 138.808 20.1849 141.096 23.0992L147.122 17.5534C143.453 12.2843 137.016 10.6858 130.985 10.6858H130.991ZM79.3713 11.3129V53.3305H109.129V45.1532H89.0657V11.3068L79.3713 11.3129ZM22.0762 18.2175C23.1096 18.2175 24.1006 18.6288 24.8312 19.361C25.5619 20.0931 25.9724 21.0862 25.9724 22.1216C25.9724 23.1571 25.5619 24.1501 24.8312 24.8823C24.1006 25.6145 23.1096 26.0258 22.0762 26.0258C21.0429 26.0258 20.0519 25.6145 19.3212 24.8823C18.5905 24.1501 18.1801 23.1571 18.1801 22.1216C18.1801 21.0862 18.5905 20.0931 19.3212 19.361C20.0519 18.6288 21.0429 18.2175 22.0762 18.2175ZM31.1448 18.2298H33.7218V44.1757H40.1765V46.7211H31.1448V18.2298Z" fill="#22282E"/>
</g>
</svg>
