<svg width="161" height="30" viewBox="0 0 161 30" fill="none" xmlns="http://www.w3.org/2000/svg">
<g id="Group 4635">
<path id="Vector" fill-rule="evenodd" clip-rule="evenodd" d="M27.6086 10.656C25.609 5.18569 21.5578 -0.0642197 14.0852 0.000593968C13.4588 0.1053 12.8421 0.261382 12.2414 0.467252C10.943 0.985762 9.20955 2.05519 9.12515 3.70793C7.08866 4.59311 5.27983 5.92791 3.8348 7.61189C2.38977 9.29587 1.34618 11.2851 0.782598 13.43C0.133372 15.8151 0.717676 18.9067 1.37989 20.7086C3.0484 25.2779 6.08028 28.039 10.8521 29.4908C13.3869 30.1697 16.0561 30.1697 18.5909 29.4908C20.8302 28.8202 22.8679 27.6052 24.5211 25.9547C26.1742 24.3043 27.3913 22.2701 28.0631 20.0345C28.9979 17.1503 28.524 13.1254 27.6086 10.656ZM19.6426 20.8641C19.5193 20.9613 19.3959 21.065 19.2661 21.1558C18.2143 22.5817 15.8381 24.3965 13.2542 23.2622C12.4443 22.8962 11.7074 22.3868 11.0793 21.7585C10.8241 21.4389 10.5441 21.1398 10.2418 20.8641V13.1318C11.3284 13.7923 12.4901 14.3211 13.7022 14.7068C15.6499 15.2059 18.8116 14.0976 19.4868 13.1318H19.6361L19.6426 20.8641Z" fill="#22282E"/>
<path id="Vector_2" d="M49.1957 29.4573H42.9307V19.5344C43.0064 18.6242 42.7556 17.7168 42.223 16.9742C41.9487 16.6982 41.6168 16.486 41.251 16.3527C40.8852 16.2194 40.4944 16.1683 40.1065 16.2029C38.1134 16.2029 37.3084 17.1687 37.3084 19.5279V29.4573H30.9395V19.5344C30.9395 16.4298 31.738 14.0382 33.3156 12.4373C34.8932 10.8364 37.211 10.0262 40.2883 10.0262C42.7516 9.99224 45.1338 10.9041 46.9429 12.5734C49.0334 14.5891 49.1957 16.9224 49.1957 19.5344V29.4573ZM61.6089 29.9499C58.9137 29.9475 56.325 28.8993 54.3895 27.0268C53.4369 26.119 52.6787 25.0278 52.1606 23.819C51.6425 22.6103 51.3754 21.3093 51.3754 19.9945C51.3754 18.6798 51.6425 17.3788 52.1606 16.1701C52.6787 14.9613 53.4369 13.8701 54.3895 12.9623C56.2236 11.1496 58.7034 10.1379 61.2843 10.1493C62.8164 10.1052 64.3281 10.5084 65.6341 11.3095V1.34766H71.9056V17.6872C71.9056 21.0056 71.8017 23.5204 70.4578 25.6333C68.6595 28.4138 65.5302 29.9499 61.6413 29.9499M61.8036 15.9826C60.7413 15.9671 59.7162 16.3736 58.9541 17.1126C58.1919 17.8516 57.755 18.8626 57.7395 19.9232C57.724 20.9838 58.1312 22.0072 58.8714 22.7681C59.6117 23.529 60.6244 23.9651 61.6868 23.9806C62.2117 24.0036 62.7356 23.9158 63.2243 23.7231C63.7129 23.5305 64.1555 23.2371 64.523 22.8623C64.8905 22.4874 65.1748 22.0394 65.3573 21.5476C65.5398 21.0557 65.6164 20.5309 65.5821 20.0075C65.5821 17.6483 64.0045 16.002 61.7517 16.002M83.9487 29.9499C81.4855 29.9839 79.1033 29.072 77.2942 27.4027C75.2102 25.387 75.0414 23.0732 75.0414 20.4806V10.5188H81.3129V20.4418C81.3129 22.775 82.1439 23.7667 84.1046 23.7667C86.0652 23.7667 86.9417 22.8075 86.9417 20.4418V10.5188H93.2976V20.4806C93.2976 23.5852 92.499 25.9704 90.9214 27.5583C89.3438 29.1462 87.0261 29.9499 83.9487 29.9499ZM96.4853 1.34766H102.679V29.4573H96.4853V1.34766ZM106.107 10.0262H112.3V29.4573H106.107V10.0262ZM133.712 29.4573H127.44V19.5344C127.515 18.6253 127.266 17.7191 126.739 16.9742C126.462 16.6967 126.127 16.4837 125.758 16.3504C125.388 16.217 124.994 16.1667 124.603 16.2029C122.617 16.2029 121.805 17.1687 121.805 19.5279V29.4573H115.456V19.5344C115.456 16.4298 116.254 14.0382 117.832 12.4373C119.409 10.8364 121.727 10.0262 124.805 10.0262C127.266 9.99124 129.647 10.9033 131.453 12.5734C133.543 14.5891 133.712 16.9224 133.712 19.5344V29.4573ZM156.48 20.6038V20.0399C156.48 14.5632 151.858 10.1234 146.158 10.1234C140.457 10.1234 135.841 14.5632 135.841 20.0399C135.841 25.5167 140.464 29.9499 146.158 29.9499C148.39 29.9766 150.571 29.2761 152.369 27.9545C154.167 26.6329 155.485 24.7623 156.123 22.626H149.358C148.973 23.0542 148.501 23.3962 147.974 23.6297C147.447 23.8631 146.877 23.9827 146.3 23.9806C145.333 23.9738 144.398 23.6322 143.654 23.0141C142.911 22.3959 142.405 21.5395 142.223 20.5908L156.48 20.6038ZM146.3 15.49C147.217 15.4971 148.105 15.804 148.83 16.3636C149.555 16.9232 150.075 17.7046 150.313 18.5881H142.288C142.525 17.7046 143.046 16.9232 143.771 16.3636C144.496 15.804 145.384 15.4971 146.3 15.49ZM112.781 4.94481C112.781 5.65242 112.571 6.34413 112.177 6.93248C111.783 7.52084 111.223 7.9794 110.569 8.25019C109.914 8.52098 109.193 8.59183 108.498 8.45378C107.803 8.31574 107.164 7.97499 106.663 7.47464C106.162 6.97429 105.821 6.3368 105.682 5.64279C105.544 4.94878 105.615 4.22942 105.886 3.57568C106.157 2.92194 106.617 2.36318 107.206 1.97005C107.795 1.57693 108.488 1.3671 109.197 1.3671C110.148 1.3671 111.059 1.74404 111.731 2.41499C112.403 3.08594 112.781 3.99595 112.781 4.94481ZM158.266 10.091C158.587 10.0742 158.908 10.1229 159.21 10.234C159.512 10.3451 159.787 10.5164 160.021 10.7375C160.254 10.9585 160.44 11.2246 160.567 11.5196C160.694 11.8147 160.759 12.1324 160.759 12.4535C160.759 12.7746 160.694 13.0923 160.567 13.3873C160.44 13.6823 160.254 13.9485 160.021 14.1695C159.787 14.3905 159.512 14.5618 159.21 14.6729C158.908 14.7841 158.587 14.8327 158.266 14.8159C157.944 14.8327 157.623 14.7841 157.321 14.6729C157.02 14.5618 156.744 14.3905 156.51 14.1695C156.277 13.9485 156.091 13.6823 155.964 13.3873C155.837 13.0923 155.772 12.7746 155.772 12.4535C155.772 12.1324 155.837 11.8147 155.964 11.5196C156.091 11.2246 156.277 10.9585 156.51 10.7375C156.744 10.5164 157.02 10.3451 157.321 10.234C157.623 10.1229 157.944 10.0742 158.266 10.091ZM158.233 10.5642C157.752 10.5962 157.302 10.8106 156.974 11.1635C156.646 11.5164 156.466 11.981 156.47 12.4623C156.474 12.9436 156.662 13.405 156.996 13.7522C157.33 14.0994 157.784 14.3061 158.266 14.3298C158.508 14.3283 158.748 14.2781 158.97 14.1825C159.193 14.0868 159.394 13.9475 159.561 13.7728C159.729 13.5982 159.86 13.3917 159.946 13.1656C160.033 12.9396 160.073 12.6985 160.064 12.4567C160.072 12.2126 160.031 11.9694 159.943 11.7414C159.855 11.5133 159.723 11.3051 159.554 11.1288C159.384 10.9525 159.182 10.8118 158.957 10.7148C158.732 10.6178 158.491 10.5666 158.246 10.5642H158.233ZM157.876 13.6687H157.331V11.3095C157.63 11.2656 157.931 11.2418 158.233 11.2382C158.515 11.2066 158.799 11.2729 159.038 11.4262C159.117 11.4827 159.181 11.5578 159.224 11.6448C159.267 11.7319 159.288 11.8282 159.285 11.9252C159.278 12.0597 159.226 12.188 159.138 12.2901C159.05 12.3921 158.93 12.4621 158.798 12.4891C159.025 12.5604 159.142 12.7484 159.213 13.066C159.244 13.2657 159.303 13.46 159.389 13.6428H158.811C158.718 13.4615 158.655 13.2669 158.623 13.066C158.577 12.8197 158.434 12.703 158.136 12.703H157.876V13.6687ZM157.876 12.3725H158.136C158.434 12.3725 158.681 12.2688 158.681 12.0225C158.681 11.7762 158.525 11.666 158.181 11.666C158.08 11.6553 157.977 11.6553 157.876 11.666V12.3725Z" fill="#22282E"/>
</g>
</svg>
