<svg width="197" height="41" viewBox="0 0 197 41" fill="none" xmlns="http://www.w3.org/2000/svg">
<path d="M54.3258 18.2887H59.3428C60.6643 18.2887 61.6484 17.939 62.3012 17.2405C62.9514 16.5428 63.2756 15.6888 63.2756 14.6784C63.2756 13.6644 62.9312 12.878 62.2432 12.3166C61.5535 11.7534 60.6863 11.4722 59.6363 11.4722H54.3249V18.2878L54.3258 18.2887ZM65.8764 28.5467H63.3591L59.8217 20.2401H54.3258V28.5467H52.0765V9.36614H59.638C61.6897 9.36614 63.2097 9.92495 64.1982 11.0443C65.1875 12.1646 65.6804 13.3885 65.6804 14.7188C65.6804 15.7389 65.4045 16.7185 64.851 17.656C64.2974 18.5918 63.3845 19.2613 62.1123 19.6655L65.8764 28.5467Z" fill="#22282E"/>
<path d="M87.8396 9.36614H89.8358V21.8955C89.8358 24.4075 89.2217 26.2113 87.9881 27.3035C86.7571 28.3938 85.1439 28.9403 83.1477 28.9403C80.9265 28.9403 79.2834 28.3771 78.2141 27.2525C77.1448 26.1287 76.6115 24.3416 76.6115 21.8955V9.36614H79.0154V21.8963C79.0154 23.3883 79.1903 24.4373 79.5356 25.0471C79.8818 25.6551 80.4072 26.1059 81.1092 26.3967C81.8121 26.6893 82.5467 26.8343 83.3172 26.8343C84.796 26.8343 85.9215 26.4441 86.6877 25.6648C87.4574 24.8881 87.8396 23.6316 87.8396 21.8972V9.36614Z" fill="#22282E"/>
<path d="M99.4332 23.4744L101.597 22.9823C102.468 25.5945 104.356 26.9028 107.261 26.9028C108.778 26.9028 109.92 26.5812 110.69 25.9372C111.457 25.2931 111.841 24.4303 111.841 23.3487C111.841 22.5298 111.548 21.8726 110.963 21.3753C110.379 20.878 109.703 20.5327 108.934 20.3464L105.097 19.3984C104.101 19.1462 103.29 18.8396 102.659 18.4767C102.027 18.1156 101.49 17.5603 101.048 16.8099C100.61 16.0596 100.39 15.202 100.39 14.2355C100.39 12.6311 100.994 11.3527 102.202 10.3994C103.41 9.44697 104.962 8.97251 106.851 8.97251C110.337 8.97251 112.628 10.5497 113.725 13.7075L111.548 14.3541C111.294 13.2286 110.698 12.379 109.761 11.8035C108.826 11.2271 107.828 10.9398 106.767 10.9398C105.72 10.9398 104.785 11.2174 103.964 11.7718C103.145 12.328 102.736 13.1135 102.736 14.1301C102.736 15.5517 103.774 16.5103 105.852 17.0103L109.436 17.8502C112.717 18.6384 114.354 20.4044 114.354 23.1484C114.354 24.8073 113.74 26.1867 112.507 27.2868C111.276 28.3877 109.539 28.9403 107.3 28.9403C103.329 28.9403 100.705 27.1163 99.4314 23.4735L99.4332 23.4744Z" fill="#22282E"/>
<path d="M133.144 21.1407L130.173 11.923L127.206 21.1407H133.144ZM138.039 28.5467H135.585L133.657 22.9402H126.538L124.822 28.5467H122.813L129.047 9.36614H131.763L138.039 28.5467Z" fill="#22282E"/>
<path d="M150.135 18.7675H154.548C155.68 18.7675 156.592 18.4275 157.287 17.7474C157.98 17.0682 158.326 16.1729 158.326 15.057C158.326 14.1011 158.017 13.2488 157.398 12.5002C156.782 11.7508 155.886 11.3773 154.714 11.3773H150.134V18.7684L150.135 18.7675ZM150.135 28.5476H147.731V9.36702H154.532C156.659 9.36702 158.227 9.94428 159.239 11.1014C160.253 12.2586 160.759 13.5766 160.759 15.057C160.759 16.7062 160.207 18.069 159.106 19.1462C158.006 20.2234 156.565 20.762 154.784 20.762H150.136L150.135 28.5476Z" fill="#22282E"/>
<path d="M179.039 21.1407L176.068 11.923L173.1 21.1407H179.039ZM183.932 28.5467H181.481L179.551 22.9402H172.433L170.717 28.5467H168.707L174.943 9.36614H177.659L183.932 28.5467Z" fill="#22282E"/>
<path d="M196.03 28.5467H193.626V9.36526H196.03V28.5467Z" fill="#22282E"/>
<path d="M12.6144 24.6614C11.9616 24.8362 11.5732 24.4453 11.7463 23.7907L14.833 12.3377C15.0078 11.6813 15.4937 11.4872 15.9084 11.9045L24.5015 20.4949C24.9179 20.9131 24.7255 21.3973 24.0692 21.5748L12.6144 24.6614Z" fill="#22282E"/>
<path d="M28.7084 19.9774C28.0494 20.1523 27.6602 19.7613 27.8376 19.1084L30.9234 7.65368C31.1009 6.9991 31.5833 6.80404 32.0006 7.22051L40.591 15.8127C41.011 16.2291 40.8151 16.7159 40.1587 16.8916L28.7084 19.9774Z" fill="#22282E"/>
<path d="M0.911897 12.9756C0.255557 13.1513 -0.131921 12.7612 0.0429276 12.1066L3.12781 0.6536C3.3053 -0.00361788 3.78942 -0.196917 4.20941 0.221312L12.7989 8.81172C13.2163 9.22819 13.0212 9.7132 12.3658 9.88892L0.911897 12.9756Z" fill="#22282E"/>
<path d="M8.32318 40.7597C7.67035 40.9328 7.28112 40.5436 7.45508 39.8881L10.5417 28.4351C10.7192 27.7806 11.2025 27.5855 11.6189 28.0028L20.2111 36.5933C20.6284 37.0106 20.4325 37.4974 19.7788 37.6722L8.32318 40.7597Z" fill="#22282E"/>
<path d="M29.5835 7.69497C29.7583 7.03951 29.37 6.64852 28.7145 6.82425L17.2589 9.91177C16.6061 10.0866 16.411 10.5734 16.8284 10.9907L25.4179 19.5829C25.8335 19.9994 26.322 19.8052 26.4968 19.148L29.5835 7.69497Z" fill="#22282E"/>
<path d="M25.3819 23.7221C25.555 23.0693 25.1684 22.6766 24.5111 22.8514L13.059 25.9381C12.4018 26.1138 12.2085 26.6005 12.6258 27.0179L21.2154 35.6083C21.6327 36.0257 22.1186 35.8324 22.2943 35.1751L25.3819 23.7221Z" fill="#22282E"/>
<path d="M13.4948 12.0776C13.6697 11.423 13.2813 11.0311 12.6241 11.2086L1.17109 14.2953C0.516511 14.4701 0.321455 14.956 0.737927 15.3725L9.33097 23.9646C9.74744 24.382 10.2324 24.1887 10.4099 23.5315L13.4948 12.0776Z" fill="#22282E"/>
</svg>
