<svg width="54" height="65" viewBox="0 0 54 65" fill="none" xmlns="http://www.w3.org/2000/svg">
<path fill-rule="evenodd" clip-rule="evenodd" d="M27.1469 16.1868C35.353 16.1868 42.1302 22.3013 43.173 30.222H49.1918V34.4839H43.173C42.1295 42.405 35.353 48.5188 27.1469 48.5188C18.2185 48.5188 10.9808 41.2814 10.9808 32.353C10.9808 23.4248 18.2185 16.1868 27.1469 16.1868ZM27.0003 5.84497C41.7208 5.84497 53.6549 17.779 53.6549 32.5001C53.6549 47.2211 41.7208 59.155 27.0003 59.155C12.279 59.155 0.345215 47.2211 0.345215 32.5001C0.345215 17.779 12.279 5.84497 27.0003 5.84497Z" fill="#22282E"/>
<path fill-rule="evenodd" clip-rule="evenodd" d="M40.4755 32.4916C40.4755 31.7539 40.2819 31.183 39.8962 30.77C39.501 30.3662 39.0622 30.1638 38.5523 30.1638C38.0865 30.1638 37.6654 30.3834 37.2973 30.8055C36.9358 31.2358 36.7518 31.7977 36.7518 32.5093C36.7518 33.2553 36.9457 33.8265 37.3408 34.2298C37.7269 34.6347 38.1747 34.8363 38.6756 34.8363C39.1411 34.8363 39.5622 34.6251 39.9223 34.1866C40.2915 33.7563 40.4755 33.1944 40.4755 32.4916ZM41.2401 32.3864C41.2401 33.3079 40.968 34.0459 40.4229 34.5993C39.8866 35.1526 39.2645 35.4333 38.5523 35.4333C37.8676 35.4333 37.2796 35.1789 36.761 34.6695C36.2509 34.1686 35.9881 33.4752 35.9881 32.6144C35.9881 31.6839 36.2601 30.9368 36.8044 30.3925C37.3407 29.8481 37.9646 29.5666 38.6756 29.5666C39.3604 29.5666 39.9574 29.8211 40.4674 30.3308C40.9764 30.8404 41.2401 31.5252 41.2401 32.3864ZM34.776 35.2667H33.9593C34.0032 34.3354 34.0204 33.3609 34.0204 32.3336C34.0204 31.3237 34.0032 30.4364 33.9593 29.6809H34.776C34.7311 30.463 34.7144 31.3493 34.7144 32.3336C34.7144 33.3698 34.7311 34.3445 34.776 35.2667ZM32.0265 32.4651C32.0265 31.833 31.8247 31.2967 31.4215 30.8757C31.0166 30.445 30.3939 30.2342 29.5508 30.2342C29.4274 30.2342 29.2607 30.2518 29.0499 30.2787C29.0757 30.9459 29.0854 31.6308 29.0854 32.3336C29.0854 33.1065 29.103 33.8876 29.1378 34.6872C29.3659 34.7307 29.5861 34.7484 29.796 34.7484C30.5513 34.7484 31.1141 34.5291 31.4823 34.0807C31.8424 33.6328 32.0265 33.0976 32.0265 32.4651ZM32.7734 32.2717C32.7734 33.089 32.519 33.7999 32.0007 34.406C31.4823 35.0204 30.7624 35.3281 29.8485 35.3281C29.5508 35.3281 29.0582 35.3105 28.3651 35.2667C28.4084 34.3799 28.4259 33.4049 28.4259 32.3336C28.4259 31.3237 28.4084 30.445 28.3651 29.6809H28.8388C28.9538 29.6809 29.1201 29.6809 29.3574 29.6723C29.5943 29.6637 29.7433 29.6546 29.8227 29.6546C30.8325 29.6546 31.5786 29.9009 32.0537 30.4011C32.5369 30.8931 32.7734 31.5166 32.7734 32.2717ZM26.8676 29.6809C26.8502 30.2258 26.8421 30.7261 26.8421 31.2005C26.8327 31.6662 26.8327 32.1047 26.8327 32.5093C26.8327 34.4234 26.0774 35.3805 24.5585 35.3805C24.1721 35.3805 23.8297 35.3281 23.5486 35.214C23.2674 35.1002 23.0391 34.9243 22.8544 34.6957C22.6702 34.4588 22.5387 34.1686 22.4508 33.8088C22.3719 33.458 22.3279 33.036 22.3279 32.5528C22.3279 32.1317 22.3279 31.6839 22.3189 31.2093C22.3101 30.7347 22.3015 30.2258 22.2926 29.6809H23.1094C23.0745 30.77 23.0568 31.6218 23.0568 32.2454C23.0568 32.7374 23.0829 33.1416 23.1269 33.458C23.1792 33.7734 23.2674 34.0282 23.3904 34.2394C23.5137 34.4499 23.672 34.5993 23.8557 34.6872C24.0495 34.7749 24.2866 34.8186 24.5762 34.8186C24.8832 34.8186 25.138 34.7749 25.3225 34.6872C25.5158 34.5993 25.6738 34.4499 25.7968 34.2477C25.9111 34.0459 25.9985 33.7911 26.0511 33.4752C26.1042 33.1593 26.13 32.7464 26.13 32.2369C26.13 31.9293 26.1219 31.5694 26.1128 31.1481C26.1042 30.726 26.0865 30.2342 26.069 29.6809L26.8676 29.6809ZM21.3868 29.6809L21.3601 30.2874C20.7985 30.2611 20.2101 30.2437 19.6037 30.2437C19.6037 30.7965 19.5951 31.4903 19.5951 32.3336C19.5951 33.2639 19.6128 34.2394 19.6386 35.2668H18.8576C18.8927 34.292 18.9102 33.3166 18.9102 32.3336C18.9102 31.4989 18.9011 30.8055 18.8834 30.2437C18.4624 30.2437 17.8654 30.2611 17.1006 30.296L17.1184 29.6809H21.3868ZM16.6205 33.8177C16.6205 34.8803 15.8831 35.4076 14.4163 35.4076C13.8716 35.4076 13.3975 35.3453 12.976 35.2228L13.1334 34.5467C13.6086 34.7131 14.065 34.801 14.4956 34.801C15.4701 34.801 15.953 34.5202 15.953 33.9756C15.953 33.6946 15.83 33.458 15.5752 33.2639C15.4092 33.132 15.0749 32.9566 14.5835 32.7375C14.0649 32.5002 13.6962 32.2894 13.4937 32.0968C13.2042 31.8239 13.055 31.4903 13.055 31.0862C13.055 30.6647 13.2042 30.3132 13.5034 30.0501C13.8282 29.7516 14.2934 29.6022 14.8905 29.6022C15.5752 29.6022 16.0412 29.646 16.2871 29.7428L16.1903 30.4189C15.7513 30.2874 15.2941 30.2166 14.8023 30.2166C14.0649 30.2166 13.6962 30.4631 13.6962 30.9544C13.6962 31.1916 13.8106 31.3848 14.0209 31.5521C14.1528 31.6485 14.4604 31.7977 14.9256 31.9994C15.4617 32.2369 15.8476 32.4568 16.0846 32.667C16.4444 32.9743 16.6204 33.361 16.6204 33.8177L16.6205 33.8177Z" fill="#22282E"/>
</svg>
