<svg width="200" height="65" viewBox="0 0 200 65" fill="none" xmlns="http://www.w3.org/2000/svg">
<g id="case logos">
<path id="Vector" d="M4.60292 23.4331C6.54782 22.8496 8.62237 22.9468 10.5997 23.3034C11.7342 23.4979 12.8363 23.8545 13.8088 24.4379C13.4522 25.3131 13.0956 26.2207 12.7391 27.096C10.9887 26.1559 8.94652 25.6373 6.96921 25.7994C6.22366 25.8642 5.44571 25.9938 4.82983 26.4477C4.05187 26.9339 3.6629 27.9712 3.92222 28.8464C4.08429 29.365 4.50568 29.7864 4.9919 30.0457C6.12643 30.5968 7.35818 30.9533 8.58995 31.1802C10.5024 31.6341 12.6094 32.0879 13.9708 33.6114C14.6516 34.3245 14.846 35.3294 14.8785 36.2694C14.9757 37.9874 13.9708 39.6729 12.5446 40.5806C11.3128 41.4234 9.82173 41.8123 8.36306 41.9096C6.28851 42.1365 4.18153 41.7151 2.23664 41.0344C1.45868 40.7426 0.680713 40.3861 0 39.8998C0.388979 38.9922 0.77797 38.117 1.16695 37.2094C2.46355 37.9874 3.85739 38.7005 5.38089 38.9274C6.41816 39.0895 7.45543 39.0895 8.49271 38.9922C9.46516 38.8626 10.4052 38.4088 10.9238 37.5984C11.2804 37.0149 11.248 36.2045 10.8266 35.6535C10.3728 35.07 9.69206 34.681 8.97893 34.519C7.48785 34.1624 6.02919 33.8707 4.57051 33.3845C3.46841 32.9631 2.33389 32.4768 1.4911 31.6016C0.0324268 30.2726 -0.0972408 27.8739 0.875207 26.2208C1.65316 24.8593 3.11184 23.9517 4.60292 23.4331ZM26.5478 23.271C27.7472 23.3034 28.9789 23.271 30.1783 23.271C30.2107 26.2208 30.1783 29.1705 30.1783 32.1203C30.1783 33.7086 30.1135 35.3618 30.8266 36.8204C31.3776 37.9874 32.5446 38.7653 33.7763 38.9274C35.1378 39.1543 36.6937 38.895 37.7634 37.9874C38.9303 36.9177 39.2221 35.2321 39.2545 33.7086C39.2545 30.2402 39.2545 26.7718 39.2545 23.3034C40.4214 23.3034 41.6207 23.3034 42.7877 23.3034C42.7877 26.707 42.7877 30.1105 42.7877 33.4817C42.7877 34.9079 42.5932 36.3666 42.0097 37.6956C41.329 39.3488 39.9676 40.6454 38.3469 41.3261C36.1102 42.1689 33.5819 42.2013 31.3128 41.4233C29.3355 40.8075 27.6499 39.2191 27.0016 37.2094C26.3858 35.5238 26.4182 33.741 26.4182 31.9906C26.5478 29.0733 26.483 26.1883 26.5478 23.271ZM86.1264 23.3034C87.2934 23.3034 88.4927 23.3034 89.6597 23.3034C89.6597 28.4574 89.6597 33.6113 89.6597 38.7653C92.8363 38.7653 96.0454 38.7653 99.2221 38.7653C99.2221 39.7054 99.2221 40.6778 99.2221 41.6178C94.846 41.6178 90.5024 41.6178 86.1264 41.6178C86.1264 35.4914 86.1264 29.3974 86.1264 23.3034ZM130.535 24.7297C133.387 23.0765 136.953 22.7848 140.097 23.7248C141.524 24.1138 142.82 24.9566 143.857 26.0263C143.112 26.707 142.334 27.3877 141.588 28.0684C139.741 26.0911 136.661 25.5725 134.165 26.4801C132.966 26.9987 131.831 27.8091 131.151 28.976C130.146 30.5644 129.887 32.6065 130.405 34.4217C130.891 36.0749 132.026 37.5984 133.647 38.2791C135.786 39.3164 138.412 39.1867 140.486 38.0198C140.486 36.1721 140.486 34.3245 140.486 32.4768C141.524 32.4768 142.561 32.4768 143.63 32.4768C143.63 34.8755 143.63 37.2418 143.63 39.6405C142.237 40.6778 140.583 41.1964 138.898 41.553C136.661 42.0392 134.295 41.9096 132.156 41.0992C130.243 40.4185 128.59 39.0895 127.618 37.3066C126.515 35.5562 126.191 33.4493 126.386 31.4396C126.613 28.7167 128.298 26.2208 130.535 24.7297ZM184.214 23.271C189.465 23.271 194.716 23.271 200 23.271C200 24.2434 200 25.2159 200 26.1883C197.99 26.1883 195.948 26.1883 193.938 26.1883C193.938 31.3099 193.938 36.4639 193.938 41.5854C192.707 41.5854 191.475 41.5854 190.276 41.5854C190.276 36.4639 190.276 31.3099 190.276 26.1883C188.266 26.1883 186.224 26.1883 184.214 26.1883C184.214 25.2159 184.214 24.2434 184.214 23.271ZM56.013 41.5854C56.013 35.4914 56.013 29.365 56.013 23.271C56.9206 23.271 57.8606 23.271 58.7682 23.271C58.9952 23.2062 59.0924 23.4331 59.222 23.5627C62.5932 27.6794 65.9644 31.7637 69.3355 35.8804C69.3355 31.6665 69.3355 27.4849 69.3355 23.271C70.5024 23.271 71.6694 23.271 72.8363 23.271C72.8363 29.365 72.8363 35.4914 72.8363 41.5854C71.8963 41.5854 70.9562 41.5854 70.0162 41.5854C66.5154 37.4363 63.0146 33.2872 59.5138 29.1381C59.5138 33.2872 59.5138 37.4363 59.5138 41.5854C58.3469 41.5854 57.1799 41.5854 56.013 41.5854ZM110.502 41.6178C110.47 35.5238 110.502 29.3974 110.502 23.3034C111.734 23.3034 112.966 23.3034 114.165 23.3034C114.165 29.3974 114.165 35.5238 114.165 41.6178C112.934 41.5854 111.702 41.5854 110.502 41.6178ZM156.499 41.5854C156.499 35.4914 156.499 29.365 156.499 23.271C157.666 23.271 158.865 23.271 160.032 23.271C160.032 25.7994 160.032 28.3277 160.032 30.8561C163.144 30.8561 166.288 30.8561 169.4 30.8561C169.4 28.3277 169.4 25.7994 169.4 23.271C170.632 23.271 171.864 23.271 173.063 23.271C173.063 29.365 173.063 35.4914 173.063 41.5854C171.831 41.5854 170.6 41.5854 169.4 41.5854C169.4 38.9598 169.433 36.3666 169.4 33.741C166.288 33.7734 163.144 33.7086 160.032 33.7734C160.065 36.3666 160.032 38.9922 160.032 41.5854C158.865 41.5854 157.666 41.5854 156.499 41.5854Z" fill="#22282E"/>
</g>
</svg>
