<svg width="80" height="80" viewBox="0 0 80 80" fill="none" xmlns="http://www.w3.org/2000/svg">
<path d="M28.5425 51.3465C29.8661 44.8259 35.6311 39.918 42.5424 39.918C50.4322 39.918 56.8281 46.3139 56.8281 54.2037C56.8281 62.0934 50.4322 68.4894 42.5424 68.4894C39.0174 68.4894 35.7906 67.2128 33.2992 65.0963" stroke="#01CA9A" stroke-width="2" stroke-linecap="round" stroke-linejoin="round"/>
<path d="M13.9704 61.2987C12.1192 60.5432 10.3876 59.4821 8.85374 58.1415C5.21095 54.957 2.98234 50.4561 2.65821 45.6285C2.33407 40.8009 3.94095 36.0423 7.12539 32.3995C8.70214 30.5958 10.6187 29.1203 12.7657 28.0572C14.9127 26.9942 17.2481 26.3644 19.6384 26.2039C19.8865 26.2094 20.1309 26.1437 20.3429 26.0147C20.5549 25.8857 20.7255 25.6987 20.8346 25.4759C22.4836 20.6966 25.7212 16.6271 30.0074 13.946C34.2937 11.265 39.3695 10.1343 44.3885 10.7427C49.4074 11.3511 54.0661 13.6616 57.5876 17.2891C61.1093 20.9166 63.2807 25.6418 63.7401 30.6766C63.7784 30.9416 63.8921 31.1902 64.067 31.393C64.2424 31.5957 64.4716 31.7441 64.7281 31.8207C68.4447 32.6962 71.711 34.9041 73.9087 38.0261C76.1064 41.1482 77.083 44.9677 76.6538 48.7615C76.2241 52.5553 74.4184 56.0598 71.579 58.6118C70.567 59.521 69.4487 60.2867 68.2561 60.8969" stroke="#01CA9A" stroke-width="2" stroke-linecap="round" stroke-linejoin="round"/>
<path d="M25.3996 42.7695L28.5425 51.341L36.8281 49.9124" stroke="#01CA9A" stroke-width="2" stroke-linecap="round" stroke-linejoin="round"/>
</svg>
