<svg width="80" height="80" viewBox="0 0 80 80" fill="none" xmlns="http://www.w3.org/2000/svg">
<g clip-path="url(#clip0_6343_3263)">
<path d="M2.85742 8.6889V71.546C2.85742 74.702 5.41579 77.2603 8.57171 77.2603H71.4289C74.5849 77.2603 77.1431 74.702 77.1431 71.546V8.6889C77.1431 5.53298 74.5849 2.97461 71.4289 2.97461H8.57171C5.41579 2.97461 2.85742 5.53298 2.85742 8.6889Z" stroke="#01CA9A" stroke-width="2" stroke-linecap="round" stroke-linejoin="round"/>
<path d="M25.7148 62.9746L25.7148 38.6973" stroke="#01CA9A" stroke-width="2" stroke-linecap="round" stroke-linejoin="round"/>
<path d="M22.3092 16.538L23.1406 14.3918C23.2808 14.0284 23.5275 13.7158 23.8484 13.495C24.1693 13.2742 24.5493 13.1554 24.9388 13.1543H26.5243C26.9138 13.1554 27.2939 13.2742 27.6147 13.495C27.9356 13.7158 28.1822 14.0284 28.3225 14.3918L29.1539 16.538L31.9768 18.1621L34.2583 17.8141C34.6382 17.7625 35.025 17.8251 35.3693 17.9938C35.7135 18.1625 35.9998 18.4297 36.1918 18.7615L36.9652 20.115C37.1634 20.4521 37.2549 20.8414 37.2272 21.2314C37.1996 21.6215 37.0544 21.994 36.8106 22.2999L35.3991 24.0981V27.3464L36.8492 29.1446C37.0931 29.4504 37.2383 29.8229 37.2659 30.213C37.2936 30.6031 37.2021 30.9923 37.0039 31.3294L36.2305 32.6829C36.0385 33.0147 35.7522 33.2819 35.408 33.4507C35.0636 33.6193 34.6769 33.682 34.297 33.6303L32.0154 33.2823L29.1926 34.9065L28.3611 37.0527C28.2209 37.416 27.9742 37.7286 27.6534 37.9494C27.3325 38.1703 26.9524 38.289 26.563 38.2901H24.9388C24.5493 38.289 24.1693 38.1703 23.8484 37.9494C23.5275 37.7286 23.2808 37.416 23.1406 37.0527L22.3092 34.9065L19.4863 33.2823L17.2047 33.6303C16.8248 33.682 16.4381 33.6193 16.0938 33.4507C15.7496 33.2819 15.4632 33.0147 15.2712 32.6829L14.4978 31.3294C14.2996 30.9923 14.2083 30.6031 14.2359 30.213C14.2635 29.8229 14.4087 29.4504 14.6524 29.1446L16.0639 27.3464V24.0981L14.6138 22.2999C14.3701 21.994 14.2248 21.6215 14.1972 21.2314C14.1696 20.8414 14.2609 20.4521 14.4591 20.115L15.2325 18.7615C15.4246 18.4297 15.7109 18.1625 16.0552 17.9938C16.3995 17.8251 16.7861 17.7625 17.166 17.8141L19.4476 18.1621L22.3092 16.538Z" stroke="#01CA9A" stroke-width="2" stroke-linecap="round" stroke-linejoin="round"/>
<path d="M22.2988 26.1533L24.7308 27.9773L28.9868 23.1133" stroke="#01CA9A" stroke-width="2" stroke-linecap="round" stroke-linejoin="round"/>
<path d="M54.2861 17.2607V32.2005" stroke="#01CA9A" stroke-width="2" stroke-linecap="round" stroke-linejoin="round"/>
<path d="M54.2861 53.9404V62.9745" stroke="#01CA9A" stroke-width="2" stroke-linecap="round" stroke-linejoin="round"/>
<path d="M57.1359 40.1501C57.0384 39.8741 56.8879 39.6232 56.6966 39.4095C56.2898 38.955 55.6986 38.6689 55.0407 38.6689H53.321C52.2258 38.6689 51.3379 39.5568 51.3379 40.6521C51.3379 41.584 51.9868 42.3902 52.8972 42.5894L55.5154 43.1621C56.5353 43.3852 57.2623 44.2891 57.2623 45.3331C57.2623 46.5601 56.2676 47.5556 55.0407 47.5556H53.5596C52.5922 47.5556 51.7693 46.9374 51.4643 46.0745" stroke="#01CA9A" stroke-width="2" stroke-linecap="round" stroke-linejoin="round"/>
<path d="M54.2998 38.6689V36.4473" stroke="#01CA9A" stroke-width="2" stroke-linecap="round" stroke-linejoin="round"/>
<path d="M54.2998 49.7773V47.5557" stroke="#01CA9A" stroke-width="2" stroke-linecap="round" stroke-linejoin="round"/>
<path d="M54.3001 53.7721C60.1877 53.7721 64.9606 48.9993 64.9606 43.1117C64.9606 37.224 60.1877 32.4512 54.3001 32.4512C48.4125 32.4512 43.6396 37.224 43.6396 43.1117C43.6396 48.9993 48.4125 53.7721 54.3001 53.7721Z" stroke="#01CA9A" stroke-width="2" stroke-linecap="round" stroke-linejoin="round"/>
</g>
<defs>
<clipPath id="clip0_6343_3263">
<rect width="80" height="80" fill="white"/>
</clipPath>
</defs>
</svg>
