<svg width="80" height="80" viewBox="0 0 80 80" fill="none" xmlns="http://www.w3.org/2000/svg">
<g clip-path="url(#clip0_6004_21029)">
<path d="M69.1809 73.2623V63.2623H59.1807M3.524 33.1825C-0.026853 52.0657 11.5291 70.7861 30.3957 75.8416C44.8355 79.7107 59.569 74.5061 68.5424 63.7227M76.4739 46.8194C80.0248 27.9362 68.469 9.21555 49.6024 4.16025C35.1635 0.291364 20.4309 5.49503 11.4577 16.2768M10.6053 7.03094V17.0309H20.6055M30.5773 22.9353C30.5773 21.5169 31.727 20.3672 33.1453 20.3672H51.1219C52.5401 20.3672 53.6901 21.5169 53.6901 22.9353V53.7521C53.6901 55.1706 52.5401 56.3203 51.1219 56.3203H42.1336M22.8727 35.778L28.1019 35.778C28.8647 35.778 29.5963 36.0811 30.1357 36.6204L37.4391 43.9239C37.9785 44.4633 38.7101 44.7663 39.473 44.7663L43.4174 44.7662M33.1453 39.6289L26.2835 46.4907C25.7441 47.0301 25.0125 47.3332 24.2497 47.3332H17.7369M28.0092 44.7628L32.3029 49.0565C32.8423 49.5958 33.1454 50.3276 33.1454 51.0903V56.3191M43.4188 33.8522C43.4188 36.335 41.4061 38.3478 38.9233 38.3478C36.4404 38.3478 34.4277 36.335 34.4277 33.8522C34.4277 31.3693 36.4404 29.3566 38.9233 29.3566C41.4061 29.3566 43.4188 31.3693 43.4188 33.8522Z" stroke="#01CA9A" stroke-width="2" stroke-linecap="round" stroke-linejoin="round"/>
</g>
<defs>
<clipPath id="clip0_6004_21029">
<rect width="80" height="80" fill="white"/>
</clipPath>
</defs>
</svg>
