<svg width="81" height="80" viewBox="0 0 81 80" fill="none" xmlns="http://www.w3.org/2000/svg">
<g id="Employees-Working-Remotely">
<g id="beach--island-waves-outdoor-recreation-tree-beach-palm-wave-water-travel-places">
<g id="Group 4621">
<path id="Vector" d="M77.8072 77.0497H74.9501C71.9192 77.0497 69.0123 75.8457 66.8689 73.7022C64.7255 71.5588 63.5215 68.652 63.5215 65.6211C63.5215 68.652 62.3175 71.5588 60.1741 73.7022C58.0306 75.8457 55.1239 77.0497 52.0929 77.0497C49.0619 77.0497 46.155 75.8457 44.0117 73.7022C41.8684 71.5588 40.6643 68.652 40.6643 65.6211C40.6643 68.652 39.4603 71.5588 37.317 73.7022C35.1737 75.8457 32.2668 77.0497 29.2358 77.0497C26.2047 77.0497 23.2978 75.8457 21.1546 73.7022C19.0113 71.5588 17.8072 68.652 17.8072 65.6211C17.8072 68.652 16.6031 71.5588 14.4598 73.7022C12.3166 75.8457 9.40966 77.0497 6.37863 77.0497H3.52148" stroke="#01CA9A" stroke-width="2" stroke-linecap="round" stroke-linejoin="round"/>
<g id="Group 4622">
<path id="Vector_2" d="M66.8926 54.1969C63.9497 50.6188 60.2508 47.7371 56.0615 45.7585C51.8724 43.78 47.297 42.7539 42.6641 42.7539C38.0312 42.7539 33.4558 43.78 29.2667 45.7585C25.0775 47.7371 21.3786 50.6188 18.4355 54.1969" stroke="#01CA9A" stroke-width="2" stroke-linecap="round" stroke-linejoin="round"/>
<path id="Vector_3" d="M46.8926 43.051C47.2354 30.1367 51.1783 18.3653 59.7497 14.1367" stroke="#01CA9A" stroke-width="2" stroke-linecap="round" stroke-linejoin="round"/>
<path id="Vector_4" d="M42.6621 3.28172C46.3663 2.55233 50.2091 3.27177 53.3986 5.29176C56.5881 7.31178 58.881 10.4784 59.805 14.1389" stroke="#01CA9A" stroke-width="2" stroke-linecap="round" stroke-linejoin="round"/>
<path id="Vector_5" d="M80.6623 16.2518C78.032 13.4119 74.456 11.6301 70.6052 11.2407C66.7539 10.8514 62.8932 11.8815 59.748 14.1375" stroke="#01CA9A" stroke-width="2" stroke-linecap="round" stroke-linejoin="round"/>
<path id="Vector_6" d="M38.7793 20.2535C41.0184 16.9547 44.3374 14.5395 48.165 13.4235C51.9926 12.3075 56.0895 12.5606 59.7507 14.1392C63.4231 15.0374 66.6026 17.3276 68.6178 20.5264C70.6332 23.7251 71.3264 27.5819 70.551 31.2821" stroke="#01CA9A" stroke-width="2" stroke-linecap="round" stroke-linejoin="round"/>
</g>
</g>
<g id="laptop-charging--device-laptop-electronics-computer-notebook-charging">
<path id="Vector_2_2" d="M5.06829 22.0664L1.00105 27.9115C0.54913 28.5859 0.54913 29.4851 1.00105 30.1596C1.45296 30.834 2.13083 31.2836 2.80871 31.2836H27.2122C28.5679 31.2836 29.4718 30.3844 29.4718 29.0355C29.4718 28.5859 29.4718 28.3611 29.2458 27.9115L25.1786 22.0664H5.06829Z" stroke="#01CA9A" stroke-width="2" stroke-linecap="round" stroke-linejoin="round"/>
<path id="Vector_4_2" d="M15.2365 8.57422H7.32794C5.97219 8.57422 5.06836 9.47346 5.06836 10.8223V22.0628" stroke="#01CA9A" stroke-width="2" stroke-linecap="round" stroke-linejoin="round"/>
<path id="Vector_4_3" d="M15.0682 8.57422H22.9767C24.3325 8.57422 25.2363 9.47346 25.2363 10.8223V22.0628" stroke="#01CA9A" stroke-width="2" stroke-linecap="round" stroke-linejoin="round"/>
</g>
</g>
</g>
</svg>
