<svg width="80" height="80" viewBox="0 0 80 80" fill="none" xmlns="http://www.w3.org/2000/svg">
<g clip-path="url(#clip0_6004_20994)">
<path d="M40.2313 51.9011L40.2313 61.4888C40.2313 63.0044 40.8336 64.4578 41.905 65.5295C42.9764 66.6011 44.4301 67.2031 45.9456 67.2031L58.3809 67.2031" stroke="#01CA9A" stroke-width="2" stroke-linecap="round" stroke-linejoin="round"/>
<path d="M40.1828 51.9011L40.1828 61.4888C40.1828 63.0044 39.5805 64.4578 38.5091 65.5295C37.4376 66.6011 35.9839 67.2031 34.4685 67.2031L22.0332 67.2031" stroke="#01CA9A" stroke-width="2" stroke-linecap="round" stroke-linejoin="round"/>
<path d="M40.0243 28.0979L40.0243 18.5102C40.0243 16.9946 40.6265 15.5412 41.698 14.4696C42.7694 13.398 44.2231 12.7959 45.7385 12.7959L58.1738 12.7959" stroke="#01CA9A" stroke-width="2" stroke-linecap="round" stroke-linejoin="round"/>
<path d="M39.9757 28.0979L39.9757 18.5102C39.9757 16.9946 39.3735 15.5412 38.302 14.4696C37.2306 13.398 35.7769 12.7959 34.2615 12.7959L21.8262 12.7959" stroke="#01CA9A" stroke-width="2" stroke-linecap="round" stroke-linejoin="round"/>
<path d="M8.62649 58.5695L9.38528 56.6108C9.51325 56.2792 9.73839 55.9939 10.0312 55.7924C10.3241 55.5909 10.6709 55.4825 11.0264 55.4814H12.4734C12.8288 55.4825 13.1757 55.5909 13.4685 55.7924C13.7613 55.9939 13.9865 56.2792 14.1144 56.6108L14.8732 58.5695L17.4495 60.0518L19.5317 59.7342C19.8785 59.6871 20.2314 59.7442 20.5457 59.8981C20.8598 60.0521 21.1211 60.296 21.2964 60.5988L22.0022 61.8341C22.1831 62.1417 22.2665 62.497 22.2413 62.853C22.2161 63.209 22.0836 63.549 21.861 63.8281L20.5729 65.4692V68.4337L21.8963 70.0748C22.1188 70.3539 22.2514 70.6939 22.2766 71.0499C22.3018 71.4059 22.2184 71.7612 22.0375 72.0688L21.3317 73.3041C21.1564 73.6069 20.8951 73.8507 20.581 74.0048C20.2667 74.1587 19.9138 74.2158 19.567 74.1687L17.4848 73.8511L14.9085 75.3334L14.1497 77.2921C14.0218 77.6237 13.7966 77.909 13.5038 78.1105C13.211 78.312 12.8641 78.4204 12.5086 78.4214H11.0264C10.6709 78.4204 10.3241 78.312 10.0312 78.1105C9.73839 77.909 9.51325 77.6237 9.38528 77.2921L8.62649 75.3334L6.05015 73.8511L3.96791 74.1687C3.6212 74.2158 3.26831 74.1587 2.9541 74.0048C2.63991 73.8507 2.37857 73.6069 2.20329 73.3041L1.49745 72.0688C1.31657 71.7612 1.23325 71.4059 1.25845 71.0499C1.28365 70.6939 1.4162 70.3539 1.63862 70.0748L2.92679 68.4337V65.4692L1.60332 63.8281C1.38091 63.549 1.24835 63.209 1.22316 62.853C1.19796 62.497 1.28128 62.1417 1.46215 61.8341L2.168 60.5988C2.34328 60.296 2.60462 60.0521 2.91881 59.8981C3.23302 59.7442 3.5859 59.6871 3.93262 59.7342L6.01486 60.0518L8.62649 58.5695Z" stroke="#01CA9A" stroke-width="2" stroke-linecap="round" stroke-linejoin="round"/>
<path d="M65.126 58.8201L65.8849 56.861C66.0129 56.5293 66.2381 56.244 66.531 56.0425C66.8239 55.8409 67.1708 55.7325 67.5263 55.7314H68.9736C69.3291 55.7325 69.676 55.8409 69.9689 56.0425C70.2618 56.244 70.487 56.5293 70.615 56.861L71.3739 58.8201L73.9507 60.3027L76.0333 59.985C76.3801 59.9379 76.7331 59.995 77.0475 60.149C77.3616 60.303 77.623 60.5469 77.7983 60.8498L78.5043 62.0853C78.6852 62.393 78.7687 62.7483 78.7434 63.1044C78.7182 63.4605 78.5856 63.8005 78.3631 64.0797L77.0747 65.7211V68.6862L78.3984 70.3276C78.6209 70.6068 78.7535 70.9469 78.7787 71.3029C78.804 71.659 78.7205 72.0143 78.5396 72.322L77.8336 73.5575C77.6583 73.8604 77.3969 74.1043 77.0828 74.2584C76.7684 74.4123 76.4154 74.4695 76.0686 74.4223L73.986 74.1046L71.4092 75.5872L70.6503 77.5463C70.5223 77.8779 70.2971 78.1633 70.0042 78.3649C69.7113 78.5665 69.3644 78.6748 69.0089 78.6759H67.5263C67.1708 78.6748 66.8239 78.5665 66.531 78.3649C66.2381 78.1633 66.0129 77.8779 65.8849 77.5463L65.126 75.5872L62.5491 74.1046L60.4665 74.4223C60.1197 74.4695 59.7668 74.4123 59.4525 74.2584C59.1382 74.1043 58.8768 73.8604 58.7015 73.5575L57.9955 72.322C57.8146 72.0143 57.7313 71.659 57.7565 71.3029C57.7817 70.9469 57.9143 70.6068 58.1367 70.3276L59.4252 68.6862V65.7211L58.1014 64.0797C57.879 63.8005 57.7464 63.4605 57.7212 63.1044C57.696 62.7483 57.7793 62.393 57.9602 62.0853L58.6662 60.8498C58.8415 60.5469 59.1029 60.303 59.4172 60.149C59.7315 59.995 60.0844 59.9379 60.4312 59.985L62.5138 60.3027L65.126 58.8201Z" stroke="#01CA9A" stroke-width="2" stroke-linecap="round" stroke-linejoin="round"/>
<path d="M68.2676 66.1076V62.6025" stroke="#01CA9A" stroke-width="2" stroke-linecap="round" stroke-linejoin="round"/>
<path d="M68.2499 71.8047C68.0072 71.8047 67.8105 71.6084 67.8105 71.3662C67.8105 71.124 68.0072 70.9277 68.2499 70.9277" stroke="#01CA9A" stroke-width="2" stroke-linecap="round" stroke-linejoin="round"/>
<path d="M68.25 71.8047C68.4928 71.8047 68.6895 71.6084 68.6895 71.3662C68.6895 71.124 68.4928 70.9277 68.25 70.9277" stroke="#01CA9A" stroke-width="2" stroke-linecap="round" stroke-linejoin="round"/>
<path d="M8.37597 4.41192L9.1349 2.45281C9.2629 2.12112 9.48809 1.8358 9.78096 1.63425C10.0739 1.43269 10.4208 1.32429 10.7763 1.32324H12.2236C12.5791 1.32429 12.926 1.43269 13.2189 1.63425C13.5118 1.8358 13.737 2.12112 13.865 2.45281L14.6239 4.41192L17.2007 5.89448L19.2833 5.57679C19.6301 5.52971 19.9831 5.58679 20.2975 5.74079C20.6116 5.89478 20.873 6.13871 21.0483 6.44162L21.7543 7.67709C21.9352 7.98481 22.0187 8.34014 21.9934 8.69621C21.9682 9.05227 21.8356 9.39232 21.6131 9.67149L20.3247 11.3129V14.278L21.6484 15.9194C21.8709 16.1986 22.0035 16.5386 22.0287 16.8947C22.054 17.2508 21.9705 17.6061 21.7896 17.9138L21.0836 19.1493C20.9083 19.4522 20.6469 19.6961 20.3328 19.8502C20.0184 20.0041 19.6654 20.0613 19.3186 20.0141L17.236 19.6964L14.6592 21.179L13.9003 23.1381C13.7723 23.4697 13.5471 23.7551 13.2542 23.9567C12.9613 24.1582 12.6144 24.2666 12.2589 24.2677H10.7763C10.4208 24.2666 10.0739 24.1582 9.78096 23.9567C9.48809 23.7551 9.2629 23.4697 9.1349 23.1381L8.37597 21.179L5.79914 19.6964L3.71649 20.0141C3.36971 20.0613 3.01675 20.0041 2.70248 19.8502C2.38823 19.6961 2.12684 19.4522 1.95153 19.1493L1.24555 17.9138C1.06464 17.6061 0.981299 17.2508 1.0065 16.8947C1.03171 16.5386 1.16429 16.1986 1.38674 15.9194L2.67516 14.278V11.3129L1.35145 9.67149C1.12899 9.39232 0.996407 9.05227 0.971203 8.69621C0.946 8.34014 1.02934 7.98481 1.21025 7.67709L1.91623 6.44162C2.09154 6.13871 2.35293 5.89478 2.66718 5.74079C2.98145 5.58679 3.33441 5.52971 3.68119 5.57679L5.76384 5.89448L8.37597 4.41192Z" stroke="#01CA9A" stroke-width="2" stroke-linecap="round" stroke-linejoin="round"/>
<path d="M11.5176 11.6994V8.19434" stroke="#01CA9A" stroke-width="2" stroke-linecap="round" stroke-linejoin="round"/>
<path d="M11.4999 17.3965C11.2572 17.3965 11.0605 17.2002 11.0605 16.958C11.0605 16.7158 11.2572 16.5195 11.4999 16.5195" stroke="#01CA9A" stroke-width="2" stroke-linecap="round" stroke-linejoin="round"/>
<path d="M11.5 17.3965C11.7428 17.3965 11.9395 17.2002 11.9395 16.958C11.9395 16.7158 11.7428 16.5195 11.5 16.5195" stroke="#01CA9A" stroke-width="2" stroke-linecap="round" stroke-linejoin="round"/>
<path d="M65.376 4.41192L66.1349 2.45281C66.2629 2.12112 66.4881 1.8358 66.781 1.63425C67.0739 1.43269 67.4208 1.32429 67.7763 1.32324H69.2236C69.5791 1.32429 69.926 1.43269 70.2189 1.63425C70.5118 1.8358 70.737 2.12112 70.865 2.45281L71.6239 4.41192L74.2007 5.89448L76.2833 5.57679C76.6301 5.52971 76.9831 5.58679 77.2975 5.74079C77.6116 5.89478 77.873 6.13871 78.0483 6.44162L78.7543 7.67709C78.9352 7.98481 79.0187 8.34014 78.9934 8.69621C78.9682 9.05227 78.8356 9.39232 78.6131 9.67149L77.3247 11.3129V14.278L78.6484 15.9194C78.8709 16.1986 79.0035 16.5386 79.0287 16.8947C79.054 17.2508 78.9705 17.6061 78.7896 17.9138L78.0836 19.1493C77.9083 19.4522 77.6469 19.6961 77.3328 19.8502C77.0184 20.0041 76.6654 20.0613 76.3186 20.0141L74.236 19.6964L71.6592 21.179L70.9003 23.1381C70.7723 23.4697 70.5471 23.7551 70.2542 23.9567C69.9613 24.1582 69.6144 24.2666 69.2589 24.2677H67.7763C67.4208 24.2666 67.0739 24.1582 66.781 23.9567C66.4881 23.7551 66.2629 23.4697 66.1349 23.1381L65.376 21.179L62.7991 19.6964L60.7165 20.0141C60.3697 20.0613 60.0168 20.0041 59.7025 19.8502C59.3882 19.6961 59.1268 19.4522 58.9515 19.1493L58.2455 17.9138C58.0646 17.6061 57.9813 17.2508 58.0065 16.8947C58.0317 16.5386 58.1643 16.1986 58.3867 15.9194L59.6752 14.278V11.3129L58.3514 9.67149C58.129 9.39232 57.9964 9.05227 57.9712 8.69621C57.946 8.34014 58.0293 7.98481 58.2102 7.67709L58.9162 6.44162C59.0915 6.13871 59.3529 5.89478 59.6672 5.74079C59.9815 5.58679 60.3344 5.52971 60.6812 5.57679L62.7638 5.89448L65.376 4.41192Z" stroke="#01CA9A" stroke-width="2" stroke-linecap="round" stroke-linejoin="round"/>
<path d="M37.107 31.6184L37.8657 29.6596C37.9937 29.328 38.2189 29.0427 38.5117 28.8412C38.8045 28.6397 39.1514 28.5313 39.5068 28.5303H40.9538C41.3093 28.5313 41.6562 28.6397 41.949 28.8412C42.2418 29.0427 42.4669 29.328 42.5949 29.6596L43.3537 31.6184L45.93 33.1006L48.0122 32.783C48.359 32.7359 48.7119 32.793 49.0262 32.947C49.3403 33.1009 49.6016 33.3448 49.7768 33.6477L50.4827 34.8829C50.6635 35.1905 50.747 35.5458 50.7218 35.9018C50.6965 36.2578 50.564 36.5978 50.3415 36.8769L49.0533 38.518V41.4826L50.3768 43.1236C50.5993 43.4028 50.7318 43.7427 50.7571 44.0987C50.7823 44.4547 50.6988 44.81 50.518 45.1177L49.8121 46.3529C49.6369 46.6557 49.3756 46.8996 49.0615 47.0536C48.7472 47.2075 48.3943 47.2647 48.0475 47.2176L45.9653 46.8999L43.389 48.3822L42.6302 50.3409C42.5022 50.6725 42.2771 50.9578 41.9843 51.1594C41.6915 51.3609 41.3446 51.4692 40.9891 51.4703H39.5068C39.1514 51.4692 38.8045 51.3609 38.5117 51.1594C38.2189 50.9578 37.9937 50.6725 37.8657 50.3409L37.107 48.3822L34.5306 46.8999L32.4484 47.2176C32.1017 47.2647 31.7488 47.2075 31.4346 47.0536C31.1204 46.8996 30.859 46.6557 30.6838 46.3529L29.9779 45.1177C29.797 44.81 29.7137 44.4547 29.7389 44.0987C29.7641 43.7427 29.8967 43.4028 30.1191 43.1236L31.4073 41.4826V38.518L30.0838 36.8769C29.8614 36.5978 29.7288 36.2578 29.7036 35.9018C29.6784 35.5458 29.7618 35.1905 29.9426 34.8829L30.6485 33.6477C30.8237 33.3448 31.0851 33.1009 31.3993 32.947C31.7135 32.793 32.0664 32.7359 32.4131 32.783L34.4953 33.1006L37.107 31.6184Z" stroke="#01CA9A" stroke-width="2" stroke-linecap="round" stroke-linejoin="round"/>
</g>
<defs>
<clipPath id="clip0_6004_20994">
<rect width="80" height="80" fill="white"/>
</clipPath>
</defs>
</svg>
