<svg width="77" height="77" viewBox="0 0 77 77" fill="none" xmlns="http://www.w3.org/2000/svg">
    <path d="M19.1126 37.3926L14.6289 52.4292" stroke="#01CA9A" stroke-width="2" stroke-linecap="round" stroke-linejoin="round"/>
    <path d="M61.6233 23.8569L58.1445 43.1421" stroke="#01CA9A" stroke-width="2" stroke-linecap="round" stroke-linejoin="round"/>
    <path d="M32.7246 32.8132L41.1439 41.143" stroke="#01CA9A" stroke-width="2" stroke-linecap="round" stroke-linejoin="round"/>
    <path d="M52.4277 12.43C52.4277 13.931 52.7234 15.4173 53.2978 16.8041C53.8722 18.1908 54.7141 19.4509 55.7755 20.5122C56.8369 21.5736 58.0969 22.4155 59.4837 22.9899C60.8704 23.5644 62.3567 23.86 63.8577 23.86C65.3587 23.86 66.8451 23.5644 68.2318 22.9899C69.6186 22.4155 70.8786 21.5736 71.94 20.5122C73.0013 19.4509 73.8433 18.1908 74.4177 16.8041C74.9921 15.4173 75.2877 13.931 75.2877 12.43C75.2877 9.39858 74.0835 6.49131 71.94 4.34777C69.7964 2.20423 66.8892 1 63.8577 1C60.8263 1 57.919 2.20423 55.7755 4.34777C53.632 6.49131 52.4277 9.39858 52.4277 12.43Z" stroke="#01CA9A" stroke-width="2" stroke-linecap="round" stroke-linejoin="round"/>
    <path d="M63.8574 7.34937V12.4294" stroke="#01CA9A" stroke-width="2" stroke-linecap="round" stroke-linejoin="round"/>
    <path d="M63.8574 17.5106H63.8701" stroke="#01CA9A" stroke-width="2" stroke-linecap="round" stroke-linejoin="round"/>
    <path d="M31.431 20.3216C32.2312 20.7766 32.7227 21.6281 32.7169 22.5482V30.874C32.7169 31.7987 32.2106 32.6514 31.3933 33.1006L23.6779 37.9813C23.2954 38.1913 22.8661 38.3014 22.4298 38.3014C21.9934 38.3014 21.5641 38.1913 21.1816 37.9813L13.4662 33.1006C13.0663 32.8821 12.7325 32.5601 12.4997 32.1684C12.2668 31.7767 12.1435 31.3297 12.1426 30.874V22.5471C12.1426 21.6224 12.6489 20.7708 13.4662 20.3216L21.1816 15.7724C21.5754 15.5553 22.0178 15.4414 22.4675 15.4414C22.9172 15.4414 23.3596 15.5553 23.7534 15.7724L31.4688 20.3216H31.431Z" stroke="#01CA9A" stroke-width="2" stroke-linecap="round" stroke-linejoin="round"/>
    <path d="M22.4297 22.2979V26.8699" stroke="#01CA9A" stroke-width="2" stroke-linecap="round" stroke-linejoin="round"/>
    <path d="M22.4297 31.4431H22.4411" stroke="#01CA9A" stroke-width="2" stroke-linecap="round" stroke-linejoin="round"/>
    <path d="M1 54.9697C1 54.296 1.26761 53.65 1.74395 53.1736C2.22029 52.6973 2.86635 52.4297 3.54 52.4297H21.32C21.9936 52.4297 22.6397 52.6973 23.1161 53.1736C23.5924 53.65 23.86 54.296 23.86 54.9697V72.7497C23.86 73.4233 23.5924 74.0694 23.1161 74.5457C22.6397 75.0221 21.9936 75.2897 21.32 75.2897H3.54C2.86635 75.2897 2.22029 75.0221 1.74395 74.5457C1.26761 74.0694 1 73.4233 1 72.7497V54.9697Z" stroke="#01CA9A" stroke-width="2" stroke-linecap="round" stroke-linejoin="round"/>
    <path d="M12.4297 58.7791V63.8591" stroke="#01CA9A" stroke-width="2" stroke-linecap="round" stroke-linejoin="round"/>
    <path d="M12.4297 68.9402H12.4424" stroke="#01CA9A" stroke-width="2" stroke-linecap="round" stroke-linejoin="round"/>
    <path d="M63.8244 54.3391C64.0348 54.7266 64.1445 55.1604 64.1445 55.6009C64.1445 56.0419 64.0348 56.4752 63.8244 56.8628C63.6272 57.2494 63.3263 57.5737 62.9556 57.7999C62.5852 58.0267 62.1588 58.1464 61.7242 58.146H36.5648C36.1302 58.1464 35.7041 58.0267 35.3335 57.7999C34.9628 57.5737 34.6622 57.2494 34.4646 56.8628C34.2546 56.4752 34.1445 56.0419 34.1445 55.6009C34.1445 55.1604 34.2546 54.7266 34.4646 54.3391L47.1087 31.5834C47.2824 31.1584 47.579 30.7948 47.9607 30.5387C48.3424 30.2827 48.7918 30.146 49.2516 30.146C49.7115 30.146 50.1611 30.2827 50.543 30.5387C50.9244 30.7948 51.221 31.1584 51.3946 31.5834L63.8244 54.3391Z" stroke="#01CA9A" stroke-width="2" stroke-linecap="round" stroke-linejoin="round"/>
    <path d="M49.166 45.314V41.0366" stroke="#01CA9A" stroke-width="2" stroke-linecap="round" stroke-linejoin="round"/>
    <path d="M49.1455 52.267C48.8494 52.267 48.6094 52.0275 48.6094 51.7319C48.6094 51.4363 48.8494 51.1968 49.1455 51.1968" stroke="#01CA9A" stroke-width="2" stroke-linecap="round" stroke-linejoin="round"/>
    <path d="M49.1445 52.267C49.4408 52.267 49.6809 52.0275 49.6809 51.7319C49.6809 51.4363 49.4408 51.1968 49.1445 51.1968" stroke="#01CA9A" stroke-width="2" stroke-linecap="round" stroke-linejoin="round"/>
</svg>
