<svg width="40" height="41" viewBox="0 0 40 41" fill="none" xmlns="http://www.w3.org/2000/svg">
<rect y="0.669922" width="40" height="40" rx="15" fill="#00FFC5"/>
<path d="M13.5371 24.6281L17.755 20.9014V32.0815" stroke="#22282E" stroke-width="2" stroke-linecap="round" stroke-linejoin="round"/>
<path d="M26.4648 28.3547L22.2471 32.0815V20.9014" stroke="#22282E" stroke-width="2" stroke-linecap="round" stroke-linejoin="round"/>
<path d="M13.3997 28.9035C11.5893 29.025 9.80488 28.4224 8.4388 27.2284C7.07276 26.0342 6.23703 24.3463 6.11548 22.536C5.99393 20.7256 6.59651 18.9412 7.79068 17.5751C8.38195 16.8987 9.10067 16.3454 9.9058 15.9467C10.7109 15.5481 11.5867 15.312 12.4831 15.2518C12.5761 15.2538 12.6678 15.2292 12.7473 15.1808C12.8267 15.1324 12.8907 15.0623 12.9316 14.9787C13.55 13.1865 14.7641 11.6605 16.3714 10.6551C17.9788 9.64965 19.8822 9.22566 21.7643 9.45379C23.6464 9.68192 25.3935 10.5484 26.714 11.9087C28.0346 13.269 28.8489 15.0409 29.0212 16.929C29.0356 17.0284 29.0782 17.1216 29.1438 17.1976C29.2096 17.2737 29.2955 17.3293 29.3917 17.358C30.7854 17.6864 32.0103 18.5143 32.8344 19.6851C33.6586 20.8558 34.0248 22.2882 33.8638 23.7109C33.7027 25.1335 33.0256 26.4478 31.9608 27.4048C31.5123 27.8077 31.0081 28.1355 30.4678 28.3809" stroke="#22282E" stroke-width="2" stroke-linecap="round" stroke-linejoin="round"/>
</svg>

