<svg width="90" height="90" viewBox="0 0 90 90" fill="none" xmlns="http://www.w3.org/2000/svg">
<rect width="90" height="90" rx="15" fill="#00FFC5"/>
<path d="M32.0742 52.9163L40.5099 45.4629V67.8232" stroke="#22282E" stroke-width="2" stroke-linecap="round" stroke-linejoin="round"/>
<path d="M57.9296 60.3695L49.4941 67.8232V45.4629" stroke="#22282E" stroke-width="2" stroke-linecap="round" stroke-linejoin="round"/>
<path d="M31.7994 61.4672C28.1787 61.7102 24.6098 60.5051 21.8776 58.1171C19.1455 55.7286 17.4741 52.3528 17.231 48.7321C16.9879 45.1114 18.193 41.5425 20.5814 38.8103C21.7639 37.4576 23.2013 36.3509 24.8116 35.5536C26.4218 34.7564 28.1734 34.2841 29.9661 34.1637C30.1522 34.1678 30.3355 34.1185 30.4945 34.0217C30.6535 33.925 30.7814 33.7847 30.8633 33.6176C32.1 30.0332 34.5282 26.9811 37.7428 24.9703C40.9576 22.9595 44.7644 22.1115 48.5287 22.5677C52.2929 23.024 55.7869 24.757 58.428 27.4776C61.0693 30.1982 62.6978 33.7421 63.0424 37.5181C63.0711 37.717 63.1564 37.9034 63.2876 38.0555C63.4191 38.2075 63.591 38.3188 63.7834 38.3762C66.5708 39.0329 69.0205 40.6888 70.6688 43.0303C72.3171 45.3719 73.0495 48.2366 72.7277 51.0819C72.4054 53.9273 71.0511 56.5557 68.9215 58.4698C68.0245 59.2755 67.0161 59.9312 65.9357 60.4219" stroke="#22282E" stroke-width="2" stroke-linecap="round" stroke-linejoin="round"/>
</svg>
