<svg width="78" height="78" viewBox="0 0 78 78" fill="none" xmlns="http://www.w3.org/2000/svg">
<g id="module-puzzle-3--code-puzzle-module-programming-plugin-piece">
<path id="Vector 2327" d="M70.4289 1.85742H7.57171C4.41579 1.85742 1.85742 4.41579 1.85742 7.57171V70.4289C1.85742 73.5849 4.41579 76.1431 7.57171 76.1431H70.4289C73.5849 76.1431 76.1431 73.5849 76.1431 70.4289V7.57171C76.1431 4.41579 73.5849 1.85742 70.4289 1.85742Z" stroke="#01CA9A" stroke-width="2" stroke-linecap="round" stroke-linejoin="round"/>
<path id="Vector 2328" d="M39.0006 1.85742V14.04C37.4841 12.6827 35.4816 11.8574 33.2863 11.8574C28.5524 11.8574 24.7148 15.695 24.7148 20.4289C24.7148 25.1627 28.5524 29.0003 33.2863 29.0003C35.4816 29.0003 37.4841 28.175 39.0006 26.8177V51.1829C40.517 49.8256 42.5195 49.0003 44.7148 49.0003C49.4487 49.0003 53.2863 52.8378 53.2863 57.5717C53.2863 62.3054 49.4487 66.1431 44.7148 66.1431C42.5195 66.1431 40.517 65.318 39.0006 63.9609V76.1431" stroke="#01CA9A" stroke-width="2" stroke-linecap="round" stroke-linejoin="round"/>
<path id="Vector 2330" d="M1.85742 39.0006H14.04C12.6827 40.517 11.8574 42.5195 11.8574 44.7148C11.8574 49.4487 15.695 53.2863 20.4289 53.2863C25.1627 53.2863 29.0003 49.4487 29.0003 44.7148C29.0003 42.5195 28.175 40.517 26.8177 39.0006H51.1829C49.8256 37.4841 49.0003 35.4816 49.0003 33.2863C49.0003 28.5524 52.8378 24.7148 57.5717 24.7148C62.3054 24.7148 66.1431 28.5524 66.1431 33.2863C66.1431 35.4816 65.318 37.4841 63.9609 39.0006H76.1431" stroke="#01CA9A" stroke-width="2" stroke-linecap="round" stroke-linejoin="round"/>
</g>
</svg>
