<svg width="71" height="78" viewBox="0 0 71 78" fill="none" xmlns="http://www.w3.org/2000/svg">
<g id="cog--work-loading-cog-gear-settings-machine">
<path id="Vector" d="M25.2197 11.8555L27.6768 5.51261C28.0912 4.43869 28.8203 3.51496 29.7685 2.86239C30.7168 2.20983 31.84 1.85887 32.9911 1.85547H37.6768C38.8279 1.85887 39.9511 2.20983 40.8994 2.86239C41.8477 3.51496 42.5767 4.43869 42.9911 5.51261L45.4482 11.8555L53.7908 16.6555L60.5337 15.6269C61.6566 15.4745 62.7994 15.6593 63.8171 16.1579C64.8343 16.6564 65.6806 17.4462 66.248 18.4269L68.5337 22.4269C69.1194 23.4232 69.3897 24.5736 69.308 25.7264C69.2263 26.8792 68.7971 27.9802 68.0766 28.884L63.9051 34.1983V43.7983L68.1908 49.1126C68.9114 50.0164 69.3406 51.1174 69.4223 52.2702C69.504 53.423 69.2337 54.5735 68.648 55.5698L66.3623 59.5698C65.7949 60.5503 64.9486 61.34 63.9314 61.8389C62.9137 62.3372 61.7709 62.5223 60.648 62.3698L53.9051 61.3412L45.5625 66.1412L43.1054 72.484C42.691 73.5578 41.9619 74.4818 41.0137 75.1343C40.0654 75.7869 38.9422 76.1378 37.7911 76.1412H32.9911C31.84 76.1378 30.7168 75.7869 29.7685 75.1343C28.8203 74.4818 28.0912 73.5578 27.6768 72.484L25.2197 66.1412L16.8768 61.3412L10.1339 62.3698C9.0112 62.5223 7.86845 62.3372 6.85097 61.8389C5.83354 61.34 4.98725 60.5503 4.41965 59.5698L2.13394 55.5698C1.54823 54.5735 1.2784 53.423 1.36 52.2702C1.4416 51.1174 1.87085 50.0164 2.59108 49.1126L6.76251 43.7983V34.1983L2.4768 28.884C1.75657 27.9802 1.32731 26.8792 1.24571 25.7264C1.16411 24.5736 1.43394 23.4232 2.01965 22.4269L4.30537 18.4269C4.87297 17.4462 5.71925 16.6564 6.73668 16.1579C7.75417 15.6593 8.89691 15.4745 10.0197 15.6269L16.7625 16.6555L25.2197 11.8555ZM23.9054 38.9983C23.9054 41.2587 24.5757 43.4683 25.8314 45.3477C27.0873 47.2271 28.8721 48.6919 30.9604 49.557C33.0487 50.4219 35.3466 50.6483 37.5635 50.2073C39.7805 49.7663 41.8169 48.6779 43.4152 47.0795C45.0135 45.4812 46.1019 43.4448 46.5429 41.2279C46.9839 39.011 46.7576 36.7131 45.8926 34.6248C45.0276 32.5365 43.5627 30.7516 41.6833 29.4958C39.8039 28.24 37.5943 27.5698 35.3339 27.5698C32.3029 27.5698 29.396 28.7738 27.2527 30.9171C25.1095 33.0604 23.9054 35.9673 23.9054 38.9983Z" stroke="#01CA9A" stroke-width="2" stroke-linecap="round" stroke-linejoin="round"/>
</g>
</svg>
