<svg width="80" height="80" viewBox="0 0 80 80" fill="none" xmlns="http://www.w3.org/2000/svg">
<g clip-path="url(#clip0_6343_388)">
<g clip-path="url(#clip1_6343_388)">
<path d="M11.4287 53.9911V45.766C11.4287 44.2505 12.0308 42.7971 13.1024 41.7254C14.174 40.6538 15.6275 40.0518 17.143 40.0518H62.8573C64.3727 40.0518 65.8264 40.6538 66.8979 41.7254C67.9693 42.7971 68.5716 44.2505 68.5716 45.766L68.5716 53.9911" stroke="#01CA9A" stroke-width="2" stroke-linecap="round" stroke-linejoin="round"/>
<path d="M40 22.3076L40 54.8445" stroke="#01CA9A" stroke-width="2" stroke-linecap="round" stroke-linejoin="round"/>
<path d="M23.2754 10.9025H25.5323V23.3157H27.7893V8.64551H23.2754V10.9025Z" fill="#01CA9A"/>
<path d="M25.5322 7.51672H28.9177V23.3154H31.1746V5.25977H25.5322V7.51672ZM35.6885 14.2876C35.6885 10.5534 38.7252 7.51672 42.4594 7.51672C46.1935 7.51672 49.2302 10.5534 49.2302 14.2876H51.4872C51.4872 9.30986 47.4371 5.25977 42.4594 5.25977C37.4817 5.25977 33.4316 9.30986 33.4316 14.2876C33.4316 19.2653 37.4817 23.3154 42.4594 23.3154H57.1295V21.0584H42.4594C38.7252 21.0584 35.6885 18.0217 35.6885 14.2876Z" fill="#01CA9A"/>
<path d="M42.4602 16.5433C41.2155 16.5433 40.2032 15.5311 40.2032 14.2864C40.2032 13.0417 41.2155 12.0294 42.4602 12.0294C43.7049 12.0294 44.7171 13.0417 44.7171 14.2864H46.9741C46.9741 11.7969 44.9496 9.77246 42.4602 9.77246C39.9708 9.77246 37.9463 11.7969 37.9463 14.2864C37.9463 16.7758 39.9708 18.8003 42.4602 18.8003H57.1304V16.5433H42.4602Z" fill="#01CA9A"/>
<path d="M36.6787 58.0379L37.4376 56.0788C37.5656 55.7471 37.7908 55.4618 38.0837 55.2602C38.3766 55.0587 38.7235 54.9503 39.079 54.9492H40.5263C40.8818 54.9503 41.2288 55.0587 41.5217 55.2602C41.8146 55.4618 42.0397 55.7471 42.1677 56.0788L42.9266 58.0379L45.5034 59.5205L47.5861 59.2028C47.9329 59.1557 48.2859 59.2128 48.6002 59.3668C48.9144 59.5208 49.1758 59.7647 49.351 60.0676L50.057 61.3031C50.2379 61.6108 50.3214 61.9661 50.2962 62.3222C50.2709 62.6782 50.1384 63.0183 49.9158 63.2975L48.6274 64.9389V67.904L49.9511 69.5454C50.1737 69.8246 50.3062 70.1646 50.3315 70.5207C50.3567 70.8767 50.2732 71.2321 50.0923 71.5398L49.3863 72.7753C49.2111 73.0781 48.9497 73.3221 48.6355 73.4761C48.3212 73.63 47.9682 73.6872 47.6214 73.6401L45.5387 73.3224L42.9619 74.805L42.203 76.7641C42.075 77.0957 41.8499 77.3811 41.557 77.5827C41.2641 77.7842 40.9171 77.8926 40.5616 77.8937H39.079C38.7235 77.8926 38.3766 77.7842 38.0837 77.5827C37.7908 77.3811 37.5656 77.0957 37.4376 76.7641L36.6787 74.805L34.1019 73.3224L32.0192 73.6401C31.6724 73.6872 31.3195 73.63 31.0052 73.4761C30.691 73.3221 30.4296 73.0781 30.2543 72.7753L29.5483 71.5398C29.3674 71.2321 29.284 70.8767 29.3092 70.5207C29.3344 70.1646 29.467 69.8246 29.6895 69.5454L30.9779 67.904V64.9389L29.6542 63.2975C29.4317 63.0183 29.2991 62.6782 29.2739 62.3222C29.2487 61.9661 29.3321 61.6108 29.513 61.3031L30.219 60.0676C30.3943 59.7647 30.6557 59.5208 30.9699 59.3668C31.2842 59.2128 31.6371 59.1557 31.9839 59.2028L34.0666 59.5205L36.6787 58.0379Z" stroke="#01CA9A" stroke-width="2" stroke-linecap="round" stroke-linejoin="round"/>
<path d="M8.60794 57.7873L9.36672 55.8286C9.49469 55.4969 9.71984 55.2117 10.0127 55.0102C10.3055 54.8086 10.6524 54.7003 11.0078 54.6992H12.4548C12.8103 54.7003 13.1571 54.8086 13.45 55.0102C13.7428 55.2117 13.9679 55.4969 14.0959 55.8286L14.8547 57.7873L17.4309 59.2696L19.5132 58.9519C19.8599 58.9049 20.2129 58.9619 20.5271 59.1159C20.8412 59.2699 21.1026 59.5138 21.2778 59.8166L21.9836 61.0518C22.1645 61.3595 22.248 61.7148 22.2228 62.0708C22.1975 62.4268 22.065 62.7667 21.8425 63.0458L20.5543 64.6869V67.6515L21.8778 69.2926C22.1003 69.5717 22.2328 69.9117 22.258 70.2677C22.2833 70.6237 22.1998 70.9789 22.0189 71.2866L21.3131 72.5218C21.1379 72.8246 20.8765 73.0685 20.5624 73.2226C20.2482 73.3764 19.8952 73.4336 19.5485 73.3865L17.4662 73.0689L14.89 74.5511L14.1312 76.5099C14.0032 76.8414 13.7781 77.1268 13.4852 77.3283C13.1924 77.5298 12.8456 77.6382 12.4901 77.6392H11.0078C10.6524 77.6382 10.3055 77.5298 10.0127 77.3283C9.71984 77.1268 9.49469 76.8414 9.36672 76.5099L8.60794 74.5511L6.0316 73.0689L3.94935 73.3865C3.60264 73.4336 3.24976 73.3764 2.93555 73.2226C2.62136 73.0685 2.36002 72.8246 2.18474 72.5218L1.47889 71.2866C1.29802 70.9789 1.21469 70.6237 1.23989 70.2677C1.26509 69.9117 1.39765 69.5717 1.62006 69.2926L2.90823 67.6515V64.6869L1.58477 63.0458C1.36236 62.7667 1.2298 62.4268 1.2046 62.0708C1.1794 61.7148 1.26273 61.3595 1.4436 61.0518L2.14945 59.8166C2.32473 59.5138 2.58607 59.2699 2.90025 59.1159C3.21446 58.9619 3.56735 58.9049 3.91406 58.9519L5.99631 59.2696L8.60794 57.7873Z" stroke="#01CA9A" stroke-width="2" stroke-linecap="round" stroke-linejoin="round"/>
<path d="M8.60794 57.7873L9.36672 55.8286C9.49469 55.4969 9.71984 55.2117 10.0127 55.0102C10.3055 54.8086 10.6524 54.7003 11.0078 54.6992H12.4548C12.8103 54.7003 13.1571 54.8086 13.45 55.0102C13.7428 55.2117 13.9679 55.4969 14.0959 55.8286L14.8547 57.7873L17.4309 59.2696L19.5132 58.9519C19.8599 58.9049 20.2129 58.9619 20.5271 59.1159C20.8412 59.2699 21.1026 59.5138 21.2778 59.8166L21.9836 61.0518C22.1645 61.3595 22.248 61.7148 22.2228 62.0708C22.1975 62.4268 22.065 62.7667 21.8425 63.0458L20.5543 64.6869V67.6515L21.8778 69.2926C22.1003 69.5717 22.2328 69.9117 22.258 70.2677C22.2833 70.6237 22.1998 70.9789 22.0189 71.2866L21.3131 72.5218C21.1379 72.8246 20.8765 73.0685 20.5624 73.2226C20.2482 73.3764 19.8952 73.4336 19.5485 73.3865L17.4662 73.0689L14.89 74.5511L14.1312 76.5099C14.0032 76.8414 13.7781 77.1268 13.4852 77.3283C13.1924 77.5298 12.8456 77.6382 12.4901 77.6392H11.0078C10.6524 77.6382 10.3055 77.5298 10.0127 77.3283C9.71984 77.1268 9.49469 76.8414 9.36672 76.5099L8.60794 74.5511L6.0316 73.0689L3.94935 73.3865C3.60264 73.4336 3.24976 73.3764 2.93555 73.2226C2.62136 73.0685 2.36002 72.8246 2.18474 72.5218L1.47889 71.2866C1.29802 70.9789 1.21469 70.6237 1.23989 70.2677C1.26509 69.9117 1.39765 69.5717 1.62006 69.2926L2.90823 67.6515V64.6869L1.58477 63.0458C1.36236 62.7667 1.2298 62.4268 1.2046 62.0708C1.1794 61.7148 1.26273 61.3595 1.4436 61.0518L2.14945 59.8166C2.32473 59.5138 2.58607 59.2699 2.90025 59.1159C3.21446 58.9619 3.56735 58.9049 3.91406 58.9519L5.99631 59.2696L8.60794 57.7873Z" stroke="#01CA9A" stroke-width="2" stroke-linecap="round" stroke-linejoin="round"/>
<path d="M65.6079 57.7873L66.3667 55.8286C66.4947 55.4969 66.7198 55.2117 67.0127 55.0102C67.3055 54.8086 67.6524 54.7003 68.0078 54.6992H69.4548C69.8103 54.7003 70.1571 54.8086 70.45 55.0102C70.7428 55.2117 70.9679 55.4969 71.0959 55.8286L71.8547 57.7873L74.4309 59.2696L76.5132 58.9519C76.8599 58.9049 77.2129 58.9619 77.5271 59.1159C77.8412 59.2699 78.1026 59.5138 78.2778 59.8166L78.9836 61.0518C79.1645 61.3595 79.248 61.7148 79.2228 62.0708C79.1975 62.4268 79.065 62.7667 78.8425 63.0458L77.5543 64.6869V67.6515L78.8778 69.2926C79.1003 69.5717 79.2328 69.9117 79.258 70.2677C79.2833 70.6237 79.1998 70.9789 79.0189 71.2866L78.3131 72.5218C78.1379 72.8246 77.8765 73.0685 77.5624 73.2226C77.2482 73.3764 76.8952 73.4336 76.5485 73.3865L74.4662 73.0689L71.89 74.5511L71.1312 76.5099C71.0032 76.8414 70.7781 77.1268 70.4852 77.3283C70.1924 77.5298 69.8456 77.6382 69.4901 77.6392H68.0078C67.6524 77.6382 67.3055 77.5298 67.0127 77.3283C66.7198 77.1268 66.4947 76.8414 66.3667 76.5099L65.6079 74.5511L63.0316 73.0689L60.9494 73.3865C60.6026 73.4336 60.2498 73.3764 59.9355 73.2226C59.6214 73.0685 59.36 72.8246 59.1847 72.5218L58.4789 71.2866C58.298 70.9789 58.2147 70.6237 58.2399 70.2677C58.2651 69.9117 58.3976 69.5717 58.6201 69.2926L59.9082 67.6515V64.6869L58.5848 63.0458C58.3624 62.7667 58.2298 62.4268 58.2046 62.0708C58.1794 61.7148 58.2627 61.3595 58.4436 61.0518L59.1494 59.8166C59.3247 59.5138 59.5861 59.2699 59.9003 59.1159C60.2145 58.9619 60.5673 58.9049 60.9141 58.9519L62.9963 59.2696L65.6079 57.7873Z" stroke="#01CA9A" stroke-width="2" stroke-linecap="round" stroke-linejoin="round"/>
<path d="M65.6079 57.7873L66.3667 55.8286C66.4947 55.4969 66.7198 55.2117 67.0127 55.0102C67.3055 54.8086 67.6524 54.7003 68.0078 54.6992H69.4548C69.8103 54.7003 70.1571 54.8086 70.45 55.0102C70.7428 55.2117 70.9679 55.4969 71.0959 55.8286L71.8547 57.7873L74.4309 59.2696L76.5132 58.9519C76.8599 58.9049 77.2129 58.9619 77.5271 59.1159C77.8412 59.2699 78.1026 59.5138 78.2778 59.8166L78.9836 61.0518C79.1645 61.3595 79.248 61.7148 79.2228 62.0708C79.1975 62.4268 79.065 62.7667 78.8425 63.0458L77.5543 64.6869V67.6515L78.8778 69.2926C79.1003 69.5717 79.2328 69.9117 79.258 70.2677C79.2833 70.6237 79.1998 70.9789 79.0189 71.2866L78.3131 72.5218C78.1379 72.8246 77.8765 73.0685 77.5624 73.2226C77.2482 73.3764 76.8952 73.4336 76.5485 73.3865L74.4662 73.0689L71.89 74.5511L71.1312 76.5099C71.0032 76.8414 70.7781 77.1268 70.4852 77.3283C70.1924 77.5298 69.8456 77.6382 69.4901 77.6392H68.0078C67.6524 77.6382 67.3055 77.5298 67.0127 77.3283C66.7198 77.1268 66.4947 76.8414 66.3667 76.5099L65.6079 74.5511L63.0316 73.0689L60.9494 73.3865C60.6026 73.4336 60.2498 73.3764 59.9355 73.2226C59.6214 73.0685 59.36 72.8246 59.1847 72.5218L58.4789 71.2866C58.298 70.9789 58.2147 70.6237 58.2399 70.2677C58.2651 69.9117 58.3976 69.5717 58.6201 69.2926L59.9082 67.6515V64.6869L58.5848 63.0458C58.3624 62.7667 58.2298 62.4268 58.2046 62.0708C58.1794 61.7148 58.2627 61.3595 58.4436 61.0518L59.1494 59.8166C59.3247 59.5138 59.5861 59.2699 59.9003 59.1159C60.2145 58.9619 60.5673 58.9049 60.9141 58.9519L62.9963 59.2696L65.6079 57.7873Z" stroke="#01CA9A" stroke-width="2" stroke-linecap="round" stroke-linejoin="round"/>
</g>
</g>
<defs>
<clipPath id="clip0_6343_388">
<rect width="80" height="80" fill="white"/>
</clipPath>
<clipPath id="clip1_6343_388">
<rect width="80" height="80" fill="white" transform="translate(0 0.447266)"/>
</clipPath>
</defs>
</svg>
