<svg width="61" height="77" viewBox="0 0 61 77" fill="none" xmlns="http://www.w3.org/2000/svg">
<g id="flash-1--flash-power-connect-charge-electricity-lightning">
<path id="Vector" d="M14.8561 1.32959L1.99897 31.6724C1.82114 32.1053 1.7524 32.5752 1.79869 33.0408C1.84497 33.5065 2.00491 33.9537 2.26451 34.3431C2.52406 34.7324 2.87531 35.052 3.28737 35.2739C3.69937 35.4958 4.1596 35.613 4.62754 35.6153H20.5704L9.14183 75.6153L58.2275 29.101C58.6355 28.7081 58.9173 28.203 59.0373 27.6496C59.1573 27.0963 59.1104 26.5197 58.9018 25.9931C58.6938 25.4666 58.3338 25.0138 57.8681 24.6921C57.4018 24.3705 56.851 24.1946 56.2847 24.1867H34.8561L46.2847 1.32959H14.8561Z" stroke="#01CA9A" stroke-width="2" stroke-linecap="round" stroke-linejoin="round"/>
</g>
</svg>
