<svg width="80" height="80" viewBox="0 0 80 80" fill="none" xmlns="http://www.w3.org/2000/svg">
<g clip-path="url(#clip0_6343_919)">
<path d="M11.4287 54.0201V45.8315C11.4287 44.3159 12.0308 42.8625 13.1024 41.7908C14.174 40.7192 15.6275 40.1172 17.143 40.1172H62.8573C64.3727 40.1172 65.8264 40.7192 66.8979 41.7908C67.9693 42.8625 68.5716 44.3159 68.5716 45.8315L68.5716 54.0201" stroke="#01CA9A" stroke-width="2" stroke-linecap="round" stroke-linejoin="round"/>
<path d="M40 26.1523L40 54.3971" stroke="#01CA9A" stroke-width="2" stroke-linecap="round" stroke-linejoin="round"/>
<path d="M39.668 2.91992C27.0704 2.91992 21.7812 14.249 21.7812 14.4841C21.7812 14.7191 27.0704 26.0482 39.668 26.0482C52.2658 26.0482 57.5548 14.7191 57.5548 14.4841C57.5548 14.249 52.2658 2.91992 39.668 2.91992Z" stroke="#01CA9A" stroke-width="2" stroke-linecap="round" stroke-linejoin="round"/>
<path d="M38.4989 19.5818C41.3139 20.2264 44.1184 18.4669 44.763 15.652C45.4076 12.837 43.6482 10.0325 40.8333 9.38787C38.0183 8.74326 35.2138 10.5027 34.5692 13.3176C33.9246 16.1326 35.684 18.9371 38.4989 19.5818Z" stroke="#01CA9A" stroke-width="2" stroke-linecap="round" stroke-linejoin="round"/>
<path d="M36.6787 57.5906L37.4376 55.6315C37.5656 55.2998 37.7908 55.0145 38.0837 54.813C38.3766 54.6114 38.7235 54.503 39.079 54.502H40.5263C40.8818 54.503 41.2288 54.6114 41.5217 54.813C41.8146 55.0145 42.0397 55.2998 42.1677 55.6315L42.9266 57.5906L45.5034 59.0732L47.5861 58.7555C47.9329 58.7084 48.2859 58.7655 48.6002 58.9195C48.9144 59.0735 49.1758 59.3174 49.351 59.6203L50.057 60.8558C50.2379 61.1635 50.3214 61.5189 50.2962 61.8749C50.2709 62.231 50.1384 62.571 49.9158 62.8502L48.6274 64.4916V67.4567L49.9511 69.0981C50.1737 69.3773 50.3062 69.7174 50.3315 70.0734C50.3567 70.4295 50.2732 70.7848 50.0923 71.0925L49.3863 72.328C49.2111 72.6309 48.9497 72.8748 48.6355 73.0289C48.3212 73.1828 47.9682 73.24 47.6214 73.1928L45.5387 72.8751L42.9619 74.3577L42.203 76.3168C42.075 76.6484 41.8499 76.9338 41.557 77.1354C41.2641 77.337 40.9171 77.4453 40.5616 77.4464H39.079C38.7235 77.4453 38.3766 77.337 38.0837 77.1354C37.7908 76.9338 37.5656 76.6484 37.4376 76.3168L36.6787 74.3577L34.1019 72.8751L32.0192 73.1928C31.6724 73.24 31.3195 73.1828 31.0052 73.0289C30.691 72.8748 30.4296 72.6309 30.2543 72.328L29.5483 71.0925C29.3674 70.7848 29.284 70.4295 29.3092 70.0734C29.3344 69.7174 29.467 69.3773 29.6895 69.0981L30.9779 67.4567V64.4916L29.6542 62.8502C29.4317 62.571 29.2991 62.231 29.2739 61.8749C29.2487 61.5189 29.3321 61.1635 29.513 60.8558L30.219 59.6203C30.3943 59.3174 30.6557 59.0735 30.9699 58.9195C31.2842 58.7655 31.6371 58.7084 31.9839 58.7555L34.0666 59.0732L36.6787 57.5906Z" stroke="#01CA9A" stroke-width="2" stroke-linecap="round" stroke-linejoin="round"/>
<path d="M8.60794 57.34L9.36672 55.3813C9.49469 55.0497 9.71984 54.7644 10.0127 54.5629C10.3055 54.3614 10.6524 54.253 11.0078 54.252H12.4548C12.8103 54.253 13.1571 54.3614 13.45 54.5629C13.7428 54.7644 13.9679 55.0497 14.0959 55.3813L14.8547 57.34L17.4309 58.8223L19.5132 58.5047C19.8599 58.4576 20.2129 58.5147 20.5271 58.6686C20.8412 58.8226 21.1026 59.0665 21.2778 59.3693L21.9836 60.6046C22.1645 60.9122 22.248 61.2675 22.2228 61.6235C22.1975 61.9795 22.065 62.3195 21.8425 62.5986L20.5543 64.2397V67.2042L21.8778 68.8453C22.1003 69.1244 22.2328 69.4644 22.258 69.8204C22.2833 70.1764 22.1998 70.5317 22.0189 70.8393L21.3131 72.0746C21.1379 72.3774 20.8765 72.6212 20.5624 72.7753C20.2482 72.9292 19.8952 72.9863 19.5485 72.9392L17.4662 72.6216L14.89 74.1039L14.1312 76.0626C14.0032 76.3942 13.7781 76.6795 13.4852 76.881C13.1924 77.0825 12.8456 77.1909 12.4901 77.192H11.0078C10.6524 77.1909 10.3055 77.0825 10.0127 76.881C9.71984 76.6795 9.49469 76.3942 9.36672 76.0626L8.60794 74.1039L6.0316 72.6216L3.94935 72.9392C3.60264 72.9863 3.24976 72.9292 2.93555 72.7753C2.62136 72.6212 2.36002 72.3774 2.18474 72.0746L1.47889 70.8393C1.29802 70.5317 1.21469 70.1764 1.23989 69.8204C1.26509 69.4644 1.39765 69.1244 1.62006 68.8453L2.90823 67.2042V64.2397L1.58477 62.5986C1.36236 62.3195 1.2298 61.9795 1.2046 61.6235C1.1794 61.2675 1.26273 60.9122 1.4436 60.6046L2.14945 59.3693C2.32473 59.0665 2.58607 58.8226 2.90025 58.6686C3.21446 58.5147 3.56735 58.4576 3.91406 58.5047L5.99631 58.8223L8.60794 57.34Z" stroke="#01CA9A" stroke-width="2" stroke-linecap="round" stroke-linejoin="round"/>
<path d="M8.60794 57.34L9.36672 55.3813C9.49469 55.0497 9.71984 54.7644 10.0127 54.5629C10.3055 54.3614 10.6524 54.253 11.0078 54.252H12.4548C12.8103 54.253 13.1571 54.3614 13.45 54.5629C13.7428 54.7644 13.9679 55.0497 14.0959 55.3813L14.8547 57.34L17.4309 58.8223L19.5132 58.5047C19.8599 58.4576 20.2129 58.5147 20.5271 58.6686C20.8412 58.8226 21.1026 59.0665 21.2778 59.3693L21.9836 60.6046C22.1645 60.9122 22.248 61.2675 22.2228 61.6235C22.1975 61.9795 22.065 62.3195 21.8425 62.5986L20.5543 64.2397V67.2042L21.8778 68.8453C22.1003 69.1244 22.2328 69.4644 22.258 69.8204C22.2833 70.1764 22.1998 70.5317 22.0189 70.8393L21.3131 72.0746C21.1379 72.3774 20.8765 72.6212 20.5624 72.7753C20.2482 72.9292 19.8952 72.9863 19.5485 72.9392L17.4662 72.6216L14.89 74.1039L14.1312 76.0626C14.0032 76.3942 13.7781 76.6795 13.4852 76.881C13.1924 77.0825 12.8456 77.1909 12.4901 77.192H11.0078C10.6524 77.1909 10.3055 77.0825 10.0127 76.881C9.71984 76.6795 9.49469 76.3942 9.36672 76.0626L8.60794 74.1039L6.0316 72.6216L3.94935 72.9392C3.60264 72.9863 3.24976 72.9292 2.93555 72.7753C2.62136 72.6212 2.36002 72.3774 2.18474 72.0746L1.47889 70.8393C1.29802 70.5317 1.21469 70.1764 1.23989 69.8204C1.26509 69.4644 1.39765 69.1244 1.62006 68.8453L2.90823 67.2042V64.2397L1.58477 62.5986C1.36236 62.3195 1.2298 61.9795 1.2046 61.6235C1.1794 61.2675 1.26273 60.9122 1.4436 60.6046L2.14945 59.3693C2.32473 59.0665 2.58607 58.8226 2.90025 58.6686C3.21446 58.5147 3.56735 58.4576 3.91406 58.5047L5.99631 58.8223L8.60794 57.34Z" stroke="#01CA9A" stroke-width="2" stroke-linecap="round" stroke-linejoin="round"/>
<path d="M65.6079 57.34L66.3667 55.3813C66.4947 55.0497 66.7198 54.7644 67.0127 54.5629C67.3055 54.3614 67.6524 54.253 68.0078 54.252H69.4548C69.8103 54.253 70.1571 54.3614 70.45 54.5629C70.7428 54.7644 70.9679 55.0497 71.0959 55.3813L71.8547 57.34L74.4309 58.8223L76.5132 58.5047C76.8599 58.4576 77.2129 58.5147 77.5271 58.6686C77.8412 58.8226 78.1026 59.0665 78.2778 59.3693L78.9836 60.6046C79.1645 60.9122 79.248 61.2675 79.2228 61.6235C79.1975 61.9795 79.065 62.3195 78.8425 62.5986L77.5543 64.2397V67.2042L78.8778 68.8453C79.1003 69.1244 79.2328 69.4644 79.258 69.8204C79.2833 70.1764 79.1998 70.5317 79.0189 70.8393L78.3131 72.0746C78.1379 72.3774 77.8765 72.6212 77.5624 72.7753C77.2482 72.9292 76.8952 72.9863 76.5485 72.9392L74.4662 72.6216L71.89 74.1039L71.1312 76.0626C71.0032 76.3942 70.7781 76.6795 70.4852 76.881C70.1924 77.0825 69.8456 77.1909 69.4901 77.192H68.0078C67.6524 77.1909 67.3055 77.0825 67.0127 76.881C66.7198 76.6795 66.4947 76.3942 66.3667 76.0626L65.6079 74.1039L63.0316 72.6216L60.9494 72.9392C60.6026 72.9863 60.2498 72.9292 59.9355 72.7753C59.6214 72.6212 59.36 72.3774 59.1847 72.0746L58.4789 70.8393C58.298 70.5317 58.2147 70.1764 58.2399 69.8204C58.2651 69.4644 58.3976 69.1244 58.6201 68.8453L59.9082 67.2042V64.2397L58.5848 62.5986C58.3624 62.3195 58.2298 61.9795 58.2046 61.6235C58.1794 61.2675 58.2627 60.9122 58.4436 60.6046L59.1494 59.3693C59.3247 59.0665 59.5861 58.8226 59.9003 58.6686C60.2145 58.5147 60.5673 58.4576 60.9141 58.5047L62.9963 58.8223L65.6079 57.34Z" stroke="#01CA9A" stroke-width="2" stroke-linecap="round" stroke-linejoin="round"/>
<path d="M65.6079 57.34L66.3667 55.3813C66.4947 55.0497 66.7198 54.7644 67.0127 54.5629C67.3055 54.3614 67.6524 54.253 68.0078 54.252H69.4548C69.8103 54.253 70.1571 54.3614 70.45 54.5629C70.7428 54.7644 70.9679 55.0497 71.0959 55.3813L71.8547 57.34L74.4309 58.8223L76.5132 58.5047C76.8599 58.4576 77.2129 58.5147 77.5271 58.6686C77.8412 58.8226 78.1026 59.0665 78.2778 59.3693L78.9836 60.6046C79.1645 60.9122 79.248 61.2675 79.2228 61.6235C79.1975 61.9795 79.065 62.3195 78.8425 62.5986L77.5543 64.2397V67.2042L78.8778 68.8453C79.1003 69.1244 79.2328 69.4644 79.258 69.8204C79.2833 70.1764 79.1998 70.5317 79.0189 70.8393L78.3131 72.0746C78.1379 72.3774 77.8765 72.6212 77.5624 72.7753C77.2482 72.9292 76.8952 72.9863 76.5485 72.9392L74.4662 72.6216L71.89 74.1039L71.1312 76.0626C71.0032 76.3942 70.7781 76.6795 70.4852 76.881C70.1924 77.0825 69.8456 77.1909 69.4901 77.192H68.0078C67.6524 77.1909 67.3055 77.0825 67.0127 76.881C66.7198 76.6795 66.4947 76.3942 66.3667 76.0626L65.6079 74.1039L63.0316 72.6216L60.9494 72.9392C60.6026 72.9863 60.2498 72.9292 59.9355 72.7753C59.6214 72.6212 59.36 72.3774 59.1847 72.0746L58.4789 70.8393C58.298 70.5317 58.2147 70.1764 58.2399 69.8204C58.2651 69.4644 58.3976 69.1244 58.6201 68.8453L59.9082 67.2042V64.2397L58.5848 62.5986C58.3624 62.3195 58.2298 61.9795 58.2046 61.6235C58.1794 61.2675 58.2627 60.9122 58.4436 60.6046L59.1494 59.3693C59.3247 59.0665 59.5861 58.8226 59.9003 58.6686C60.2145 58.5147 60.5673 58.4576 60.9141 58.5047L62.9963 58.8223L65.6079 57.34Z" stroke="#01CA9A" stroke-width="2" stroke-linecap="round" stroke-linejoin="round"/>
</g>
<defs>
<clipPath id="clip0_6343_919">
<rect width="80" height="80" fill="white"/>
</clipPath>
</defs>
</svg>
