<svg width="65" height="77" viewBox="0 0 65 77" fill="none" xmlns="http://www.w3.org/2000/svg">
<path d="M63.8574 69.5714C63.8574 71.0869 63.2551 72.5406 62.1837 73.612C61.1117 74.6834 59.6586 75.2857 58.1431 75.2857H6.71429C5.19874 75.2857 3.74531 74.6834 2.67366 73.612C1.60204 72.5406 1 71.0869 1 69.5714V6.71429C1 5.19874 1.60204 3.74531 2.67366 2.67367C3.74531 1.60204 5.19874 1 6.71429 1H38.6331C40.1486 1 41.6021 1.60204 42.6737 2.67367L62.1837 22.1835C63.2551 23.2551 63.8574 24.7086 63.8574 26.2241V69.5714Z" stroke="#01CA9A" stroke-width="2" stroke-linecap="round" stroke-linejoin="round"/>
<path d="M35.6191 34.5703H49.9049" stroke="#01CA9A" stroke-width="2" stroke-linecap="round" stroke-linejoin="round"/>
<path d="M35.6191 54.3945H49.9049" stroke="#01CA9A" stroke-width="2" stroke-linecap="round" stroke-linejoin="round"/>
<path d="M13.5215 54.0675L18.3094 58.8555L26.2893 47.6836" stroke="#01CA9A" stroke-width="2" stroke-linecap="round" stroke-linejoin="round"/>
<path d="M13.5215 33.8918L18.3094 38.6797L26.2893 27.5078" stroke="#01CA9A" stroke-width="2" stroke-linecap="round" stroke-linejoin="round"/>
</svg>
