<svg width="80" height="80" viewBox="0 0 80 80" fill="none" xmlns="http://www.w3.org/2000/svg">
<g clip-path="url(#clip0_6343_1956)">
<g clip-path="url(#clip1_6343_1956)">
<path d="M11.4287 53.3594V46.018C11.4287 44.5025 12.0308 43.049 13.1024 41.9774C14.174 40.9058 15.6275 40.3037 17.143 40.3037H62.8573C64.3727 40.3037 65.8264 40.9058 66.8979 41.9774C67.9693 43.049 68.5716 44.5025 68.5716 46.018L68.5716 53.3594" stroke="#01CA9A" stroke-width="2" stroke-linecap="round" stroke-linejoin="round"/>
<path d="M40 25.8662L40 53.7374" stroke="#01CA9A" stroke-width="2" stroke-linecap="round" stroke-linejoin="round"/>
<path d="M35.1508 12.3387L36.89 17.339L35.5895 20.8935H44.874L43.5739 17.339L45.3131 12.3387C45.5536 11.6475 45.0167 10.9336 44.2563 10.9336H36.2076C35.4473 10.9336 34.9103 11.6475 35.1508 12.3387Z" stroke="#01CA9A" stroke-width="2" stroke-linecap="round" stroke-linejoin="round"/>
<path d="M40.2324 7.61234V3.35254" stroke="#01CA9A" stroke-width="2" stroke-linecap="round" stroke-linejoin="round"/>
<path d="M38.9541 4.62988H41.51" stroke="#01CA9A" stroke-width="2" stroke-linecap="round" stroke-linejoin="round"/>
<path d="M43.5541 10.9342C43.5541 9.09959 42.0668 7.6123 40.2321 7.6123C38.3975 7.6123 36.9102 9.09959 36.9102 10.9342" stroke="#01CA9A" stroke-width="2" stroke-linecap="round" stroke-linejoin="round"/>
<path d="M33.2051 21.9098C33.4074 21.3029 33.9754 20.8936 34.6151 20.8936H45.8489C46.4887 20.8936 47.0567 21.3029 47.2589 21.9098L48.4065 25.3523H32.0576L33.2051 21.9098Z" stroke="#01CA9A" stroke-width="2" stroke-linecap="round" stroke-linejoin="round"/>
<path d="M32.379 72.8503C32.6022 72.181 33.2286 71.7295 33.9343 71.7295H46.3255C47.031 71.7295 47.6575 72.181 47.8808 72.8503L49.1464 76.6475H31.1133L32.379 72.8503Z" stroke="#01CA9A" stroke-width="2" stroke-linecap="round" stroke-linejoin="round"/>
<path d="M34.3279 71.7292C34.5967 70.3255 36.538 68.7127 37.9119 67.6376C41.2033 65.0618 40.8984 62.8589 40.3607 62.2616L37.0712 64.1413C36.2894 64.588 35.3093 64.4829 34.64 63.8806C33.9023 63.2166 33.7344 62.125 34.2384 61.27L36.7171 57.065L35.7614 54.9146C37.3343 54.3571 41.687 54.6519 43.4072 55.9899C45.5577 57.6624 48.3053 60.2011 46.0354 71.7292" stroke="#01CA9A" stroke-width="2" stroke-linecap="round" stroke-linejoin="round"/>
<path d="M41.4378 60.5215C41.2473 61.3472 40.7823 61.9196 40.3691 62.2633" stroke="#01CA9A" stroke-width="2" stroke-linecap="round" stroke-linejoin="round"/>
<path d="M11.7813 53.6475C9.17762 53.6475 7.06697 55.7581 7.06697 58.3617C7.06697 59.5403 7.49941 60.9398 8.21429 62.1187C7.30313 61.7279 6.34231 61.5046 5.49553 61.5046C2.89191 61.5046 0.78125 63.6153 0.78125 66.2189C0.78125 68.8225 2.89191 70.9332 5.49553 70.9332C6.73179 70.9332 8.21119 70.4573 9.4241 69.6788L8.21429 75.6475H15.3482L14.1384 69.6788C15.3513 70.4573 16.8307 70.9332 18.067 70.9332C20.6706 70.9332 22.7813 68.8225 22.7813 66.2189C22.7813 63.6153 20.6706 61.5046 18.067 61.5046C17.2202 61.5046 16.2594 61.7279 15.3482 62.1187C16.0631 60.9398 16.4955 59.5403 16.4955 58.3617C16.4955 55.7581 14.3849 53.6475 11.7813 53.6475Z" stroke="#01CA9A" stroke-width="2" stroke-linecap="round" stroke-linejoin="round"/>
<path d="M61.2094 72.008C61.4233 71.3663 62.0238 70.9336 62.7001 70.9336H74.5777C75.2541 70.9336 75.8546 71.3663 76.0685 72.008L77.2817 75.6479H59.9961L61.2094 72.008Z" stroke="#01CA9A" stroke-width="2" stroke-linecap="round" stroke-linejoin="round"/>
<path d="M68.6388 61.5032C70.808 61.5032 72.5666 59.7446 72.5666 57.5753C72.5666 55.406 70.808 53.6475 68.6388 53.6475C66.4695 53.6475 64.7109 55.406 64.7109 57.5753C64.7109 59.7446 66.4695 61.5032 68.6388 61.5032Z" stroke="#01CA9A" stroke-width="2" stroke-linecap="round" stroke-linejoin="round"/>
<path d="M63.1387 70.9336C64.8238 69.2485 65.945 63.9543 66.2815 61.5049" stroke="#01CA9A" stroke-width="2" stroke-linecap="round" stroke-linejoin="round"/>
<path d="M74.139 70.9336C72.4539 69.2486 71.3326 63.9545 70.9961 61.5049" stroke="#01CA9A" stroke-width="2" stroke-linecap="round" stroke-linejoin="round"/>
<path d="M63.9248 61.5049H73.3534" stroke="#01CA9A" stroke-width="2" stroke-linecap="round" stroke-linejoin="round"/>
</g>
</g>
<defs>
<clipPath id="clip0_6343_1956">
<rect width="80" height="80" fill="white"/>
</clipPath>
<clipPath id="clip1_6343_1956">
<rect width="80" height="80" fill="white"/>
</clipPath>
</defs>
</svg>
