<svg width="80" height="80" viewBox="0 0 80 80" fill="none" xmlns="http://www.w3.org/2000/svg">
<path d="M3.69531 30.8945V48.89" stroke="#01CA9A" stroke-width="2" stroke-linecap="round" stroke-linejoin="round"/>
<path d="M3.69531 2.85742V20.8529" stroke="#01CA9A" stroke-width="2" stroke-linecap="round" stroke-linejoin="round"/>
<path d="M3.69531 58.9316V76.9271" stroke="#01CA9A" stroke-width="2" stroke-linecap="round" stroke-linejoin="round"/>
<path d="M38.7266 2.85742V20.8529" stroke="#01CA9A" stroke-width="2" stroke-linecap="round" stroke-linejoin="round"/>
<path d="M49.4551 2.85742V20.8529" stroke="#01CA9A" stroke-width="2" stroke-linecap="round" stroke-linejoin="round"/>
<path d="M14.9727 30.8945V48.89" stroke="#01CA9A" stroke-width="2" stroke-linecap="round" stroke-linejoin="round"/>
<path d="M15.0684 9.56834C15.0684 5.86199 18.0729 2.85742 21.7793 2.85742C25.4856 2.85742 28.4902 5.86199 28.4902 9.56834V14.0397C28.4902 17.746 25.4856 20.7506 21.7793 20.7506C18.0729 20.7506 15.0684 17.746 15.0684 14.0397V9.56834Z" stroke="#01CA9A" stroke-width="2" stroke-linecap="round" stroke-linejoin="round"/>
<path d="M25.2305 37.6054C25.2305 33.8992 28.235 30.8945 31.9414 30.8945C35.6477 30.8945 38.6523 33.8991 38.6523 37.6054V42.0768C38.6523 45.7832 35.6477 48.7877 31.9414 48.7877C28.235 48.7877 25.2305 45.7832 25.2305 42.0768V37.6054Z" stroke="#01CA9A" stroke-width="2" stroke-linecap="round" stroke-linejoin="round"/>
<path d="M15.0684 65.7441C15.0684 62.0378 18.0729 59.0332 21.7793 59.0332C25.4856 59.0332 28.4902 62.0378 28.4902 65.7441V70.2155C28.4902 73.9218 25.4856 76.9263 21.7793 76.9263C18.0729 76.9263 15.0684 73.9218 15.0684 70.2155V65.7441Z" stroke="#01CA9A" stroke-width="2" stroke-linecap="round" stroke-linejoin="round"/>
<path d="M42.7891 56.9268H67.7891C69.2891 56.9268 70.2891 57.9268 70.2891 59.4268V74.4268C70.2891 75.9268 69.2891 76.9268 67.7891 76.9268H42.7891C41.2891 76.9268 40.2891 75.9268 40.2891 74.4268V59.4268C40.2891 57.9268 41.2891 56.9268 42.7891 56.9268Z" stroke="#01CA9A" stroke-width="2" stroke-linecap="round" stroke-linejoin="round"/>
<path d="M45.2891 56.9287V51.9287C45.2891 46.4287 49.7891 41.9287 55.2891 41.9287C60.7891 41.9287 65.2891 46.4287 65.2891 51.9287V56.9287" stroke="#01CA9A" stroke-width="2" stroke-linecap="round" stroke-linejoin="round"/>
</svg>
