<svg width="41" height="40" viewBox="0 0 41 40" fill="none" xmlns="http://www.w3.org/2000/svg">
<g clip-path="url(#clip0_5521_4352)">
<path fill-rule="evenodd" clip-rule="evenodd" d="M20.8674 39.8156H20.7095C12.8143 39.8156 8.19826 39.0216 4.98375 35.8693C1.67117 32.4944 0.908203 27.9095 0.908203 20.0479V19.8254C0.908203 11.9638 1.67117 7.34767 4.98375 4.004C8.22935 0.854071 12.8143 0.0576172 20.7071 0.0576172H20.8674C28.729 0.0576172 33.3451 0.854071 36.5932 4.004C39.9058 7.37876 40.6687 11.9638 40.6687 19.8254V20.0479C40.6687 27.9119 39.9034 32.528 36.5932 35.8693C33.3451 39.0192 28.7626 39.8156 20.8674 39.8156ZM35.8399 19.3464C35.9932 19.3536 36.1178 19.4805 36.1178 19.6338H36.1154V20.2755C36.1154 20.4311 35.9908 20.558 35.8375 20.5628C30.3377 20.7711 26.9925 21.4703 24.6483 23.8145C22.3065 26.1562 21.6073 29.4966 21.3966 34.9871C21.3894 35.1402 21.2626 35.2647 21.1093 35.2647H20.4652C20.3095 35.2647 20.1826 35.1402 20.1779 34.9871C19.9671 29.4966 19.268 26.1562 16.9262 23.8145C14.5844 21.4727 11.2369 20.7711 5.73685 20.5628C5.5836 20.5556 5.4591 20.4287 5.4591 20.2755V19.6338C5.4591 19.4781 5.5836 19.3512 5.73685 19.3464C11.2369 19.1381 14.582 18.4389 16.9262 16.0947C19.2728 13.7482 19.9719 10.3959 20.1803 4.88628C20.1874 4.73303 20.3143 4.60851 20.4676 4.60851H21.1093C21.2649 4.60851 21.3918 4.73303 21.3966 4.88628C21.6049 10.3983 22.3041 13.7482 24.6507 16.0947C26.9925 18.4365 30.3401 19.1381 35.8399 19.3464Z" fill="white"/>
</g>
<defs>
<clipPath id="clip0_5521_4352">
<rect width="39.7605" height="40" fill="white" transform="translate(0.908203)"/>
</clipPath>
</defs>
</svg>
