<svg width="24" height="25" viewBox="0 0 24 25" fill="none" xmlns="http://www.w3.org/2000/svg">
<g id="file-lock-02">
<path id="Icon" d="M9.59961 22.0984H7.19961C5.21138 22.0984 3.59961 20.4867 3.59961 18.4984V6.49844C3.59961 4.51021 5.21138 2.89844 7.19961 2.89844H15.5996C17.5878 2.89844 19.1996 4.51021 19.1996 6.49844V9.49844M14.9996 15.4984V14.2984C14.9996 13.3043 15.8055 12.4984 16.7996 12.4984C17.7937 12.4984 18.5996 13.3043 18.5996 14.2984V16.0984M14.9996 7.69844H7.19961M11.3996 11.2984H7.19961M9.59961 14.8984H7.19961M14.3996 22.0984H19.1996C19.8624 22.0984 20.3996 21.5612 20.3996 20.8984V17.2984C20.3996 16.6357 19.8624 16.0984 19.1996 16.0984H14.3996C13.7369 16.0984 13.1996 16.6357 13.1996 17.2984V20.8984C13.1996 21.5612 13.7369 22.0984 14.3996 22.0984Z" stroke="black" stroke-width="2" stroke-linecap="round" stroke-linejoin="round"/>
</g>
</svg>
