<svg
    width="62"
    height="24"
    viewBox="0 0 62 24"
    fill="none"
    xmlns="http://www.w3.org/2000/svg"
>
    <path
    d="M16.7692 19.1026L10.8205 10.1026L16.7179 1.0513H12.3846L8.4359 7.2051L4.5385 1.0513H0.0513L5.9487 10.0256L0 19.1026H4.3846L8.3333 12.9231L12.3077 19.1026H16.7692ZM24.3443 5.5385C20.8828 5.5385 18.9085 7.4359 18.5495 9.7179H22.0367C22.2418 9.0256 22.9085 8.4359 24.1905 8.4359C25.4469 8.4359 26.37 9.0769 26.37 10.3077V10.9231H23.4726C20.0879 10.9231 18.0367 12.4872 18.0367 15.2051C18.0367 17.8718 20.0879 19.4103 22.652 19.4103C24.37 19.4103 25.7546 18.7436 26.5751 17.6667V19.1026H30.0367V10.4359C30.0367 7.2051 27.7546 5.5385 24.3443 5.5385ZM23.6777 16.5128C22.5238 16.5128 21.7802 15.9487 21.7802 15.0256C21.7802 14.0769 22.6008 13.5128 23.7546 13.5128H26.37V14.1026C26.37 15.641 25.1136 16.5128 23.6777 16.5128ZM40.4103 6.0769C38.5641 6.0769 37.0513 6.7436 36.0769 8.1026C36.3333 5.6154 37.3333 4.3846 39.8462 4L44.8974 3.2564V0L39.4872 0.8974C34.2564 1.7692 32.641 5.2564 32.641 11.0769C32.641 16.3077 35.1795 19.4103 39.6667 19.4103C43.6923 19.4103 46.1795 16.3333 46.1795 12.641C46.1795 8.6667 43.8718 6.0769 40.4103 6.0769ZM39.4872 16.2821C37.5385 16.2821 36.4615 14.7179 36.4615 12.6154C36.4615 10.5897 37.5897 9.1282 39.5128 9.1282C41.3846 9.1282 42.4359 10.641 42.4359 12.641C42.4359 14.641 41.4103 16.2821 39.4872 16.2821ZM56.1647 5.5385C54.2159 5.5385 52.9595 6.3846 52.2929 7.3846V5.8462H48.7031V24H52.4467V17.8205C53.1134 18.7436 54.3698 19.4103 56.0621 19.4103C59.3185 19.4103 61.9082 16.8462 61.9082 12.4872C61.9082 8.0513 59.3185 5.5385 56.1647 5.5385ZM55.2672 16.1795C53.5236 16.1795 52.3698 14.7692 52.3698 12.5385V12.4359C52.3698 10.2051 53.5236 8.7692 55.2672 8.7692C57.0108 8.7692 58.139 10.2308 58.139 12.4872C58.139 14.7436 57.0108 16.1795 55.2672 16.1795Z"
    fill="white"
    />
</svg>