<svg width="34" height="33" viewBox="0 0 34 33" fill="none" xmlns="http://www.w3.org/2000/svg">
<g id="instagram">
<g id="Group 4546">
<path id="Vector" d="M25.9404 8.22446C25.5838 8.22446 25.2949 7.93549 25.2949 7.57903C25.2949 7.22257 25.5838 6.93359 25.9404 6.93359" stroke="#22282E" stroke-width="2" stroke-linecap="round" stroke-linejoin="round"/>
<path id="Vector_2" d="M25.9609 8.22446C26.3175 8.22446 26.6064 7.93549 26.6064 7.57903C26.6064 7.22257 26.3175 6.93359 25.9609 6.93359" stroke="#22282E" stroke-width="2" stroke-linecap="round" stroke-linejoin="round"/>
</g>
<path id="Rectangle 2" d="M1.5 7.64285C1.5 3.97412 4.4741 1 8.14286 1H25.8572C29.5259 1 32.5001 3.97412 32.5001 7.64285V25.3572C32.5001 29.0258 29.5259 32 25.8572 32H8.14286C4.4741 32 1.5 29.0258 1.5 25.3572V7.64285Z" stroke="#22282E" stroke-width="2" stroke-linecap="round" stroke-linejoin="round"/>
<path id="Ellipse 11" d="M17.0444 23.1278C20.6803 23.1278 23.6278 20.1803 23.6278 16.5444C23.6278 12.9084 20.6803 9.96094 17.0444 9.96094C13.4084 9.96094 10.4609 12.9084 10.4609 16.5444C10.4609 20.1803 13.4084 23.1278 17.0444 23.1278Z" stroke="#22282E" stroke-width="2" stroke-linecap="round" stroke-linejoin="round"/>
</g>
</svg>
