<svg width="34" height="34" viewBox="0 0 34 34" fill="none" xmlns="http://www.w3.org/2000/svg">
<g id="instagram">
<g id="Group 4546">
<path id="Vector" d="M25.9404 8.72446C25.5838 8.72446 25.2949 8.43549 25.2949 8.07903C25.2949 7.72257 25.5838 7.43359 25.9404 7.43359" stroke="#F1F1F1" stroke-width="2" stroke-linecap="round" stroke-linejoin="round"/>
<path id="Vector_2" d="M25.9609 8.72446C26.3175 8.72446 26.6064 8.43549 26.6064 8.07903C26.6064 7.72257 26.3175 7.43359 25.9609 7.43359" stroke="#F1F1F1" stroke-width="2" stroke-linecap="round" stroke-linejoin="round"/>
</g>
<path id="Rectangle 2" d="M1.5 8.14285C1.5 4.47412 4.4741 1.5 8.14286 1.5H25.8572C29.5259 1.5 32.5001 4.47412 32.5001 8.14285V25.8572C32.5001 29.5258 29.5259 32.5 25.8572 32.5H8.14286C4.4741 32.5 1.5 29.5258 1.5 25.8572V8.14285Z" stroke="#F1F1F1" stroke-width="2" stroke-linecap="round" stroke-linejoin="round"/>
<path id="Ellipse 11" d="M17.0444 23.6278C20.6803 23.6278 23.6278 20.6803 23.6278 17.0444C23.6278 13.4084 20.6803 10.4609 17.0444 10.4609C13.4084 10.4609 10.4609 13.4084 10.4609 17.0444C10.4609 20.6803 13.4084 23.6278 17.0444 23.6278Z" stroke="#F1F1F1" stroke-width="2" stroke-linecap="round" stroke-linejoin="round"/>
</g>
</svg>
