<svg width="34" height="37" viewBox="0 0 34 37" fill="none" xmlns="http://www.w3.org/2000/svg">
<g id="linkedin--network-linkedin-professional">
<path id="Vector" d="M8.04319 4.80901C8.05022 5.7121 7.70166 6.58167 7.0728 7.22988C6.44398 7.87806 5.58535 8.25282 4.68247 8.27316C3.78148 8.2401 2.92762 7.86218 2.29733 7.21745C1.66707 6.57274 1.30855 5.71056 1.2959 4.80901C1.33507 3.93069 1.70674 3.10008 2.33562 2.48562C2.96447 1.87116 3.80347 1.51881 4.68247 1.5C5.55894 1.51916 6.39496 1.87239 7.01963 2.48746C7.6443 3.10253 8.01047 3.93298 8.04319 4.80901ZM1.65782 14.4259C1.65782 12.4353 2.92457 12.7455 4.68247 12.7455C6.4404 12.7455 7.68129 12.4353 7.68129 14.4259V33.8147C7.68129 35.8312 6.41454 35.4175 4.68247 35.4175C2.95042 35.4175 1.65782 35.8312 1.65782 33.8147V14.4259Z" stroke="#22282E" stroke-width="2" stroke-linecap="round" stroke-linejoin="round"/>
<path id="Vector_2" d="M12.9199 14.4748C12.9199 13.3632 13.3335 12.9496 13.9798 12.8204C14.626 12.6911 16.8491 12.8204 17.6246 12.8204C18.4001 12.8204 18.7103 14.087 18.6845 15.0435C19.3478 14.1532 20.2285 13.448 21.2424 12.9954C22.2562 12.5428 23.3692 12.3579 24.4749 12.4585C25.5606 12.3921 26.6483 12.5549 27.6671 12.9363C28.6856 13.3176 29.613 13.9091 30.3881 14.6721C31.1634 15.4352 31.7693 16.3528 32.1668 17.3654C32.5643 18.378 32.7442 19.4629 32.6951 20.5495V33.7847C32.6951 35.8011 31.4544 35.3874 29.6965 35.3874C27.9387 35.3874 26.6979 35.8011 26.6979 33.7847V23.4448C26.7434 22.9126 26.6739 22.3769 26.494 21.874C26.314 21.3711 26.0278 20.9128 25.6551 20.5303C25.2825 20.1477 24.8317 19.8499 24.3337 19.6569C23.8357 19.464 23.3019 19.3805 22.7688 19.4121C22.2381 19.3987 21.7106 19.4981 21.2212 19.7038C20.7318 19.9095 20.2917 20.2168 19.93 20.6054C19.5683 20.994 19.2932 21.4549 19.1231 21.9578C18.953 22.4606 18.8916 22.9939 18.943 23.5223V33.8623C18.943 35.8787 17.6763 35.465 15.9185 35.465C14.1607 35.465 12.9199 35.8787 12.9199 33.8623V14.4748Z" stroke="#22282E" stroke-width="2" stroke-linecap="round" stroke-linejoin="round"/>
</g>
</svg>
