<svg width="34" height="36" viewBox="0 0 34 36" fill="none" xmlns="http://www.w3.org/2000/svg">
<g id="linkedin--network-linkedin-professional">
<path id="Vector" d="M8.04319 4.30901C8.05022 5.2121 7.70166 6.08167 7.0728 6.72988C6.44398 7.37806 5.58535 7.75282 4.68247 7.77316C3.78148 7.7401 2.92762 7.36218 2.29733 6.71745C1.66707 6.07274 1.30855 5.21056 1.2959 4.30901C1.33507 3.43069 1.70674 2.60008 2.33562 1.98562C2.96447 1.37116 3.80347 1.01881 4.68247 1C5.55894 1.01916 6.39496 1.37239 7.01963 1.98746C7.6443 2.60253 8.01047 3.43298 8.04319 4.30901ZM1.65782 13.9259C1.65782 11.9353 2.92457 12.2455 4.68247 12.2455C6.4404 12.2455 7.68129 11.9353 7.68129 13.9259V33.3147C7.68129 35.3312 6.41454 34.9175 4.68247 34.9175C2.95042 34.9175 1.65782 35.3312 1.65782 33.3147V13.9259Z" stroke="#F1F1F1" stroke-width="2" stroke-linecap="round" stroke-linejoin="round"/>
<path id="Vector_2" d="M12.9199 13.9746C12.9199 12.863 13.3335 12.4495 13.9798 12.3202C14.626 12.1909 16.8491 12.3202 17.6246 12.3202C18.4001 12.3202 18.7103 13.5868 18.6845 14.5433C19.3478 13.653 20.2285 12.9478 21.2424 12.4952C22.2562 12.0426 23.3692 11.8578 24.4749 11.9583C25.5606 11.8919 26.6483 12.0547 27.6671 12.4361C28.6856 12.8175 29.613 13.4089 30.3881 14.172C31.1634 14.935 31.7693 15.8527 32.1668 16.8652C32.5643 17.8778 32.7442 18.9627 32.6951 20.0493V33.2845C32.6951 35.3009 31.4544 34.8872 29.6965 34.8872C27.9387 34.8872 26.6979 35.3009 26.6979 33.2845V22.9446C26.7434 22.4124 26.6739 21.8767 26.494 21.3738C26.314 20.8709 26.0278 20.4126 25.6551 20.0301C25.2825 19.6476 24.8317 19.3497 24.3337 19.1568C23.8357 18.9639 23.3019 18.8803 22.7688 18.912C22.2381 18.8985 21.7106 18.9979 21.2212 19.2036C20.7318 19.4093 20.2917 19.7166 19.93 20.1052C19.5683 20.4938 19.2932 20.9547 19.1231 21.4576C18.953 21.9605 18.8916 22.4937 18.943 23.0221V33.3621C18.943 35.3785 17.6763 34.9648 15.9185 34.9648C14.1607 34.9648 12.9199 35.3785 12.9199 33.3621V13.9746Z" stroke="#F1F1F1" stroke-width="2" stroke-linecap="round" stroke-linejoin="round"/>
</g>
</svg>
