<svg width="24" height="25" viewBox="0 0 24 25" fill="none" xmlns="http://www.w3.org/2000/svg">
<g id="phone-ringing-1--android-phone-mobile-device-smartphone-iphone-ringing-incoming-call" clip-path="url(#clip0_3237_27860)">
<g id="phone-ringing-1--android-phone-mobile-device-smartphone-iphone-ringing-incoming-call_2">
<path id="Vector" d="M11.1608 22.9055C10.2721 23.4778 9.21436 23.7286 8.16335 23.6163C7.11236 23.504 6.13143 23.0355 5.38367 22.2884L4.73224 21.637C4.44332 21.3448 4.28125 20.9507 4.28125 20.5398C4.28125 20.1291 4.44332 19.7348 4.73224 19.4427L7.4751 16.717C7.76425 16.4291 8.15566 16.2675 8.56367 16.2675C8.97169 16.2675 9.3631 16.4291 9.65224 16.717C9.94431 17.0059 10.3386 17.168 10.7494 17.168C11.1602 17.168 11.5545 17.0059 11.8465 16.717L16.218 12.3456C16.5069 12.0535 16.669 11.6592 16.669 11.2484C16.669 10.8376 16.5069 10.4433 16.218 10.1513C15.9301 9.86212 15.7685 9.47071 15.7685 9.0627C15.7685 8.65468 15.9301 8.26327 16.218 7.97412L18.8579 5.23127C19.15 4.94233 19.5443 4.78027 19.955 4.78027C20.3659 4.78027 20.7602 4.94233 21.0522 5.23127L21.7036 5.8827C22.4641 6.61991 22.9487 7.59561 23.0766 8.64698C23.2046 9.69835 22.9681 10.7618 22.4065 11.6598C19.4173 16.0977 15.5987 19.9163 11.1608 22.9055Z" stroke="#01CA9A" stroke-width="2" stroke-linecap="round" stroke-linejoin="round"/>
<path id="Vector_2" d="M12.0003 1.35712C10.537 1.35712 9.088 1.64533 7.7361 2.20532C6.38418 2.7653 5.1558 3.58608 4.1211 4.62079C3.08637 5.6555 2.2656 6.88387 1.70562 8.23579C1.14564 9.58769 0.857422 11.0367 0.857422 12.5" stroke="#01CA9A" stroke-width="2" stroke-linecap="round" stroke-linejoin="round"/>
<path id="Vector_3" d="M12.0007 5.64282C10.1821 5.64282 8.43793 6.36527 7.15196 7.65123C5.86601 8.9372 5.14355 10.6813 5.14355 12.5" stroke="#01CA9A" stroke-width="2" stroke-linecap="round" stroke-linejoin="round"/>
</g>
</g>
<defs>
<clipPath id="clip0_3237_27860">
<rect width="24" height="24" fill="white" transform="translate(0 0.5)"/>
</clipPath>
</defs>
</svg>
