<svg width="25" height="24" viewBox="0 0 25 24" fill="none" xmlns="http://www.w3.org/2000/svg">
<path d="M13.371 6.32632C14.5709 6.52742 15.6608 7.09414 16.531 7.9625C17.4011 8.83087 17.9644 9.91861 18.1705 11.116M13.5542 2.40039C15.6883 2.76145 17.6347 3.77149 19.1826 5.3117C20.7306 6.85647 21.7381 8.79887 22.0999 10.9286M20.4329 19.4021C20.4329 19.4021 19.2742 20.5401 18.9903 20.8737C18.5277 21.3673 17.9827 21.6004 17.2683 21.6004C17.1996 21.6004 17.1263 21.6004 17.0576 21.5958C15.6974 21.509 14.4335 20.9788 13.4855 20.5264C10.8933 19.2741 8.61724 17.4962 6.72582 15.243C5.16415 13.3646 4.11997 11.6279 3.42844 9.76321C3.00253 8.62519 2.84682 7.73854 2.91551 6.90217C2.96131 6.36744 3.1674 5.92412 3.54751 5.54478L5.10919 3.9863C5.33359 3.77606 5.57174 3.6618 5.8053 3.6618C6.09382 3.6618 6.32739 3.83547 6.47394 3.98173C6.47852 3.9863 6.4831 3.99087 6.48768 3.99544C6.76704 4.25595 7.03266 4.5256 7.31202 4.81353C7.45399 4.95978 7.60054 5.10603 7.74709 5.25685L8.99735 6.50455C9.4828 6.98901 9.4828 7.4369 8.99735 7.92136C8.86454 8.0539 8.73631 8.18644 8.6035 8.31441C8.2188 8.70746 8.521 8.40587 8.12257 8.76236C8.11341 8.7715 8.10425 8.77607 8.09967 8.78521C7.70582 9.17826 7.77909 9.56217 7.86153 9.82268C7.86611 9.83639 7.87069 9.8501 7.87527 9.86381C8.20042 10.6499 8.65839 11.3903 9.35451 12.2724L9.35909 12.277C10.6231 13.8309 11.9558 15.042 13.4259 15.9698C13.6136 16.0886 13.806 16.1846 13.9892 16.276C14.154 16.3583 14.3097 16.436 14.4426 16.5182C14.4609 16.5274 14.4792 16.5411 14.4975 16.5502C14.6532 16.6279 14.7998 16.6645 14.9509 16.6645C15.331 16.6645 15.5692 16.4268 15.647 16.3491L16.5447 15.4533C16.7004 15.2979 16.9477 15.1105 17.2362 15.1105C17.5202 15.1105 17.7537 15.2887 17.8957 15.4441C17.9003 15.4487 17.9003 15.4487 17.9049 15.4533L20.4283 17.9715C20.9 18.4377 20.4329 19.4021 20.4329 19.4021Z" stroke="#F1F1F1" stroke-width="2" stroke-linecap="round" stroke-linejoin="round"/>
</svg>
