<svg width="204" height="44" viewBox="0 0 204 44" fill="none" xmlns="http://www.w3.org/2000/svg">
<path id="logoPRO32" fill-rule="evenodd" clip-rule="evenodd" d="M109.781 0.699219H98.4541C87.6859 0.699219 80.7274 6.23565 80.7274 15.8101V28.8893C80.7274 38.4384 87.6605 44.0002 98.4541 44.0002H109.781C120.549 44.0002 127.508 38.4638 127.508 28.8893V15.8101C127.508 6.26106 120.574 0.699219 109.781 0.699219ZM115.698 28.5845C115.622 32.1401 113.082 34.0447 108.892 34.0447H99.3937C95.1779 34.0447 92.6383 32.1401 92.5874 28.5845V16.0894C92.6636 12.534 95.2033 10.6292 99.3937 10.6292H108.892C113.108 10.6292 115.647 12.534 115.698 16.0894V28.5845ZM0 1.03078H20.8504V1.00538C31.6186 1.00538 38.5773 6.08466 38.5773 16.1417C38.5773 26.1987 30.8567 31.5065 20.241 31.5065H18.006L11.8348 22.2368H20.0124C24.2028 22.2368 26.7679 20.2305 26.7679 16.5734C26.7679 12.9163 24.2028 10.9608 19.9363 10.9608H11.8348V22.2368V43.6969H0V1.03078ZM60.7949 1.01452C71.5884 1.01452 78.5471 6.55093 78.5471 16.1254H78.5725C78.5725 22.6777 75.2709 27.2237 70.0138 29.5855L79.3597 43.6298H66.052L51.8046 22.2206H59.9568C64.1473 22.2206 66.7123 20.2143 66.7123 16.5571C66.7123 12.9001 64.1473 10.9445 59.8806 10.9445H51.7792V43.6806H39.9444V1.01452H60.7949ZM161.841 11.039L153.359 17.5151H153.333C159.479 18.6071 163.721 22.823 163.721 30.0102C163.721 38.4417 158.54 43.6735 150.488 43.6735H128.876V33.7434L148.507 33.718C150.413 33.6165 151.911 32.1181 151.911 30.1879C151.911 28.2578 150.413 26.734 148.507 26.6578H144.317L138.578 17.9976L147.136 10.912H128.902V1.03279H161.841V11.039ZM176.897 31.9982C176.974 28.4936 179.462 26.6142 183.602 26.6142H189.316C197.24 26.6142 203.03 22.1698 203.03 13.7127C203.03 5.25573 197.823 1.01452 189.773 1.01452H165.825V10.9191H187.234C189.723 10.9191 191.221 12.062 191.221 14.1953C191.221 16.3286 189.723 17.4968 187.285 17.4968H181.849C171.641 17.7254 165.087 23.1602 165.087 32.3538V43.6805H176.923V31.9982H176.897ZM202.224 43.6649H177.096L183.65 33.7094H202.224V43.6649Z" fill="url(#paint0_linear_5170_10448)"/>
<defs>
<linearGradient id="paint0_linear_5170_10448" x1="-2.67323" y1="78.8904" x2="190.545" y2="39.8009" gradientUnits="userSpaceOnUse">
<stop stop-color="#006FB9"/>
<stop offset="0.36" stop-color="#008AB8"/>
<stop offset="0.76" stop-color="#00A4B8"/>
<stop offset="1" stop-color="#00AEB8"/>
</linearGradient>
</defs>
</svg>
