<svg width="25" height="24" viewBox="0 0 25 24" fill="none" xmlns="http://www.w3.org/2000/svg">
<path d="M12.497 2.40039C7.26832 2.40202 2.89994 6.77604 2.89996 12.0004C2.89997 13.8838 3.46054 15.7444 4.50682 17.3173L2.89697 21.6004L8.28773 20.6255C9.60457 21.2691 11.0506 21.5916 12.497 21.5926C17.7301 21.5962 22.1026 17.2279 22.1026 12.0004C22.1026 6.77878 17.7285 2.3973 12.497 2.40039Z" stroke="#F1F1F1" stroke-width="2" stroke-linecap="round" stroke-linejoin="round"/>
<path d="M13.0945 16.9101C14.6092 17.8825 16.1884 17.1743 17.2882 16.354C18.0479 15.7874 18.0227 14.6946 17.3738 14.0039L16.0944 12.6418C15.6091 13.1271 14.6633 13.3673 14.0062 13.1673C12.5937 12.7375 12.0009 12.0015 11.5205 11.2531C10.9688 10.3936 11.5918 9.10989 12.0772 8.62458L10.6511 7.32264C10.0498 6.77378 9.13664 6.68117 8.61207 7.3037C7.57415 8.53536 6.92866 10.4053 7.69312 11.596C9.06543 13.7334 10.9569 15.538 13.0945 16.9101Z" stroke="#F1F1F1" stroke-width="2" stroke-linecap="round" stroke-linejoin="round"/>
</svg>
