<svg width="72" height="78" viewBox="0 0 72 78" fill="none" xmlns="http://www.w3.org/2000/svg">
<g id="cog--work-loading-cog-gear-settings-machine">
<path id="Vector" d="M25.8866 11.8555L28.3438 5.51261C28.7582 4.43869 29.4873 3.51496 30.4355 2.86239C31.3838 2.20983 32.507 1.85887 33.6581 1.85547H38.3438C39.4949 1.85887 40.6181 2.20983 41.5664 2.86239C42.5146 3.51496 43.2437 4.43869 43.6581 5.51261L46.1152 11.8555L54.4578 16.6555L61.2007 15.6269C62.3236 15.4745 63.4664 15.6593 64.4841 16.1579C65.5013 16.6564 66.3476 17.4462 66.915 18.4269L69.2007 22.4269C69.7864 23.4232 70.0567 24.5736 69.975 25.7264C69.8933 26.8792 69.4641 27.9802 68.7436 28.884L64.5721 34.1983V43.7983L68.8578 49.1126C69.5784 50.0164 70.0076 51.1174 70.0893 52.2702C70.171 53.423 69.9007 54.5735 69.315 55.5698L67.0293 59.5698C66.4618 60.5503 65.6156 61.34 64.5984 61.8389C63.5807 62.3372 62.4378 62.5223 61.315 62.3698L54.5721 61.3412L46.2295 66.1412L43.7724 72.484C43.358 73.5578 42.6289 74.4818 41.6806 75.1343C40.7324 75.7869 39.6092 76.1378 38.4581 76.1412H33.6581C32.507 76.1378 31.3838 75.7869 30.4355 75.1343C29.4873 74.4818 28.7582 73.5578 28.3438 72.484L25.8866 66.1412L17.5438 61.3412L10.8009 62.3698C9.67819 62.5223 8.53545 62.3372 7.51796 61.8389C6.50053 61.34 5.65425 60.5503 5.08665 59.5698L2.80093 55.5698C2.21522 54.5735 1.94539 53.423 2.02699 52.2702C2.10859 51.1174 2.53785 50.0164 3.25808 49.1126L7.4295 43.7983V34.1983L3.14379 28.884C2.42356 27.9802 1.9943 26.8792 1.9127 25.7264C1.8311 24.5736 2.10093 23.4232 2.68665 22.4269L4.97236 18.4269C5.53996 17.4462 6.38625 16.6564 7.40368 16.1579C8.42116 15.6593 9.5639 15.4745 10.6866 15.6269L17.4295 16.6555L25.8866 11.8555ZM24.5724 38.9983C24.5724 41.2587 25.2426 43.4683 26.4984 45.3477C27.7542 47.2271 29.5391 48.6919 31.6274 49.557C33.7157 50.4219 36.0136 50.6483 38.2305 50.2073C40.4474 49.7663 42.4838 48.6779 44.0822 47.0795C45.6805 45.4812 46.7689 43.4448 47.2099 41.2279C47.6509 39.011 47.4246 36.7131 46.5596 34.6248C45.6946 32.5365 44.2297 30.7516 42.3503 29.4958C40.4709 28.24 38.2613 27.5698 36.0009 27.5698C32.9699 27.5698 30.063 28.7738 27.9197 30.9171C25.7765 33.0604 24.5724 35.9673 24.5724 38.9983Z" stroke="#01CA9A" stroke-width="2" stroke-linecap="round" stroke-linejoin="round"/>
</g>
</svg>
