<svg width="66" height="78" viewBox="0 0 66 78" fill="none" xmlns="http://www.w3.org/2000/svg">
<g id="brain-cognitive--health-medical-brain-cognitive-specialities">
<path id="Vector" d="M18.7134 76.1434V61.8577H7.28488C5.76945 61.8577 4.31573 61.2554 3.2443 60.184C2.17288 59.112 1.57059 57.6588 1.57059 56.1432V33.286C1.57173 27.7004 3.06145 22.2161 5.88602 17.3975C8.71059 12.5788 12.7689 8.6001 17.642 5.87079C22.5154 3.1415 28.028 1.76026 33.6125 1.86927C39.197 1.97828 44.6516 3.5736 49.4147 6.49102C54.1778 9.40839 58.0773 13.5425 60.712 18.4676C63.3465 23.3928 64.6209 28.9312 64.404 34.5125C64.187 40.0939 62.4866 45.5166 59.4777 50.2224C56.4688 54.9282 52.2601 58.7468 47.2849 61.2863V76.1434" stroke="#01CA9A" stroke-width="2" stroke-linecap="round" stroke-linejoin="round"/>
<path id="Ellipse 53" d="M41.5697 17.9224C49.4526 22.4736 52.7322 31.9358 49.7753 40.2131C49.0926 42.1242 47.0297 43.0853 45.068 42.5656C35.1421 39.9361 25.036 32.8232 18.8962 27.2774C17.2695 25.8081 16.9328 23.3527 18.3818 21.708C24.1024 15.215 33.7871 13.4292 41.5697 17.9224Z" stroke="#01CA9A" stroke-width="2" stroke-linecap="round" stroke-linejoin="round"/>
</g>
</svg>
