<svg width="80" height="80" viewBox="0 0 80 80" fill="none" xmlns="http://www.w3.org/2000/svg">
<g id="confidential-information">
<g id="confidential-information_2">
<path id="Vector 1032" d="M3.69336 30.9531V48.9486" stroke="#01CA9A" stroke-width="2" stroke-linecap="round" stroke-linejoin="round"/>
<path id="Vector 1034" d="M3.69336 2.91797V20.9134" stroke="#01CA9A" stroke-width="2" stroke-linecap="round" stroke-linejoin="round"/>
<path id="Vector 1036" d="M3.69336 58.9922V76.9876" stroke="#01CA9A" stroke-width="2" stroke-linecap="round" stroke-linejoin="round"/>
<path id="Vector 1035" d="M38.7246 2.91797V20.9134" stroke="#01CA9A" stroke-width="2" stroke-linecap="round" stroke-linejoin="round"/>
<path id="Vector 1039" d="M49.4531 2.91797V20.9134" stroke="#01CA9A" stroke-width="2" stroke-linecap="round" stroke-linejoin="round"/>
<path id="Vector 1038" d="M14.9707 30.9531V48.9486" stroke="#01CA9A" stroke-width="2" stroke-linecap="round" stroke-linejoin="round"/>
<path id="Rectangle 591" d="M15.0664 9.62888C15.0664 5.92254 18.071 2.91797 21.7773 2.91797C25.4837 2.91797 28.4882 5.92254 28.4882 9.62888V14.1003C28.4882 17.8065 25.4837 20.8112 21.7773 20.8112C18.071 20.8112 15.0664 17.8065 15.0664 14.1003V9.62888Z" stroke="#01CA9A" stroke-width="2" stroke-linecap="round" stroke-linejoin="round"/>
<path id="Rectangle 592" d="M25.2285 37.664C25.2285 33.9578 28.2331 30.9531 31.9394 30.9531C35.6458 30.9531 38.6503 33.9577 38.6503 37.664V42.1354C38.6503 45.8418 35.6458 48.8463 31.9394 48.8463C28.2331 48.8463 25.2285 45.8418 25.2285 42.1354V37.664Z" stroke="#01CA9A" stroke-width="2" stroke-linecap="round" stroke-linejoin="round"/>
<path id="Rectangle 593" d="M15.0664 65.8046C15.0664 62.0983 18.071 59.0938 21.7773 59.0938C25.4837 59.0938 28.4882 62.0983 28.4882 65.8046V70.276C28.4882 73.9823 25.4837 76.9869 21.7773 76.9869C18.071 76.9869 15.0664 73.9823 15.0664 70.276V65.8046Z" stroke="#01CA9A" stroke-width="2" stroke-linecap="round" stroke-linejoin="round"/>
<g id="eye-optic--health-medical-eye-optic">
<path id="Vector 2095" d="M57.6181 52.4609C44.2591 52.4609 38.6504 64.4747 38.6504 64.7239C38.6504 64.9732 44.2591 76.9869 57.6181 76.9869C70.9772 76.9869 76.5859 64.9732 76.5859 64.7239C76.5859 64.4747 70.9772 52.4609 57.6181 52.4609Z" stroke="#01CA9A" stroke-width="2" stroke-linecap="round" stroke-linejoin="round"/>
<path id="Ellipse 902" d="M56.3788 70.1297C59.3639 70.8132 62.3379 68.9475 63.0214 65.9624C63.705 62.9773 61.8393 60.0033 58.8542 59.3197C55.8691 58.6362 52.8951 60.5019 52.2115 63.487C51.528 66.4721 53.3937 69.4461 56.3788 70.1297Z" stroke="#01CA9A" stroke-width="2" stroke-linecap="round" stroke-linejoin="round"/>
</g>
</g>
</g>
</svg>
