<svg width="80" height="80" viewBox="0 0 80 80" fill="none" xmlns="http://www.w3.org/2000/svg">
<g id="worker-capacity-control">
<g id="desktop-emoji--device-display-desktop-padlock-smiley">
<path id="Vector" d="M77.1431 60.1183V14.404C77.1431 12.8261 75.8637 11.5469 74.286 11.5469H5.71456C4.19904 11.5469 2.85742 12.8885 2.85742 14.404V60.1183C2.85742 61.6337 4.19904 62.9754 5.71456 62.9754H74.286C75.8014 62.9754 77.1431 61.6337 77.1431 60.1183Z" stroke="#01CA9A" stroke-width="2" stroke-linecap="round" stroke-linejoin="round"/>
<path id="Vector_2" d="M34.2866 62.9766L28.5723 77.2623" stroke="#01CA9A" stroke-width="2" stroke-linecap="round" stroke-linejoin="round"/>
<path id="Vector_3" d="M45.7148 62.9766L51.4291 77.2623" stroke="#01CA9A" stroke-width="2" stroke-linecap="round" stroke-linejoin="round"/>
<path id="Vector_4" d="M22.8574 77.2617H57.1431" stroke="#01CA9A" stroke-width="2" stroke-linecap="round" stroke-linejoin="round"/>
</g>
<g id="eye-optic--health-medical-eye-optic">
<path id="Vector 2095" d="M39.999 22.8281C24.2767 22.8281 17.6758 36.9671 17.6758 37.2605C17.6758 37.5539 24.2767 51.6929 39.999 51.6929C55.7213 51.6929 62.3222 37.5539 62.3222 37.2605C62.3222 36.9671 55.7213 22.8281 39.999 22.8281Z" stroke="#01CA9A" stroke-width="2" stroke-linecap="round" stroke-linejoin="round"/>
<path id="Ellipse 902" d="M38.5396 43.6242C42.0528 44.4287 45.5529 42.2329 46.3574 38.7198C47.1619 35.2066 44.9661 31.7065 41.4529 30.902C37.9398 30.0975 34.4396 32.2933 33.6351 35.8064C32.8306 39.3196 35.0265 42.8197 38.5396 43.6242Z" stroke="#01CA9A" stroke-width="2" stroke-linecap="round" stroke-linejoin="round"/>
</g>
</g>
</svg>
